<?xml version="1.0" encoding="utf-8"?>
<!-- Generator: Adobe Illustrator 21.1.0, SVG Export Plug-In . SVG Version: 6.00 Build 0)  -->
<svg xmlns="http://www.w3.org/2000/svg" xmlns:xlink="http://www.w3.org/1999/xlink" version="1.1" id="Layer_1" x="0px" y="0px" viewBox="0 0 200 200" enable-background="new 0 0 200 200" xml:space="preserve">
<path fill="#f9a01e" d="M197.8,108.6l-0.1-0.1c-3.3-3.9-8-6.1-13.1-6.1c-1.3,0-2.6,0.2-3.9,0.5c1-2,2-4,2.8-6.2  c3.2-2.9,5.2-6.9,5.5-11.3c0.3-4.5-1.1-8.9-4.1-12.4l-0.1-0.1c-0.9-1-2.4-1.1-3.4-0.2l-0.1,0.1c-6.8,5.8-7.8,15.9-2.6,23  c-3.5,8.4-8.5,15.6-14.5,21.3V94.1c0.6-0.2,1-0.6,1.3-1.2c4.3-8.4,5.7-17.7,4.7-26.8c3.8-0.6,7.2-2.5,9.8-5.4  c3.1-3.4,4.6-7.7,4.4-12.3v-0.1c-0.1-1.3-1.2-2.3-2.5-2.3h-0.2c-4.5,0.2-8.7,2.2-11.8,5.5c-0.9,1-1.7,2.1-2.3,3.3  c-0.9-2.7-2.1-5.4-3.5-8v-2c2.9-1.3,5.4-3.3,7.3-6c2.6-3.8,3.5-8.3,2.7-12.8l0-0.1c-0.2-1.3-1.5-2.2-2.8-1.9l-0.1,0  c-4.5,0.8-8.3,3.4-10.9,7.1c-1.2,1.8-2.1,3.7-2.5,5.8c-2.2-2.8-4.7-5.4-7.4-7.8c2.6-2.5,4.4-5.7,5.1-9.3c0.8-4.5-0.1-9-2.7-12.7  L152.7,7c-0.3-0.5-0.9-0.9-1.5-1c-0.6-0.1-1.3,0-1.8,0.4l-0.1,0.1c-3.7,2.6-6.3,6.5-7.1,10.9c-0.3,1.8-0.4,3.6-0.1,5.4  c-1.9-1.2-3.8-2.3-5.9-3.4c-3.2-4.3-8.3-6.8-13.6-6.8c-3.5,0-6.9,1.1-9.8,3.1l-0.1,0.1c-0.5,0.4-0.9,0.9-1,1.6  c-0.1,0.6,0,1.3,0.4,1.8l0.1,0.1c3.2,4.5,8.4,7.2,13.9,7.2c3.1,0,6.1-0.8,8.7-2.4c2.6,1.3,5,2.9,7.2,4.5c-5.5,1.2-10,5.1-12.1,10.3  H70.1C68,33.6,63.5,29.7,58,28.5c2.3-1.6,4.7-3.1,7.2-4.5c2.6,1.6,5.6,2.4,8.7,2.4l0,0c5.5,0,10.7-2.7,13.9-7.2l0.1-0.1  c0.8-1.1,0.5-2.6-0.6-3.3l-0.1-0.1c-2.9-2-6.3-3.1-9.8-3.1c-5.4,0-10.4,2.5-13.6,6.8c-2,1-4,2.2-5.9,3.4c0.2-1.8,0.2-3.6-0.1-5.4  c-0.8-4.5-3.3-8.4-7.1-11l-0.1-0.1c-0.5-0.3-1.2-0.5-1.8-0.4c-0.6,0.1-1.2,0.5-1.5,1L47.2,7c-4.8,7-3.7,16.4,2.4,22.1  c-2.7,2.4-5.2,5.1-7.4,7.8c-1.5-6.4-6.6-11.6-13.5-12.9l-0.1,0c-1.3-0.2-2.6,0.6-2.8,1.9l0,0.1c-1.5,7.9,2.8,15.7,10,18.8v2  c-1.4,2.6-2.5,5.3-3.5,8c-0.6-1.2-1.4-2.3-2.3-3.3c-3.1-3.4-7.2-5.3-11.8-5.5H18c-1.3-0.1-2.4,1-2.5,2.3v0.1  c-0.2,4.5,1.3,8.9,4.4,12.3c2.6,2.9,6.1,4.7,9.8,5.4c-1,9.1,0.4,18.3,4.7,26.8c0.3,0.6,0.8,1,1.3,1.2v23  c-6.1-5.8-11.1-13.1-14.5-21.3c2.4-3.3,3.6-7.2,3.3-11.3c-0.3-4.5-2.4-8.7-5.9-11.6l-0.1-0.1c-1-0.9-2.5-0.8-3.4,0.2L15.1,73  c-3,3.4-4.4,7.9-4.1,12.4c0.3,4.4,2.3,8.4,5.5,11.3c0.8,2.1,1.8,4.2,2.8,6.2c-1.3-0.3-2.6-0.5-3.9-0.5c-5.1,0-9.8,2.2-13.1,6.1  l-0.1,0.1c-0.4,0.5-0.6,1.1-0.5,1.7c0.1,0.6,0.3,1.2,0.9,1.6l0.1,0.1c3.1,2.6,6.9,4,10.9,4l0,0c4.2,0,8.2-1.5,11.2-4.2  c3.2,4.4,6.9,8.2,11,11.6v17.9l-0.1,0.1c-6.5,2.7-10.5,9-10.5,15.6c-2.1-1.9-4.1-3.9-5.9-6.1c1.3-3.8,1.2-8-0.4-11.8  c-1.7-4.2-5-7.5-9.1-9.3l-0.1-0.1c-0.6-0.2-1.2-0.2-1.8,0c-0.6,0.2-1,0.7-1.3,1.3l-0.1,0.1c-1.8,4.2-1.8,8.8-0.1,13  c1.7,4.1,4.7,7.3,8.7,9.1c1.5,1.7,3,3.4,4.6,5c-6.4,0.5-12,4.5-14.4,10.6l-0.1,0.1c-0.2,0.6-0.2,1.2,0,1.8s0.7,1,1.3,1.3l0.1,0.1  c2,0.8,4.2,1.3,6.4,1.3l0,0c6.1,0,11.6-3.2,14.6-8.3c2.9,2.1,6,4,9.2,5.5c-1.9,0.9-3.6,2.2-5,3.7c-3.1,3.3-4.7,7.6-4.6,12.2v0.1  c0,0.6,0.3,1.2,0.8,1.7c0.5,0.4,1,0.6,1.6,0.6c0,0,0.1,0,0.1,0h0.1c8.4-0.3,15.2-6.6,16.3-14.7c2.3,0.7,4.7,1.3,7.1,1.7  c1.1,0.2,2.2,0.3,3.3,0.5c-4.3,3.8-6.6,9.6-5.5,15.7l0,0.1c0.2,1.2,1.2,2,2.3,2c0.1,0,0.3,0,0.4,0l0.1,0c8.6-1.5,14.6-9.2,14.1-17.7  c8.7-0.9,16.8-4,23.7-9.2h5l-2.3,3.2c-4.4,6.2-4.4,16.1,0,22.3c0.8,1.1,2.3,1.3,3.3,0.6c1.1-0.8,1.3-2.3,0.6-3.3  c-3.2-4.5-3.2-12.2,0-16.8l1.6-2.2l1.6,2.2c3.2,4.5,3.2,12.2,0,16.8c-0.8,1.1-0.5,2.6,0.6,3.3c0.4,0.3,0.9,0.4,1.4,0.4  c0.8,0,1.5-0.3,2-1c4.4-6.2,4.4-16.1,0-22.3l-2.3-3.2h5.3c6.9,5.2,15,8.3,23.7,9.2c-0.4,8.5,5.5,16.2,14.1,17.7l0.1,0  c0.1,0,0.3,0,0.4,0c1.1,0,2.2-0.8,2.3-2l0-0.1c1-6-1.3-11.9-5.5-15.7c1.1-0.1,2.2-0.3,3.3-0.5c2.4-0.4,4.8-1,7.1-1.7  c0.5,3.5,2,6.7,4.4,9.3c3.1,3.3,7.3,5.2,11.9,5.4h0.1c0,0,0.1,0,0.1,0c0.6,0,1.2-0.2,1.6-0.6c0.5-0.4,0.7-1,0.8-1.7v-0.1  c0.2-6.9-3.8-13.1-9.7-15.9c3.2-1.6,6.3-3.4,9.2-5.5c3,5.1,8.5,8.3,14.6,8.3c2.2,0,4.4-0.4,6.4-1.3l0.1-0.1c0.6-0.2,1-0.7,1.3-1.3  c0.2-0.6,0.2-1.2,0-1.8l-0.1-0.1c-2.4-6-8-10.1-14.4-10.6c1.6-1.6,3.1-3.2,4.6-5c4-1.8,7.1-5,8.7-9.1c1.7-4.2,1.7-8.9-0.1-13  l-0.1-0.1c-0.2-0.6-0.7-1-1.3-1.3c-0.6-0.2-1.2-0.2-1.8,0l-0.1,0.1c-4.2,1.8-7.5,5.1-9.2,9.3c-1.6,3.8-1.7,7.9-0.4,11.8  c-1.9,2.2-3.8,4.2-5.9,6.1c0-2.2-0.5-4.4-1.3-6.5c-1.7-4.2-5-7.5-9.2-9.2l-0.1-0.1v-17.9c4-3.3,7.7-7.2,11-11.5  c3.1,2.7,7.1,4.3,11.2,4.3c4,0,7.9-1.4,10.9-4l0.1-0.1c0.5-0.4,0.8-1,0.9-1.6C198.4,109.7,198.2,109.1,197.8,108.6z M173.6,54.9  c1.6-1.8,3.7-3,6-3.6c-0.4,2.3-1.4,4.5-3,6.3c-1.6,1.8-3.7,3-6,3.6C170.9,58.8,171.9,56.6,173.6,54.9z M126,21.6  c-3.1,0-6.1-1.2-8.4-3.3c1.5-0.7,3.2-1,4.9-1c3.1,0,6.1,1.2,8.4,3.3C129.4,21.2,127.7,21.6,126,21.6z M77.5,17.3  c1.7,0,3.3,0.3,4.9,1c-2.3,2.1-5.2,3.3-8.4,3.3c-1.7,0-3.3-0.3-4.9-1C71.4,18.5,74.4,17.3,77.5,17.3z M23.5,57.5  c-1.6-1.8-2.7-4-3-6.3c2.3,0.6,4.4,1.8,6,3.6c1.6,1.8,2.7,4,3,6.3C27.2,60.6,25.1,59.3,23.5,57.5z M18.2,91.6  c-1.5-1.9-2.3-4.1-2.5-6.5c-0.2-2.4,0.3-4.8,1.5-6.9c1.5,1.9,2.3,4.1,2.5,6.5C19.9,87.1,19.4,89.5,18.2,91.6z M13.6,111.2  c-2,0-4-0.5-5.8-1.5c2.2-1.7,4.8-2.6,7.6-2.6c2,0,4,0.5,5.8,1.5C19,110.3,16.3,111.2,13.6,111.2z M15,147.8c-2-1.3-3.5-3.2-4.4-5.5  c-0.9-2.2-1.1-4.7-0.7-7C14,138.1,15.9,143,15,147.8z M12.9,168.5c-0.8,0-1.5-0.1-2.2-0.2c2.2-3.4,6-5.4,10.2-5.4  c0.7,0,1.5,0.1,2.2,0.2C20.8,166.5,17,168.5,12.9,168.5z M185.7,140.8c0.9-2.2,2.4-4.1,4.4-5.5c0.5,2.3,0.2,4.7-0.7,7  c-0.9,2.2-2.4,4.1-4.4,5.5C184.5,145.5,184.7,143.1,185.7,140.8z M179.2,162.9c4.2,0,7.9,2.1,10.2,5.4c-0.7,0.1-1.5,0.2-2.2,0.2  c-4.2,0-7.9-2.1-10.2-5.4C177.7,163,178.4,162.9,179.2,162.9z M40.5,162.5V43.5h118.9v118.9H40.5z M165.7,68.4  c0.3,4.9-0.1,9.9-1.4,14.6V69.4C164.7,69.1,165.2,68.8,165.7,68.4z M164.3,33.8c1.4-2,3.3-3.5,5.4-4.4c-0.1,2.4-0.8,4.7-2.2,6.7  c-1,1.5-2.3,2.7-3.8,3.6c-0.3-0.5-0.9-0.8-1.5-0.9C162.5,37,163.2,35.3,164.3,33.8z M153.1,38.8h-5.8c0.9-1.2,1.7-2.4,2.3-3.8  C150.9,36.2,152,37.4,153.1,38.8z M146.8,18.2c0.4-2.4,1.6-4.5,3.2-6.2c0.9,2.2,1.2,4.6,0.8,7c-0.4,2.4-1.6,4.5-3.2,6.2  C146.7,22.9,146.4,20.5,146.8,18.2z M145.4,32.8c-1,2.5-2.8,4.6-5,6h-5.1C137.3,35.2,141.1,32.9,145.4,32.8z M64.8,38.8h-5.1  c-2.3-1.4-4-3.4-5-6C58.9,32.9,62.7,35.2,64.8,38.8z M50,11.9c1.6,1.7,2.7,3.8,3.2,6.2c0.4,2.4,0.2,4.8-0.8,7  C49.1,21.6,48.1,16.4,50,11.9z M50.4,34.9c0.6,1.4,1.3,2.7,2.3,3.8h-5.8C48,37.4,49.2,36.2,50.4,34.9z M30.3,29.4  c4,1.6,6.8,5.2,7.4,9.4c-0.6,0.1-1.1,0.4-1.5,0.9C32.7,37.6,30.4,33.7,30.3,29.4z M34.4,68.4c0.5,0.3,0.9,0.7,1.4,1v13.6  C34.4,78.3,34,73.4,34.4,68.4z M30.1,159.3c-0.9-4.8,1.2-9.7,5.2-12.4C36.2,151.7,34.1,156.6,30.1,159.3z M35.8,160.6v4  c-0.9-0.5-1.8-1-2.7-1.6C34.1,162.3,35,161.5,35.8,160.6z M32,183.8c0.4-2.3,1.5-4.5,3.1-6.3c1.7-1.8,3.7-3,6.1-3.5  C40.4,178.8,36.7,182.7,32,183.8z M53.9,171.2c-4.5-0.8-8.9-2.1-13.1-4h17c0.4,1.6,1,3.2,1.8,4.7C57.8,171.8,55.9,171.6,53.9,171.2z   M55.4,188.8c0.2-4.8,3.2-9.2,7.7-11C63,182.6,59.9,187,55.4,188.8z M62.9,167.3h2.9c-0.3,1.1-0.7,2.1-1.3,3.1  C63.7,169.4,63.2,168.3,62.9,167.3z M69.2,171.5c0.7-1.3,1.1-2.8,1.4-4.3h12C78.5,169.4,74,170.8,69.2,171.5z M117.4,167.3h12  c0.3,1.5,0.8,2.9,1.4,4.3C126,170.8,121.5,169.4,117.4,167.3z M134.2,167.3h2.9c-0.4,1.1-0.9,2.2-1.6,3.1  C135,169.4,134.6,168.3,134.2,167.3z M144.6,188.8c-4.5-1.8-7.6-6.1-7.7-11C141.3,179.6,144.4,183.9,144.6,188.8z M146.1,171.2  c-1.9,0.3-3.9,0.5-5.8,0.6c0.8-1.5,1.5-3,1.9-4.7h17C155,169.1,150.6,170.5,146.1,171.2z M168,183.8c-2.3-0.5-4.4-1.7-6.1-3.5  c-1.7-1.8-2.7-3.9-3.1-6.3C163.5,175.2,167.2,179,168,183.8z M164.8,146.9c2,1.3,3.5,3.2,4.4,5.4s1.2,4.6,0.8,7  C165.9,156.6,163.9,151.7,164.8,146.9z M167,163c-0.9,0.6-1.8,1.1-2.7,1.6v-4C165.1,161.5,166,162.3,167,163z M182.8,78.2  c1.2,2.1,1.7,4.4,1.5,6.8c-0.2,2.4-1,4.7-2.5,6.5C179.4,87.3,179.9,82,182.8,78.2z M186.4,111.2c-2.8,0-5.4-0.9-7.6-2.6  c1.8-0.9,3.8-1.5,5.8-1.5c2.8,0,5.4,0.9,7.6,2.6C190.5,110.7,188.5,111.2,186.4,111.2z"/>
<g transform="translate(23.2 42.4) scale(0.15)"><path d="m462.89 195.07c-0.01 0-9.7 7.03-21.54 15.63l-21.52 15.62 5 0.01 5 0.02v40.4h-6.51v7.79h161.81v-7.79h-5.33v-37.07l3.54-0.01 3.54-0.02-3.53-5.66-3.54-5.67-42.45-0.01-42.47-0.02-2.71-1.97-2.72-1.98v-15.07h-9.85l-0.01 3.95-0.01 3.96-8.34-6.06c-4.59-3.32-8.35-6.05-8.36-6.05zm-22.44 40.92h4.97 4.97v9.94h-9.94v-9.94zm39.68 0l4.96 0.01 4.96 0.01 0.01 4.96 0.02 4.96h-9.95v-9.94zm30.71 0h4.95 4.95v9.94h-9.9v-9.94zm21.74 0l4.96 0.01 4.96 0.01 0.02 4.96 0.01 4.96h-9.95v-9.94zm21.74 0h4.97 4.98v9.94h-9.95v-9.94zm-94.96 7.48h5.9 5.9v23.64h-11.8v-23.64zm136.76 8.88c-0.22 0-0.57 0.03-0.78 0.05s-0.57 0.08-0.79 0.13c-0.23 0.04-0.62 0.15-0.87 0.23-0.26 0.08-0.68 0.25-0.94 0.38-0.27 0.12-0.7 0.37-0.98 0.55-0.27 0.18-0.68 0.49-0.9 0.69-0.23 0.19-0.57 0.53-0.77 0.76-0.19 0.22-0.5 0.63-0.68 0.91-0.18 0.27-0.43 0.71-0.55 0.97s-0.29 0.69-0.38 0.96c-0.08 0.27-0.19 0.67-0.23 0.88-0.05 0.22-0.11 0.67-0.14 1.01-0.04 0.46-0.04 0.79 0 1.25 0.03 0.35 0.11 0.88 0.18 1.17 0.06 0.3 0.21 0.79 0.33 1.1 0.11 0.3 0.31 0.74 0.44 0.97 0.12 0.24 0.36 0.61 0.52 0.83 0.15 0.22 0.43 0.56 0.6 0.76 0.17 0.19 0.51 0.52 0.75 0.72s0.6 0.47 0.8 0.61c0.2 0.13 0.59 0.35 0.87 0.49s0.71 0.32 0.95 0.41c0.24 0.08 0.62 0.19 0.84 0.23 0.23 0.05 0.46 0.1 0.53 0.11l0.11 0.03v5.99h2.36v-5.99l0.3-0.06c0.16-0.03 0.38-0.08 0.5-0.11 0.11-0.02 0.39-0.1 0.61-0.18 0.23-0.07 0.63-0.23 0.9-0.36 0.26-0.12 0.75-0.4 1.08-0.61 0.41-0.28 0.76-0.57 1.18-0.99 0.32-0.32 0.73-0.79 0.9-1.04 0.18-0.25 0.45-0.7 0.6-1.01 0.16-0.31 0.37-0.8 0.47-1.09 0.09-0.29 0.23-0.77 0.29-1.07 0.09-0.44 0.11-0.7 0.11-1.51 0-0.74-0.02-1.09-0.09-1.46-0.05-0.27-0.18-0.76-0.29-1.09s-0.31-0.84-0.46-1.13-0.41-0.73-0.58-0.98c-0.18-0.28-0.58-0.73-0.95-1.11-0.39-0.39-0.83-0.77-1.11-0.96-0.25-0.17-0.69-0.42-0.97-0.56s-0.71-0.33-0.95-0.41c-0.24-0.09-0.64-0.2-0.9-0.26-0.25-0.06-0.7-0.13-0.99-0.16s-0.71-0.05-0.92-0.05zm-199.05 96.88c-0.8 0.02-1.76 0.99-2.88 2.89-5.53 9.1-10.43 17.29-14.7 24.55-4.26 7.26-8.47 14.35-12.62 21.27-4.04 6.8-8.36 13.77-12.97 20.92-4.5 7.03-9.8 14.98-15.91 23.86-1.15 0.81-2.88 1.5-5.18 2.08-2.19 0.46-4.44 0.98-6.75 1.55-2.3 0.46-4.38 1.04-6.22 1.73-1.85 0.58-2.94 1.44-3.29 2.6 0.23 0.34 0.87 0.86 1.91 1.55 1.03 0.69 2.13 1.44 3.28 2.25 1.27 0.81 2.36 1.61 3.29 2.42 0.92 0.69 1.38 1.21 1.38 1.56 0 1.26-1.39 3.8-4.15 7.6-2.65 3.81-6.11 8.07-10.38 12.8-4.15 4.73-8.87 9.45-14.17 14.18-5.19 4.84-10.32 8.82-15.39 11.93-5.08 3.23-9.8 5.24-14.18 6.05s-7.78-0.46-10.2-3.8c-1.27 0-1.9 0.34-1.9 1.03-0.12 0.7 0.05 1.5 0.51 2.42 0.46 0.93 1.1 1.79 1.91 2.6 0.69 0.92 1.21 1.5 1.55 1.73 3.92 2.65 7.96 3.8 12.11 3.46 4.03-0.24 8.06-1.56 12.1-3.98 4.03-2.42 8.07-5.59 12.1-9.51 4.04-3.92 8.01-8.19 11.93-12.8s7.73-9.33 11.42-14.18c3.8-4.84 7.43-9.28 10.89-13.31 3.57-4.15 6.92-7.67 10.03-10.55 3.23-2.88 6.28-4.72 9.16-5.53 1.39-0.35 3.58-0.92 6.57-1.73 3.11-0.81 6.34-1.61 9.68-2.42 3.35-0.81 6.4-1.56 9.17-2.25 2.88-0.69 4.84-1.15 5.88-1.38h1.21c0.57-0.12 1.15-0.17 1.73-0.17 0.69 0 1.27 0.05 1.73 0.17h1.03c1.85 0.81 3.29 2.59 4.33 5.36 1.15 2.65 2.13 5.82 2.94 9.51 0.92 3.57 1.84 7.32 2.76 11.24 1.04 3.8 2.31 7.2 3.81 10.2 1.61 2.88 3.63 5.01 6.05 6.4 2.53 1.5 5.7 1.61 9.51 0.34-4.61-4.03-8.07-7.72-10.38-11.06-2.19-3.46-3.74-6.98-4.66-10.55-0.93-3.69-1.5-7.67-1.73-11.93-0.12-4.38-0.41-9.51-0.87-15.39-0.11-1.04-0.11-3.28 0-6.74 0.23-3.58 0.46-7.78 0.69-12.63 0.35-4.84 0.64-10.14 0.87-15.9 0.34-5.77 0.57-11.42 0.69-16.95 0.11-5.53 0.11-10.66 0-15.39-0.12-4.84-0.4-8.82-0.87-11.93-0.46-3.11-1.15-5.07-2.07-5.88-0.23-0.2-0.48-0.3-0.75-0.29zm199.98 15.9c-0.52 0.03-1.1 0.24-1.73 0.65-2.07 3.57-4.09 7.66-6.05 12.27-1.84 4.61-3.57 9.28-5.19 14.01-1.61 4.72-3.17 9.28-4.67 13.66-1.38 4.26-2.59 7.89-3.63 10.89-1.73 2.42-4.09 3.98-7.09 4.67-2.88 0.69-5.93 1.21-9.16 1.56-3.23 0.34-6.23 0.98-8.99 1.9-2.77 0.81-4.84 2.65-6.23 5.53 0.92 2.31 2.42 3.69 4.5 4.15 2.19 0.35 4.49 0.35 6.91 0 2.54-0.46 5.08-0.98 7.61-1.55 2.54-0.7 4.67-0.93 6.4-0.7 0.35 1.96 0.23 4.04-0.35 6.23-0.57 2.07-1.09 3.92-1.55 5.53-0.35 1.27-0.98 3.46-1.9 6.57-0.93 3.11-1.91 6.46-2.94 10.03-1.04 3.46-2.02 6.8-2.94 10.03-0.93 3.11-1.56 5.3-1.91 6.57-0.11 0.35-0.17 1.04-0.17 2.08 0 1.03 0.06 1.67 0.17 1.9 0.47 1.27 1.04 1.96 1.74 2.07 0.8 0.12 1.61-0.05 2.41-0.52 0.81-0.57 1.56-1.21 2.25-1.9 0.69-0.81 1.16-1.38 1.39-1.73 2.3-7.95 4.72-15.79 7.26-23.51 2.53-7.84 5.3-15.62 8.3-23.35 1.04-2.42 3-4.2 5.88-5.36 2.88-1.26 6.11-2.13 9.68-2.59 3.69-0.58 7.49-0.86 11.41-0.86 4.04-0.12 7.61-0.23 10.72-0.35 3.11-0.23 5.59-0.63 7.44-1.21 1.84-0.58 2.48-1.67 1.9-3.29-0.35-0.46-0.75-1.03-1.21-1.72-0.46-0.81-0.75-1.22-0.87-1.22h-37.17c-0.81-3.11-0.81-6.39 0-9.85 0.92-3.46 2.07-6.92 3.46-10.38 1.5-3.45 3.05-6.85 4.66-10.2 1.73-3.46 2.95-6.68 3.64-9.68 0.11-0.46 0.11-1.38 0-2.77-0.12-1.38-0.41-2.71-0.87-3.97-0.34-1.39-0.92-2.42-1.73-3.12-0.4-0.34-0.86-0.5-1.38-0.47zm-202.32 6.06c0.17 0.01 0.34 0.05 0.5 0.12-0.12 2.08-0.35 5.01-0.69 8.82-0.24 3.69-0.58 7.72-1.04 12.1s-0.98 8.88-1.56 13.49c-0.46 4.49-0.92 8.64-1.38 12.45-0.46 3.69-0.87 6.74-1.21 9.16l-0.52 3.63c-1.04 1.04-2.88 2.02-5.54 2.94-2.65 0.81-5.53 1.56-8.64 2.25-3.11 0.58-6.23 1.1-9.34 1.56s-5.7 0.86-7.78 1.21c-0.34 0.11-1.04 0.17-2.07 0.17-0.93 0-1.5-0.06-1.73-0.17v-2.08c6.34-8.76 11.81-17.17 16.42-25.24 4.73-8.19 8.71-15.33 11.94-21.44 3.34-6.11 6.05-10.9 8.12-14.36 1.82-3.12 3.32-4.66 4.52-4.61zm270.72 20.09c-1.17-0.06-2.57 0.2-4.23 0.78-0.23 0.34-0.35 1.27-0.35 2.77 0 1.49 0.12 2.53 0.35 3.11 1.04 2.65 2.13 4.26 3.28 4.84 1.27 0.46 2.37 0.35 3.29-0.35 0.92-0.8 1.56-1.96 1.9-3.46 0.46-1.49 0.52-2.88 0.17-4.14-0.34-1.39-1.21-2.43-2.59-3.12-0.52-0.26-1.13-0.4-1.82-0.43zm-156.23 3.18c-2.78 0.04-5.73 0.28-8.84 0.71-4.15 0.58-8.02 1.27-11.59 2.08-3.57 0.8-6.57 1.61-8.99 2.42-2.31 0.69-3.52 1.15-3.63 1.38-0.81 2.54-0.58 4.26 0.69 5.19 1.38 0.8 3.34 1.21 5.88 1.21 2.53-0.12 5.42-0.52 8.64-1.21 3.23-0.7 6.29-1.21 9.17-1.56 2.88-0.46 5.36-0.57 7.43-0.34 2.08 0.11 3.23 0.92 3.46 2.42-1.15 2.53-3.34 5.41-6.57 8.64-3.11 3.23-6.86 6.63-11.24 10.2-4.26 3.58-8.87 7.27-13.83 11.07-4.96 3.69-9.86 7.38-14.7 11.07-4.72 3.69-9.16 7.26-13.31 10.72-4.04 3.34-7.38 6.51-10.03 9.5-2.65 2.89-4.32 5.48-5.02 7.79-0.57 2.3 0.23 4.09 2.42 5.36 2.42 1.5 5.65 2.36 9.69 2.59 4.15 0.35 8.64 0.35 13.48 0 4.96-0.34 10.15-0.92 15.57-1.73 5.41-0.92 10.66-1.84 15.73-2.76 5.19-0.93 9.97-1.73 14.35-2.42 4.5-0.81 8.24-1.33 11.24-1.56 0.81-1.62 0.64-3.11-0.52-4.5-1.03-1.5-2.13-2.59-3.28-3.28-4.96-0.46-9.92-0.41-14.87 0.17-4.84 0.46-9.69 1.04-14.53 1.73s-9.74 1.33-14.69 1.9c-4.85 0.46-9.69 0.46-14.53 0-0.46-0.57-0.06-1.55 1.21-2.94 1.27-1.5 3-3.23 5.19-5.19 2.19-1.95 4.67-4.03 7.43-6.22 2.77-2.19 5.42-4.26 7.96-6.22 2.65-2.08 5.01-3.87 7.09-5.37 2.07-1.61 3.51-2.76 4.32-3.45s2.08-1.79 3.8-3.29l5.54-4.84c1.96-1.73 3.68-3.29 5.18-4.67 1.62-1.38 2.6-2.3 2.94-2.77 6.57-6.22 11.19-11.35 13.84-15.38 2.65-4.04 3.86-7.27 3.63-9.69-0.12-2.42-1.44-4.15-3.98-5.18-2.42-1.04-5.42-1.56-8.99-1.56-0.89-0.03-1.81-0.04-2.74-0.02zm252.65 3.98c-1.64 0.04-3.54 0.28-5.71 0.71-2.76 0.46-5.47 1.09-8.12 1.9-2.65 0.69-5.02 1.44-7.09 2.25-2.08 0.69-3.34 1.21-3.81 1.55-4.72 3-9.04 6.57-12.96 10.72-3.81 4.04-7.32 8.3-10.55 12.8-0.92 0.69-1.79 0.63-2.59-0.17-0.81-0.92-1.62-1.9-2.42-2.94-0.81-1.15-1.62-2.08-2.43-2.77-0.8-0.81-1.61-0.81-2.42 0-1.15 1.27-2.36 3.57-3.63 6.92-1.15 3.22-2.25 7.03-3.28 11.41-1.04 4.26-2.02 8.76-2.94 13.49-0.92 4.72-1.67 9.04-2.25 12.96s-1.04 7.21-1.38 9.86c-0.24 2.54-0.24 3.86 0 3.98 0.46 0.23 1.15 0.63 2.07 1.21 0.92 0.46 1.44 0.69 1.56 0.69 0.92 0 2.36-1.9 4.32-5.71 2.08-3.8 4.61-8.59 7.61-14.35 3.11-5.76 6.74-11.99 10.89-18.67 4.15-6.8 8.76-13.09 13.83-18.85 5.08-5.76 10.61-10.6 16.6-14.52 6-3.92 12.45-5.94 19.37-6.06 1.5-2.3 1.84-3.92 1.04-4.84-0.7-1.04-2.08-1.55-4.15-1.55-0.49-0.03-1.01-0.04-1.56-0.02zm-103.93 23.73c-1.01-0.05-2.51 1.27-4.5 3.95-2.54 3.57-5.77 9.86-9.69 18.85-3.8 8.87-8.06 20.92-12.79 36.14 0.46 1.15 1.32 1.84 2.59 2.07s2.37 0.18 3.29-0.17c6.34-11.18 11.24-21.1 14.7-29.74 3.57-8.76 5.87-15.74 6.91-20.92 1.15-5.19 1.27-8.42 0.35-9.69-0.23-0.31-0.52-0.48-0.86-0.49zm-185.45 120.69c-0.75 0-1.12 0.29-1.12 0.88 0 0.44 0.18 0.66 0.54 0.66h2.13v9.43c-1.92-1.42-4.06-2.13-6.43-2.13-1.8 0-3.42 0.45-4.83 1.34-1.39 0.86-2.49 2.11-3.3 3.75-0.78 1.61-1.17 3.5-1.17 5.67 0 2.34 0.39 4.3 1.17 5.88 0.81 1.56 1.89 2.71 3.25 3.46 1.36 0.76 2.89 1.13 4.59 1.13 2.89 0 5.13-1.18 6.72-3.54h0.16v3.08h4.42c0.28 0 0.42-0.14 0.42-0.41 0-0.23-0.07-0.39-0.21-0.51-0.14-0.11-0.39-0.2-0.75-0.29l-1.71-0.37v-28.03h-3.88zm118.69 0c-0.75 0-1.13 0.29-1.13 0.88 0 0.44 0.18 0.66 0.54 0.66h2.13v9.43c-1.92-1.42-4.06-2.13-6.42-2.13-1.81 0-3.42 0.45-4.84 1.34-1.39 0.86-2.49 2.11-3.29 3.75-0.78 1.61-1.17 3.5-1.17 5.67 0 2.34 0.39 4.3 1.17 5.88 0.8 1.56 1.89 2.71 3.25 3.46 1.36 0.76 2.89 1.13 4.59 1.13 2.89 0 5.13-1.18 6.71-3.54h0.17v3.08h4.42c0.28 0 0.42-0.14 0.42-0.41 0-0.23-0.07-0.39-0.21-0.51-0.14-0.11-0.39-0.2-0.75-0.29l-1.71-0.37v-28.03h-3.88zm-141.16 2c-0.53 0-0.98 0.17-1.34 0.5-0.33 0.34-0.5 0.78-0.5 1.34 0 0.55 0.17 1.01 0.5 1.37 0.36 0.34 0.81 0.5 1.34 0.5 0.52 0 0.95-0.16 1.29-0.5 0.36-0.33 0.54-0.79 0.54-1.37 0-0.56-0.18-1-0.54-1.34-0.34-0.33-0.77-0.5-1.29-0.5zm89.93 0c-0.53 0-0.98 0.17-1.34 0.5-0.33 0.34-0.5 0.78-0.5 1.34 0 0.55 0.17 1.01 0.5 1.37 0.36 0.34 0.81 0.5 1.34 0.5s0.96-0.16 1.29-0.5c0.36-0.33 0.54-0.79 0.54-1.37 0-0.56-0.18-1-0.54-1.34-0.33-0.33-0.76-0.5-1.29-0.5zm11.43 3.01l-0.45 4.29h-2.22c-0.36 0-0.65 0.1-0.87 0.29-0.19 0.17-0.29 0.41-0.29 0.71 0 0.2 0.05 0.36 0.16 0.5 0.12 0.14 0.24 0.21 0.38 0.21h2.84v14.18c0 1.56 0.46 2.77 1.37 3.63 0.92 0.83 2.07 1.25 3.46 1.25 1.31 0 2.51-0.35 3.59-1.04 0.34-0.22 0.6-0.46 0.79-0.71 0.2-0.25 0.3-0.47 0.3-0.67 0-0.25-0.07-0.43-0.21-0.54-0.11-0.14-0.27-0.21-0.46-0.21-0.2 0-0.42 0.13-0.67 0.38-0.42 0.39-0.86 0.68-1.33 0.87-0.48 0.17-1.02 0.25-1.63 0.25-0.89 0-1.6-0.25-2.13-0.75-0.5-0.53-0.75-1.29-0.75-2.29v-14.35l5.3-0.46c0.5-0.05 0.86-0.14 1.08-0.25 0.25-0.11 0.38-0.29 0.38-0.54 0-0.3-0.14-0.46-0.42-0.46h-6.34v-4.29h-1.88zm-187.22 3.83c-2.92 0-5.21 0.96-6.88 2.88s-2.5 4.49-2.5 7.72c0 3.22 0.84 5.81 2.54 7.75 1.7 1.92 4.06 2.88 7.09 2.88 2.25 0 4.13-0.5 5.63-1.5 0.81-0.5 1.21-0.96 1.21-1.38 0-0.22-0.07-0.4-0.21-0.54-0.11-0.17-0.26-0.25-0.46-0.25-0.16 0-0.4 0.11-0.7 0.34-1.53 1.14-3.33 1.7-5.39 1.7-2.22 0-4-0.79-5.33-2.37-1.34-1.59-2.01-3.8-2.01-6.63 0-2.84 0.64-5.04 1.92-6.59 1.31-1.56 3.06-2.34 5.26-2.34 0.92 0 1.85 0.15 2.79 0.46 0.95 0.28 1.68 0.67 2.21 1.17l0.38 2.08c0.05 0.34 0.14 0.59 0.25 0.75 0.14 0.14 0.32 0.21 0.54 0.21 0.33 0 0.5-0.14 0.5-0.42v-3.46c-0.67-0.66-1.65-1.23-2.96-1.71-1.31-0.5-2.6-0.75-3.88-0.75zm21.3 0c-2.97 0-5.28 0.96-6.92 2.88-1.64 1.89-2.46 4.46-2.46 7.72 0 3.28 0.82 5.88 2.46 7.8 1.64 1.89 3.95 2.83 6.92 2.83 2.95 0 5.25-0.94 6.89-2.83 1.64-1.92 2.46-4.52 2.46-7.8 0-3.26-0.82-5.83-2.46-7.72-1.64-1.92-3.94-2.88-6.89-2.88zm26.52 0c-2.53 0-5 1.14-7.39 3.42h-0.16v-3h-3.72c-0.77 0-1.16 0.29-1.16 0.88 0 0.44 0.18 0.66 0.54 0.66h2.17v17.27h-1.55c-0.77 0-1.16 0.29-1.16 0.87 0 0.45 0.18 0.67 0.54 0.67h7.17c0.28 0 0.42-0.14 0.42-0.41 0-0.23-0.07-0.39-0.21-0.51-0.14-0.13-0.37-0.23-0.71-0.29l-2.17-0.37v-13.89c0.95-1.08 2.02-1.95 3.21-2.59 1.2-0.64 2.4-0.95 3.59-0.95 1.59 0 2.81 0.44 3.67 1.33 0.89 0.86 1.34 2.01 1.34 3.46v12.68h-1.55c-0.78 0-1.16 0.29-1.16 0.87 0 0.45 0.18 0.67 0.54 0.67h7.17c0.28 0 0.42-0.14 0.42-0.41 0-0.23-0.07-0.39-0.21-0.51-0.14-0.13-0.37-0.23-0.71-0.29l-2.17-0.37v-12.81c0-1.97-0.65-3.53-1.96-4.67-1.28-1.14-2.87-1.71-4.79-1.71zm21.38 0c-1.95 0-3.61 0.43-4.97 1.3-1.36 0.83-2.04 2.09-2.04 3.79 0 1.42 0.51 2.59 1.54 3.5 1.06 0.89 2.67 1.77 4.84 2.63 1.64 0.64 2.85 1.17 3.63 1.59 0.78 0.39 1.35 0.84 1.71 1.37 0.39 0.5 0.58 1.17 0.58 2 0 1.2-0.51 2.06-1.54 2.59-1 0.53-2.27 0.79-3.8 0.79-1 0-2.03-0.12-3.08-0.37-1.06-0.25-1.88-0.63-2.46-1.13l-0.34-1.96c-0.14-0.69-0.4-1.04-0.79-1.04-0.33 0-0.5 0.15-0.5 0.46v3.54c0.75 0.67 1.82 1.2 3.21 1.59 1.42 0.39 2.78 0.58 4.09 0.58 2.17 0 3.97-0.42 5.42-1.25 1.47-0.83 2.21-2.13 2.21-3.88 0-1.56-0.47-2.78-1.42-3.67-0.94-0.89-2.54-1.79-4.79-2.71-1.67-0.7-2.9-1.24-3.67-1.63-0.76-0.39-1.35-0.83-1.8-1.33-0.41-0.5-0.62-1.13-0.62-1.88 0-1.11 0.46-1.92 1.37-2.42 0.92-0.52 2.05-0.79 3.38-0.79 0.95 0 1.89 0.15 2.84 0.46 0.94 0.28 1.68 0.67 2.21 1.17l0.33 2.04c0.06 0.36 0.14 0.63 0.25 0.79 0.14 0.14 0.32 0.21 0.54 0.21 0.17 0 0.3-0.04 0.38-0.12 0.08-0.09 0.13-0.18 0.13-0.3v-3.46c-0.67-0.66-1.66-1.23-2.97-1.71-1.3-0.5-2.6-0.75-3.87-0.75zm59.47 0c-2.95 0-5.24 0.99-6.88 2.96-1.65 1.95-2.47 4.54-2.47 7.76 0 2.12 0.39 3.96 1.17 5.55 0.78 1.58 1.89 2.81 3.34 3.67 1.47 0.86 3.18 1.29 5.13 1.29 2.25 0 4.2-0.51 5.84-1.54 0.39-0.25 0.68-0.47 0.87-0.67 0.2-0.22 0.29-0.44 0.29-0.67 0-0.22-0.06-0.4-0.2-0.54-0.14-0.17-0.31-0.25-0.5-0.25-0.14 0-0.28 0.06-0.42 0.17-0.14 0.08-0.24 0.14-0.29 0.17-1.56 1.14-3.39 1.7-5.51 1.7-2.14 0-3.9-0.73-5.29-2.21-1.37-1.5-2.05-3.62-2.05-6.38h14.97c0.34-0.83 0.51-1.62 0.51-2.37 0-2.62-0.75-4.7-2.26-6.26-1.5-1.58-3.58-2.38-6.25-2.38zm25.69 0c-1.01 0-2.15 0.45-3.42 1.34-1.28 0.86-2.46 1.92-3.55 3.17h-0.17v-4.09h-3.71c-0.78 0-1.17 0.29-1.17 0.88 0 0.44 0.19 0.66 0.55 0.66h2.16v17.27h-1.54c-0.78 0-1.17 0.29-1.17 0.87 0 0.45 0.19 0.67 0.55 0.67h7.17c0.28 0 0.42-0.14 0.42-0.41 0-0.23-0.07-0.39-0.21-0.51-0.14-0.13-0.38-0.23-0.71-0.29l-2.17-0.37v-12.81c2.5-2.64 5.17-3.96 8.01-3.96 0.28-0.33 0.41-0.72 0.41-1.17 0-0.39-0.13-0.69-0.41-0.91-0.25-0.23-0.6-0.34-1.04-0.34zm92.26 0c-2.98 0-5.28 0.96-6.92 2.88-1.64 1.89-2.46 4.46-2.46 7.72 0 3.28 0.82 5.88 2.46 7.8 1.64 1.89 3.94 2.83 6.92 2.83 2.95 0 5.24-0.94 6.88-2.83 1.64-1.92 2.46-4.52 2.46-7.8 0-3.26-0.82-5.83-2.46-7.72-1.64-1.92-3.93-2.88-6.88-2.88zm26.51 0c-2.53 0-4.99 1.14-7.38 3.42h-0.17v-3h-3.71c-0.78 0-1.17 0.29-1.17 0.88 0 0.44 0.18 0.66 0.55 0.66h2.17v17.27h-1.55c-0.78 0-1.17 0.29-1.17 0.87 0 0.45 0.18 0.67 0.55 0.67h7.17c0.28 0 0.42-0.14 0.42-0.41 0-0.23-0.07-0.39-0.21-0.51-0.14-0.13-0.38-0.23-0.71-0.29l-2.17-0.37v-13.89c0.95-1.08 2.02-1.95 3.21-2.59 1.2-0.64 2.39-0.95 3.59-0.95 1.58 0 2.81 0.44 3.67 1.33 0.89 0.86 1.33 2.01 1.33 3.46v12.68h-1.54c-0.78 0-1.17 0.29-1.17 0.87 0 0.45 0.18 0.67 0.54 0.67h7.18c0.28 0 0.42-0.14 0.42-0.41 0-0.23-0.07-0.39-0.21-0.51-0.14-0.13-0.38-0.23-0.71-0.29l-2.17-0.37v-12.81c0-1.97-0.65-3.53-1.96-4.67-1.28-1.14-2.88-1.71-4.8-1.71zm23.42 0c-2.94 0-5.24 0.99-6.88 2.96-1.64 1.95-2.46 4.54-2.46 7.76 0 2.12 0.39 3.96 1.17 5.55 0.78 1.58 1.89 2.81 3.34 3.67 1.47 0.86 3.18 1.29 5.13 1.29 2.25 0 4.2-0.51 5.84-1.54 0.38-0.25 0.68-0.47 0.87-0.67 0.2-0.22 0.29-0.44 0.29-0.67 0-0.22-0.07-0.4-0.21-0.54-0.13-0.17-0.3-0.25-0.5-0.25-0.13 0-0.27 0.06-0.41 0.17-0.14 0.08-0.24 0.14-0.29 0.17-1.56 1.14-3.4 1.7-5.51 1.7-2.14 0-3.91-0.73-5.3-2.21-1.36-1.5-2.04-3.62-2.04-6.38h14.97c0.34-0.83 0.5-1.62 0.5-2.37 0-2.62-0.75-4.7-2.25-6.26-1.5-1.58-3.59-2.38-6.26-2.38zm-213.36 0.42c-0.78 0-1.17 0.29-1.17 0.88 0 0.44 0.18 0.66 0.54 0.66h2.21v17.27h-1.58c-0.78 0-1.17 0.29-1.17 0.87 0 0.45 0.18 0.67 0.54 0.67h7.17c0.28 0 0.42-0.14 0.42-0.41 0-0.39-0.3-0.66-0.92-0.8l-2.12-0.37v-18.77h-3.92zm89.93 0c-0.78 0-1.17 0.29-1.17 0.88 0 0.44 0.18 0.66 0.54 0.66h2.21v17.27h-1.58c-0.78 0-1.17 0.29-1.17 0.87 0 0.45 0.18 0.67 0.54 0.67h7.18c0.27 0 0.41-0.14 0.41-0.41 0-0.39-0.3-0.66-0.92-0.8l-2.12-0.37v-18.77h-3.92zm-151.82 1.21c2.17 0 3.87 0.79 5.09 2.38 1.25 1.58 1.88 3.78 1.88 6.59 0 2.83-0.63 5.04-1.88 6.63-1.22 1.58-2.92 2.37-5.09 2.37s-3.87-0.79-5.13-2.37c-1.25-1.59-1.87-3.8-1.87-6.63 0-2.81 0.62-5.01 1.87-6.59 1.26-1.59 2.96-2.38 5.13-2.38zm82.57 0c2.22 0 4.23 0.79 6.01 2.38v9.67c0 1.12-0.28 2.13-0.84 3.05-0.55 0.89-1.31 1.6-2.25 2.12-0.95 0.51-1.96 0.75-3.05 0.75-2.36 0-4.15-0.77-5.38-2.33-1.19-1.56-1.79-3.71-1.79-6.47 0-1.97 0.32-3.65 0.96-5.04 0.67-1.39 1.54-2.42 2.63-3.09 1.11-0.69 2.35-1.04 3.71-1.04zm24.8 0c1.8 0 3.28 0.57 4.42 1.71s1.71 2.77 1.71 4.88c0 0.39-0.06 0.78-0.17 1.17h-12.89c0.17-2.42 0.88-4.31 2.13-5.68 1.25-1.39 2.85-2.08 4.8-2.08zm93.89 0c2.22 0 4.22 0.79 6 2.38v9.67c0 1.12-0.28 2.13-0.83 3.05-0.56 0.89-1.31 1.6-2.26 2.12-0.94 0.51-1.96 0.75-3.04 0.75-2.36 0-4.16-0.77-5.38-2.33-1.19-1.56-1.79-3.71-1.79-6.47 0-1.97 0.32-3.65 0.96-5.04 0.66-1.39 1.54-2.42 2.62-3.09 1.12-0.69 2.35-1.04 3.72-1.04zm24.06 0c2.17 0 3.87 0.79 5.09 2.38 1.25 1.58 1.88 3.78 1.88 6.59 0 2.83-0.63 5.04-1.88 6.63-1.22 1.58-2.92 2.37-5.09 2.37s-3.88-0.79-5.13-2.37c-1.25-1.59-1.88-3.8-1.88-6.63 0-2.81 0.63-5.01 1.88-6.59 1.25-1.59 2.96-2.38 5.13-2.38zm49.93 0c1.81 0 3.29 0.57 4.43 1.71s1.71 2.77 1.71 4.88c0 0.39-0.06 0.78-0.17 1.17h-12.89c0.17-2.42 0.88-4.31 2.13-5.68 1.25-1.39 2.85-2.08 4.79-2.08z" fill="#a8652c"/></g></svg>
