<?xml version="1.0" encoding="utf-8"?>
<!-- Generator: Adobe Illustrator 21.1.0, SVG Export Plug-In . SVG Version: 6.00 Build 0)  -->
<svg xmlns="http://www.w3.org/2000/svg" xmlns:xlink="http://www.w3.org/1999/xlink" version="1.1" id="Layer_1" x="0px" y="0px" viewBox="0 0 200 200" enable-background="new 0 0 200 200" xml:space="preserve">
<path fill="#f9a01e" d="M182.9,98.5l-0.1,1.2C183.6,100.5,183.1,99.4,182.9,98.5z M182.9,98.5l0.1-0.8  C182.8,97.9,182.8,98.2,182.9,98.5z M182.9,90.7c0.8,1.7,0,4,1,5C184.4,93.9,184.1,91,182.9,90.7z M183.1,93.6l-0.9-1.5l0.3,1.3  L183.1,93.6z M182.1,94.6l0.2-0.2l-0.6-2.4L182.1,94.6z M182.4,84.6l0.4,1.8c-0.4,1.8-1.1-0.9-1.4,0.2c0.3,2.2,1.6,0.5,1.8,3.4  c0.6-0.3-0.7-4.5,0.4-4.2C183.5,83.4,183,85.8,182.4,84.6z M105.8,23.9c-0.1-0.1-0.2-0.1-0.2-0.1C105.7,23.9,105.7,24,105.8,23.9z   M77.5,28.5c0.1,0.1,0.3,0.1,0.5,0.1l0.6-0.3C78.2,28.3,77.8,28.4,77.5,28.5z M29.7,138l0.4,0.2l-0.1-0.3h-0.3  C29.7,137.9,29.7,137.9,29.7,138z M53.2,44.9c-0.3,0.3-0.6,0.6-0.8,0.9C52.9,45.3,53.2,45.1,53.2,44.9z M133.2,28.2v-0.1  c-0.1-0.1-0.3-0.1-0.4-0.2C132.9,28,133.1,28.1,133.2,28.2z M87.6,27.3c-0.4,0-0.7,0-1,0.1C86.9,27.5,87.3,27.4,87.6,27.3z   M163.4,44c0-0.1-0.1-0.2-0.1-0.1L163.4,44z M105.9,23.7C106,23.9,106.7,23.8,105.9,23.7L105.9,23.7z M113.8,23.3  c0.3,0.1,0.5,0.2,0.8,0.2C114.3,23.4,114,23.4,113.8,23.3z M144.8,35.6L144.8,35.6C144.6,35.6,144.7,35.7,144.8,35.6z M113,23.2  l0.8,0.1C113.6,23.2,113.3,23.1,113,23.2z M136.6,30l0.1,0.1C136.6,30,136.6,30,136.6,30z M32.9,146.4l-0.1-0.3  c-0.2,0.4-0.5,0.3,0.1,1.4c1.1,0.4,1-1.3,2.6-0.4c-0.3-0.2-0.5-0.6-0.7-1.1C34.7,147,33.8,146.8,32.9,146.4z M34.7,145.7  c-0.1-0.2-0.3-0.4-0.3-0.6c0,0.2,0.1,0.6,0.3,1V145.7z M47.7,33.9c-0.4,0.4-0.5,0.7-0.5,0.9C47.4,34.5,47.6,34.2,47.7,33.9z   M67.5,165.6l1.1-0.1c-0.7-0.6-1.6-0.8-2.2-1.1C65.5,165,66.8,164.6,67.5,165.6z M156.4,167.3L156.4,167.3  C156.4,167.2,156.4,167.3,156.4,167.3z M94.1,173c0.2,0.1,0.3,0.1,0.5,0.2C94.5,173.1,94.3,173,94.1,173z M31.7,140.4  c0,0-0.5-0.9-1.1-1.8c-0.4-0.9-0.9-1.9-0.9-1.9l0.3,1.2C30.7,138.2,30.8,140.2,31.7,140.4z M20.6,81.7  C20.6,81.7,20.6,81.7,20.6,81.7C20.6,81.7,20.6,81.7,20.6,81.7C20.6,81.7,20.6,81.7,20.6,81.7z M119.6,174l-0.8,0.4  c0.2-0.1,0.5-0.2,0.8-0.3C119.6,174.1,119.6,174,119.6,174z M151.2,30.9l-0.7-0.4C150.9,30.8,151.3,31.1,151.2,30.9z M19.7,120  c0.1,0,0.1,0,0.2,0C19.8,120,19.8,120,19.7,120z M150.5,30.5c0,0-0.1-0.1-0.1-0.1c0,0,0,0,0,0L150.5,30.5z M140.4,32.5l-0.5-0.5  C140,32.2,140.2,32.3,140.4,32.5z M107.2,174.4L107.2,174.4C107.3,174.4,107.3,174.3,107.2,174.4L107.2,174.4z M117.9,174.7  c0,0-0.1,0.1-0.1,0.2l1-0.5c-0.5,0.2-1,0.3-1.8,0.4C117.6,174.8,117.8,174.8,117.9,174.7z M144.2,34.5l0.2,0.3c0,0,0.1,0,0.1,0  l-0.1-0.2C144.3,34.5,144.3,34.5,144.2,34.5z M176.7,140.2c0,0.1,0,0.2,0.1,0.3C176.8,140.4,176.8,140.3,176.7,140.2z M184.5,100.8  l-0.5-0.7c-0.5,1.3-1.2,3.7-0.6,5.4c-0.6-1.6-1.6,2.4-2.6,1.5l0.4,0.3c-2.2,3.9-3.1,9-5.2,13.7c0.1,0.9,0,1.6-0.1,2.3  c-0.2,0.7-0.5,1.3-0.8,1.9c-0.6,1.3-1.3,2.5-1.5,4.3c1.1,1,0.1,0.7-1,3.5c0.5-1.5-0.9-0.6-1.5,0.2c0.1,0.7-0.1,1.4-0.3,2  c-0.4,0.1-1.1,1-1.9,1.9c-0.8,0.9-1.5,1.9-1.4,2.7c-1.3,1.3-0.2-0.6-0.2-1.1c-1,0.2-0.3,1.5-1,1.8c0,0-0.1-0.1-0.1-0.3  c-1.3,2.4-2.6,3.4-4.4,5.5c0.9,1-1.2,2.6-1.7,3.8c-0.1-0.6-1.4,0.8-2.2,1.3l-0.3,1.8c-0.4,1.7-1.8,1.2-2.9,2.8l0.5-0.1  c-0.8,1.2-4.1,3.2-5.6,3.5c-4.3,5-8.9,7.5-13.7,9.2c-2.4,0.8-4.9,1.7-7.6,2.3c-1.3,0.4-2.7,0.8-4.1,1.2c-1.5,0.3-3,0.7-4.6,1.2  c-0.8,0.6,0.8,0.5,0.3,1.3c-0.1,0-0.2,0.1-0.3,0.1c0,0.1-0.1,0.1,0.1,0.2c0.6-0.3,1.3-0.7,2.1-0.9c-1.1,0.6-1.2,1.7-2.9,1.7  c0.1-0.2,0.3-0.3,0.7-0.5c-1.3,0.3-1.3,0.8-2.4,0.7c-1.3,0-0.9,0.2-1.2-0.2l-3.9,0.1c-0.9,0.7-1.9,1-2.9,0.9c-0.9-0.1-1.7-0.4-2-0.4  c0.3-0.9,2.5-0.3,3.4-1.4c0,0-1.4-0.4-1.4-0.5v0.7l-2-0.1c-0.2,0.3-0.4,0.5-0.8,0.3c-0.1-0.1-0.3-0.3-0.1-0.3l-1.4,0.5  c0.8-0.8-1.2-0.2-1.1-1c-2.2,0-3.7,0.1-5,0.2c-1.4,0.1-2.7,0.2-4.6-0.5c0.6,0.5-1.4,1.1-2.6,0.8c-0.7-0.3-0.8-0.5-0.3-0.8l-1.7,0.2  c-0.9-0.8-1.8-1-2.9-1.3c-1.1-0.3-2.3-0.5-3.6-1.1l0.2-0.3c-1.1,0.1-2.4,0.3-3.9-0.4l0.5-0.6c-1.7-1.2-1.9,1-3.8-0.2  c-0.3,0.8,0.9,1.6,0.9,2.4c-0.2-1-2.5-1.9-2.1-1.2c-2.2-0.5-1.5-0.6-1.6-0.8h-1.4c-1.4-0.7,0-1.2,0.7-1.4c-1.7,0.2-2.9-1.1-4.3-1.9  h0.8l-1.9-1.1c-1.6,0-3.3-1.1-4.7-2.3l1.6-0.3c-0.8-1.1-0.7,0-1.1,0c-2-0.6-2-1.4-2.5-2.5c-1.6-0.5-2.6-1.8-3.6-3  c-0.8-1.6-1.6-2.9-3.2-3.2l0.2-0.7c-1.8-0.8-3.3-2.1-4.4-3.6c-1.2-1.5-2.4-2.8-4.1-3.3c-1-5-3.4-1.2-4.3-5.7l-0.2,0.3  c-3.6-5.9-6.6-12.4-8.5-19.1c-0.6-1.6-0.8-3.4-1.3-5c-0.4-1.7-0.9-3.3-1.1-5c-0.3-1.7-0.6-3.3-0.9-4.9c-0.2-1.6-0.4-3.3-0.6-4.9h0.4  c0-10.3,1.6-20.4,5.3-29.9c3.6-9.4,9.1-18.2,16.5-25.2c1.1-1.6-0.4-1.5,0.5-3c0.6-0.5,1.8-1.6,2.1-1.2c-0.8,1.2,0.1,1-0.1,1.5  c0.9-0.8,1.8-1.6,2.9-2.3c1.1-0.7,2.1-1.5,2.7-2.4L57,40.7c0.5-0.7,1.6-1.3,2.2-1.7c0,0.5,1.2,0.5,0.8,1c1.2-2.1,2.1-2.2,2.9-2.4  c0.8-0.1,1.6-0.1,3-1.3c-0.2-1.8,3.4-4.8,5.9-7.2l1.7-0.3c-2,0.8,0.4,0.9-2,2c1.1-0.3,2-0.8,3-1.2c1-0.4,1.9-0.9,2.9-1.1  c-0.5-0.2-0.6-0.7,0.2-1.2c1.3-0.2,1.6,0.3,3.1,0.1c0,0-1.3,0.8-1.3,0.9c1.1,0.2,1.7-0.6,2.6-1c0.5,0.5,2.6,0.1,2.4,0.9  c1.7-1.3,2.4-1.1,4.5-1.9c-2.3-0.3,0.4-0.9,0.1-1.4c0,0-2.5,0.6-2.4,0.7c1.8-0.2,1.5,0,0.8,0.2C86.7,26,85.7,26.5,86,27  c-1.7-0.1,1.8-2.3-0.8-1.4c1.6-0.7,2.6-0.9,3.6-1.1s2-0.5,3.7-1.2c-2.1,0.5,0.3-0.7-0.9-0.9c2.7-0.4,0.7,0.3,1.6,0.8  c1.4-0.3,2,0.4,3.3-0.5c2.4,0.2-0.3,0.8,0.9,1.2c-0.4,0.4-2,0.2-3.5,0.3c-1.4,0.2-2.6,0.6-2.1,1.7c-1.2,0.2-2.5,1.3-4.1,1.5  c1.5,0.1,3.7,0.5,5.4-0.3L93,25.8c1.4-0.3,1.6-1.2,2.6-1.1c-0.5,0.4,0.5,0.9,1.6,0.7c-0.3-0.2-0.8-0.1-0.7-0.3  c2.1-0.2,2.3-1.1,4.9-1.5c-2.1-0.2-2.5-0.6-4.6-1.1c0.5-0.9,1.4-0.2,2.6-0.4c-0.2,0.1-0.4,0.2-0.1,0.3l1.2-0.5  c2.7,0.3-0.3,1.3,1.9,1.7c1.5,0.8,2-0.3,3.2,0.2c-0.1-0.1-0.1-0.2-0.2-0.2c0.3,0,0.4,0.1,0.6,0.1c0,0,0,0,0-0.1  c1.4-0.1,2.9,0.1,3.3-0.6c0.1,0.3,1.2,0,1.7-0.1c0.8-0.2,2.8-0.7,3.8,0.6h-0.1c1.7,0.4,3,0.9,2.5,1.2c0-0.1,2.7,0.9,2.7,0.9  l-0.5,0.8c2.5,0.4,2.4-0.2,4.3-0.6c0.4,0.2,0.9,0.4,1.5,0.6c0.5,0.2,1.1,0.4,1.7,0.6c1.1,0.3,2.2,0.5,2.9,0.6c0.2,0.1,0.5,0.2,1,0.3  l-0.9-0.7c1.9,0.7,1.8,0.2,3.1,0.7c-0.2-0.2-0.2-0.3,0.4,0.2c0.2,0.1,0.4,0.2,0.7,0.4c-0.1,0.1-0.4-0.1-0.6-0.3l0.1,0.4  c1.1,1.6,2.5,0.6,3.9,1.6c-0.2,0-0.4-0.1-0.6-0.2c0.8,0.6,1.4,2.4,2.1,1.8c0.2,0.2,0.5,0.2,0.9,0.2c0.5,0,1-0.1,1,0.1l2,1.4  c0.3,0.4,0.9,0.6,1.4,0.8l0.1,0.3c0.6,0.2,0.9,0.2,0.1,0.2l0,0c0.8,0.4,0.7,0.6,0.5,0.6c1.8,2.8,4.3,2.3,6.3,5.2  c0.9-0.1,0-1.2,0.1-1.5c0.8-0.1,2.4,1,3.4,1.3c0.6,1.7,3.4,5.3,2,5.7c1.8,2.1,0-1.2,1.2-0.4l0.2,0.3c-0.5-0.8-0.7-1.7-0.8-2.4  c0.4-0.7,2.2,1,2.6,1.7l-1.1,0.3c2,1.7,2.7,0.3,4.5,0.9c1.1,1.8-0.3,1.5-0.7,2.3l1.5,1.6l-0.6,0.4c1,1,1.7,0.9,2.7,2.6  c-1.4-0.7,1.2,2.7-0.7,1.7c0.4,1,1.8,0.5,1.3,1.5c1,0.2-0.2-1-0.3-1.6c0.3-0.5,0.8-0.1,1.3,0.6c0.4,0.7,0.9,1.6,1.4,2.1  c-0.4,0.4-1-0.4-0.5,1.1c0.5,0,1.3,0.7,1.3,1.7c0.6-0.3,1.1,1.4,1.4,2.2c-0.3-1-0.6-2.4,0.3-2.1c0.7,0.5,1.1,1,1.8,2.7l-0.2-1.3  c1.6,0.9,0.4,2.6,1.6,4.4c-0.8-0.6-1-1.1-1.8-1.6c0.7,0.7,2,2.2,3,3.5l-0.4,2c0.6,0,0.6,1.9,1.3,1.6c0.3,2.2-1.4-1.4-2-1.4  c0.5,2.7,1.9,1.6,1.7,4.4l-0.9-0.6c0.3,0.8,1.2,2.3,0.9,2.5c0.2-0.1,0.1-0.5-0.1-1c1.5,0.1,2,3.6,3.3,2.9l-0.2-1.2  c0.7,1.7,2.1,2.8,1.9,4.4c-0.2,1.2-1.2-0.5-1.7-1.1c0.3,1.7,2,1,2.2,3.2c0.1-1.2,0.6-1.1,1.1-0.4c0-1.3-0.5-3.9-1-3.3v0.5  c-0.4,0-0.7-0.6-1-0.9c-0.4-1.6,0.4-0.9,0.6-1.3c-0.5-2.8-1.5,0.2-2.1-2.3l0.2-0.4c-0.7-1.1-1.5-2.8-2.4-2.8  c0.5-1.4-1.3-2.6-1.2-3.9c1.9-1,1.4,4.1,2.9,5.1c-0.1-1.4,1.2,0.4,1.9,0.8c0,0-0.1-0.2-0.3-0.6c-0.2-0.4-0.5-0.8-0.8-1.3  c-0.6-0.9-1.2-1.9-1.2-1.9c0.2-0.4,0.7-2-0.3-2.4l0.1,0.3c-0.8-1.5-1.4-0.8-1.8-2.2c0.1-0.3,0.6,0,0.8,0c-0.4-1.3-0.9-0.8-1.5-1.6  c-0.4-1.3,1.1,0.3,0.8-0.9c-1.4-1.1-0.9-2.3-1.6-3.6c-0.7,1-4.1-3.9-3.5-0.9l-2.3-2.3c0-1.2,2.6,1,3-0.3l1.3,2.2  c0.4-0.4,0-1.1-0.6-1.9c0.1,0.1,0.3,0.3,0.5,0.5c-0.2-0.5-0.5-0.8-0.8-1.1c0,0.2,0,0.3,0.2,0.5c-0.2-0.3-0.5-0.6-0.8-1  c0.2,0.1,0.4,0.3,0.6,0.4c-0.1-1,0.9-1.9-1-2.1v0.3c-0.1-0.7-0.8-1.2-1.3-1.7c0-0.2,0-0.3,0-0.5c-0.8-1.2-0.7-0.8-1.7-3.3l-0.8,1.1  c-0.6-1.3-0.3-2.1-0.1-2.3c-0.6-0.6-1-1.2-1.4-1.8c0.3,0,0.6,0.2,0.9,0.5c-0.1-1.3-0.4-1.4-1-1.4c-0.6-0.2-1.2-0.9-1.8-1.5l0.9,0.3  c-0.4-0.3-1-0.7-1.2-0.6c-0.2-0.3-0.5-0.5-0.8-0.7c0,0,0,0.1,0,0.2c-0.6-1.3-1.7-2.9-1-3.2c-1-0.4-2.4-0.5-2.3,0.4  c-0.4-0.6-0.8-1.3-1.2-2c0.3-0.2,1.5,0.2,1.3,0c-0.9-1.1-2.5-1.6-2.8-1.1c-0.3-0.2-0.4-0.3-0.6-0.5c0-0.4,0-0.9-0.4-1.4  c0-0.2-0.2-0.4-0.5-0.8c-1,0.4-2.8-1.5-3.5-1.5c0.4,0.5,1,0.9,1.7,1.3c-1.3-0.1-2.6-0.1-2.9-1c2,0.7-1.1-2.2,1.6-0.6  c-1-2.4-1.5,0.1-3-1.7l-0.9-1.3c0.3-0.2,0.7,0,1.1,0.2c1.2,0.2,4.1,2.8,6.6,3.7c0,0-0.2-0.2-0.5-0.5c-0.3-0.3-0.8-0.7-1.3-1.1  c-0.9-0.8-1.9-1.7-1.9-1.7c-5.4-3.1-11.8-7.6-17.3-8.3l0.2,0.1c-0.1,0-0.2,0.1-0.4,0.4l-0.1-0.3l-1.2,0.1c-0.8-1.1-2.8-1.9-4.4-3.1  c1,0.8,0.9,0.8,0.9,1.4c-0.5,0.6-0.7,0.9-2.3,0c0.2-0.5,1.2-0.1,0.1-1c0.5,0.5-0.1,0.6-0.9,0.4c-0.8-0.7-2.4-1.1-2.2-1.6  c0.2,0,0.4,0,0.5,0.1c-0.1,0.4,1.2,1.1,0.6,0.5c0.1,0,0-0.1,0-0.2c0,0,0,0,0,0c0.5,0-1.6-0.9-0.2-1l-1.8-0.3  c-0.9-0.7,0.9-0.5,0.5-0.9c-1.5-0.2-2.7-0.1-3.8,0c-1.1,0.1-2.2,0.2-3.6,0.3c0.2-0.3,0.4-1.4,0.3-1.1c-2-0.7-4.6,0.6-6.9,0.4  c0.4-0.3,1.2,0,1.9-0.1c-1.7-0.4-3.4-0.6-5.1-0.8s-3.3-0.3-4.8-0.5c-3.2-0.2-6.3-0.3-9.8-0.6l-1.6,1.5l-1.9-0.6  c-1.8,0.1-3.5,0.2-5.1,0.5C83,17.2,81.5,17.6,80,18c-3,0.8-5.7,2.3-8.8,3.6c-1.9,0.8-1.5-0.4-2.6-0.3c-2.1,0.9-3.3,1.9-4.4,2.8  C63.1,25,62,26,60.3,27.3c0.3-0.6,0.7-2.1-1-1.2c-0.1,0.5,0,1.1-1.2,1.5l0.3-0.6c-1.2,0.1-1.9,1.1-3.9,2.1c-3.2,2.5-5.9,5.3-7.3,8.6  c-2.7,2.3-0.6-1.2-1.3-1c2.1-1.3,1.1-1.3,1.3-2c-0.8,1.2-1.8,2.4-2.9,2.2c-1.3,1.3-2.1,1.8-2.8,3.6c0.4-0.9,1.3-1.1,1-0.2  c-1.2,0.9-3.6,4-4.3,3.1c-5.7,6.7-11.2,15-14.8,23.8c0,1.7,0.6-1,0.7-0.1c-0.1,2.4-1,1.6-1.1,3.5l-0.3-0.9c-0.5,1.3-0.8,2.7-0.9,4.1  c-0.2,1.4,0,2.9-0.1,4.2c-0.6-0.6-1.1,2-0.9-0.3c-0.2,1.3-3.6,2.1-3.2,3.2l3.2-0.8c0.1,0,0.1,0.1,0.1,0.2c-0.2,0.4-0.3,0.8-0.2,1.2  c0,0.1,0,0.1,0,0.2c0,0,0,0,0.1-0.1c0,0,0,0,0,0c0,0.1,0,0.1-0.1,0.1c0,0.1,0,0.1,0.1,0.1c-0.9,0.9-1.7,2.2-1.8,3  c-0.8,0.3-0.3-1.7-0.1-2.7c-1.2-0.4-1.3,3.5-2.2,1.7c-0.2,2.4,0.7-0.2,0.9,1.3l-0.6,2l0.6-1.5c0.1,1.8,0.9,2.4-0.1,4.6  c0,0,0.2,0.6,0.4,1.2c0.3,0.6,0.5,1.2,0.5,1.2c-1,0.2-0.3,1.7-0.5,2.9l-0.6-0.8c-0.1,1.6-0.2,2.2-0.6,3.2C15.7,97,16.8,96.4,16,96  l-0.4,1.8c0.5,0,0.9,1.1,1.3-0.1c0.5,0.8,0.9,1.5,1.2,2.4c0.4,0.9,0.6,2.1,0.7,4.1c-0.8,1.9-0.9-1.9-1.8-1.1c-0.2,4.3,2.6,5,2.9,7.4  c0.1,3.1,0.9,2.8,1.4,5.9c-0.8-0.8-0.1,2.3-0.6,3l-0.9-1.1c0.3,0.8,0.4,1.6,0.1,1.7c0.8,0.3,1.6,4,2.6,5.8l0.6-0.6  c0.7,1.4,1.8,3.1,2.3,4.8c0,0,0-0.1,0-0.1l0.4,1.3c0-0.2,0-0.3-0.1-0.5c1,2.1,1.5,1.3,3,2.8c-0.1,1.3-0.9,1.5-1.7,1.5  c0-0.8-0.7-1.8-1-2.9c-1.7-2.9-4.2-4.9-4.8-8.3c-1-0.5-0.8,0.1-0.4,1c0.5,0.9,1.3,2,1.3,2.9c-0.1,0-0.2-0.1-0.3-0.2  c0,0.1,0.1,0.3,0.1,0.4c-0.6-1.1-1.6-2.9-2.5-3c0.8,2,2.2,0.9,2.3,3.6c1.1,1.6,0.4,3.6,0.7,4.7c1.1,0.9,2.5,0.4,3.5,3.3l-1.5-0.8  c1.5,3.2,2,0.9,3.4,3.8c-0.4-1.1,1.3,0.5,0.4-1.4c0.9,0.7,2.1,2.7,2.8,4.3c0.4,0.3,0.3-0.1,0.7-0.2c-0.4-2-2.2-2.2-2-4.1l-1.5-0.7  c-0.4-1.8,0.3-2.3,1.1-1.5c-0.3-0.4-0.6-0.8-0.6-1.2c1.3-1,0.4,2.1,1.9,2.1l-0.6-1c0.8-1,1.9,2.2,2.8,3.5c0.5,1.8,1.2,3.2,0.6,3.7  l-1.5-1.9c0.1,1.4,1.9,2.5,2.6,3.7v0.5c0-0.1,0.1-0.2,0.1-0.2c0.1,0.3,0.2,0.5,0.2,0.8c0.7,1,2.2,2.2,2.7,3.3l0.4-0.5l-0.4,0.1  c-0.7-0.9-1.2-2.4-0.3-2c1.9,1.7,1.1,2.9,1.1,3.8c-1.2,0.2-1.5-2-2.5-2.8c-0.3,1.2,1.5,2.2,2.5,4.7c-1.5-0.2-1.8-2.5-3-2.3  c1.2,1.8,2,1.9,3.3,3.8c-0.6,0.2-2-1.6-2.5-1.1c0,0,0.2,0.3,0.3,0.7c0.2,0.4,0.3,0.7,0.3,0.7c-2.3-2.9-0.7,1.4-2.7-0.7  c0.5,1.4,1.8,1,2.6,2.9c0-0.7-0.3-2.4,1.2-1.4l1.1,1.8c0.2,1-2.4-0.8-1.8,0.5l1.8,1.4c0.2-0.3-0.4-1.2,0.4-1  c0.6,1.2,2.3,0.6,3.7,1.4c0.8,0.8,1.5,1.5,1.5,2c1.4,0.6,2.8,1.6,4.1,2.5c1.3,0.9,2.8,1.6,4.1,2c-1.9-0.6-0.6,0.9-0.1,2  c-1.8-1.2-2.4-0.3-2.7,0.3c1.1,0.7,2.4,0.3,2.1-0.3c1.5,1.6,1.6,0.3,2.7,2c0.8,1-1.1,0.5-1,1.1c1.9,1.4,1.2-0.7,3.3,0.9  c-0.2,0-0.4,0-0.3,0.2c1.1,0.9,2.6,1.3,3.1,1c0.3,1,1.2,1.5,1.9,1.9c0.8,0.3,1.3,0.5,0.9,1.1c3.2,1.1-0.1-0.9,0.7-1  c1.5,0.1,3.5,1.6,4.1,2.1c-0.7-0.3-1.6-0.3-2.2-0.9l0.2,1.1c3.5,2.4,3.2-0.7,6.6,1.4c-2.1-0.3-0.9,0.4-2.1,0.7c0.7,0,3.5,1.3,2,0  c1.4,0.6,2.3,1.1,3.2,1.6c1.4,0.2,2.8,0.3,3.8-0.1c2,0.6,3.3,1.6,4.2,2.3c2.2,0.3,4.3,0.6,6.4,1.1c1.1,0.2,2.1,0.4,3.2,0.6  c1.1,0.2,2.2,0.1,3.4,0l-0.3-0.1c3.6,0.4-1.5-1.3,2.2-1.1c-0.6,1.1,2.2,0.9,3.4,1.5c2.3,0.3,4.3-0.1,6.2-0.4c1-0.1,1.9-0.3,2.9-0.3  c1-0.2,2-0.3,3-0.2c0,0.2-0.2,0.6-1.1,0.7c1.6-0.1,3.1-0.3,4.5-0.5c0.7-0.1,1.4-0.2,2.1-0.4s1.4-0.4,2.1-0.5l-0.1,0.2  c2.4-0.2,4.6-0.7,6.8-1.6c2.1-1,4.1-2.1,6.4-3.1c-0.1,0.1-0.2,0.3-0.3,0.5c-0.2,0-0.4,0.1-0.5,0.1c0.2,0,0.3,0,0.5,0  c0,0.1-0.1,0.2-0.2,0.3c1.2-0.3,2.7-0.9,4.1-1.6s2.5-1.5,3.1-2.4c3.2-0.3,1.5-1.2,5.3-2.2c0.3,0.1-0.2,0.4-0.4,0.5  c1.8-0.7,2.9-1.4,4.6-2.3c1.5-1.5,2.2-2.8,3.1-3.9c0.8-1.2,1.9-2.1,3.8-3.6c1,0.9-1.1,1.9-1.3,2.8l-1.1-0.1c-0.8,1.1,1-0.3,0.6,0.5  c-0.5,0.5-1.1,0.5-1.7,0.8c-0.7,1.7,2.6-1.9,1.3,0.1c0.6-0.4,0.9-0.9,1.2-1.3l0,0c0.5-0.7,0.9-1.3,2-1.8c-0.2,1,0.1,0.4,0.1,1.2  c1-0.4,2-4,2.1-3.8c-0.2-0.3-0.5-0.1-1.2,0.5c0.2-1.4,3.5-3.2,4.7-5.3c-0.5,0.5-2.3,2.1-2.3,0.9c2.3-2.1,1.9-3.8,2.9-5.7  c2.4-1.6-0.4,2.4,0.8,2.7c0.6-0.1,2-0.4,1.5,0.8c2-1.7,2.3-3.9,3.5-5.9l0.2,0.2c0.9-1.4,1.7-2.8,2.3-4.4c0.6-1.5,1.2-2.9,2.2-3.9  l-1,1c0.1-0.5,1-1.9,0.9-2.9c0.3,0.3,1.5-0.9,1.7-0.6c-0.5-2.2,2.3-6.7,1.6-8.7c0.7-0.6,1,0.2,1.3,0.6c-0.9,1.8-1.5,2.2-1.4,3.5  c0.7-1.5,1.6-2.4,1.8-2.1c-0.3-1.9,0.7-5.8,0-6.9c0.9-1,1.5-2,2.2-1.3c0.8-5-3.1,1.6-1.6-3.8c1.4-2.3,0.4,2.7,1.6-0.7v0.7  c2.7-2-1-2.1-0.3-4.9c1.3-0.1,0.3,2.1,1.6,0.4c0.2-2.7-1.4-4.1-0.6-6.7l0.4,0.5c0.3-1.7,0.6-4.9,0.6-6.6c0.2-0.1,0.2,0.2,0.2,0.5  C184.7,101.6,183.6,103.4,184.5,100.8z M165.9,46.5c-0.1,0-0.2,0-0.4-0.1L165.9,46.5z M163.7,43.7c0,0.5,0,1.2,0.4,2.1  c-1-1.4-1.9-2.6-2.8-3.8C162.5,42.8,162.7,43,163.7,43.7z M162.2,42.3c-0.3-0.1-0.6-0.1-0.9-0.3c-0.2-0.3-0.5-0.7-0.7-1  C161.1,40.8,161.6,41.6,162.2,42.3z M123.5,24.8c0.4,0.2,0.7,0.4,1,0.5C124.3,25.1,124,24.9,123.5,24.8c0.7-0.2,2,0.3,2.9,0.9  c1.1,0.6,2,1.2,1.6,0.7c2.2,0.4,1.4,0.6,1.5,0.9c-2-1-3.2-1.2-5-2c0.2,0.3,0.2,0.6,0.3,0.8c-0.7-0.2-1.4-0.7-1.5-1.2  C123.4,24.9,123.4,24.8,123.5,24.8z M21.5,126.7c0.1,0.3,0.2,0.5,0.3,0.6C21.7,127.2,21.7,127,21.5,126.7z M178.2,81.7l-0.3-0.6  l-0.1,1.4c1,2,1.6,2,2.4,2.4c-0.9-1.8-1.1-3-1.8-5.4L178.2,81.7z M183,78.1l-0.5-0.2l0.1,1.5C182.7,79.1,183,78.4,183,78.1z   M173.5,53.4l0.8,2.1C175,55.9,174.2,53.4,173.5,53.4z M171.7,65.4l0.9,0.8c-0.1-1-0.7-2.2-1.2-2.2C172.1,65,171.2,64.4,171.7,65.4z   M170.1,48.5c-1.1,0-1-2-2-1.9C168.7,46.9,169.3,48.9,170.1,48.5z M164.5,54.5c-0.3,0.9,0.7,1.3,1.3,2.2  C165.3,55.7,165.1,54.5,164.5,54.5z M163.4,52.6h0.7C163.8,51.7,163.8,52.4,163.4,52.6z M162.5,52.1c0.5,1,0.4,1.9,1.2,2.8  c0.2-0.4,0.5-1.1-0.5-2.2C163.1,52.7,162.8,52.5,162.5,52.1z M163.2,52.6C163.2,52.6,163.2,52.6,163.2,52.6c0.1,0,0.2,0,0.2,0H163.2  z M161.6,38.6c-1.6-1.3-3.7-2.7-4.6-3l0.3,0.7C158.9,37,160.3,38.6,161.6,38.6z M159.9,47.6c0.2,0.4,0.5,1,0.9,1.1  c-1.2-1.1,0.6-0.6-0.7-1.5l-0.9,0.5C160.1,48.9,159.4,47.4,159.9,47.6z M155.9,44.4l-1.7-1l0.3,1.8  C156.5,46.4,155.1,44.9,155.9,44.4z M151.5,41.2c1.7,0.7,1.7,0.8,3.1,1.1V42L151.5,41.2z M130.3,28.8c-0.6-0.6-3.4-0.9-4.5-1  C127.1,28.1,130.3,29.4,130.3,28.8z M78.1,30.6c0.1-0.1,0.2-0.1,0.3-0.2C78.3,30.4,78.2,30.5,78.1,30.6z M81.7,28.4  c-1.1,0.5-2.1,1-3.2,1.9c0.4-0.2,1.1-0.1,0.9-0.6C80.1,29.5,81.5,28.9,81.7,28.4z M69.3,33.7c0.4-0.5,1.2-0.7,0.8-1  C69.7,32.7,68.8,33.6,69.3,33.7z M16.9,91.4c0.1-1.4-0.3-0.7-0.4-1.7C16.1,90.9,16.2,91.6,16.9,91.4z M16.6,93l-0.5,0.8l0.9-0.9  L16.6,93z M15.8,101.3c-0.1-0.1-0.2-0.3-0.3-0.5C15.6,101.2,15.7,101.6,15.8,101.3z M15.5,100.7c0,0-0.1-0.1-0.1-0.2  C15.4,100.6,15.4,100.7,15.5,100.7z M15.6,100l-0.3-0.1c0.1,0.1,0.1,0.4,0.2,0.7C15.4,100.3,15.4,100,15.6,100z M15.2,102.5l0.6,1.3  l0.9-1.6C16.2,100.5,16.3,104.1,15.2,102.5z M20.1,117.4c-0.3-4.6-2.5-1.9-2.6-6.1c-0.3,2-0.7-1.3-1.1-1.9c-0.1,1.6,1.7,3.5,0.8,4.6  C18.5,118.2,18.8,112.7,20.1,117.4z M18.2,108.4c-0.6-0.2-0.4,1.7,0.1,2.3C18.3,110.1,18.9,109.1,18.2,108.4z M18.3,117.6l-0.1,1.4  l0.4,0.3L18.3,117.6z M19.3,122.6l-0.9-1C18.8,122.1,19.1,123.6,19.3,122.6z M21.6,129.5c-0.2-0.1-0.3,1.4-0.9,0  c0.2,1.2,2,1.7,0.8-0.6L21.6,129.5z M29.7,143c-0.4-0.7-1.1-1.5-1.2-1.2l1.4,1.8L29.7,143z M31.1,137.8c0.7,1.5,0.5,1.4,1.6,3.1  C33.1,139.8,31.6,139.2,31.1,137.8z M28.8,144.1c-0.3,0.5,0.6,1.8,1.2,1.8C29.4,145.6,29.1,144.6,28.8,144.1z M35.7,151.5  c-1.7-1.8-3.9-1.9-3.6-3.6c0,0-0.7-0.2-1.3-0.4c-0.6-0.2-1.2-0.5-1.2-0.5c1,1.8,1.9,0.6,2.6,1.8c0.1,0.8-0.5,0.2-0.4,0.8  c0.6,1.5,1.7,2.9,2.6,3.3C34.5,152.3,35,151.2,35.7,151.5z M32,142.9l0.2,1.4c0.3-0.5,0.9,0.3,1.4,0.8  C34.4,144.1,32.5,143.5,32,142.9z M43.4,160.2c0,0-0.4-0.3-0.8-0.5c-0.5-0.3-0.9-0.6-0.9-0.6c-0.1,0.1,2.3,1.8,2.3,1.8L43.4,160.2z   M42.8,160.7l-0.2,0.3l2.1,1L42.8,160.7z M43.1,161.8l1.7,1.2l-0.3-0.3L43.1,161.8z M47.3,165.3c0.6,0.3,1.8,1.2,1.9,1.8l-0.1-0.7  C48.4,166.1,47.6,164.7,47.3,165.3z M71.5,166.2c-0.5,0.1-0.4,0.5-0.3,0.9l1-0.4C72,166.6,71.6,166.4,71.5,166.2z M75.8,168.4  c-1.9-0.8-2.5-0.2-4.3-1c0.6,0.6,1.8,0.5,2.7,1.1l-0.5,0.2L75.8,168.4z M115.5,173.5l-2.4,0.7l0.3-0.5c-1.7-0.1-1,1-2.8,0.9  c-0.1,0.6,0.3,0.5-1.1,1c1.9-0.6,3.6-0.8,5.7-1.2C114.8,174.1,116.3,173.2,115.5,173.5z M183.2,111.6c0.3,0.3,0.6,0,0.9-0.3  C184,109.9,183.4,111.5,183.2,111.6z"/>
<g transform="translate(23.2 42.4) scale(0.15)">
 
 <g id="logo-group" fill="#f9a01e" transform="translate(-117.54 -114.36) scale(1.2296)">
  <path id="path134319" style="font-variant-ligatures:none" d="m391.97 558.97q-3.6973 0-5.7664-2.3405-2.0691-2.3744-2.0691-6.3091t2.0352-6.2752 5.5968-2.3405q1.5603 0 3.1546 0.61056 1.5942 0.57664 2.4083 1.3907v2.8154q0 0.3392-0.40704 0.3392-0.27136 0-0.44096-0.1696-0.13568-0.20352-0.20352-0.61056l-0.30528-1.696q-0.64448-0.61056-1.7978-0.94976-1.1533-0.37312-2.2726-0.37312-2.6797 0-4.2739 1.8995-1.5603 1.8995-1.5603 5.3594 0 3.4598 1.6282 5.3933 1.6282 1.9334 4.3418 1.9334 2.5101 0 4.3757-1.3907 0.37312-0.27136 0.57664-0.27136 0.23744 0 0.37312 0.20352 0.1696 0.1696 0.1696 0.44096 0 0.5088-0.98368 1.1194-1.8317 1.2211-4.5792 1.2211z" stroke-miterlimit="2" stroke-width="0"/>
  <path id="path134321" style="font-variant-ligatures:none" d="m409.09 558.97q-3.6294 0-5.6307-2.3066-2.0013-2.3405-2.0013-6.343 0-3.9686 2.0013-6.2752 2.0013-2.3405 5.6307-2.3405 3.5955 0 5.5968 2.3405 2.0013 2.3066 2.0013 6.2752 0 4.0026-2.0013 6.343-2.0013 2.3066-5.5968 2.3066zm0-1.3229q2.6458 0 4.1382-1.9334 1.5264-1.9334 1.5264-5.3933 0-3.4259-1.5264-5.3594-1.4925-1.9334-4.1382-1.9334-2.6458 0-4.1722 1.9334t-1.5264 5.3594q0 3.4598 1.5264 5.3933 1.5264 1.9334 4.1722 1.9334z" stroke-miterlimit="2" stroke-width="0"/>
  <path id="path134323" style="font-variant-ligatures:none" d="m420.98 558.59q-0.44096 0-0.44096-0.54272 0-0.71232 0.94976-0.71232h1.255v-14.043h-1.7638q-0.44096 0-0.44096-0.54272 0-0.71232 0.94976-0.71232h3.0189v2.4422h0.13568q2.9171-2.7814 6.0038-2.7814 2.3405 0 3.9008 1.3907 1.5942 1.3907 1.5942 3.799v10.413l1.7638 0.30528q0.40704 0.0678 0.57664 0.23744 0.1696 0.13568 0.1696 0.40704 0 0.3392-0.3392 0.3392h-5.8342q-0.44096 0-0.44096-0.54272 0-0.71232 0.94976-0.71232h1.255v-10.312q0-1.7638-1.0854-2.8154-1.0515-1.0854-2.985-1.0854-1.4586 0-2.9171 0.78016-1.4586 0.78016-2.6118 2.103v11.295l1.7638 0.30528q0.40704 0.0678 0.57664 0.23744 0.1696 0.13568 0.1696 0.40704 0 0.3392-0.3392 0.3392z" stroke-miterlimit="2" stroke-width="0"/>
  <path id="path134325" style="font-variant-ligatures:none" d="m448.11 558.97q-1.5942 0-3.3242-0.47488-1.696-0.47488-2.6118-1.289v-2.8832q0-0.37312 0.40704-0.37312 0.47488 0 0.64448 0.848l0.27136 1.5942q0.71232 0.61056 2.0013 0.91584t2.5101 0.30528q1.8656 0 3.0867-0.64448 1.255-0.64448 1.255-2.103 0-1.0176-0.47488-1.6282-0.44096-0.64448-1.3907-1.1194-0.94976-0.5088-2.951-1.289-2.6458-1.0515-3.9347-2.137-1.255-1.1194-1.255-2.8493 0-2.0691 1.6621-3.0867 1.6621-1.0515 4.0365-1.0515 1.5603 0 3.1546 0.61056 1.5942 0.57664 2.4083 1.3907v2.8154q0 0.13568-0.10176 0.23744t-0.30528 0.10176q-0.27136 0-0.44096-0.1696-0.13568-0.20352-0.20352-0.64448l-0.27136-1.6621q-0.64448-0.61056-1.7978-0.94976-1.1533-0.37312-2.3066-0.37312-1.6282 0-2.7475 0.64448-1.1194 0.61056-1.1194 1.9674 0 0.91584 0.5088 1.5264 0.54272 0.61056 1.4586 1.0854 0.94976 0.47488 2.985 1.3229 2.7475 1.1194 3.9008 2.2048t1.1533 2.985q0 2.137-1.7978 3.1546-1.7638 1.0176-4.4096 1.0176z" stroke-miterlimit="2" stroke-width="0"/>
  <path id="path134327" style="font-variant-ligatures:none" d="m461.59 539.16q-0.64448 0-1.0854-0.40704-0.40704-0.44096-0.40704-1.1194 0-0.6784 0.40704-1.0854 0.44096-0.40704 1.0854-0.40704 0.64448 0 1.0515 0.40704 0.44096 0.40704 0.44096 1.0854 0 0.71232-0.44096 1.1194-0.40704 0.40704-1.0515 0.40704zm-2.6797 19.436q-0.44096 0-0.44096-0.54272 0-0.71232 0.94976-0.71232h1.289v-14.043h-1.7978q-0.44096 0-0.44096-0.54272 0-0.71232 0.94976-0.71232h3.1885v15.264l1.7299 0.30528q0.74624 0.1696 0.74624 0.64448 0 0.3392-0.3392 0.3392z" stroke-miterlimit="2" stroke-width="0"/>
  <path id="path134329" style="font-variant-ligatures:none" d="m475.66 558.97q-2.0691 0-3.7312-0.91584t-2.6458-2.8154q-0.94976-1.9334-0.94976-4.7827 0-2.6458 0.94976-4.6131 0.98368-2.0013 2.6797-3.0528 1.7299-1.0854 3.9347-1.0854 2.8832 0 5.2237 1.7299v-7.6659h-1.7299q-0.44096 0-0.44096-0.54272 0-0.71232 0.91584-0.71232h3.1546v22.794l1.3907 0.30528q0.44096 0.10176 0.61056 0.23744t0.1696 0.40704q0 0.3392-0.3392 0.3392h-3.5955v-2.5101h-0.13568q-1.9334 2.8832-5.4611 2.8832zm0.47488-1.3229q1.3229 0 2.4762-0.61056 1.1533-0.64448 1.8317-1.7299 0.6784-1.1194 0.6784-2.4762v-7.8694q-2.1709-1.9334-4.8845-1.9334-1.6621 0-3.0189 0.848-1.3229 0.81408-2.137 2.5101-0.78016 1.696-0.78016 4.1043 0 3.3581 1.4586 5.2576 1.4925 1.8995 4.3757 1.8995z" stroke-miterlimit="2" stroke-width="0"/>
  <path id="path134331" style="font-variant-ligatures:none" d="m496.64 558.97q-2.3744 0-4.1722-1.0515-1.7638-1.0515-2.7136-2.985-0.94976-1.9334-0.94976-4.5114 0-3.9347 2.0013-6.3091 2.0013-2.4083 5.5968-2.4083 3.2563 0 5.088 1.9334 1.8317 1.8995 1.8317 5.088 0 0.91584-0.40704 1.9334h-12.177q0 3.3581 1.6621 5.1898 1.696 1.7978 4.3078 1.7978 2.5779 0 4.4774-1.3907 0.0678-0.0339 0.23744-0.13568 0.1696-0.13568 0.3392-0.13568 0.23744 0 0.40704 0.20352 0.1696 0.1696 0.1696 0.44096t-0.23744 0.54272q-0.23744 0.23744-0.71232 0.54272-2.0013 1.255-4.7488 1.255zm4.6131-9.6333q0.13568-0.47488 0.13568-0.94976 0-2.5779-1.3907-3.9686t-3.5955-1.3907q-2.3744 0-3.9008 1.696-1.5264 1.6621-1.7299 4.6131z" stroke-miterlimit="2" stroke-width="0"/>
  <path id="path134333" style="font-variant-ligatures:none" d="m507.97 558.59q-0.44096 0-0.44096-0.54272 0-0.71232 0.94976-0.71232h1.255v-14.043h-1.7638q-0.44096 0-0.44096-0.54272 0-0.71232 0.94976-0.71232h3.0189v3.3242h0.13568q1.3229-1.5264 2.8832-2.5779 1.5603-1.0854 2.7814-1.0854 0.54272 0 0.848 0.27136 0.3392 0.27136 0.3392 0.74624 0 0.54272-0.3392 0.94976-3.4598 0-6.5126 3.2224v10.413l1.7638 0.30528q0.40704 0.0678 0.57664 0.23744 0.1696 0.13568 0.1696 0.40704 0 0.3392-0.3392 0.3392z" stroke-miterlimit="2" stroke-width="0"/>
  <path id="path134335" style="font-variant-ligatures:none" d="m534.73 539.16q-0.64448 0-1.0854-0.40704-0.40704-0.44096-0.40704-1.1194 0-0.6784 0.40704-1.0854 0.44096-0.40704 1.0854-0.40704 0.64448 0 1.0515 0.40704 0.44096 0.40704 0.44096 1.0854 0 0.71232-0.44096 1.1194-0.40704 0.40704-1.0515 0.40704zm-2.6797 19.436q-0.44096 0-0.44096-0.54272 0-0.71232 0.94976-0.71232h1.289v-14.043h-1.7978q-0.44096 0-0.44096-0.54272 0-0.71232 0.94976-0.71232h3.1885v15.264l1.7299 0.30528q0.74624 0.1696 0.74624 0.64448 0 0.3392-0.3392 0.3392z" stroke-miterlimit="2" stroke-width="0"/>
  <path id="path134337" style="font-variant-ligatures:none" d="m547.59 558.97q-1.696 0-2.8154-1.0176-1.1194-1.0515-1.1194-2.951v-11.533h-2.3066q-0.1696 0-0.30528-0.1696t-0.13568-0.40704q0-0.37312 0.23744-0.57664 0.27136-0.23744 0.71232-0.23744h1.7978l0.37312-3.4938h1.5264v3.4938h5.1558q0.3392 0 0.3392 0.37312 0 0.30528-0.30528 0.44096-0.27136 0.13568-0.88192 0.20352l-4.3078 0.37312v11.668q0 1.2211 0.61056 1.8656 0.64448 0.61056 1.7299 0.61056 0.74624 0 1.3229-0.20352 0.57664-0.23744 1.0854-0.71232 0.30528-0.30528 0.54272-0.30528t0.37312 0.1696q0.1696 0.13568 0.1696 0.44096 0 0.23744-0.23744 0.54272t-0.64448 0.57664q-1.3229 0.848-2.9171 0.848z" stroke-miterlimit="2" stroke-width="0"/>
  <path id="path134339" style="font-variant-ligatures:none" d="m572.19 558.97q-2.0691 0-3.7312-0.91584t-2.6458-2.8154q-0.94976-1.9334-0.94976-4.7827 0-2.6458 0.94976-4.6131 0.98368-2.0013 2.6797-3.0528 1.7299-1.0854 3.9347-1.0854 2.8832 0 5.2237 1.7299v-7.6659h-1.7299q-0.44096 0-0.44096-0.54272 0-0.71232 0.91584-0.71232h3.1546v22.794l1.3907 0.30528q0.44096 0.10176 0.61056 0.23744t0.1696 0.40704q0 0.3392-0.3392 0.3392h-3.5955v-2.5101h-0.13568q-1.9334 2.8832-5.4611 2.8832zm0.47488-1.3229q1.3229 0 2.4762-0.61056 1.1533-0.64448 1.8317-1.7299 0.6784-1.1194 0.6784-2.4762v-7.8694q-2.1709-1.9334-4.8845-1.9334-1.6621 0-3.0189 0.848-1.3229 0.81408-2.137 2.5101-0.78016 1.696-0.78016 4.1043 0 3.3581 1.4586 5.2576 1.4925 1.8995 4.3757 1.8995z" stroke-miterlimit="2" stroke-width="0"/>
  <path id="path134341" style="font-variant-ligatures:none" d="m592.34 558.97q-3.6294 0-5.6307-2.3066-2.0013-2.3405-2.0013-6.343 0-3.9686 2.0013-6.2752 2.0013-2.3405 5.6307-2.3405 3.5955 0 5.5968 2.3405 2.0013 2.3066 2.0013 6.2752 0 4.0026-2.0013 6.343-2.0013 2.3066-5.5968 2.3066zm0-1.3229q2.6458 0 4.1382-1.9334 1.5264-1.9334 1.5264-5.3933 0-3.4259-1.5264-5.3594-1.4925-1.9334-4.1382-1.9334-2.6458 0-4.1722 1.9334t-1.5264 5.3594q0 3.4598 1.5264 5.3933 1.5264 1.9334 4.1722 1.9334z" stroke-miterlimit="2" stroke-width="0"/>
  <path id="path134343" style="font-variant-ligatures:none" d="m604.23 558.59q-0.44096 0-0.44096-0.54272 0-0.71232 0.94976-0.71232h1.255v-14.043h-1.7638q-0.44096 0-0.44096-0.54272 0-0.71232 0.94976-0.71232h3.0189v2.4422h0.13568q2.9171-2.7814 6.0038-2.7814 2.3405 0 3.9008 1.3907 1.5942 1.3907 1.5942 3.799v10.413l1.7638 0.30528q0.40704 0.0678 0.57664 0.23744 0.1696 0.13568 0.1696 0.40704 0 0.3392-0.3392 0.3392h-5.8342q-0.44096 0-0.44096-0.54272 0-0.71232 0.94976-0.71232h1.255v-10.312q0-1.7638-1.0854-2.8154-1.0515-1.0854-2.985-1.0854-1.4586 0-2.9171 0.78016-1.4586 0.78016-2.6118 2.103v11.295l1.7638 0.30528q0.40704 0.0678 0.57664 0.23744 0.1696 0.13568 0.1696 0.40704 0 0.3392-0.3392 0.3392z" stroke-miterlimit="2" stroke-width="0"/>
  <path id="path134345" style="font-variant-ligatures:none" d="m633.19 558.97q-2.3744 0-4.1722-1.0515-1.7638-1.0515-2.7136-2.985-0.94976-1.9334-0.94976-4.5114 0-3.9347 2.0013-6.3091 2.0013-2.4083 5.5968-2.4083 3.2563 0 5.088 1.9334 1.8317 1.8995 1.8317 5.088 0 0.91584-0.40704 1.9334h-12.177q0 3.3581 1.6621 5.1898 1.696 1.7978 4.3078 1.7978 2.5779 0 4.4774-1.3907 0.0678-0.0339 0.23744-0.13568 0.1696-0.13568 0.3392-0.13568 0.23744 0 0.40704 0.20352 0.1696 0.1696 0.1696 0.44096t-0.23744 0.54272q-0.23744 0.23744-0.71232 0.54272-2.0013 1.255-4.7488 1.255zm4.6131-9.6333q0.13568-0.47488 0.13568-0.94976 0-2.5779-1.3907-3.9686t-3.5955-1.3907q-2.3744 0-3.9008 1.696-1.5264 1.6621-1.7299 4.6131z" stroke-miterlimit="2" stroke-width="0"/>
  <path id="path134348" style="font-variant-ligatures:none" d="m307.06 511.85q-0.42188-0.28125-1.2656-1.4062-0.98436-0.98438-1.5469-2.1094-0.5625-1.125-0.42188-1.9688 0-0.84375 1.5469-0.84375 2.9531 4.0781 8.2969 3.0938 5.3438-0.98437 11.531-4.9219 6.1875-3.7969 12.516-9.7031 6.4688-5.7656 11.531-11.531 5.2031-5.7656 8.4375-10.406 3.375-4.6406 3.375-6.1875 0-0.42188-1.125-1.2656-1.125-0.98437-2.6719-1.9688-1.4063-0.98437-2.6719-1.8281-1.2656-0.84375-1.5469-1.2656 0.42188-1.4062 2.6719-2.1094 2.25-0.84375 5.0625-1.4062 2.8125-0.70313 5.4844-1.2656 2.8125-0.70312 4.2187-1.6875 7.4531-10.828 12.938-19.406 5.625-8.7188 10.547-17.016 5.0625-8.4375 10.266-17.297 5.2031-8.8594 11.953-19.969 1.8281-3.0938 2.9531-2.1094 1.125 0.98438 1.6875 4.7812 0.5625 3.7969 0.70312 9.7031 0.1406 5.7656 0 12.516-0.1406 6.75-0.5625 13.781-0.28124 7.0312-0.70312 12.938-0.28126 5.9062-0.5625 10.266-0.1406 4.2188 0 5.4844 0.5625 7.1719 0.70312 12.516 0.28126 5.2031 1.4063 9.7031 1.125 4.3594 3.7969 8.5781 2.8125 4.0781 8.4375 9-4.6406 1.5469-7.7344-0.28125-2.9531-1.6875-4.9219-5.2031-1.8281-3.6562-3.0938-8.2969-1.125-4.7812-2.25-9.1406-0.98436-4.5-2.3906-7.7344-1.2656-3.375-3.5156-4.3594-0.1406 0-0.84376 0-0.5625-0.14062-1.4062-0.14062-0.70312 0-1.4063 0.14062-0.70312 0-0.98436 0-1.2656 0.28125-4.7813 1.125-3.375 0.84375-7.4531 1.8281-4.0781 0.98438-7.875 1.9688-3.6563 0.98438-5.3438 1.4062-3.5156 0.98438-7.4531 4.5-3.7969 3.5156-8.1562 8.5781-4.2188 4.9219-8.8594 10.828-4.5 5.9062-9.2813 11.531-4.7812 5.625-9.7031 10.406-4.9219 4.7813-9.8437 7.7344-4.9219 2.9531-9.8438 3.2344-5.0625 0.42187-9.8437-2.8125zm76.219-61.875q0.28126 0.14062 1.4063 0.14062 1.2656 0 1.6875-0.14062 2.5312-0.42188 6.3281-0.98438t7.5937-1.2656q3.7969-0.84375 7.0313-1.8281 3.2344-1.125 4.5-2.3906 0 0 0.42188-2.9531 0.42186-2.9531 0.98436-7.4531 0.5625-4.6406 1.125-10.125 0.70314-5.625 1.2656-10.969 0.5625-5.3438 0.84374-9.8438 0.42188-4.6406 0.5625-7.1719-1.5469-0.70312-4.0781 3.6562-2.5313 4.2188-6.6094 11.672-3.9375 7.4531-9.7031 17.438-5.625 9.8438-13.359 20.531z" stroke-miterlimit="2" stroke-width="0"/>
  <path id="path134350" style="font-variant-ligatures:none" d="m452.76 484.29q-2.6719-1.5469-1.9688-4.3594 0.84376-2.8125 4.0781-6.3281 3.2344-3.6562 8.1562-7.7344 5.0625-4.2188 10.828-8.7188 5.9063-4.5 11.953-9 6.0469-4.6406 11.25-9 5.3437-4.3594 9.1406-8.2969 3.9375-3.9375 5.3437-7.0312-0.28124-1.8281-2.8125-1.9688-2.5312-0.28125-6.0469 0.28125-3.5156 0.42187-7.4531 1.2656-3.9375 0.84375-7.0312 0.98438-3.0938 0-4.7813-0.98438-1.5469-1.125-0.5625-4.2188 0.1406-0.28125 2.9531-1.125 2.9531-0.98437 7.3125-1.9688 4.3594-0.98437 9.4219-1.6875 5.0625-0.70312 9.4219-0.5625 4.3594 0 7.3125 1.2656 3.0938 1.2656 3.2344 4.2188 0.28124 2.9531-2.9531 7.875-3.2344 4.9219-11.25 12.516-0.42188 0.5625-2.3906 2.25-1.8281 1.6875-4.2187 3.7969-2.25 1.9688-4.5 3.9375-2.1094 1.8281-3.0938 2.6719-0.98436 0.84375-3.5156 2.8125-2.5312 1.8281-5.7656 4.3594-3.0938 2.3906-6.4688 5.0625t-6.0469 5.0625-4.2188 4.2188q-1.5469 1.6875-0.98438 2.3906 5.9063 0.5625 11.812 0 6.0469-0.70313 11.953-1.5469 5.9062-0.84375 11.812-1.4062 6.0469-0.70312 12.094-0.14062 1.4063 0.84375 2.6719 2.6719 1.4062 1.6875 0.42188 3.6562-3.6563 0.28125-9.1406 1.2656-5.3437 0.84375-11.672 1.9688-6.1875 1.125-12.797 2.25-6.6094 0.98438-12.656 1.4062-5.9062 0.42188-10.969 0-4.9219-0.28125-7.875-2.1094z" stroke-miterlimit="2" stroke-width="0"/>
  <path id="path134352" style="font-variant-ligatures:none" d="m549.53 484.29q-0.1406-0.28125-0.1406-1.5469t0.1406-1.6875q0.42188-1.5469 1.5469-5.3438 1.125-3.9375 2.3906-8.1562 1.2656-4.3594 2.3906-8.1562 1.125-3.7969 1.5469-5.3438 0.5625-1.9688 1.2656-4.5 0.70314-2.6719 0.28126-5.0625-2.1094-0.28125-5.2031 0.5625-3.0938 0.70313-6.1875 1.2656-2.9531 0.42187-5.625 0-2.5313-0.5625-3.6563-3.375 1.6875-3.5156 5.0625-4.5 3.375-1.125 7.3125-1.5469 3.9375-0.42187 7.4531-1.2656 3.6563-0.84375 5.7656-3.7969 1.2656-3.6562 2.9531-8.8594 1.8281-5.3438 3.7969-11.109 1.9687-5.7656 4.2187-11.391 2.3906-5.625 4.9219-9.9844 1.5469-0.98437 2.5312-0.14062 0.98438 0.84375 1.4063 2.5312 0.5625 1.5469 0.70312 3.2344 0.1406 1.6875 0 2.25-0.84374 3.6562-2.9531 7.875-1.9688 4.0781-3.7969 8.2969-1.6875 4.2188-2.8125 8.4375-0.98438 4.2188 0 8.0156h30.234q0.1406 0 0.70312 0.98438 0.5625 0.84375 0.98438 1.4062 0.70312 1.9688-1.5469 2.6719-2.25 0.70313-6.0469 0.98438-3.7969 0.14062-8.7187 0.28125-4.7813 0-9.2813 0.70312-4.3594 0.5625-7.875 2.1094-3.5156 1.4062-4.7812 4.3594-3.6563 9.4219-6.75 18.984-3.0938 9.4219-5.9063 19.125-0.28124 0.42187-1.125 1.4062-0.84374 0.84375-1.8281 1.5469-0.98438 0.5625-1.9687 0.42188-0.84376-0.14063-1.4063-1.6875z" stroke-miterlimit="2" stroke-width="0"/>
  <path id="path134354" style="font-variant-ligatures:none" d="m608.75 484.29q5.7656-18.562 10.406-29.391 4.7813-10.969 7.875-15.328 3.2344-4.3594 4.3594-2.8125t-0.28126 7.875q-1.2656 6.3281-5.625 17.016-4.2187 10.547-11.953 24.188-1.125 0.42187-2.6719 0.14062t-2.1094-1.6875zm24.609-67.641q-0.28124-0.70312-0.28124-2.5312t0.28124-2.25q3.2344-1.125 4.9219-0.28125t2.1094 2.5312q0.42188 1.5469-0.1406 3.375-0.42188 1.8281-1.5469 2.8125-1.125 0.84375-2.6719 0.28125-1.4062-0.70312-2.6719-3.9375z" stroke-miterlimit="2" stroke-width="0"/>
  <path id="path134356" style="font-variant-ligatures:none" d="m657 484.29q-0.28126-0.14062 0-3.2344 0.42186-3.2344 1.125-8.0156 0.70312-4.7812 1.8281-10.547 1.125-5.7656 2.3906-10.969 1.2656-5.3438 2.6719-9.2812 1.5469-4.0781 2.9531-5.625 0.98438-0.98437 1.9688 0 0.98436 0.84375 1.9687 2.25 0.98438 1.2656 1.9688 2.3906 0.98436 0.98437 2.1094 0.14062 3.9375-5.4844 8.5781-10.406 4.7812-5.0625 10.547-8.7188 0.5625-0.42188 3.0938-1.2656 2.5312-0.98437 5.7656-1.8281 3.2344-0.98438 6.6094-1.5469 3.5156-0.70312 5.9062-0.5625 2.5313 0 3.375 1.2656 0.98438 1.125-0.84374 3.9375-8.4375 0.14062-15.75 4.9219-7.3125 4.7812-13.5 11.812-6.1875 7.0312-11.25 15.328-5.0625 8.1562-8.8594 15.188-3.6562 7.0312-6.1875 11.672-2.3906 4.6406-3.5156 4.6406-0.1406 0-1.2656-0.5625-1.125-0.70313-1.6875-0.98438z" stroke-miterlimit="2" stroke-width="0"/>
  <path id="icon" stroke-width=".75" d="m472.06 251.66c-0.008 0-7.8915 5.7188-17.519 12.708l-17.504 12.708 4.0678 0.0104 4.0678 0.0108v32.859h-5.2962v6.3384h131.6v-6.3384h-4.3368v-30.16l2.8778-0.0104 2.8781-0.0108-2.8735-4.6078-2.8731-4.6078-34.53-0.0105-34.535-0.0105-2.2095-1.608-2.2103-1.6072v-12.26h-8.0062l-0.0104 3.2142-0.0109 3.2142-6.7837-4.9239c-3.7305-2.7075-6.7905-4.9238-6.798-4.9238zm-14.211 33.278h4.0449v8.0895h-8.0895v-8.0895zm32.265 0.0104 4.0345 0.0104 0.0104 4.0345 0.0108 4.0345h-8.0895v-8.0902zm24.968-0.0104h4.024v8.0895h-8.0482v-8.0895zm17.691 0.0104 4.0345 0.0104 0.0104 4.0345 0.0109 4.0345h-8.0903v-8.0902zm17.691-0.0104h4.0449v8.0895h-8.0895v-8.0895zm-76.478 6.0882h4.7955v19.224h-9.591v-19.224zm106.42 7.2195c-0.17514 0.003-0.45911 0.0217-0.63134 0.0412-0.1718 0.02-0.46287 0.0663-0.64634 0.10384-0.18349 0.0371-0.50207 0.12259-0.70807 0.18973-0.206 0.0671-0.54961 0.20516-0.7635 0.3065-0.21434 0.10132-0.57088 0.30399-0.79313 0.45036-0.22225 0.14636-0.55377 0.39615-0.73641 0.55502-0.18307 0.15929-0.46246 0.43868-0.62175 0.62175-0.15888 0.18265-0.40908 0.51457-0.55587 0.73767-0.14678 0.22268-0.34777 0.57922-0.44702 0.7923-0.0992 0.21267-0.23769 0.56503-0.30691 0.78315-0.0697 0.21767-0.15596 0.53918-0.19182 0.71349-0.0359 0.17472-0.0863 0.54502-0.11175 0.82275-0.0338 0.36988-0.0334 0.64302 0.00041 1.0184 0.0254 0.28231 0.0909 0.71056 0.14553 0.95242 0.0546 0.24144 0.17556 0.64093 0.26855 0.88778 0.093 0.24728 0.25396 0.60465 0.35737 0.79477 0.10383 0.18974 0.29357 0.49206 0.42242 0.67137 0.12886 0.17931 0.34945 0.45662 0.49081 0.6155 0.14137 0.15929 0.41659 0.42325 0.61132 0.58672 0.19516 0.16388 0.48706 0.38572 0.64886 0.49331 0.16179 0.10758 0.48079 0.28856 0.7089 0.40198 0.22809 0.11385 0.57421 0.26271 0.76897 0.33069 0.19516 0.0684 0.50457 0.15554 0.68805 0.19431 0.18348 0.0384 0.37572 0.0784 0.42743 0.0888l0.0938 0.0196v4.8772h1.9182v-4.873l0.23978-0.0479c0.13177-0.0263 0.31483-0.0659 0.40657-0.0884 0.0917-0.0225 0.31692-0.0892 0.5004-0.14844 0.18348-0.0592 0.51125-0.19016 0.7285-0.29107 0.21684-0.10091 0.6109-0.32693 0.8757-0.50291 0.34111-0.22643 0.62008-0.45911 0.96038-0.80107 0.26396-0.26522 0.59547-0.64677 0.73725-0.84818 0.14178-0.20099 0.36237-0.57045 0.48998-0.8202 0.12801-0.2502 0.2969-0.64843 0.37613-0.88485 0.0788-0.23685 0.18515-0.62758 0.23644-0.86865 0.0771-0.36321 0.0934-0.57254 0.0942-1.2302 0.001-0.60048-0.0171-0.88822-0.0746-1.1884-0.0421-0.21809-0.14845-0.61674-0.23602-0.88657-0.088-0.26938-0.25688-0.68221-0.3753-0.9174-0.11885-0.23477-0.33068-0.59589-0.4708-0.80228-0.1497-0.22059-0.46996-0.59088-0.77685-0.89865-0.31692-0.31775-0.66887-0.62258-0.897-0.77647-0.20641-0.13928-0.56295-0.34736-0.7923-0.46246-0.22935-0.11467-0.57629-0.26479-0.77145-0.33318-0.19474-0.0688-0.52333-0.16388-0.72975-0.21142-0.20641-0.0479-0.56962-0.10675-0.8073-0.13052-0.23727-0.0242-0.57504-0.0413-0.7506-0.0383z"/>
 </g>
</g></svg>
