<?xml version="1.0" encoding="utf-8"?>
<svg version="1.1" xmlns:cc="http://creativecommons.org/ns#" xmlns:dc="http://purl.org/dc/elements/1.1/" xmlns:rdf="http://www.w3.org/1999/02/22-rdf-syntax-ns#" xmlns="http://www.w3.org/2000/svg" xmlns:xlink="http://www.w3.org/1999/xlink" x="0px" y="0px" viewBox="0 0 1024 1024" xml:space="preserve">
<defs>
<filter id="f1" x="-50%" y="-50%" width="200%" height="200%">
  <feGaussianBlur in="SourceGraphic" stdDeviation="20" />
</filter>
</defs>
<g transform="translate(0 128)">
<path d="m462.89 195.07c-0.01 0-9.7 7.03-21.54 15.63l-21.52 15.62 5 0.01 5 0.02v40.4h-6.51v7.79h161.81v-7.79h-5.33v-37.07l3.54-0.01 3.54-0.02-3.53-5.66-3.54-5.67-42.45-0.01-42.47-0.02-2.71-1.97-2.72-1.98v-15.07h-9.85l-0.01 3.95-0.01 3.96-8.34-6.06c-4.59-3.32-8.35-6.05-8.36-6.05zm-22.44 40.92h4.97 4.97v9.94h-9.94v-9.94zm39.68 0l4.96 0.01 4.96 0.01 0.01 4.96 0.02 4.96h-9.95v-9.94zm30.71 0h4.95 4.95v9.94h-9.9v-9.94zm21.74 0l4.96 0.01 4.96 0.01 0.02 4.96 0.01 4.96h-9.95v-9.94zm21.74 0h4.97 4.98v9.94h-9.95v-9.94zm-94.96 7.48h5.9 5.9v23.64h-11.8v-23.64zm136.76 8.88c-0.22 0-0.57 0.03-0.78 0.05s-0.57 0.08-0.79 0.13c-0.23 0.04-0.62 0.15-0.87 0.23-0.26 0.08-0.68 0.25-0.94 0.38-0.27 0.12-0.7 0.37-0.98 0.55-0.27 0.18-0.68 0.49-0.9 0.69-0.23 0.19-0.57 0.53-0.77 0.76-0.19 0.22-0.5 0.63-0.68 0.91-0.18 0.27-0.43 0.71-0.55 0.97s-0.29 0.69-0.38 0.96c-0.08 0.27-0.19 0.67-0.23 0.88-0.05 0.22-0.11 0.67-0.14 1.01-0.04 0.46-0.04 0.79 0 1.25 0.03 0.35 0.11 0.88 0.18 1.17 0.06 0.3 0.21 0.79 0.33 1.1 0.11 0.3 0.31 0.74 0.44 0.97 0.12 0.24 0.36 0.61 0.52 0.83 0.15 0.22 0.43 0.56 0.6 0.76 0.17 0.19 0.51 0.52 0.75 0.72s0.6 0.47 0.8 0.61c0.2 0.13 0.59 0.35 0.87 0.49s0.71 0.32 0.95 0.41c0.24 0.08 0.62 0.19 0.84 0.23 0.23 0.05 0.46 0.1 0.53 0.11l0.11 0.03v5.99h2.36v-5.99l0.3-0.06c0.16-0.03 0.38-0.08 0.5-0.11 0.11-0.02 0.39-0.1 0.61-0.18 0.23-0.07 0.63-0.23 0.9-0.36 0.26-0.12 0.75-0.4 1.08-0.61 0.41-0.28 0.76-0.57 1.18-0.99 0.32-0.32 0.73-0.79 0.9-1.04 0.18-0.25 0.45-0.7 0.6-1.01 0.16-0.31 0.37-0.8 0.47-1.09 0.09-0.29 0.23-0.77 0.29-1.07 0.09-0.44 0.11-0.7 0.11-1.51 0-0.74-0.02-1.09-0.09-1.46-0.05-0.27-0.18-0.76-0.29-1.09s-0.31-0.84-0.46-1.13-0.41-0.73-0.58-0.98c-0.18-0.28-0.58-0.73-0.95-1.11-0.39-0.39-0.83-0.77-1.11-0.96-0.25-0.17-0.69-0.42-0.97-0.56s-0.71-0.33-0.95-0.41c-0.24-0.09-0.64-0.2-0.9-0.26-0.25-0.06-0.7-0.13-0.99-0.16s-0.71-0.05-0.92-0.05zm-199.05 96.88c-0.8 0.02-1.76 0.99-2.88 2.89-5.53 9.1-10.43 17.29-14.7 24.55-4.26 7.26-8.47 14.35-12.62 21.27-4.04 6.8-8.36 13.77-12.97 20.92-4.5 7.03-9.8 14.98-15.91 23.86-1.15 0.81-2.88 1.5-5.18 2.08-2.19 0.46-4.44 0.98-6.75 1.55-2.3 0.46-4.38 1.04-6.22 1.73-1.85 0.58-2.94 1.44-3.29 2.6 0.23 0.34 0.87 0.86 1.91 1.55 1.03 0.69 2.13 1.44 3.28 2.25 1.27 0.81 2.36 1.61 3.29 2.42 0.92 0.69 1.38 1.21 1.38 1.56 0 1.26-1.39 3.8-4.15 7.6-2.65 3.81-6.11 8.07-10.38 12.8-4.15 4.73-8.87 9.45-14.17 14.18-5.19 4.84-10.32 8.82-15.39 11.93-5.08 3.23-9.8 5.24-14.18 6.05s-7.78-0.46-10.2-3.8c-1.27 0-1.9 0.34-1.9 1.03-0.12 0.7 0.05 1.5 0.51 2.42 0.46 0.93 1.1 1.79 1.91 2.6 0.69 0.92 1.21 1.5 1.55 1.73 3.92 2.65 7.96 3.8 12.11 3.46 4.03-0.24 8.06-1.56 12.1-3.98 4.03-2.42 8.07-5.59 12.1-9.51 4.04-3.92 8.01-8.19 11.93-12.8s7.73-9.33 11.42-14.18c3.8-4.84 7.43-9.28 10.89-13.31 3.57-4.15 6.92-7.67 10.03-10.55 3.23-2.88 6.28-4.72 9.16-5.53 1.39-0.35 3.58-0.92 6.57-1.73 3.11-0.81 6.34-1.61 9.68-2.42 3.35-0.81 6.4-1.56 9.17-2.25 2.88-0.69 4.84-1.15 5.88-1.38h1.21c0.57-0.12 1.15-0.17 1.73-0.17 0.69 0 1.27 0.05 1.73 0.17h1.03c1.85 0.81 3.29 2.59 4.33 5.36 1.15 2.65 2.13 5.82 2.94 9.51 0.92 3.57 1.84 7.32 2.76 11.24 1.04 3.8 2.31 7.2 3.81 10.2 1.61 2.88 3.63 5.01 6.05 6.4 2.53 1.5 5.7 1.61 9.51 0.34-4.61-4.03-8.07-7.72-10.38-11.06-2.19-3.46-3.74-6.98-4.66-10.55-0.93-3.69-1.5-7.67-1.73-11.93-0.12-4.38-0.41-9.51-0.87-15.39-0.11-1.04-0.11-3.28 0-6.74 0.23-3.58 0.46-7.78 0.69-12.63 0.35-4.84 0.64-10.14 0.87-15.9 0.34-5.77 0.57-11.42 0.69-16.95 0.11-5.53 0.11-10.66 0-15.39-0.12-4.84-0.4-8.82-0.87-11.93-0.46-3.11-1.15-5.07-2.07-5.88-0.23-0.2-0.48-0.3-0.75-0.29zm199.98 15.9c-0.52 0.03-1.1 0.24-1.73 0.65-2.07 3.57-4.09 7.66-6.05 12.27-1.84 4.61-3.57 9.28-5.19 14.01-1.61 4.72-3.17 9.28-4.67 13.66-1.38 4.26-2.59 7.89-3.63 10.89-1.73 2.42-4.09 3.98-7.09 4.67-2.88 0.69-5.93 1.21-9.16 1.56-3.23 0.34-6.23 0.98-8.99 1.9-2.77 0.81-4.84 2.65-6.23 5.53 0.92 2.31 2.42 3.69 4.5 4.15 2.19 0.35 4.49 0.35 6.91 0 2.54-0.46 5.08-0.98 7.61-1.55 2.54-0.7 4.67-0.93 6.4-0.7 0.35 1.96 0.23 4.04-0.35 6.23-0.57 2.07-1.09 3.92-1.55 5.53-0.35 1.27-0.98 3.46-1.9 6.57-0.93 3.11-1.91 6.46-2.94 10.03-1.04 3.46-2.02 6.8-2.94 10.03-0.93 3.11-1.56 5.3-1.91 6.57-0.11 0.35-0.17 1.04-0.17 2.08 0 1.03 0.06 1.67 0.17 1.9 0.47 1.27 1.04 1.96 1.74 2.07 0.8 0.12 1.61-0.05 2.41-0.52 0.81-0.57 1.56-1.21 2.25-1.9 0.69-0.81 1.16-1.38 1.39-1.73 2.3-7.95 4.72-15.79 7.26-23.51 2.53-7.84 5.3-15.62 8.3-23.35 1.04-2.42 3-4.2 5.88-5.36 2.88-1.26 6.11-2.13 9.68-2.59 3.69-0.58 7.49-0.86 11.41-0.86 4.04-0.12 7.61-0.23 10.72-0.35 3.11-0.23 5.59-0.63 7.44-1.21 1.84-0.58 2.48-1.67 1.9-3.29-0.35-0.46-0.75-1.03-1.21-1.72-0.46-0.81-0.75-1.22-0.87-1.22h-37.17c-0.81-3.11-0.81-6.39 0-9.85 0.92-3.46 2.07-6.92 3.46-10.38 1.5-3.45 3.05-6.85 4.66-10.2 1.73-3.46 2.95-6.68 3.64-9.68 0.11-0.46 0.11-1.38 0-2.77-0.12-1.38-0.41-2.71-0.87-3.97-0.34-1.39-0.92-2.42-1.73-3.12-0.4-0.34-0.86-0.5-1.38-0.47zm-202.32 6.06c0.17 0.01 0.34 0.05 0.5 0.12-0.12 2.08-0.35 5.01-0.69 8.82-0.24 3.69-0.58 7.72-1.04 12.1s-0.98 8.88-1.56 13.49c-0.46 4.49-0.92 8.64-1.38 12.45-0.46 3.69-0.87 6.74-1.21 9.16l-0.52 3.63c-1.04 1.04-2.88 2.02-5.54 2.94-2.65 0.81-5.53 1.56-8.64 2.25-3.11 0.58-6.23 1.1-9.34 1.56s-5.7 0.86-7.78 1.21c-0.34 0.11-1.04 0.17-2.07 0.17-0.93 0-1.5-0.06-1.73-0.17v-2.08c6.34-8.76 11.81-17.17 16.42-25.24 4.73-8.19 8.71-15.33 11.94-21.44 3.34-6.11 6.05-10.9 8.12-14.36 1.82-3.12 3.32-4.66 4.52-4.61zm270.72 20.09c-1.17-0.06-2.57 0.2-4.23 0.78-0.23 0.34-0.35 1.27-0.35 2.77 0 1.49 0.12 2.53 0.35 3.11 1.04 2.65 2.13 4.26 3.28 4.84 1.27 0.46 2.37 0.35 3.29-0.35 0.92-0.8 1.56-1.96 1.9-3.46 0.46-1.49 0.52-2.88 0.17-4.14-0.34-1.39-1.21-2.43-2.59-3.12-0.52-0.26-1.13-0.4-1.82-0.43zm-156.23 3.18c-2.78 0.04-5.73 0.28-8.84 0.71-4.15 0.58-8.02 1.27-11.59 2.08-3.57 0.8-6.57 1.61-8.99 2.42-2.31 0.69-3.52 1.15-3.63 1.38-0.81 2.54-0.58 4.26 0.69 5.19 1.38 0.8 3.34 1.21 5.88 1.21 2.53-0.12 5.42-0.52 8.64-1.21 3.23-0.7 6.29-1.21 9.17-1.56 2.88-0.46 5.36-0.57 7.43-0.34 2.08 0.11 3.23 0.92 3.46 2.42-1.15 2.53-3.34 5.41-6.57 8.64-3.11 3.23-6.86 6.63-11.24 10.2-4.26 3.58-8.87 7.27-13.83 11.07-4.96 3.69-9.86 7.38-14.7 11.07-4.72 3.69-9.16 7.26-13.31 10.72-4.04 3.34-7.38 6.51-10.03 9.5-2.65 2.89-4.32 5.48-5.02 7.79-0.57 2.3 0.23 4.09 2.42 5.36 2.42 1.5 5.65 2.36 9.69 2.59 4.15 0.35 8.64 0.35 13.48 0 4.96-0.34 10.15-0.92 15.57-1.73 5.41-0.92 10.66-1.84 15.73-2.76 5.19-0.93 9.97-1.73 14.35-2.42 4.5-0.81 8.24-1.33 11.24-1.56 0.81-1.62 0.64-3.11-0.52-4.5-1.03-1.5-2.13-2.59-3.28-3.28-4.96-0.46-9.92-0.41-14.87 0.17-4.84 0.46-9.69 1.04-14.53 1.73s-9.74 1.33-14.69 1.9c-4.85 0.46-9.69 0.46-14.53 0-0.46-0.57-0.06-1.55 1.21-2.94 1.27-1.5 3-3.23 5.19-5.19 2.19-1.95 4.67-4.03 7.43-6.22 2.77-2.19 5.42-4.26 7.96-6.22 2.65-2.08 5.01-3.87 7.09-5.37 2.07-1.61 3.51-2.76 4.32-3.45s2.08-1.79 3.8-3.29l5.54-4.84c1.96-1.73 3.68-3.29 5.18-4.67 1.62-1.38 2.6-2.3 2.94-2.77 6.57-6.22 11.19-11.35 13.84-15.38 2.65-4.04 3.86-7.27 3.63-9.69-0.12-2.42-1.44-4.15-3.98-5.18-2.42-1.04-5.42-1.56-8.99-1.56-0.89-0.03-1.81-0.04-2.74-0.02zm252.65 3.98c-1.64 0.04-3.54 0.28-5.71 0.71-2.76 0.46-5.47 1.09-8.12 1.9-2.65 0.69-5.02 1.44-7.09 2.25-2.08 0.69-3.34 1.21-3.81 1.55-4.72 3-9.04 6.57-12.96 10.72-3.81 4.04-7.32 8.3-10.55 12.8-0.92 0.69-1.79 0.63-2.59-0.17-0.81-0.92-1.62-1.9-2.42-2.94-0.81-1.15-1.62-2.08-2.43-2.77-0.8-0.81-1.61-0.81-2.42 0-1.15 1.27-2.36 3.57-3.63 6.92-1.15 3.22-2.25 7.03-3.28 11.41-1.04 4.26-2.02 8.76-2.94 13.49-0.92 4.72-1.67 9.04-2.25 12.96s-1.04 7.21-1.38 9.86c-0.24 2.54-0.24 3.86 0 3.98 0.46 0.23 1.15 0.63 2.07 1.21 0.92 0.46 1.44 0.69 1.56 0.69 0.92 0 2.36-1.9 4.32-5.71 2.08-3.8 4.61-8.59 7.61-14.35 3.11-5.76 6.74-11.99 10.89-18.67 4.15-6.8 8.76-13.09 13.83-18.85 5.08-5.76 10.61-10.6 16.6-14.52 6-3.92 12.45-5.94 19.37-6.06 1.5-2.3 1.84-3.92 1.04-4.84-0.7-1.04-2.08-1.55-4.15-1.55-0.49-0.03-1.01-0.04-1.56-0.02zm-103.93 23.73c-1.01-0.05-2.51 1.27-4.5 3.95-2.54 3.57-5.77 9.86-9.69 18.85-3.8 8.87-8.06 20.92-12.79 36.14 0.46 1.15 1.32 1.84 2.59 2.07s2.37 0.18 3.29-0.17c6.34-11.18 11.24-21.1 14.7-29.74 3.57-8.76 5.87-15.74 6.91-20.92 1.15-5.19 1.27-8.42 0.35-9.69-0.23-0.31-0.52-0.48-0.86-0.49zm-185.45 120.69c-0.75 0-1.12 0.29-1.12 0.88 0 0.44 0.18 0.66 0.54 0.66h2.13v9.43c-1.92-1.42-4.06-2.13-6.43-2.13-1.8 0-3.42 0.45-4.83 1.34-1.39 0.86-2.49 2.11-3.3 3.75-0.78 1.61-1.17 3.5-1.17 5.67 0 2.34 0.39 4.3 1.17 5.88 0.81 1.56 1.89 2.71 3.25 3.46 1.36 0.76 2.89 1.13 4.59 1.13 2.89 0 5.13-1.18 6.72-3.54h0.16v3.08h4.42c0.28 0 0.42-0.14 0.42-0.41 0-0.23-0.07-0.39-0.21-0.51-0.14-0.11-0.39-0.2-0.75-0.29l-1.71-0.37v-28.03h-3.88zm118.69 0c-0.75 0-1.13 0.29-1.13 0.88 0 0.44 0.18 0.66 0.54 0.66h2.13v9.43c-1.92-1.42-4.06-2.13-6.42-2.13-1.81 0-3.42 0.45-4.84 1.34-1.39 0.86-2.49 2.11-3.29 3.75-0.78 1.61-1.17 3.5-1.17 5.67 0 2.34 0.39 4.3 1.17 5.88 0.8 1.56 1.89 2.71 3.25 3.46 1.36 0.76 2.89 1.13 4.59 1.13 2.89 0 5.13-1.18 6.71-3.54h0.17v3.08h4.42c0.28 0 0.42-0.14 0.42-0.41 0-0.23-0.07-0.39-0.21-0.51-0.14-0.11-0.39-0.2-0.75-0.29l-1.71-0.37v-28.03h-3.88zm-141.16 2c-0.53 0-0.98 0.17-1.34 0.5-0.33 0.34-0.5 0.78-0.5 1.34 0 0.55 0.17 1.01 0.5 1.37 0.36 0.34 0.81 0.5 1.34 0.5 0.52 0 0.95-0.16 1.29-0.5 0.36-0.33 0.54-0.79 0.54-1.37 0-0.56-0.18-1-0.54-1.34-0.34-0.33-0.77-0.5-1.29-0.5zm89.93 0c-0.53 0-0.98 0.17-1.34 0.5-0.33 0.34-0.5 0.78-0.5 1.34 0 0.55 0.17 1.01 0.5 1.37 0.36 0.34 0.81 0.5 1.34 0.5s0.96-0.16 1.29-0.5c0.36-0.33 0.54-0.79 0.54-1.37 0-0.56-0.18-1-0.54-1.34-0.33-0.33-0.76-0.5-1.29-0.5zm11.43 3.01l-0.45 4.29h-2.22c-0.36 0-0.65 0.1-0.87 0.29-0.19 0.17-0.29 0.41-0.29 0.71 0 0.2 0.05 0.36 0.16 0.5 0.12 0.14 0.24 0.21 0.38 0.21h2.84v14.18c0 1.56 0.46 2.77 1.37 3.63 0.92 0.83 2.07 1.25 3.46 1.25 1.31 0 2.51-0.35 3.59-1.04 0.34-0.22 0.6-0.46 0.79-0.71 0.2-0.25 0.3-0.47 0.3-0.67 0-0.25-0.07-0.43-0.21-0.54-0.11-0.14-0.27-0.21-0.46-0.21-0.2 0-0.42 0.13-0.67 0.38-0.42 0.39-0.86 0.68-1.33 0.87-0.48 0.17-1.02 0.25-1.63 0.25-0.89 0-1.6-0.25-2.13-0.75-0.5-0.53-0.75-1.29-0.75-2.29v-14.35l5.3-0.46c0.5-0.05 0.86-0.14 1.08-0.25 0.25-0.11 0.38-0.29 0.38-0.54 0-0.3-0.14-0.46-0.42-0.46h-6.34v-4.29h-1.88zm-187.22 3.83c-2.92 0-5.21 0.96-6.88 2.88s-2.5 4.49-2.5 7.72c0 3.22 0.84 5.81 2.54 7.75 1.7 1.92 4.06 2.88 7.09 2.88 2.25 0 4.13-0.5 5.63-1.5 0.81-0.5 1.21-0.96 1.21-1.38 0-0.22-0.07-0.4-0.21-0.54-0.11-0.17-0.26-0.25-0.46-0.25-0.16 0-0.4 0.11-0.7 0.34-1.53 1.14-3.33 1.7-5.39 1.7-2.22 0-4-0.79-5.33-2.37-1.34-1.59-2.01-3.8-2.01-6.63 0-2.84 0.64-5.04 1.92-6.59 1.31-1.56 3.06-2.34 5.26-2.34 0.92 0 1.85 0.15 2.79 0.46 0.95 0.28 1.68 0.67 2.21 1.17l0.38 2.08c0.05 0.34 0.14 0.59 0.25 0.75 0.14 0.14 0.32 0.21 0.54 0.21 0.33 0 0.5-0.14 0.5-0.42v-3.46c-0.67-0.66-1.65-1.23-2.96-1.71-1.31-0.5-2.6-0.75-3.88-0.75zm21.3 0c-2.97 0-5.28 0.96-6.92 2.88-1.64 1.89-2.46 4.46-2.46 7.72 0 3.28 0.82 5.88 2.46 7.8 1.64 1.89 3.95 2.83 6.92 2.83 2.95 0 5.25-0.94 6.89-2.83 1.64-1.92 2.46-4.52 2.46-7.8 0-3.26-0.82-5.83-2.46-7.72-1.64-1.92-3.94-2.88-6.89-2.88zm26.52 0c-2.53 0-5 1.14-7.39 3.42h-0.16v-3h-3.72c-0.77 0-1.16 0.29-1.16 0.88 0 0.44 0.18 0.66 0.54 0.66h2.17v17.27h-1.55c-0.77 0-1.16 0.29-1.16 0.87 0 0.45 0.18 0.67 0.54 0.67h7.17c0.28 0 0.42-0.14 0.42-0.41 0-0.23-0.07-0.39-0.21-0.51-0.14-0.13-0.37-0.23-0.71-0.29l-2.17-0.37v-13.89c0.95-1.08 2.02-1.95 3.21-2.59 1.2-0.64 2.4-0.95 3.59-0.95 1.59 0 2.81 0.44 3.67 1.33 0.89 0.86 1.34 2.01 1.34 3.46v12.68h-1.55c-0.78 0-1.16 0.29-1.16 0.87 0 0.45 0.18 0.67 0.54 0.67h7.17c0.28 0 0.42-0.14 0.42-0.41 0-0.23-0.07-0.39-0.21-0.51-0.14-0.13-0.37-0.23-0.71-0.29l-2.17-0.37v-12.81c0-1.97-0.65-3.53-1.96-4.67-1.28-1.14-2.87-1.71-4.79-1.71zm21.38 0c-1.95 0-3.61 0.43-4.97 1.3-1.36 0.83-2.04 2.09-2.04 3.79 0 1.42 0.51 2.59 1.54 3.5 1.06 0.89 2.67 1.77 4.84 2.63 1.64 0.64 2.85 1.17 3.63 1.59 0.78 0.39 1.35 0.84 1.71 1.37 0.39 0.5 0.58 1.17 0.58 2 0 1.2-0.51 2.06-1.54 2.59-1 0.53-2.27 0.79-3.8 0.79-1 0-2.03-0.12-3.08-0.37-1.06-0.25-1.88-0.63-2.46-1.13l-0.34-1.96c-0.14-0.69-0.4-1.04-0.79-1.04-0.33 0-0.5 0.15-0.5 0.46v3.54c0.75 0.67 1.82 1.2 3.21 1.59 1.42 0.39 2.78 0.58 4.09 0.58 2.17 0 3.97-0.42 5.42-1.25 1.47-0.83 2.21-2.13 2.21-3.88 0-1.56-0.47-2.78-1.42-3.67-0.94-0.89-2.54-1.79-4.79-2.71-1.67-0.7-2.9-1.24-3.67-1.63-0.76-0.39-1.35-0.83-1.8-1.33-0.41-0.5-0.62-1.13-0.62-1.88 0-1.11 0.46-1.92 1.37-2.42 0.92-0.52 2.05-0.79 3.38-0.79 0.95 0 1.89 0.15 2.84 0.46 0.94 0.28 1.68 0.67 2.21 1.17l0.33 2.04c0.06 0.36 0.14 0.63 0.25 0.79 0.14 0.14 0.32 0.21 0.54 0.21 0.17 0 0.3-0.04 0.38-0.12 0.08-0.09 0.13-0.18 0.13-0.3v-3.46c-0.67-0.66-1.66-1.23-2.97-1.71-1.3-0.5-2.6-0.75-3.87-0.75zm59.47 0c-2.95 0-5.24 0.99-6.88 2.96-1.65 1.95-2.47 4.54-2.47 7.76 0 2.12 0.39 3.96 1.17 5.55 0.78 1.58 1.89 2.81 3.34 3.67 1.47 0.86 3.18 1.29 5.13 1.29 2.25 0 4.2-0.51 5.84-1.54 0.39-0.25 0.68-0.47 0.87-0.67 0.2-0.22 0.29-0.44 0.29-0.67 0-0.22-0.06-0.4-0.2-0.54-0.14-0.17-0.31-0.25-0.5-0.25-0.14 0-0.28 0.06-0.42 0.17-0.14 0.08-0.24 0.14-0.29 0.17-1.56 1.14-3.39 1.7-5.51 1.7-2.14 0-3.9-0.73-5.29-2.21-1.37-1.5-2.05-3.62-2.05-6.38h14.97c0.34-0.83 0.51-1.62 0.51-2.37 0-2.62-0.75-4.7-2.26-6.26-1.5-1.58-3.58-2.38-6.25-2.38zm25.69 0c-1.01 0-2.15 0.45-3.42 1.34-1.28 0.86-2.46 1.92-3.55 3.17h-0.17v-4.09h-3.71c-0.78 0-1.17 0.29-1.17 0.88 0 0.44 0.19 0.66 0.55 0.66h2.16v17.27h-1.54c-0.78 0-1.17 0.29-1.17 0.87 0 0.45 0.19 0.67 0.55 0.67h7.17c0.28 0 0.42-0.14 0.42-0.41 0-0.23-0.07-0.39-0.21-0.51-0.14-0.13-0.38-0.23-0.71-0.29l-2.17-0.37v-12.81c2.5-2.64 5.17-3.96 8.01-3.96 0.28-0.33 0.41-0.72 0.41-1.17 0-0.39-0.13-0.69-0.41-0.91-0.25-0.23-0.6-0.34-1.04-0.34zm92.26 0c-2.98 0-5.28 0.96-6.92 2.88-1.64 1.89-2.46 4.46-2.46 7.72 0 3.28 0.82 5.88 2.46 7.8 1.64 1.89 3.94 2.83 6.92 2.83 2.95 0 5.24-0.94 6.88-2.83 1.64-1.92 2.46-4.52 2.46-7.8 0-3.26-0.82-5.83-2.46-7.72-1.64-1.92-3.93-2.88-6.88-2.88zm26.51 0c-2.53 0-4.99 1.14-7.38 3.42h-0.17v-3h-3.71c-0.78 0-1.17 0.29-1.17 0.88 0 0.44 0.18 0.66 0.55 0.66h2.17v17.27h-1.55c-0.78 0-1.17 0.29-1.17 0.87 0 0.45 0.18 0.67 0.55 0.67h7.17c0.28 0 0.42-0.14 0.42-0.41 0-0.23-0.07-0.39-0.21-0.51-0.14-0.13-0.38-0.23-0.71-0.29l-2.17-0.37v-13.89c0.95-1.08 2.02-1.95 3.21-2.59 1.2-0.64 2.39-0.95 3.59-0.95 1.58 0 2.81 0.44 3.67 1.33 0.89 0.86 1.33 2.01 1.33 3.46v12.68h-1.54c-0.78 0-1.17 0.29-1.17 0.87 0 0.45 0.18 0.67 0.54 0.67h7.18c0.28 0 0.42-0.14 0.42-0.41 0-0.23-0.07-0.39-0.21-0.51-0.14-0.13-0.38-0.23-0.71-0.29l-2.17-0.37v-12.81c0-1.97-0.65-3.53-1.96-4.67-1.28-1.14-2.88-1.71-4.8-1.71zm23.42 0c-2.94 0-5.24 0.99-6.88 2.96-1.64 1.95-2.46 4.54-2.46 7.76 0 2.12 0.39 3.96 1.17 5.55 0.78 1.58 1.89 2.81 3.34 3.67 1.47 0.86 3.18 1.29 5.13 1.29 2.25 0 4.2-0.51 5.84-1.54 0.38-0.25 0.68-0.47 0.87-0.67 0.2-0.22 0.29-0.44 0.29-0.67 0-0.22-0.07-0.4-0.21-0.54-0.13-0.17-0.3-0.25-0.5-0.25-0.13 0-0.27 0.06-0.41 0.17-0.14 0.08-0.24 0.14-0.29 0.17-1.56 1.14-3.4 1.7-5.51 1.7-2.14 0-3.91-0.73-5.3-2.21-1.36-1.5-2.04-3.62-2.04-6.38h14.97c0.34-0.83 0.5-1.62 0.5-2.37 0-2.62-0.75-4.7-2.25-6.26-1.5-1.58-3.59-2.38-6.26-2.38zm-213.36 0.42c-0.78 0-1.17 0.29-1.17 0.88 0 0.44 0.18 0.66 0.54 0.66h2.21v17.27h-1.58c-0.78 0-1.17 0.29-1.17 0.87 0 0.45 0.18 0.67 0.54 0.67h7.17c0.28 0 0.42-0.14 0.42-0.41 0-0.39-0.3-0.66-0.92-0.8l-2.12-0.37v-18.77h-3.92zm89.93 0c-0.78 0-1.17 0.29-1.17 0.88 0 0.44 0.18 0.66 0.54 0.66h2.21v17.27h-1.58c-0.78 0-1.17 0.29-1.17 0.87 0 0.45 0.18 0.67 0.54 0.67h7.18c0.27 0 0.41-0.14 0.41-0.41 0-0.39-0.3-0.66-0.92-0.8l-2.12-0.37v-18.77h-3.92zm-151.82 1.21c2.17 0 3.87 0.79 5.09 2.38 1.25 1.58 1.88 3.78 1.88 6.59 0 2.83-0.63 5.04-1.88 6.63-1.22 1.58-2.92 2.37-5.09 2.37s-3.87-0.79-5.13-2.37c-1.25-1.59-1.87-3.8-1.87-6.63 0-2.81 0.62-5.01 1.87-6.59 1.26-1.59 2.96-2.38 5.13-2.38zm82.57 0c2.22 0 4.23 0.79 6.01 2.38v9.67c0 1.12-0.28 2.13-0.84 3.05-0.55 0.89-1.31 1.6-2.25 2.12-0.95 0.51-1.96 0.75-3.05 0.75-2.36 0-4.15-0.77-5.38-2.33-1.19-1.56-1.79-3.71-1.79-6.47 0-1.97 0.32-3.65 0.96-5.04 0.67-1.39 1.54-2.42 2.63-3.09 1.11-0.69 2.35-1.04 3.71-1.04zm24.8 0c1.8 0 3.28 0.57 4.42 1.71s1.71 2.77 1.71 4.88c0 0.39-0.06 0.78-0.17 1.17h-12.89c0.17-2.42 0.88-4.31 2.13-5.68 1.25-1.39 2.85-2.08 4.8-2.08zm93.89 0c2.22 0 4.22 0.79 6 2.38v9.67c0 1.12-0.28 2.13-0.83 3.05-0.56 0.89-1.31 1.6-2.26 2.12-0.94 0.51-1.96 0.75-3.04 0.75-2.36 0-4.16-0.77-5.38-2.33-1.19-1.56-1.79-3.71-1.79-6.47 0-1.97 0.32-3.65 0.96-5.04 0.66-1.39 1.54-2.42 2.62-3.09 1.12-0.69 2.35-1.04 3.72-1.04zm24.06 0c2.17 0 3.87 0.79 5.09 2.38 1.25 1.58 1.88 3.78 1.88 6.59 0 2.83-0.63 5.04-1.88 6.63-1.22 1.58-2.92 2.37-5.09 2.37s-3.88-0.79-5.13-2.37c-1.25-1.59-1.88-3.8-1.88-6.63 0-2.81 0.63-5.01 1.88-6.59 1.25-1.59 2.96-2.38 5.13-2.38zm49.93 0c1.81 0 3.29 0.57 4.43 1.71s1.71 2.77 1.71 4.88c0 0.39-0.06 0.78-0.17 1.17h-12.89c0.17-2.42 0.88-4.31 2.13-5.68 1.25-1.39 2.85-2.08 4.79-2.08z" fill="#3c1740" stroke="#3c1740" stroke-width="10" filter="url(#f1)" opacity="1" />

 
 <g id="logo-group" fill="#f9a01e" transform="translate(-117.54 -114.36) scale(1.2296)">
  <path id="path134319" style="font-variant-ligatures:none" d="m391.97 558.97q-3.6973 0-5.7664-2.3405-2.0691-2.3744-2.0691-6.3091t2.0352-6.2752 5.5968-2.3405q1.5603 0 3.1546 0.61056 1.5942 0.57664 2.4083 1.3907v2.8154q0 0.3392-0.40704 0.3392-0.27136 0-0.44096-0.1696-0.13568-0.20352-0.20352-0.61056l-0.30528-1.696q-0.64448-0.61056-1.7978-0.94976-1.1533-0.37312-2.2726-0.37312-2.6797 0-4.2739 1.8995-1.5603 1.8995-1.5603 5.3594 0 3.4598 1.6282 5.3933 1.6282 1.9334 4.3418 1.9334 2.5101 0 4.3757-1.3907 0.37312-0.27136 0.57664-0.27136 0.23744 0 0.37312 0.20352 0.1696 0.1696 0.1696 0.44096 0 0.5088-0.98368 1.1194-1.8317 1.2211-4.5792 1.2211z" stroke-miterlimit="2" stroke-width="0"/>
  <path id="path134321" style="font-variant-ligatures:none" d="m409.09 558.97q-3.6294 0-5.6307-2.3066-2.0013-2.3405-2.0013-6.343 0-3.9686 2.0013-6.2752 2.0013-2.3405 5.6307-2.3405 3.5955 0 5.5968 2.3405 2.0013 2.3066 2.0013 6.2752 0 4.0026-2.0013 6.343-2.0013 2.3066-5.5968 2.3066zm0-1.3229q2.6458 0 4.1382-1.9334 1.5264-1.9334 1.5264-5.3933 0-3.4259-1.5264-5.3594-1.4925-1.9334-4.1382-1.9334-2.6458 0-4.1722 1.9334t-1.5264 5.3594q0 3.4598 1.5264 5.3933 1.5264 1.9334 4.1722 1.9334z" stroke-miterlimit="2" stroke-width="0"/>
  <path id="path134323" style="font-variant-ligatures:none" d="m420.98 558.59q-0.44096 0-0.44096-0.54272 0-0.71232 0.94976-0.71232h1.255v-14.043h-1.7638q-0.44096 0-0.44096-0.54272 0-0.71232 0.94976-0.71232h3.0189v2.4422h0.13568q2.9171-2.7814 6.0038-2.7814 2.3405 0 3.9008 1.3907 1.5942 1.3907 1.5942 3.799v10.413l1.7638 0.30528q0.40704 0.0678 0.57664 0.23744 0.1696 0.13568 0.1696 0.40704 0 0.3392-0.3392 0.3392h-5.8342q-0.44096 0-0.44096-0.54272 0-0.71232 0.94976-0.71232h1.255v-10.312q0-1.7638-1.0854-2.8154-1.0515-1.0854-2.985-1.0854-1.4586 0-2.9171 0.78016-1.4586 0.78016-2.6118 2.103v11.295l1.7638 0.30528q0.40704 0.0678 0.57664 0.23744 0.1696 0.13568 0.1696 0.40704 0 0.3392-0.3392 0.3392z" stroke-miterlimit="2" stroke-width="0"/>
  <path id="path134325" style="font-variant-ligatures:none" d="m448.11 558.97q-1.5942 0-3.3242-0.47488-1.696-0.47488-2.6118-1.289v-2.8832q0-0.37312 0.40704-0.37312 0.47488 0 0.64448 0.848l0.27136 1.5942q0.71232 0.61056 2.0013 0.91584t2.5101 0.30528q1.8656 0 3.0867-0.64448 1.255-0.64448 1.255-2.103 0-1.0176-0.47488-1.6282-0.44096-0.64448-1.3907-1.1194-0.94976-0.5088-2.951-1.289-2.6458-1.0515-3.9347-2.137-1.255-1.1194-1.255-2.8493 0-2.0691 1.6621-3.0867 1.6621-1.0515 4.0365-1.0515 1.5603 0 3.1546 0.61056 1.5942 0.57664 2.4083 1.3907v2.8154q0 0.13568-0.10176 0.23744t-0.30528 0.10176q-0.27136 0-0.44096-0.1696-0.13568-0.20352-0.20352-0.64448l-0.27136-1.6621q-0.64448-0.61056-1.7978-0.94976-1.1533-0.37312-2.3066-0.37312-1.6282 0-2.7475 0.64448-1.1194 0.61056-1.1194 1.9674 0 0.91584 0.5088 1.5264 0.54272 0.61056 1.4586 1.0854 0.94976 0.47488 2.985 1.3229 2.7475 1.1194 3.9008 2.2048t1.1533 2.985q0 2.137-1.7978 3.1546-1.7638 1.0176-4.4096 1.0176z" stroke-miterlimit="2" stroke-width="0"/>
  <path id="path134327" style="font-variant-ligatures:none" d="m461.59 539.16q-0.64448 0-1.0854-0.40704-0.40704-0.44096-0.40704-1.1194 0-0.6784 0.40704-1.0854 0.44096-0.40704 1.0854-0.40704 0.64448 0 1.0515 0.40704 0.44096 0.40704 0.44096 1.0854 0 0.71232-0.44096 1.1194-0.40704 0.40704-1.0515 0.40704zm-2.6797 19.436q-0.44096 0-0.44096-0.54272 0-0.71232 0.94976-0.71232h1.289v-14.043h-1.7978q-0.44096 0-0.44096-0.54272 0-0.71232 0.94976-0.71232h3.1885v15.264l1.7299 0.30528q0.74624 0.1696 0.74624 0.64448 0 0.3392-0.3392 0.3392z" stroke-miterlimit="2" stroke-width="0"/>
  <path id="path134329" style="font-variant-ligatures:none" d="m475.66 558.97q-2.0691 0-3.7312-0.91584t-2.6458-2.8154q-0.94976-1.9334-0.94976-4.7827 0-2.6458 0.94976-4.6131 0.98368-2.0013 2.6797-3.0528 1.7299-1.0854 3.9347-1.0854 2.8832 0 5.2237 1.7299v-7.6659h-1.7299q-0.44096 0-0.44096-0.54272 0-0.71232 0.91584-0.71232h3.1546v22.794l1.3907 0.30528q0.44096 0.10176 0.61056 0.23744t0.1696 0.40704q0 0.3392-0.3392 0.3392h-3.5955v-2.5101h-0.13568q-1.9334 2.8832-5.4611 2.8832zm0.47488-1.3229q1.3229 0 2.4762-0.61056 1.1533-0.64448 1.8317-1.7299 0.6784-1.1194 0.6784-2.4762v-7.8694q-2.1709-1.9334-4.8845-1.9334-1.6621 0-3.0189 0.848-1.3229 0.81408-2.137 2.5101-0.78016 1.696-0.78016 4.1043 0 3.3581 1.4586 5.2576 1.4925 1.8995 4.3757 1.8995z" stroke-miterlimit="2" stroke-width="0"/>
  <path id="path134331" style="font-variant-ligatures:none" d="m496.64 558.97q-2.3744 0-4.1722-1.0515-1.7638-1.0515-2.7136-2.985-0.94976-1.9334-0.94976-4.5114 0-3.9347 2.0013-6.3091 2.0013-2.4083 5.5968-2.4083 3.2563 0 5.088 1.9334 1.8317 1.8995 1.8317 5.088 0 0.91584-0.40704 1.9334h-12.177q0 3.3581 1.6621 5.1898 1.696 1.7978 4.3078 1.7978 2.5779 0 4.4774-1.3907 0.0678-0.0339 0.23744-0.13568 0.1696-0.13568 0.3392-0.13568 0.23744 0 0.40704 0.20352 0.1696 0.1696 0.1696 0.44096t-0.23744 0.54272q-0.23744 0.23744-0.71232 0.54272-2.0013 1.255-4.7488 1.255zm4.6131-9.6333q0.13568-0.47488 0.13568-0.94976 0-2.5779-1.3907-3.9686t-3.5955-1.3907q-2.3744 0-3.9008 1.696-1.5264 1.6621-1.7299 4.6131z" stroke-miterlimit="2" stroke-width="0"/>
  <path id="path134333" style="font-variant-ligatures:none" d="m507.97 558.59q-0.44096 0-0.44096-0.54272 0-0.71232 0.94976-0.71232h1.255v-14.043h-1.7638q-0.44096 0-0.44096-0.54272 0-0.71232 0.94976-0.71232h3.0189v3.3242h0.13568q1.3229-1.5264 2.8832-2.5779 1.5603-1.0854 2.7814-1.0854 0.54272 0 0.848 0.27136 0.3392 0.27136 0.3392 0.74624 0 0.54272-0.3392 0.94976-3.4598 0-6.5126 3.2224v10.413l1.7638 0.30528q0.40704 0.0678 0.57664 0.23744 0.1696 0.13568 0.1696 0.40704 0 0.3392-0.3392 0.3392z" stroke-miterlimit="2" stroke-width="0"/>
  <path id="path134335" style="font-variant-ligatures:none" d="m534.73 539.16q-0.64448 0-1.0854-0.40704-0.40704-0.44096-0.40704-1.1194 0-0.6784 0.40704-1.0854 0.44096-0.40704 1.0854-0.40704 0.64448 0 1.0515 0.40704 0.44096 0.40704 0.44096 1.0854 0 0.71232-0.44096 1.1194-0.40704 0.40704-1.0515 0.40704zm-2.6797 19.436q-0.44096 0-0.44096-0.54272 0-0.71232 0.94976-0.71232h1.289v-14.043h-1.7978q-0.44096 0-0.44096-0.54272 0-0.71232 0.94976-0.71232h3.1885v15.264l1.7299 0.30528q0.74624 0.1696 0.74624 0.64448 0 0.3392-0.3392 0.3392z" stroke-miterlimit="2" stroke-width="0"/>
  <path id="path134337" style="font-variant-ligatures:none" d="m547.59 558.97q-1.696 0-2.8154-1.0176-1.1194-1.0515-1.1194-2.951v-11.533h-2.3066q-0.1696 0-0.30528-0.1696t-0.13568-0.40704q0-0.37312 0.23744-0.57664 0.27136-0.23744 0.71232-0.23744h1.7978l0.37312-3.4938h1.5264v3.4938h5.1558q0.3392 0 0.3392 0.37312 0 0.30528-0.30528 0.44096-0.27136 0.13568-0.88192 0.20352l-4.3078 0.37312v11.668q0 1.2211 0.61056 1.8656 0.64448 0.61056 1.7299 0.61056 0.74624 0 1.3229-0.20352 0.57664-0.23744 1.0854-0.71232 0.30528-0.30528 0.54272-0.30528t0.37312 0.1696q0.1696 0.13568 0.1696 0.44096 0 0.23744-0.23744 0.54272t-0.64448 0.57664q-1.3229 0.848-2.9171 0.848z" stroke-miterlimit="2" stroke-width="0"/>
  <path id="path134339" style="font-variant-ligatures:none" d="m572.19 558.97q-2.0691 0-3.7312-0.91584t-2.6458-2.8154q-0.94976-1.9334-0.94976-4.7827 0-2.6458 0.94976-4.6131 0.98368-2.0013 2.6797-3.0528 1.7299-1.0854 3.9347-1.0854 2.8832 0 5.2237 1.7299v-7.6659h-1.7299q-0.44096 0-0.44096-0.54272 0-0.71232 0.91584-0.71232h3.1546v22.794l1.3907 0.30528q0.44096 0.10176 0.61056 0.23744t0.1696 0.40704q0 0.3392-0.3392 0.3392h-3.5955v-2.5101h-0.13568q-1.9334 2.8832-5.4611 2.8832zm0.47488-1.3229q1.3229 0 2.4762-0.61056 1.1533-0.64448 1.8317-1.7299 0.6784-1.1194 0.6784-2.4762v-7.8694q-2.1709-1.9334-4.8845-1.9334-1.6621 0-3.0189 0.848-1.3229 0.81408-2.137 2.5101-0.78016 1.696-0.78016 4.1043 0 3.3581 1.4586 5.2576 1.4925 1.8995 4.3757 1.8995z" stroke-miterlimit="2" stroke-width="0"/>
  <path id="path134341" style="font-variant-ligatures:none" d="m592.34 558.97q-3.6294 0-5.6307-2.3066-2.0013-2.3405-2.0013-6.343 0-3.9686 2.0013-6.2752 2.0013-2.3405 5.6307-2.3405 3.5955 0 5.5968 2.3405 2.0013 2.3066 2.0013 6.2752 0 4.0026-2.0013 6.343-2.0013 2.3066-5.5968 2.3066zm0-1.3229q2.6458 0 4.1382-1.9334 1.5264-1.9334 1.5264-5.3933 0-3.4259-1.5264-5.3594-1.4925-1.9334-4.1382-1.9334-2.6458 0-4.1722 1.9334t-1.5264 5.3594q0 3.4598 1.5264 5.3933 1.5264 1.9334 4.1722 1.9334z" stroke-miterlimit="2" stroke-width="0"/>
  <path id="path134343" style="font-variant-ligatures:none" d="m604.23 558.59q-0.44096 0-0.44096-0.54272 0-0.71232 0.94976-0.71232h1.255v-14.043h-1.7638q-0.44096 0-0.44096-0.54272 0-0.71232 0.94976-0.71232h3.0189v2.4422h0.13568q2.9171-2.7814 6.0038-2.7814 2.3405 0 3.9008 1.3907 1.5942 1.3907 1.5942 3.799v10.413l1.7638 0.30528q0.40704 0.0678 0.57664 0.23744 0.1696 0.13568 0.1696 0.40704 0 0.3392-0.3392 0.3392h-5.8342q-0.44096 0-0.44096-0.54272 0-0.71232 0.94976-0.71232h1.255v-10.312q0-1.7638-1.0854-2.8154-1.0515-1.0854-2.985-1.0854-1.4586 0-2.9171 0.78016-1.4586 0.78016-2.6118 2.103v11.295l1.7638 0.30528q0.40704 0.0678 0.57664 0.23744 0.1696 0.13568 0.1696 0.40704 0 0.3392-0.3392 0.3392z" stroke-miterlimit="2" stroke-width="0"/>
  <path id="path134345" style="font-variant-ligatures:none" d="m633.19 558.97q-2.3744 0-4.1722-1.0515-1.7638-1.0515-2.7136-2.985-0.94976-1.9334-0.94976-4.5114 0-3.9347 2.0013-6.3091 2.0013-2.4083 5.5968-2.4083 3.2563 0 5.088 1.9334 1.8317 1.8995 1.8317 5.088 0 0.91584-0.40704 1.9334h-12.177q0 3.3581 1.6621 5.1898 1.696 1.7978 4.3078 1.7978 2.5779 0 4.4774-1.3907 0.0678-0.0339 0.23744-0.13568 0.1696-0.13568 0.3392-0.13568 0.23744 0 0.40704 0.20352 0.1696 0.1696 0.1696 0.44096t-0.23744 0.54272q-0.23744 0.23744-0.71232 0.54272-2.0013 1.255-4.7488 1.255zm4.6131-9.6333q0.13568-0.47488 0.13568-0.94976 0-2.5779-1.3907-3.9686t-3.5955-1.3907q-2.3744 0-3.9008 1.696-1.5264 1.6621-1.7299 4.6131z" stroke-miterlimit="2" stroke-width="0"/>
  <path id="path134348" style="font-variant-ligatures:none" d="m307.06 511.85q-0.42188-0.28125-1.2656-1.4062-0.98436-0.98438-1.5469-2.1094-0.5625-1.125-0.42188-1.9688 0-0.84375 1.5469-0.84375 2.9531 4.0781 8.2969 3.0938 5.3438-0.98437 11.531-4.9219 6.1875-3.7969 12.516-9.7031 6.4688-5.7656 11.531-11.531 5.2031-5.7656 8.4375-10.406 3.375-4.6406 3.375-6.1875 0-0.42188-1.125-1.2656-1.125-0.98437-2.6719-1.9688-1.4063-0.98437-2.6719-1.8281-1.2656-0.84375-1.5469-1.2656 0.42188-1.4062 2.6719-2.1094 2.25-0.84375 5.0625-1.4062 2.8125-0.70313 5.4844-1.2656 2.8125-0.70312 4.2187-1.6875 7.4531-10.828 12.938-19.406 5.625-8.7188 10.547-17.016 5.0625-8.4375 10.266-17.297 5.2031-8.8594 11.953-19.969 1.8281-3.0938 2.9531-2.1094 1.125 0.98438 1.6875 4.7812 0.5625 3.7969 0.70312 9.7031 0.1406 5.7656 0 12.516-0.1406 6.75-0.5625 13.781-0.28124 7.0312-0.70312 12.938-0.28126 5.9062-0.5625 10.266-0.1406 4.2188 0 5.4844 0.5625 7.1719 0.70312 12.516 0.28126 5.2031 1.4063 9.7031 1.125 4.3594 3.7969 8.5781 2.8125 4.0781 8.4375 9-4.6406 1.5469-7.7344-0.28125-2.9531-1.6875-4.9219-5.2031-1.8281-3.6562-3.0938-8.2969-1.125-4.7812-2.25-9.1406-0.98436-4.5-2.3906-7.7344-1.2656-3.375-3.5156-4.3594-0.1406 0-0.84376 0-0.5625-0.14062-1.4062-0.14062-0.70312 0-1.4063 0.14062-0.70312 0-0.98436 0-1.2656 0.28125-4.7813 1.125-3.375 0.84375-7.4531 1.8281-4.0781 0.98438-7.875 1.9688-3.6563 0.98438-5.3438 1.4062-3.5156 0.98438-7.4531 4.5-3.7969 3.5156-8.1562 8.5781-4.2188 4.9219-8.8594 10.828-4.5 5.9062-9.2813 11.531-4.7812 5.625-9.7031 10.406-4.9219 4.7813-9.8437 7.7344-4.9219 2.9531-9.8438 3.2344-5.0625 0.42187-9.8437-2.8125zm76.219-61.875q0.28126 0.14062 1.4063 0.14062 1.2656 0 1.6875-0.14062 2.5312-0.42188 6.3281-0.98438t7.5937-1.2656q3.7969-0.84375 7.0313-1.8281 3.2344-1.125 4.5-2.3906 0 0 0.42188-2.9531 0.42186-2.9531 0.98436-7.4531 0.5625-4.6406 1.125-10.125 0.70314-5.625 1.2656-10.969 0.5625-5.3438 0.84374-9.8438 0.42188-4.6406 0.5625-7.1719-1.5469-0.70312-4.0781 3.6562-2.5313 4.2188-6.6094 11.672-3.9375 7.4531-9.7031 17.438-5.625 9.8438-13.359 20.531z" stroke-miterlimit="2" stroke-width="0"/>
  <path id="path134350" style="font-variant-ligatures:none" d="m452.76 484.29q-2.6719-1.5469-1.9688-4.3594 0.84376-2.8125 4.0781-6.3281 3.2344-3.6562 8.1562-7.7344 5.0625-4.2188 10.828-8.7188 5.9063-4.5 11.953-9 6.0469-4.6406 11.25-9 5.3437-4.3594 9.1406-8.2969 3.9375-3.9375 5.3437-7.0312-0.28124-1.8281-2.8125-1.9688-2.5312-0.28125-6.0469 0.28125-3.5156 0.42187-7.4531 1.2656-3.9375 0.84375-7.0312 0.98438-3.0938 0-4.7813-0.98438-1.5469-1.125-0.5625-4.2188 0.1406-0.28125 2.9531-1.125 2.9531-0.98437 7.3125-1.9688 4.3594-0.98437 9.4219-1.6875 5.0625-0.70312 9.4219-0.5625 4.3594 0 7.3125 1.2656 3.0938 1.2656 3.2344 4.2188 0.28124 2.9531-2.9531 7.875-3.2344 4.9219-11.25 12.516-0.42188 0.5625-2.3906 2.25-1.8281 1.6875-4.2187 3.7969-2.25 1.9688-4.5 3.9375-2.1094 1.8281-3.0938 2.6719-0.98436 0.84375-3.5156 2.8125-2.5312 1.8281-5.7656 4.3594-3.0938 2.3906-6.4688 5.0625t-6.0469 5.0625-4.2188 4.2188q-1.5469 1.6875-0.98438 2.3906 5.9063 0.5625 11.812 0 6.0469-0.70313 11.953-1.5469 5.9062-0.84375 11.812-1.4062 6.0469-0.70312 12.094-0.14062 1.4063 0.84375 2.6719 2.6719 1.4062 1.6875 0.42188 3.6562-3.6563 0.28125-9.1406 1.2656-5.3437 0.84375-11.672 1.9688-6.1875 1.125-12.797 2.25-6.6094 0.98438-12.656 1.4062-5.9062 0.42188-10.969 0-4.9219-0.28125-7.875-2.1094z" stroke-miterlimit="2" stroke-width="0"/>
  <path id="path134352" style="font-variant-ligatures:none" d="m549.53 484.29q-0.1406-0.28125-0.1406-1.5469t0.1406-1.6875q0.42188-1.5469 1.5469-5.3438 1.125-3.9375 2.3906-8.1562 1.2656-4.3594 2.3906-8.1562 1.125-3.7969 1.5469-5.3438 0.5625-1.9688 1.2656-4.5 0.70314-2.6719 0.28126-5.0625-2.1094-0.28125-5.2031 0.5625-3.0938 0.70313-6.1875 1.2656-2.9531 0.42187-5.625 0-2.5313-0.5625-3.6563-3.375 1.6875-3.5156 5.0625-4.5 3.375-1.125 7.3125-1.5469 3.9375-0.42187 7.4531-1.2656 3.6563-0.84375 5.7656-3.7969 1.2656-3.6562 2.9531-8.8594 1.8281-5.3438 3.7969-11.109 1.9687-5.7656 4.2187-11.391 2.3906-5.625 4.9219-9.9844 1.5469-0.98437 2.5312-0.14062 0.98438 0.84375 1.4063 2.5312 0.5625 1.5469 0.70312 3.2344 0.1406 1.6875 0 2.25-0.84374 3.6562-2.9531 7.875-1.9688 4.0781-3.7969 8.2969-1.6875 4.2188-2.8125 8.4375-0.98438 4.2188 0 8.0156h30.234q0.1406 0 0.70312 0.98438 0.5625 0.84375 0.98438 1.4062 0.70312 1.9688-1.5469 2.6719-2.25 0.70313-6.0469 0.98438-3.7969 0.14062-8.7187 0.28125-4.7813 0-9.2813 0.70312-4.3594 0.5625-7.875 2.1094-3.5156 1.4062-4.7812 4.3594-3.6563 9.4219-6.75 18.984-3.0938 9.4219-5.9063 19.125-0.28124 0.42187-1.125 1.4062-0.84374 0.84375-1.8281 1.5469-0.98438 0.5625-1.9687 0.42188-0.84376-0.14063-1.4063-1.6875z" stroke-miterlimit="2" stroke-width="0"/>
  <path id="path134354" style="font-variant-ligatures:none" d="m608.75 484.29q5.7656-18.562 10.406-29.391 4.7813-10.969 7.875-15.328 3.2344-4.3594 4.3594-2.8125t-0.28126 7.875q-1.2656 6.3281-5.625 17.016-4.2187 10.547-11.953 24.188-1.125 0.42187-2.6719 0.14062t-2.1094-1.6875zm24.609-67.641q-0.28124-0.70312-0.28124-2.5312t0.28124-2.25q3.2344-1.125 4.9219-0.28125t2.1094 2.5312q0.42188 1.5469-0.1406 3.375-0.42188 1.8281-1.5469 2.8125-1.125 0.84375-2.6719 0.28125-1.4062-0.70312-2.6719-3.9375z" stroke-miterlimit="2" stroke-width="0"/>
  <path id="path134356" style="font-variant-ligatures:none" d="m657 484.29q-0.28126-0.14062 0-3.2344 0.42186-3.2344 1.125-8.0156 0.70312-4.7812 1.8281-10.547 1.125-5.7656 2.3906-10.969 1.2656-5.3438 2.6719-9.2812 1.5469-4.0781 2.9531-5.625 0.98438-0.98437 1.9688 0 0.98436 0.84375 1.9687 2.25 0.98438 1.2656 1.9688 2.3906 0.98436 0.98437 2.1094 0.14062 3.9375-5.4844 8.5781-10.406 4.7812-5.0625 10.547-8.7188 0.5625-0.42188 3.0938-1.2656 2.5312-0.98437 5.7656-1.8281 3.2344-0.98438 6.6094-1.5469 3.5156-0.70312 5.9062-0.5625 2.5313 0 3.375 1.2656 0.98438 1.125-0.84374 3.9375-8.4375 0.14062-15.75 4.9219-7.3125 4.7812-13.5 11.812-6.1875 7.0312-11.25 15.328-5.0625 8.1562-8.8594 15.188-3.6562 7.0312-6.1875 11.672-2.3906 4.6406-3.5156 4.6406-0.1406 0-1.2656-0.5625-1.125-0.70313-1.6875-0.98438z" stroke-miterlimit="2" stroke-width="0"/>
  <path id="icon" stroke-width=".75" d="m472.06 251.66c-0.008 0-7.8915 5.7188-17.519 12.708l-17.504 12.708 4.0678 0.0104 4.0678 0.0108v32.859h-5.2962v6.3384h131.6v-6.3384h-4.3368v-30.16l2.8778-0.0104 2.8781-0.0108-2.8735-4.6078-2.8731-4.6078-34.53-0.0105-34.535-0.0105-2.2095-1.608-2.2103-1.6072v-12.26h-8.0062l-0.0104 3.2142-0.0109 3.2142-6.7837-4.9239c-3.7305-2.7075-6.7905-4.9238-6.798-4.9238zm-14.211 33.278h4.0449v8.0895h-8.0895v-8.0895zm32.265 0.0104 4.0345 0.0104 0.0104 4.0345 0.0108 4.0345h-8.0895v-8.0902zm24.968-0.0104h4.024v8.0895h-8.0482v-8.0895zm17.691 0.0104 4.0345 0.0104 0.0104 4.0345 0.0109 4.0345h-8.0903v-8.0902zm17.691-0.0104h4.0449v8.0895h-8.0895v-8.0895zm-76.478 6.0882h4.7955v19.224h-9.591v-19.224zm106.42 7.2195c-0.17514 0.003-0.45911 0.0217-0.63134 0.0412-0.1718 0.02-0.46287 0.0663-0.64634 0.10384-0.18349 0.0371-0.50207 0.12259-0.70807 0.18973-0.206 0.0671-0.54961 0.20516-0.7635 0.3065-0.21434 0.10132-0.57088 0.30399-0.79313 0.45036-0.22225 0.14636-0.55377 0.39615-0.73641 0.55502-0.18307 0.15929-0.46246 0.43868-0.62175 0.62175-0.15888 0.18265-0.40908 0.51457-0.55587 0.73767-0.14678 0.22268-0.34777 0.57922-0.44702 0.7923-0.0992 0.21267-0.23769 0.56503-0.30691 0.78315-0.0697 0.21767-0.15596 0.53918-0.19182 0.71349-0.0359 0.17472-0.0863 0.54502-0.11175 0.82275-0.0338 0.36988-0.0334 0.64302 0.00041 1.0184 0.0254 0.28231 0.0909 0.71056 0.14553 0.95242 0.0546 0.24144 0.17556 0.64093 0.26855 0.88778 0.093 0.24728 0.25396 0.60465 0.35737 0.79477 0.10383 0.18974 0.29357 0.49206 0.42242 0.67137 0.12886 0.17931 0.34945 0.45662 0.49081 0.6155 0.14137 0.15929 0.41659 0.42325 0.61132 0.58672 0.19516 0.16388 0.48706 0.38572 0.64886 0.49331 0.16179 0.10758 0.48079 0.28856 0.7089 0.40198 0.22809 0.11385 0.57421 0.26271 0.76897 0.33069 0.19516 0.0684 0.50457 0.15554 0.68805 0.19431 0.18348 0.0384 0.37572 0.0784 0.42743 0.0888l0.0938 0.0196v4.8772h1.9182v-4.873l0.23978-0.0479c0.13177-0.0263 0.31483-0.0659 0.40657-0.0884 0.0917-0.0225 0.31692-0.0892 0.5004-0.14844 0.18348-0.0592 0.51125-0.19016 0.7285-0.29107 0.21684-0.10091 0.6109-0.32693 0.8757-0.50291 0.34111-0.22643 0.62008-0.45911 0.96038-0.80107 0.26396-0.26522 0.59547-0.64677 0.73725-0.84818 0.14178-0.20099 0.36237-0.57045 0.48998-0.8202 0.12801-0.2502 0.2969-0.64843 0.37613-0.88485 0.0788-0.23685 0.18515-0.62758 0.23644-0.86865 0.0771-0.36321 0.0934-0.57254 0.0942-1.2302 0.001-0.60048-0.0171-0.88822-0.0746-1.1884-0.0421-0.21809-0.14845-0.61674-0.23602-0.88657-0.088-0.26938-0.25688-0.68221-0.3753-0.9174-0.11885-0.23477-0.33068-0.59589-0.4708-0.80228-0.1497-0.22059-0.46996-0.59088-0.77685-0.89865-0.31692-0.31775-0.66887-0.62258-0.897-0.77647-0.20641-0.13928-0.56295-0.34736-0.7923-0.46246-0.22935-0.11467-0.57629-0.26479-0.77145-0.33318-0.19474-0.0688-0.52333-0.16388-0.72975-0.21142-0.20641-0.0479-0.56962-0.10675-0.8073-0.13052-0.23727-0.0242-0.57504-0.0413-0.7506-0.0383z"/>
 </g>

</g>
</svg>