<?xml version="1.0" encoding="utf-8"?>
<svg version="1.1" xmlns:cc="http://creativecommons.org/ns#" xmlns:dc="http://purl.org/dc/elements/1.1/" xmlns:rdf="http://www.w3.org/1999/02/22-rdf-syntax-ns#" xmlns="http://www.w3.org/2000/svg" xmlns:xlink="http://www.w3.org/1999/xlink" x="0px" y="0px" viewBox="0 0 200 200" xml:space="preserve">
<defs>
<filter id="chalk" style="color-interpolation-filters:sRGB">
   <feFlood id="feFlood5966"/>
   <feFlood result="result2" flood-color="rgb(255,255,255)" id="feFlood5968"/>
   <feColorMatrix result="result1" type="luminanceToAlpha" in="SourceGraphic" id="feColorMatrix5970"/>
   <feTurbulence result="result4" numOctaves="10" baseFrequency="0.02" type="fractalNoise" id="feTurbulence5972" />
   <feTurbulence result="result3" numOctaves="10" baseFrequency="0.05" type="fractalNoise" id="feTurbulence5974" seed="2"/>
   <feDisplacementMap result="result5" scale="56.29139072847682" yChannelSelector="G" xChannelSelector="R" in="result4" id="feDisplacementMap5976" in2="result3"/>
   <feDisplacementMap result="result6" scale="8.2781456953642394" xChannelSelector="B" in="result1" id="feDisplacementMap5978" in2="result5"/>
   <feComposite scale="56.299999999999997" operator="in" in="result2" id="feComposite5980" in2="result6" result="result14"/>
   <feTurbulence id="feTurbulence5984" type="fractalNoise" baseFrequency="0.03" numOctaves="10" result="result8"/>
   <feComponentTransfer id="feComponentTransfer6016" result="result16">
    <feFuncR id="feFuncR6018" type="identity"/>
    <feFuncG id="feFuncG6020" type="identity"/>
    <feFuncB id="feFuncB6022" type="identity"/>
    <feFuncA id="feFuncA6024" type="linear" slope="2.0899999999999999" intercept="-0.26000000000000001"/>
   </feComponentTransfer>
   <feTurbulence id="feTurbulence5986" type="fractalNoise" baseFrequency="0.6" result="result7"/>
   <feComponentTransfer id="feComponentTransfer6026" result="result17">
    <feFuncR id="feFuncR6028" type="identity"/>
    <feFuncG id="feFuncG6030" type="identity"/>
    <feFuncB id="feFuncB6032" type="identity"/>
    <feFuncA id="feFuncA6034" type="linear" slope="2"/>
   </feComponentTransfer>
   <feComposite in2="result17" id="feComposite5988" in="result16" operator="xor" result="result10"/>
   <feTurbulence id="feTurbulence5990" baseFrequency="0.01" type="fractalNoise" numOctaves="4.7847682119205297" result="result9"/>
   <feComponentTransfer id="feComponentTransfer6036" result="result15">
    <feFuncR id="feFuncR6038" type="identity"/>
    <feFuncG id="feFuncG6040" type="identity"/>
    <feFuncB id="feFuncB6042" type="identity"/>
    <feFuncA id="feFuncA6044" type="linear" slope="0.25" intercept="0"/>
   </feComponentTransfer>
   <feComposite in2="result15" id="feComposite5992" in="result10" operator="xor" result="result11"/>
   <feDisplacementMap in2="result10" id="feDisplacementMap5994" in="result11" scale="100" result="result12" xChannelSelector="G" yChannelSelector="B" numOctaves="5"/>
   <feColorMatrix id="feColorMatrix6002" type="luminanceToAlpha"/>
   <feComponentTransfer id="feComponentTransfer6004" result="result13">
    <feFuncR id="feFuncR6006" type="identity"/>
    <feFuncG id="feFuncG6008" type="identity"/>
    <feFuncB id="feFuncB6010" type="identity"/>
    <feFuncA id="feFuncA6012" type="linear" slope="4.6100000000000003" intercept="-1.1299999999999999"/>
   </feComponentTransfer>
   <feComposite in2="result13" id="feComposite6014" in="result14" operator="in"/>
  </filter>
</defs>
<path d="m143.24 40c-0.56687 0.01534-1.2482 0.69666-2.0449 2.0449-3.9222 6.4553-7.3946 12.258-10.418 17.406-3.0234 5.1479-6.0056 10.173-8.9473 15.076-2.86 4.8211-5.9248 9.7639-9.1934 14.83-3.1868 4.9845-6.9446 10.622-11.275 16.914-0.81713 0.572-2.0435 1.0621-3.6777 1.4707-1.5525 0.32685-3.147 0.69494-4.7812 1.1035-1.6343 0.32686-3.1047 0.73628-4.4121 1.2266-1.3074 0.40857-2.083 1.0208-2.3281 1.8379 0.16344 0.24514 0.61224 0.61322 1.3477 1.1035 0.73542 0.49028 1.5129 1.0218 2.3301 1.5938 0.89884 0.572 1.6744 1.1429 2.3281 1.7148 0.6537 0.49027 0.98047 0.85838 0.98047 1.1035 0 0.89885-0.9803 2.6961-2.9414 5.3926-1.8794 2.6965-4.3321 5.7201-7.3555 9.0703-2.9417 3.3502-6.29 6.7006-10.049 10.051-3.6771 3.4319-7.3148 6.2508-10.91 8.457-3.5954 2.288-6.9457 3.719-10.051 4.291-3.1051 0.57199-5.5145-0.32757-7.2305-2.6973-0.89885 0-1.3496 0.24604-1.3496 0.73632-0.08167 0.49028 0.04227 1.0612 0.36914 1.7148 0.32685 0.65371 0.77567 1.2679 1.3476 1.8398 0.49029 0.65369 0.85838 1.0612 1.1035 1.2246 2.7782 1.8794 5.6384 2.6963 8.5801 2.4512 2.86-0.16343 5.7201-1.1024 8.5801-2.8184 2.8599-1.716 5.7182-3.9639 8.5781-6.7422 2.86-2.7782 5.6807-5.8018 8.459-9.0703 2.7782-3.2685 5.4731-6.6188 8.0879-10.051 2.6965-3.432 5.2713-6.5776 7.7227-9.4375 2.5331-2.9417 4.9031-5.4337 7.1094-7.4766 2.288-2.0428 4.4533-3.3499 6.4961-3.9219 0.98057-0.24513 2.5337-0.65456 4.6582-1.2266 2.2062-0.572 4.4936-1.1428 6.8633-1.7148 2.3697-0.57199 4.535-1.1035 6.4961-1.5937 2.0428-0.49028 3.4325-0.81706 4.168-0.98047h0.85742c0.40858-0.0817 0.81801-0.12306 1.2266-0.12306 0.49028 0 0.89777 0.0413 1.2246 0.12306h0.73633c1.3074 0.57199 2.329 1.8377 3.0644 3.7988 0.81714 1.8794 1.51 4.1274 2.082 6.7422 0.65369 2.5331 1.3072 5.1886 1.9609 7.9668 0.73543 2.6965 1.635 5.1079 2.6973 7.2324 1.144 2.0428 2.575 3.5546 4.291 4.5352 1.7977 1.0623 4.0437 1.143 6.7402 0.24415-3.2685-2.86-5.7193-5.4741-7.3535-7.8438-1.5525-2.4514-2.6568-4.9435-3.3105-7.4766-0.65372-2.6148-1.0612-5.4337-1.2246-8.457-0.0817-3.1051-0.28643-6.7428-0.61328-10.91-0.0817-0.73542-0.0817-2.3279 0-4.7793 0.16341-2.5331 0.3268-5.5153 0.49024-8.9473 0.24513-3.4319 0.44985-7.1917 0.61327-11.277 0.24515-4.0857 0.40854-8.0895 0.49024-12.012 0.0817-3.9222 0.0817-7.558 0-10.908-0.0817-3.4319-0.28642-6.2508-0.61329-8.457-0.32685-2.2062-0.81699-3.596-1.4707-4.168-0.16342-0.143-0.34032-0.21214-0.5293-0.20703zm-1.6602 15.566c0.12129 0.0052 0.2392 0.03295 0.35156 0.08402-0.0817 1.4708-0.24509 3.5554-0.49023 6.252-0.16342 2.6148-0.40947 5.475-0.73633 8.5801-0.32685 3.1051-0.69493 6.292-1.1035 9.5605-0.32685 3.1868-0.65361 6.1277-0.98047 8.8242-0.32685 2.6148-0.61228 4.7801-0.85742 6.4961l-0.36719 2.5742c-0.73541 0.73542-2.0425 1.4303-3.9219 2.084-1.8794 0.572-3.9226 1.1035-6.1289 1.5938-2.2062 0.40859-4.4129 0.77471-6.6191 1.1016-2.2062 0.32686-4.0448 0.61423-5.5156 0.85937-0.24514 0.0817-0.73529 0.1211-1.4707 0.1211-0.65369 0-1.0631-0.0394-1.2266-0.1211v-1.4707c4.4942-6.2102 8.376-12.177 11.645-17.896 3.3502-5.8016 6.1691-10.866 8.457-15.197 2.3697-4.3308 4.2909-7.7224 5.7617-10.174 1.287-2.2165 2.3541-3.3072 3.2031-3.2715z" filter="url(#chalk)" style="color:#000000;clip-rule:nonzero;display:inline;overflow:visible;visibility:visible;opacity:1;isolation:auto;mix-blend-mode:normal;color-interpolation:sRGB;color-interpolation-filters:linearRGB;solid-color:#000000;solid-opacity:1;vector-effect:none;fill:#ffffff;fill-opacity:1;fill-rule:evenodd;stroke:none;stroke-width:0.9999999404;stroke-linecap:round;stroke-linejoin:round;stroke-miterlimit:4;stroke-dasharray:none;stroke-dashoffset:0;stroke-opacity:1;marker:none;paint-order:markers stroke fill;color-rendering:auto;image-rendering:auto;shape-rendering:auto;text-rendering:auto;enable-background:accumulate" />
</svg>