<?xml version="1.0" encoding="utf-8"?>
<svg version="1.1" xmlns:cc="http://creativecommons.org/ns#" xmlns:dc="http://purl.org/dc/elements/1.1/" xmlns:rdf="http://www.w3.org/1999/02/22-rdf-syntax-ns#" xmlns="http://www.w3.org/2000/svg" xmlns:xlink="http://www.w3.org/1999/xlink" x="0px" y="0px" viewBox="0 0 1024 1024" xml:space="preserve">
<style>
#fadein{
opacity: 0;
animation:fadeIn 3s ease-in infinite;
animation-fill-mode:forwards;
}

@keyframes fadeIn { from { opacity:0; } to { opacity:1; } }
</style>
<g id="fadein" transform="translate(0 128)">

 
 <g id="logo-group" fill="#f9a01e" transform="translate(-117.54 -114.36) scale(1.2296)">
  <path id="path134319" style="font-variant-ligatures:none" d="m391.97 558.97q-3.6973 0-5.7664-2.3405-2.0691-2.3744-2.0691-6.3091t2.0352-6.2752 5.5968-2.3405q1.5603 0 3.1546 0.61056 1.5942 0.57664 2.4083 1.3907v2.8154q0 0.3392-0.40704 0.3392-0.27136 0-0.44096-0.1696-0.13568-0.20352-0.20352-0.61056l-0.30528-1.696q-0.64448-0.61056-1.7978-0.94976-1.1533-0.37312-2.2726-0.37312-2.6797 0-4.2739 1.8995-1.5603 1.8995-1.5603 5.3594 0 3.4598 1.6282 5.3933 1.6282 1.9334 4.3418 1.9334 2.5101 0 4.3757-1.3907 0.37312-0.27136 0.57664-0.27136 0.23744 0 0.37312 0.20352 0.1696 0.1696 0.1696 0.44096 0 0.5088-0.98368 1.1194-1.8317 1.2211-4.5792 1.2211z" stroke-miterlimit="2" stroke-width="0"/>
  <path id="path134321" style="font-variant-ligatures:none" d="m409.09 558.97q-3.6294 0-5.6307-2.3066-2.0013-2.3405-2.0013-6.343 0-3.9686 2.0013-6.2752 2.0013-2.3405 5.6307-2.3405 3.5955 0 5.5968 2.3405 2.0013 2.3066 2.0013 6.2752 0 4.0026-2.0013 6.343-2.0013 2.3066-5.5968 2.3066zm0-1.3229q2.6458 0 4.1382-1.9334 1.5264-1.9334 1.5264-5.3933 0-3.4259-1.5264-5.3594-1.4925-1.9334-4.1382-1.9334-2.6458 0-4.1722 1.9334t-1.5264 5.3594q0 3.4598 1.5264 5.3933 1.5264 1.9334 4.1722 1.9334z" stroke-miterlimit="2" stroke-width="0"/>
  <path id="path134323" style="font-variant-ligatures:none" d="m420.98 558.59q-0.44096 0-0.44096-0.54272 0-0.71232 0.94976-0.71232h1.255v-14.043h-1.7638q-0.44096 0-0.44096-0.54272 0-0.71232 0.94976-0.71232h3.0189v2.4422h0.13568q2.9171-2.7814 6.0038-2.7814 2.3405 0 3.9008 1.3907 1.5942 1.3907 1.5942 3.799v10.413l1.7638 0.30528q0.40704 0.0678 0.57664 0.23744 0.1696 0.13568 0.1696 0.40704 0 0.3392-0.3392 0.3392h-5.8342q-0.44096 0-0.44096-0.54272 0-0.71232 0.94976-0.71232h1.255v-10.312q0-1.7638-1.0854-2.8154-1.0515-1.0854-2.985-1.0854-1.4586 0-2.9171 0.78016-1.4586 0.78016-2.6118 2.103v11.295l1.7638 0.30528q0.40704 0.0678 0.57664 0.23744 0.1696 0.13568 0.1696 0.40704 0 0.3392-0.3392 0.3392z" stroke-miterlimit="2" stroke-width="0"/>
  <path id="path134325" style="font-variant-ligatures:none" d="m448.11 558.97q-1.5942 0-3.3242-0.47488-1.696-0.47488-2.6118-1.289v-2.8832q0-0.37312 0.40704-0.37312 0.47488 0 0.64448 0.848l0.27136 1.5942q0.71232 0.61056 2.0013 0.91584t2.5101 0.30528q1.8656 0 3.0867-0.64448 1.255-0.64448 1.255-2.103 0-1.0176-0.47488-1.6282-0.44096-0.64448-1.3907-1.1194-0.94976-0.5088-2.951-1.289-2.6458-1.0515-3.9347-2.137-1.255-1.1194-1.255-2.8493 0-2.0691 1.6621-3.0867 1.6621-1.0515 4.0365-1.0515 1.5603 0 3.1546 0.61056 1.5942 0.57664 2.4083 1.3907v2.8154q0 0.13568-0.10176 0.23744t-0.30528 0.10176q-0.27136 0-0.44096-0.1696-0.13568-0.20352-0.20352-0.64448l-0.27136-1.6621q-0.64448-0.61056-1.7978-0.94976-1.1533-0.37312-2.3066-0.37312-1.6282 0-2.7475 0.64448-1.1194 0.61056-1.1194 1.9674 0 0.91584 0.5088 1.5264 0.54272 0.61056 1.4586 1.0854 0.94976 0.47488 2.985 1.3229 2.7475 1.1194 3.9008 2.2048t1.1533 2.985q0 2.137-1.7978 3.1546-1.7638 1.0176-4.4096 1.0176z" stroke-miterlimit="2" stroke-width="0"/>
  <path id="path134327" style="font-variant-ligatures:none" d="m461.59 539.16q-0.64448 0-1.0854-0.40704-0.40704-0.44096-0.40704-1.1194 0-0.6784 0.40704-1.0854 0.44096-0.40704 1.0854-0.40704 0.64448 0 1.0515 0.40704 0.44096 0.40704 0.44096 1.0854 0 0.71232-0.44096 1.1194-0.40704 0.40704-1.0515 0.40704zm-2.6797 19.436q-0.44096 0-0.44096-0.54272 0-0.71232 0.94976-0.71232h1.289v-14.043h-1.7978q-0.44096 0-0.44096-0.54272 0-0.71232 0.94976-0.71232h3.1885v15.264l1.7299 0.30528q0.74624 0.1696 0.74624 0.64448 0 0.3392-0.3392 0.3392z" stroke-miterlimit="2" stroke-width="0"/>
  <path id="path134329" style="font-variant-ligatures:none" d="m475.66 558.97q-2.0691 0-3.7312-0.91584t-2.6458-2.8154q-0.94976-1.9334-0.94976-4.7827 0-2.6458 0.94976-4.6131 0.98368-2.0013 2.6797-3.0528 1.7299-1.0854 3.9347-1.0854 2.8832 0 5.2237 1.7299v-7.6659h-1.7299q-0.44096 0-0.44096-0.54272 0-0.71232 0.91584-0.71232h3.1546v22.794l1.3907 0.30528q0.44096 0.10176 0.61056 0.23744t0.1696 0.40704q0 0.3392-0.3392 0.3392h-3.5955v-2.5101h-0.13568q-1.9334 2.8832-5.4611 2.8832zm0.47488-1.3229q1.3229 0 2.4762-0.61056 1.1533-0.64448 1.8317-1.7299 0.6784-1.1194 0.6784-2.4762v-7.8694q-2.1709-1.9334-4.8845-1.9334-1.6621 0-3.0189 0.848-1.3229 0.81408-2.137 2.5101-0.78016 1.696-0.78016 4.1043 0 3.3581 1.4586 5.2576 1.4925 1.8995 4.3757 1.8995z" stroke-miterlimit="2" stroke-width="0"/>
  <path id="path134331" style="font-variant-ligatures:none" d="m496.64 558.97q-2.3744 0-4.1722-1.0515-1.7638-1.0515-2.7136-2.985-0.94976-1.9334-0.94976-4.5114 0-3.9347 2.0013-6.3091 2.0013-2.4083 5.5968-2.4083 3.2563 0 5.088 1.9334 1.8317 1.8995 1.8317 5.088 0 0.91584-0.40704 1.9334h-12.177q0 3.3581 1.6621 5.1898 1.696 1.7978 4.3078 1.7978 2.5779 0 4.4774-1.3907 0.0678-0.0339 0.23744-0.13568 0.1696-0.13568 0.3392-0.13568 0.23744 0 0.40704 0.20352 0.1696 0.1696 0.1696 0.44096t-0.23744 0.54272q-0.23744 0.23744-0.71232 0.54272-2.0013 1.255-4.7488 1.255zm4.6131-9.6333q0.13568-0.47488 0.13568-0.94976 0-2.5779-1.3907-3.9686t-3.5955-1.3907q-2.3744 0-3.9008 1.696-1.5264 1.6621-1.7299 4.6131z" stroke-miterlimit="2" stroke-width="0"/>
  <path id="path134333" style="font-variant-ligatures:none" d="m507.97 558.59q-0.44096 0-0.44096-0.54272 0-0.71232 0.94976-0.71232h1.255v-14.043h-1.7638q-0.44096 0-0.44096-0.54272 0-0.71232 0.94976-0.71232h3.0189v3.3242h0.13568q1.3229-1.5264 2.8832-2.5779 1.5603-1.0854 2.7814-1.0854 0.54272 0 0.848 0.27136 0.3392 0.27136 0.3392 0.74624 0 0.54272-0.3392 0.94976-3.4598 0-6.5126 3.2224v10.413l1.7638 0.30528q0.40704 0.0678 0.57664 0.23744 0.1696 0.13568 0.1696 0.40704 0 0.3392-0.3392 0.3392z" stroke-miterlimit="2" stroke-width="0"/>
  <path id="path134335" style="font-variant-ligatures:none" d="m534.73 539.16q-0.64448 0-1.0854-0.40704-0.40704-0.44096-0.40704-1.1194 0-0.6784 0.40704-1.0854 0.44096-0.40704 1.0854-0.40704 0.64448 0 1.0515 0.40704 0.44096 0.40704 0.44096 1.0854 0 0.71232-0.44096 1.1194-0.40704 0.40704-1.0515 0.40704zm-2.6797 19.436q-0.44096 0-0.44096-0.54272 0-0.71232 0.94976-0.71232h1.289v-14.043h-1.7978q-0.44096 0-0.44096-0.54272 0-0.71232 0.94976-0.71232h3.1885v15.264l1.7299 0.30528q0.74624 0.1696 0.74624 0.64448 0 0.3392-0.3392 0.3392z" stroke-miterlimit="2" stroke-width="0"/>
  <path id="path134337" style="font-variant-ligatures:none" d="m547.59 558.97q-1.696 0-2.8154-1.0176-1.1194-1.0515-1.1194-2.951v-11.533h-2.3066q-0.1696 0-0.30528-0.1696t-0.13568-0.40704q0-0.37312 0.23744-0.57664 0.27136-0.23744 0.71232-0.23744h1.7978l0.37312-3.4938h1.5264v3.4938h5.1558q0.3392 0 0.3392 0.37312 0 0.30528-0.30528 0.44096-0.27136 0.13568-0.88192 0.20352l-4.3078 0.37312v11.668q0 1.2211 0.61056 1.8656 0.64448 0.61056 1.7299 0.61056 0.74624 0 1.3229-0.20352 0.57664-0.23744 1.0854-0.71232 0.30528-0.30528 0.54272-0.30528t0.37312 0.1696q0.1696 0.13568 0.1696 0.44096 0 0.23744-0.23744 0.54272t-0.64448 0.57664q-1.3229 0.848-2.9171 0.848z" stroke-miterlimit="2" stroke-width="0"/>
  <path id="path134339" style="font-variant-ligatures:none" d="m572.19 558.97q-2.0691 0-3.7312-0.91584t-2.6458-2.8154q-0.94976-1.9334-0.94976-4.7827 0-2.6458 0.94976-4.6131 0.98368-2.0013 2.6797-3.0528 1.7299-1.0854 3.9347-1.0854 2.8832 0 5.2237 1.7299v-7.6659h-1.7299q-0.44096 0-0.44096-0.54272 0-0.71232 0.91584-0.71232h3.1546v22.794l1.3907 0.30528q0.44096 0.10176 0.61056 0.23744t0.1696 0.40704q0 0.3392-0.3392 0.3392h-3.5955v-2.5101h-0.13568q-1.9334 2.8832-5.4611 2.8832zm0.47488-1.3229q1.3229 0 2.4762-0.61056 1.1533-0.64448 1.8317-1.7299 0.6784-1.1194 0.6784-2.4762v-7.8694q-2.1709-1.9334-4.8845-1.9334-1.6621 0-3.0189 0.848-1.3229 0.81408-2.137 2.5101-0.78016 1.696-0.78016 4.1043 0 3.3581 1.4586 5.2576 1.4925 1.8995 4.3757 1.8995z" stroke-miterlimit="2" stroke-width="0"/>
  <path id="path134341" style="font-variant-ligatures:none" d="m592.34 558.97q-3.6294 0-5.6307-2.3066-2.0013-2.3405-2.0013-6.343 0-3.9686 2.0013-6.2752 2.0013-2.3405 5.6307-2.3405 3.5955 0 5.5968 2.3405 2.0013 2.3066 2.0013 6.2752 0 4.0026-2.0013 6.343-2.0013 2.3066-5.5968 2.3066zm0-1.3229q2.6458 0 4.1382-1.9334 1.5264-1.9334 1.5264-5.3933 0-3.4259-1.5264-5.3594-1.4925-1.9334-4.1382-1.9334-2.6458 0-4.1722 1.9334t-1.5264 5.3594q0 3.4598 1.5264 5.3933 1.5264 1.9334 4.1722 1.9334z" stroke-miterlimit="2" stroke-width="0"/>
  <path id="path134343" style="font-variant-ligatures:none" d="m604.23 558.59q-0.44096 0-0.44096-0.54272 0-0.71232 0.94976-0.71232h1.255v-14.043h-1.7638q-0.44096 0-0.44096-0.54272 0-0.71232 0.94976-0.71232h3.0189v2.4422h0.13568q2.9171-2.7814 6.0038-2.7814 2.3405 0 3.9008 1.3907 1.5942 1.3907 1.5942 3.799v10.413l1.7638 0.30528q0.40704 0.0678 0.57664 0.23744 0.1696 0.13568 0.1696 0.40704 0 0.3392-0.3392 0.3392h-5.8342q-0.44096 0-0.44096-0.54272 0-0.71232 0.94976-0.71232h1.255v-10.312q0-1.7638-1.0854-2.8154-1.0515-1.0854-2.985-1.0854-1.4586 0-2.9171 0.78016-1.4586 0.78016-2.6118 2.103v11.295l1.7638 0.30528q0.40704 0.0678 0.57664 0.23744 0.1696 0.13568 0.1696 0.40704 0 0.3392-0.3392 0.3392z" stroke-miterlimit="2" stroke-width="0"/>
  <path id="path134345" style="font-variant-ligatures:none" d="m633.19 558.97q-2.3744 0-4.1722-1.0515-1.7638-1.0515-2.7136-2.985-0.94976-1.9334-0.94976-4.5114 0-3.9347 2.0013-6.3091 2.0013-2.4083 5.5968-2.4083 3.2563 0 5.088 1.9334 1.8317 1.8995 1.8317 5.088 0 0.91584-0.40704 1.9334h-12.177q0 3.3581 1.6621 5.1898 1.696 1.7978 4.3078 1.7978 2.5779 0 4.4774-1.3907 0.0678-0.0339 0.23744-0.13568 0.1696-0.13568 0.3392-0.13568 0.23744 0 0.40704 0.20352 0.1696 0.1696 0.1696 0.44096t-0.23744 0.54272q-0.23744 0.23744-0.71232 0.54272-2.0013 1.255-4.7488 1.255zm4.6131-9.6333q0.13568-0.47488 0.13568-0.94976 0-2.5779-1.3907-3.9686t-3.5955-1.3907q-2.3744 0-3.9008 1.696-1.5264 1.6621-1.7299 4.6131z" stroke-miterlimit="2" stroke-width="0"/>
  <path id="path134348" style="font-variant-ligatures:none" d="m307.06 511.85q-0.42188-0.28125-1.2656-1.4062-0.98436-0.98438-1.5469-2.1094-0.5625-1.125-0.42188-1.9688 0-0.84375 1.5469-0.84375 2.9531 4.0781 8.2969 3.0938 5.3438-0.98437 11.531-4.9219 6.1875-3.7969 12.516-9.7031 6.4688-5.7656 11.531-11.531 5.2031-5.7656 8.4375-10.406 3.375-4.6406 3.375-6.1875 0-0.42188-1.125-1.2656-1.125-0.98437-2.6719-1.9688-1.4063-0.98437-2.6719-1.8281-1.2656-0.84375-1.5469-1.2656 0.42188-1.4062 2.6719-2.1094 2.25-0.84375 5.0625-1.4062 2.8125-0.70313 5.4844-1.2656 2.8125-0.70312 4.2187-1.6875 7.4531-10.828 12.938-19.406 5.625-8.7188 10.547-17.016 5.0625-8.4375 10.266-17.297 5.2031-8.8594 11.953-19.969 1.8281-3.0938 2.9531-2.1094 1.125 0.98438 1.6875 4.7812 0.5625 3.7969 0.70312 9.7031 0.1406 5.7656 0 12.516-0.1406 6.75-0.5625 13.781-0.28124 7.0312-0.70312 12.938-0.28126 5.9062-0.5625 10.266-0.1406 4.2188 0 5.4844 0.5625 7.1719 0.70312 12.516 0.28126 5.2031 1.4063 9.7031 1.125 4.3594 3.7969 8.5781 2.8125 4.0781 8.4375 9-4.6406 1.5469-7.7344-0.28125-2.9531-1.6875-4.9219-5.2031-1.8281-3.6562-3.0938-8.2969-1.125-4.7812-2.25-9.1406-0.98436-4.5-2.3906-7.7344-1.2656-3.375-3.5156-4.3594-0.1406 0-0.84376 0-0.5625-0.14062-1.4062-0.14062-0.70312 0-1.4063 0.14062-0.70312 0-0.98436 0-1.2656 0.28125-4.7813 1.125-3.375 0.84375-7.4531 1.8281-4.0781 0.98438-7.875 1.9688-3.6563 0.98438-5.3438 1.4062-3.5156 0.98438-7.4531 4.5-3.7969 3.5156-8.1562 8.5781-4.2188 4.9219-8.8594 10.828-4.5 5.9062-9.2813 11.531-4.7812 5.625-9.7031 10.406-4.9219 4.7813-9.8437 7.7344-4.9219 2.9531-9.8438 3.2344-5.0625 0.42187-9.8437-2.8125zm76.219-61.875q0.28126 0.14062 1.4063 0.14062 1.2656 0 1.6875-0.14062 2.5312-0.42188 6.3281-0.98438t7.5937-1.2656q3.7969-0.84375 7.0313-1.8281 3.2344-1.125 4.5-2.3906 0 0 0.42188-2.9531 0.42186-2.9531 0.98436-7.4531 0.5625-4.6406 1.125-10.125 0.70314-5.625 1.2656-10.969 0.5625-5.3438 0.84374-9.8438 0.42188-4.6406 0.5625-7.1719-1.5469-0.70312-4.0781 3.6562-2.5313 4.2188-6.6094 11.672-3.9375 7.4531-9.7031 17.438-5.625 9.8438-13.359 20.531z" stroke-miterlimit="2" stroke-width="0"/>
  <path id="path134350" style="font-variant-ligatures:none" d="m452.76 484.29q-2.6719-1.5469-1.9688-4.3594 0.84376-2.8125 4.0781-6.3281 3.2344-3.6562 8.1562-7.7344 5.0625-4.2188 10.828-8.7188 5.9063-4.5 11.953-9 6.0469-4.6406 11.25-9 5.3437-4.3594 9.1406-8.2969 3.9375-3.9375 5.3437-7.0312-0.28124-1.8281-2.8125-1.9688-2.5312-0.28125-6.0469 0.28125-3.5156 0.42187-7.4531 1.2656-3.9375 0.84375-7.0312 0.98438-3.0938 0-4.7813-0.98438-1.5469-1.125-0.5625-4.2188 0.1406-0.28125 2.9531-1.125 2.9531-0.98437 7.3125-1.9688 4.3594-0.98437 9.4219-1.6875 5.0625-0.70312 9.4219-0.5625 4.3594 0 7.3125 1.2656 3.0938 1.2656 3.2344 4.2188 0.28124 2.9531-2.9531 7.875-3.2344 4.9219-11.25 12.516-0.42188 0.5625-2.3906 2.25-1.8281 1.6875-4.2187 3.7969-2.25 1.9688-4.5 3.9375-2.1094 1.8281-3.0938 2.6719-0.98436 0.84375-3.5156 2.8125-2.5312 1.8281-5.7656 4.3594-3.0938 2.3906-6.4688 5.0625t-6.0469 5.0625-4.2188 4.2188q-1.5469 1.6875-0.98438 2.3906 5.9063 0.5625 11.812 0 6.0469-0.70313 11.953-1.5469 5.9062-0.84375 11.812-1.4062 6.0469-0.70312 12.094-0.14062 1.4063 0.84375 2.6719 2.6719 1.4062 1.6875 0.42188 3.6562-3.6563 0.28125-9.1406 1.2656-5.3437 0.84375-11.672 1.9688-6.1875 1.125-12.797 2.25-6.6094 0.98438-12.656 1.4062-5.9062 0.42188-10.969 0-4.9219-0.28125-7.875-2.1094z" stroke-miterlimit="2" stroke-width="0"/>
  <path id="path134352" style="font-variant-ligatures:none" d="m549.53 484.29q-0.1406-0.28125-0.1406-1.5469t0.1406-1.6875q0.42188-1.5469 1.5469-5.3438 1.125-3.9375 2.3906-8.1562 1.2656-4.3594 2.3906-8.1562 1.125-3.7969 1.5469-5.3438 0.5625-1.9688 1.2656-4.5 0.70314-2.6719 0.28126-5.0625-2.1094-0.28125-5.2031 0.5625-3.0938 0.70313-6.1875 1.2656-2.9531 0.42187-5.625 0-2.5313-0.5625-3.6563-3.375 1.6875-3.5156 5.0625-4.5 3.375-1.125 7.3125-1.5469 3.9375-0.42187 7.4531-1.2656 3.6563-0.84375 5.7656-3.7969 1.2656-3.6562 2.9531-8.8594 1.8281-5.3438 3.7969-11.109 1.9687-5.7656 4.2187-11.391 2.3906-5.625 4.9219-9.9844 1.5469-0.98437 2.5312-0.14062 0.98438 0.84375 1.4063 2.5312 0.5625 1.5469 0.70312 3.2344 0.1406 1.6875 0 2.25-0.84374 3.6562-2.9531 7.875-1.9688 4.0781-3.7969 8.2969-1.6875 4.2188-2.8125 8.4375-0.98438 4.2188 0 8.0156h30.234q0.1406 0 0.70312 0.98438 0.5625 0.84375 0.98438 1.4062 0.70312 1.9688-1.5469 2.6719-2.25 0.70313-6.0469 0.98438-3.7969 0.14062-8.7187 0.28125-4.7813 0-9.2813 0.70312-4.3594 0.5625-7.875 2.1094-3.5156 1.4062-4.7812 4.3594-3.6563 9.4219-6.75 18.984-3.0938 9.4219-5.9063 19.125-0.28124 0.42187-1.125 1.4062-0.84374 0.84375-1.8281 1.5469-0.98438 0.5625-1.9687 0.42188-0.84376-0.14063-1.4063-1.6875z" stroke-miterlimit="2" stroke-width="0"/>
  <path id="path134354" style="font-variant-ligatures:none" d="m608.75 484.29q5.7656-18.562 10.406-29.391 4.7813-10.969 7.875-15.328 3.2344-4.3594 4.3594-2.8125t-0.28126 7.875q-1.2656 6.3281-5.625 17.016-4.2187 10.547-11.953 24.188-1.125 0.42187-2.6719 0.14062t-2.1094-1.6875zm24.609-67.641q-0.28124-0.70312-0.28124-2.5312t0.28124-2.25q3.2344-1.125 4.9219-0.28125t2.1094 2.5312q0.42188 1.5469-0.1406 3.375-0.42188 1.8281-1.5469 2.8125-1.125 0.84375-2.6719 0.28125-1.4062-0.70312-2.6719-3.9375z" stroke-miterlimit="2" stroke-width="0"/>
  <path id="path134356" style="font-variant-ligatures:none" d="m657 484.29q-0.28126-0.14062 0-3.2344 0.42186-3.2344 1.125-8.0156 0.70312-4.7812 1.8281-10.547 1.125-5.7656 2.3906-10.969 1.2656-5.3438 2.6719-9.2812 1.5469-4.0781 2.9531-5.625 0.98438-0.98437 1.9688 0 0.98436 0.84375 1.9687 2.25 0.98438 1.2656 1.9688 2.3906 0.98436 0.98437 2.1094 0.14062 3.9375-5.4844 8.5781-10.406 4.7812-5.0625 10.547-8.7188 0.5625-0.42188 3.0938-1.2656 2.5312-0.98437 5.7656-1.8281 3.2344-0.98438 6.6094-1.5469 3.5156-0.70312 5.9062-0.5625 2.5313 0 3.375 1.2656 0.98438 1.125-0.84374 3.9375-8.4375 0.14062-15.75 4.9219-7.3125 4.7812-13.5 11.812-6.1875 7.0312-11.25 15.328-5.0625 8.1562-8.8594 15.188-3.6562 7.0312-6.1875 11.672-2.3906 4.6406-3.5156 4.6406-0.1406 0-1.2656-0.5625-1.125-0.70313-1.6875-0.98438z" stroke-miterlimit="2" stroke-width="0"/>
  <path id="icon" stroke-width=".75" d="m472.06 251.66c-0.008 0-7.8915 5.7188-17.519 12.708l-17.504 12.708 4.0678 0.0104 4.0678 0.0108v32.859h-5.2962v6.3384h131.6v-6.3384h-4.3368v-30.16l2.8778-0.0104 2.8781-0.0108-2.8735-4.6078-2.8731-4.6078-34.53-0.0105-34.535-0.0105-2.2095-1.608-2.2103-1.6072v-12.26h-8.0062l-0.0104 3.2142-0.0109 3.2142-6.7837-4.9239c-3.7305-2.7075-6.7905-4.9238-6.798-4.9238zm-14.211 33.278h4.0449v8.0895h-8.0895v-8.0895zm32.265 0.0104 4.0345 0.0104 0.0104 4.0345 0.0108 4.0345h-8.0895v-8.0902zm24.968-0.0104h4.024v8.0895h-8.0482v-8.0895zm17.691 0.0104 4.0345 0.0104 0.0104 4.0345 0.0109 4.0345h-8.0903v-8.0902zm17.691-0.0104h4.0449v8.0895h-8.0895v-8.0895zm-76.478 6.0882h4.7955v19.224h-9.591v-19.224zm106.42 7.2195c-0.17514 0.003-0.45911 0.0217-0.63134 0.0412-0.1718 0.02-0.46287 0.0663-0.64634 0.10384-0.18349 0.0371-0.50207 0.12259-0.70807 0.18973-0.206 0.0671-0.54961 0.20516-0.7635 0.3065-0.21434 0.10132-0.57088 0.30399-0.79313 0.45036-0.22225 0.14636-0.55377 0.39615-0.73641 0.55502-0.18307 0.15929-0.46246 0.43868-0.62175 0.62175-0.15888 0.18265-0.40908 0.51457-0.55587 0.73767-0.14678 0.22268-0.34777 0.57922-0.44702 0.7923-0.0992 0.21267-0.23769 0.56503-0.30691 0.78315-0.0697 0.21767-0.15596 0.53918-0.19182 0.71349-0.0359 0.17472-0.0863 0.54502-0.11175 0.82275-0.0338 0.36988-0.0334 0.64302 0.00041 1.0184 0.0254 0.28231 0.0909 0.71056 0.14553 0.95242 0.0546 0.24144 0.17556 0.64093 0.26855 0.88778 0.093 0.24728 0.25396 0.60465 0.35737 0.79477 0.10383 0.18974 0.29357 0.49206 0.42242 0.67137 0.12886 0.17931 0.34945 0.45662 0.49081 0.6155 0.14137 0.15929 0.41659 0.42325 0.61132 0.58672 0.19516 0.16388 0.48706 0.38572 0.64886 0.49331 0.16179 0.10758 0.48079 0.28856 0.7089 0.40198 0.22809 0.11385 0.57421 0.26271 0.76897 0.33069 0.19516 0.0684 0.50457 0.15554 0.68805 0.19431 0.18348 0.0384 0.37572 0.0784 0.42743 0.0888l0.0938 0.0196v4.8772h1.9182v-4.873l0.23978-0.0479c0.13177-0.0263 0.31483-0.0659 0.40657-0.0884 0.0917-0.0225 0.31692-0.0892 0.5004-0.14844 0.18348-0.0592 0.51125-0.19016 0.7285-0.29107 0.21684-0.10091 0.6109-0.32693 0.8757-0.50291 0.34111-0.22643 0.62008-0.45911 0.96038-0.80107 0.26396-0.26522 0.59547-0.64677 0.73725-0.84818 0.14178-0.20099 0.36237-0.57045 0.48998-0.8202 0.12801-0.2502 0.2969-0.64843 0.37613-0.88485 0.0788-0.23685 0.18515-0.62758 0.23644-0.86865 0.0771-0.36321 0.0934-0.57254 0.0942-1.2302 0.001-0.60048-0.0171-0.88822-0.0746-1.1884-0.0421-0.21809-0.14845-0.61674-0.23602-0.88657-0.088-0.26938-0.25688-0.68221-0.3753-0.9174-0.11885-0.23477-0.33068-0.59589-0.4708-0.80228-0.1497-0.22059-0.46996-0.59088-0.77685-0.89865-0.31692-0.31775-0.66887-0.62258-0.897-0.77647-0.20641-0.13928-0.56295-0.34736-0.7923-0.46246-0.22935-0.11467-0.57629-0.26479-0.77145-0.33318-0.19474-0.0688-0.52333-0.16388-0.72975-0.21142-0.20641-0.0479-0.56962-0.10675-0.8073-0.13052-0.23727-0.0242-0.57504-0.0413-0.7506-0.0383z"/>
 </g>

</g>
</svg>