<?xml version="1.0" encoding="utf-8"?>
<!-- Generator: Adobe Illustrator 21.1.0, SVG Export Plug-In . SVG Version: 6.00 Build 0)  -->
<svg xmlns="http://www.w3.org/2000/svg" xmlns:xlink="http://www.w3.org/1999/xlink" version="1.1" id="Layer_1" x="0px" y="0px" viewBox="0 0 200 200" enable-background="new 0 0 200 200" xml:space="preserve">
<rect width="200" height="200" fill="#f9a01e"/><path fill="#3c1740" d="M108.2,29.3c0-1.8-1.5-3.3-3.3-3.3c-1.8,0-3.2,1.5-3.2,3.3c0,1.8,1.4,3.2,3.2,3.2  C106.7,32.5,108.2,31.1,108.2,29.3z M94.3,29.7c0-1.8-1.5-3.2-3.3-3.2c-1.8,0-3.3,1.4-3.3,3.2c0,1.8,1.5,3.3,3.3,3.3  C92.8,32.9,94.3,31.5,94.3,29.7z M121.9,31.6c0-1.8-1.5-3.3-3.3-3.3c-1.8,0-3.3,1.5-3.3,3.3c0,1.8,1.5,3.2,3.3,3.2  C120.4,34.8,121.9,33.4,121.9,31.6z M80.7,32.8c0-1.8-1.5-3.3-3.3-3.3c-1.8,0-3.2,1.5-3.2,3.3s1.4,3.3,3.2,3.3  C79.2,36.1,80.7,34.6,80.7,32.8z M134.9,36.5c0-1.8-1.5-3.3-3.3-3.3c-1.8,0-3.3,1.5-3.3,3.3c0,1.8,1.5,3.3,3.3,3.3  C133.4,39.8,134.9,38.3,134.9,36.5z M68,38.5c0-1.8-1.4-3.3-3.2-3.3c-1.8,0-3.3,1.5-3.3,3.3c0,1.8,1.5,3.2,3.3,3.2  C66.6,41.7,68,40.3,68,38.5z M146.7,43.9c0-1.8-1.5-3.3-3.3-3.3c-1.8,0-3.3,1.5-3.3,3.3c0,1.8,1.5,3.2,3.3,3.2  C145.2,47.2,146.7,45.7,146.7,43.9z M56.7,46.5c0-1.8-1.5-3.2-3.3-3.2s-3.2,1.4-3.2,3.2c0,1.8,1.4,3.3,3.2,3.3S56.7,48.3,56.7,46.5z   M156.7,53.4c0-1.8-1.4-3.2-3.2-3.2c-1.8,0-3.3,1.4-3.3,3.2c0,1.8,1.5,3.3,3.3,3.3C155.3,56.7,156.7,55.3,156.7,53.4z M47.2,56.6  c0-1.8-1.4-3.3-3.2-3.3c-1.8,0-3.3,1.5-3.3,3.3c0,1.8,1.5,3.3,3.3,3.3C45.7,59.9,47.2,58.4,47.2,56.6z M161.5,68  c1.8,0,3.3-1.4,3.3-3.2c0-1.8-1.5-3.3-3.3-3.3c-1.8,0-3.2,1.5-3.2,3.3C158.3,66.6,159.7,68,161.5,68z M36.5,71.7  c1.8,0,3.3-1.5,3.3-3.3c0-1.8-1.5-3.3-3.3-3.3s-3.3,1.5-3.3,3.3C33.3,70.2,34.7,71.7,36.5,71.7z M167.2,80.7c1.8,0,3.3-1.5,3.3-3.3  c0-1.8-1.5-3.2-3.3-3.2c-1.8,0-3.3,1.4-3.3,3.2C163.9,79.2,165.4,80.7,167.2,80.7z M31.6,84.7c1.8,0,3.2-1.5,3.2-3.3  c0-1.8-1.4-3.3-3.2-3.3c-1.8,0-3.3,1.5-3.3,3.3C28.3,83.2,29.8,84.7,31.6,84.7z M167.1,91c0,1.8,1.5,3.3,3.3,3.3s3.2-1.5,3.2-3.3  c0-1.8-1.4-3.3-3.2-3.3S167.1,89.2,167.1,91z M29.3,98.4c1.8,0,3.2-1.4,3.2-3.2c0-1.8-1.4-3.3-3.2-3.3c-1.8,0-3.3,1.5-3.3,3.3  C26,96.9,27.5,98.4,29.3,98.4z M170.7,101.6c-1.8,0-3.2,1.4-3.2,3.2c0,1.8,1.4,3.3,3.2,3.3c1.8,0,3.3-1.5,3.3-3.3  C174,103.1,172.5,101.6,170.7,101.6z M32.9,109c0-1.8-1.5-3.3-3.3-3.3s-3.2,1.5-3.2,3.3c0,1.8,1.4,3.3,3.2,3.3S32.9,110.8,32.9,109z   M168.4,115.3c-1.8,0-3.2,1.5-3.2,3.3c0,1.8,1.4,3.3,3.2,3.3c1.8,0,3.3-1.5,3.3-3.3C171.7,116.8,170.2,115.3,168.4,115.3z   M32.8,119.3c-1.8,0-3.3,1.5-3.3,3.3c0,1.8,1.5,3.2,3.3,3.2c1.8,0,3.3-1.4,3.3-3.2C36.1,120.8,34.6,119.3,32.8,119.3z M163.5,128.3  c-1.8,0-3.3,1.5-3.3,3.3c0,1.8,1.5,3.3,3.3,3.3s3.3-1.5,3.3-3.3C166.7,129.8,165.3,128.3,163.5,128.3z M38.5,132  c-1.8,0-3.3,1.4-3.3,3.2s1.5,3.3,3.3,3.3c1.8,0,3.2-1.5,3.2-3.3S40.3,132,38.5,132z M156.1,140.1c-1.8,0-3.2,1.5-3.2,3.3  c0,1.8,1.4,3.3,3.2,3.3c1.8,0,3.3-1.5,3.3-3.3C159.3,141.6,157.9,140.1,156.1,140.1z M46.5,143.3c-1.8,0-3.2,1.5-3.2,3.3  s1.4,3.2,3.2,3.2c1.8,0,3.3-1.4,3.3-3.2S48.3,143.3,46.5,143.3z M146.6,150.2c-1.8,0-3.3,1.5-3.3,3.3c0,1.8,1.5,3.2,3.3,3.2  c1.8,0,3.2-1.4,3.2-3.2C149.8,151.7,148.4,150.2,146.6,150.2z M56.6,152.8c-1.8,0-3.3,1.4-3.3,3.2c0,1.8,1.5,3.3,3.3,3.3  c1.8,0,3.3-1.5,3.3-3.3C59.9,154.3,58.4,152.8,56.6,152.8z M135.2,158.3c-1.8,0-3.2,1.4-3.2,3.2c0,1.8,1.4,3.3,3.2,3.3  c1.8,0,3.3-1.5,3.3-3.3C138.5,159.7,137,158.3,135.2,158.3z M68.4,160.2c-1.8,0-3.3,1.5-3.3,3.3s1.5,3.3,3.3,3.3  c1.8,0,3.3-1.5,3.3-3.3S70.2,160.2,68.4,160.2z M122.6,163.9c-1.8,0-3.3,1.5-3.3,3.3c0,1.8,1.5,3.3,3.3,3.3c1.8,0,3.2-1.5,3.2-3.3  C125.8,165.4,124.4,163.9,122.6,163.9z M81.4,165.2c-1.8,0-3.3,1.4-3.3,3.2c0,1.8,1.5,3.3,3.3,3.3c1.8,0,3.3-1.5,3.3-3.3  C84.7,166.6,83.2,165.2,81.4,165.2z M109,167.1c-1.8,0-3.3,1.5-3.3,3.3c0,1.8,1.5,3.2,3.3,3.2c1.8,0,3.3-1.4,3.3-3.2  C112.3,168.5,110.8,167.1,109,167.1z M95.1,167.5c-1.8,0-3.3,1.4-3.3,3.2c0,1.8,1.5,3.3,3.3,3.3c1.8,0,3.2-1.5,3.2-3.3  S96.9,167.5,95.1,167.5z M100,14.5c-47.2,0-85.5,38.3-85.5,85.5c0,47.2,38.3,85.5,85.5,85.5c47.2,0,85.5-38.3,85.5-85.5  C185.5,52.8,147.2,14.5,100,14.5z M100,180.6c-44.5,0-80.6-36.1-80.6-80.6c0-44.5,36.1-80.6,80.6-80.6s80.6,36.1,80.6,80.6  C180.6,144.5,144.5,180.6,100,180.6z"/>
<g transform="translate(30 30) scale(0.7)"><path d="m143.24 40c-0.56687 0.01534-1.2482 0.69666-2.0449 2.0449-3.9222 6.4553-7.3946 12.258-10.418 17.406-3.0234 5.1479-6.0056 10.173-8.9473 15.076-2.86 4.8211-5.9248 9.7639-9.1934 14.83-3.1868 4.9845-6.9446 10.622-11.275 16.914-0.81713 0.572-2.0435 1.0621-3.6777 1.4707-1.5525 0.32685-3.147 0.69494-4.7812 1.1035-1.6343 0.32686-3.1047 0.73628-4.4121 1.2266-1.3074 0.40857-2.083 1.0208-2.3281 1.8379 0.16344 0.24514 0.61224 0.61322 1.3477 1.1035 0.73542 0.49028 1.5129 1.0218 2.3301 1.5938 0.89884 0.572 1.6744 1.1429 2.3281 1.7148 0.6537 0.49027 0.98047 0.85838 0.98047 1.1035 0 0.89885-0.9803 2.6961-2.9414 5.3926-1.8794 2.6965-4.3321 5.7201-7.3555 9.0703-2.9417 3.3502-6.29 6.7006-10.049 10.051-3.6771 3.4319-7.3148 6.2508-10.91 8.457-3.5954 2.288-6.9457 3.719-10.051 4.291-3.1051 0.57199-5.5145-0.32757-7.2305-2.6973-0.89885 0-1.3496 0.24604-1.3496 0.73632-0.08167 0.49028 0.04227 1.0612 0.36914 1.7148 0.32685 0.65371 0.77567 1.2679 1.3476 1.8398 0.49029 0.65369 0.85838 1.0612 1.1035 1.2246 2.7782 1.8794 5.6384 2.6963 8.5801 2.4512 2.86-0.16343 5.7201-1.1024 8.5801-2.8184 2.8599-1.716 5.7182-3.9639 8.5781-6.7422 2.86-2.7782 5.6807-5.8018 8.459-9.0703 2.7782-3.2685 5.4731-6.6188 8.0879-10.051 2.6965-3.432 5.2713-6.5776 7.7227-9.4375 2.5331-2.9417 4.9031-5.4337 7.1094-7.4766 2.288-2.0428 4.4533-3.3499 6.4961-3.9219 0.98057-0.24513 2.5337-0.65456 4.6582-1.2266 2.2062-0.572 4.4936-1.1428 6.8633-1.7148 2.3697-0.57199 4.535-1.1035 6.4961-1.5937 2.0428-0.49028 3.4325-0.81706 4.168-0.98047h0.85742c0.40858-0.0817 0.81801-0.12306 1.2266-0.12306 0.49028 0 0.89777 0.0413 1.2246 0.12306h0.73633c1.3074 0.57199 2.329 1.8377 3.0644 3.7988 0.81714 1.8794 1.51 4.1274 2.082 6.7422 0.65369 2.5331 1.3072 5.1886 1.9609 7.9668 0.73543 2.6965 1.635 5.1079 2.6973 7.2324 1.144 2.0428 2.575 3.5546 4.291 4.5352 1.7977 1.0623 4.0437 1.143 6.7402 0.24415-3.2685-2.86-5.7193-5.4741-7.3535-7.8438-1.5525-2.4514-2.6568-4.9435-3.3105-7.4766-0.65372-2.6148-1.0612-5.4337-1.2246-8.457-0.0817-3.1051-0.28643-6.7428-0.61328-10.91-0.0817-0.73542-0.0817-2.3279 0-4.7793 0.16341-2.5331 0.3268-5.5153 0.49024-8.9473 0.24513-3.4319 0.44985-7.1917 0.61327-11.277 0.24515-4.0857 0.40854-8.0895 0.49024-12.012 0.0817-3.9222 0.0817-7.558 0-10.908-0.0817-3.4319-0.28642-6.2508-0.61329-8.457-0.32685-2.2062-0.81699-3.596-1.4707-4.168-0.16342-0.143-0.34032-0.21214-0.5293-0.20703zm-1.6602 15.566c0.12129 0.0052 0.2392 0.03295 0.35156 0.08402-0.0817 1.4708-0.24509 3.5554-0.49023 6.252-0.16342 2.6148-0.40947 5.475-0.73633 8.5801-0.32685 3.1051-0.69493 6.292-1.1035 9.5605-0.32685 3.1868-0.65361 6.1277-0.98047 8.8242-0.32685 2.6148-0.61228 4.7801-0.85742 6.4961l-0.36719 2.5742c-0.73541 0.73542-2.0425 1.4303-3.9219 2.084-1.8794 0.572-3.9226 1.1035-6.1289 1.5938-2.2062 0.40859-4.4129 0.77471-6.6191 1.1016-2.2062 0.32686-4.0448 0.61423-5.5156 0.85937-0.24514 0.0817-0.73529 0.1211-1.4707 0.1211-0.65369 0-1.0631-0.0394-1.2266-0.1211v-1.4707c4.4942-6.2102 8.376-12.177 11.645-17.896 3.3502-5.8016 6.1691-10.866 8.457-15.197 2.3697-4.3308 4.2909-7.7224 5.7617-10.174 1.287-2.2165 2.3541-3.3072 3.2031-3.2715z" fill="#3c1740"/></g></svg>
