<?xml version="1.0" encoding="utf-8"?>
<!-- Generator: Adobe Illustrator 21.1.0, SVG Export Plug-In . SVG Version: 6.00 Build 0)  -->
<svg xmlns="http://www.w3.org/2000/svg" xmlns:xlink="http://www.w3.org/1999/xlink" version="1.1" id="Layer_1" x="0px" y="0px" viewBox="0 0 200 200" enable-background="new 0 0 200 200" xml:space="preserve">
<rect width="200" height="200" fill="#3c1740"/><path fill="#f9a01e" d="M196.9,106.3l-0.1-0.1c-3.2-3.9-7.9-6.2-12.9-6.2c-1.3,0-2.6,0.2-3.9,0.5c1-2,1.9-4.1,2.8-6.2  c3.2-3,5.1-7,5.5-11.4c0.3-4.6-1.1-9-4-12.5l-0.1-0.1c-0.9-1-2.3-1.1-3.3-0.2l-0.1,0.1c-3.4,3-5.5,7.2-5.8,11.8  c-0.3,4.1,0.8,8.2,3.2,11.5c-3.5,8.8-8.8,16.2-15,22c1.4-5.4,2.2-11.2,2.2-17.1c0-0.1,0-0.2,0-0.4c3.9-8.2,5.4-17.3,4.4-26.5  c8.3-1.4,14.5-9,14.1-17.8v-0.1c-0.1-1.3-1.1-2.3-2.5-2.3h-0.2c-6.1,0.3-11.2,3.8-14,8.9c-0.3-1.1-0.7-2.1-1.1-3.2  c-0.9-2.3-2-4.5-3.2-6.7c7.6-2.9,12.2-11,10.7-19.3l0-0.1c-0.2-1.3-1.5-2.2-2.8-1.9l-0.1,0c-4.4,0.8-8.3,3.4-10.8,7.2  c-1.2,1.8-2,3.7-2.5,5.8c-2.2-2.8-4.6-5.4-7.3-7.9c6-5.7,7.1-15.2,2.3-22.3l-0.1-0.1c-0.3-0.5-0.9-0.9-1.5-1c-0.6-0.1-1.3,0-1.8,0.4  l-0.1,0.1c-3.7,2.6-6.2,6.5-7,11.1c-0.3,1.8-0.4,3.7-0.1,5.5c-1.9-1.2-3.8-2.4-5.8-3.4c-3.2-4.3-8.2-6.9-13.5-6.9  c-3.5,0-6.9,1.1-9.7,3.2l-0.1,0.1c-1.1,0.8-1.3,2.3-0.6,3.4L112,24c3.1,4.6,8.3,7.3,13.8,7.3c3.1,0,6-0.8,8.6-2.4  c2.5,1.4,4.9,2.9,7.2,4.5c-4.1,0.9-7.6,3.3-9.9,6.7c-9.4-5.3-20.2-8.4-31.6-8.4s-22.3,3-31.6,8.4c-2.4-3.4-5.9-5.8-9.9-6.7  c2.3-1.7,4.7-3.2,7.2-4.5c2.6,1.6,5.6,2.4,8.6,2.4l0,0c5.5,0,10.6-2.7,13.8-7.3l0.1-0.1c0.7-1.1,0.5-2.6-0.6-3.4l-0.1-0.1  c-2.9-2.1-6.2-3.2-9.7-3.2c-5.3,0-10.3,2.6-13.5,6.9c-2,1.1-3.9,2.2-5.8,3.4c0.2-1.8,0.2-3.6-0.1-5.5c-0.8-4.5-3.3-8.5-7-11.1  l-0.1-0.1c-0.5-0.4-1.1-0.5-1.8-0.4c-0.6,0.1-1.2,0.5-1.5,1l-0.1,0.1c-2.6,3.8-3.5,8.4-2.7,12.9c0.7,3.7,2.4,6.9,5,9.4  c-2.7,2.4-5.1,5.1-7.3,7.9c-0.5-2.1-1.3-4-2.5-5.8c-2.5-3.8-6.4-6.3-10.8-7.2l-0.1,0c-1.3-0.2-2.5,0.6-2.8,1.9l0,0.1  c-0.8,4.5,0.1,9.1,2.7,12.9c2,3,4.8,5.2,8.1,6.4c-1.8,3.2-3.2,6.5-4.3,9.9c-0.6-1.2-1.4-2.3-2.3-3.3c-3-3.4-7.2-5.4-11.7-5.6h-0.1  c-1.3-0.1-2.4,1-2.5,2.3v0.1c-0.4,8.8,5.8,16.4,14.1,17.8c-1,9,0.3,18.1,4.3,26.5c0,0.1,0,0.2,0,0.4c0,5.9,0.8,11.7,2.2,17.1  c-6.4-6-11.5-13.5-15-22.1c5.1-7.2,4.1-17.3-2.6-23.2L19.2,70c-0.5-0.4-1.1-0.6-1.7-0.6c-0.6,0.1-1.2,0.4-1.6,0.8l-0.1,0.1  c-2.9,3.5-4.4,7.9-4,12.5c0.3,4.4,2.3,8.5,5.5,11.4c0.8,2.2,1.8,4.2,2.8,6.2c-1.3-0.3-2.6-0.5-3.9-0.5c-5,0-9.7,2.2-12.9,6.2  l-0.1,0.1c-0.4,0.5-0.6,1.1-0.6,1.8s0.3,1.2,0.9,1.6l0.1,0.1c3,2.6,6.9,4,10.8,4l0,0c4.1,0,8.1-1.6,11.1-4.3  c4,5.6,8.9,10.5,14.3,14.4c1.5,3.6,3.3,7.1,5.3,10.3c-2.7,3.5-3.9,8-3.4,12.5c-2.3-1.6-4.5-3.4-6.6-5.4c0.8-4,0.2-8.2-1.8-11.8  c-2.2-4-5.8-6.9-10.1-8.2l-0.1,0c-1.3-0.4-2.6,0.4-2.9,1.7l0,0.1c-1.2,4.4-0.7,9.1,1.5,13.1c2.1,3.9,5.5,6.7,9.7,8  c1.7,1.6,3.4,3.1,5.1,4.5c-6.1,1.3-11.2,6-12.9,12.4l0,0.1c-0.3,1.3,0.4,2.6,1.7,3l0.1,0c1.4,0.4,2.9,0.6,4.4,0.6l0,0  c6.7,0,12.8-4.1,15.4-10.3c3.2,1.8,6.5,3.2,9.8,4.4c-5.5,3.6-8.7,10.2-7.6,17.2l0,0.1c0.2,1.2,1.2,2,2.3,2c0.1,0,0.2,0,0.4,0l0.1,0  c4.5-0.7,8.4-3.2,11-6.9c2.1-2.9,3.2-6.4,3.3-9.9c3.3,0.6,6.6,0.9,9.9,0.9c0.2,0,0.5,0,0.7,0c-0.9,1-1.7,2.1-2.3,3.3  c-2.1,4.1-2.6,8.7-1.3,13.1l0.1,0.1c0.3,1,1.3,1.7,2.3,1.7c0.2,0,0.5,0,0.7-0.1l0.1-0.1c4.3-1.3,7.9-4.3,10-8.4  c1.4-2.7,2.1-5.7,2-8.7c3.3,0.7,6.7,1.2,10.2,1.4l-2.3,3.3c-4.4,6.3-4.4,16.2,0,22.6c0.7,1.1,2.2,1.4,3.3,0.6  c1.1-0.8,1.3-2.3,0.6-3.4c-3.2-4.6-3.2-12.4,0-17l1.5-2.3l1.5,2.3c3.2,4.6,3.2,12.4,0,17c-0.7,1.1-0.5,2.6,0.6,3.4  c0.4,0.3,0.9,0.4,1.4,0.4c0.7,0,1.5-0.4,1.9-1c4.4-6.3,4.4-16.2,0-22.6l-2.3-3.3c3.6-0.2,7.1-0.6,10.5-1.4c-0.1,3,0.6,6,2,8.7  c2.1,4.1,5.7,7,10,8.4l0.1,0.1c0.2,0.1,0.5,0.1,0.7,0.1c1,0,2-0.7,2.3-1.7l0.1-0.1c1.8-5.9,0.2-12.1-3.6-16.4c0.2,0,0.5,0,0.7,0  c3.3,0,6.6-0.3,9.9-0.9c0.1,3.5,1.1,7,3.3,9.9c2.7,3.7,6.6,6.2,11,6.9l0.1,0c0.1,0,0.2,0,0.4,0c0.5,0,1-0.2,1.4-0.5  c0.5-0.4,0.9-1,0.9-1.6l0-0.2c1.1-6.9-2.1-13.6-7.6-17.2c3.3-1.2,6.6-2.6,9.8-4.4c2.7,6.2,8.7,10.3,15.4,10.3c1.5,0,3-0.2,4.4-0.6  l0.1,0c1.3-0.4,2-1.7,1.7-3l0-0.1c-1.7-6.4-6.7-11.1-12.9-12.4c1.8-1.4,3.5-2.9,5.1-4.5c4.1-1.3,7.5-4.1,9.7-8  c2.2-4,2.7-8.7,1.5-13.1l0-0.1c-0.3-1.3-1.7-2-2.9-1.7l-0.1,0.1c-4.3,1.3-7.9,4.1-10.1,8.2c-2,3.6-2.6,7.8-1.8,11.8  c-2.1,2-4.3,3.8-6.6,5.4c0.2-2.2,0.1-4.4-0.5-6.6c-0.6-2.2-1.6-4.1-2.9-5.9c2.1-3.3,3.9-6.7,5.3-10.4c5.3-3.8,10.2-8.7,14.3-14.3  c3.1,2.7,7,4.3,11.1,4.3c3.9,0,7.8-1.4,10.8-4l0.1-0.1c0.5-0.4,0.8-1,0.8-1.6C197.5,107.5,197.3,106.8,196.9,106.3z M178.9,56.4  c-0.7,4.8-4.3,8.8-9,10C170.7,61.6,174.2,57.7,178.9,56.4z M125.8,26.4c-3.1,0-6.1-1.2-8.3-3.3c1.5-0.7,3.1-1,4.8-1  c3.1,0,6.1,1.2,8.3,3.3C129.1,26.1,127.5,26.4,125.8,26.4z M77.7,22.1c1.7,0,3.3,0.4,4.8,1c-2.2,2.1-5.2,3.3-8.3,3.3  c-1.7,0-3.3-0.4-4.8-1C71.7,23.3,74.6,22.1,77.7,22.1z M21.2,56.4c2.3,0.6,4.3,1.9,5.9,3.7c1.6,1.8,2.6,4,3,6.4  C25.5,65.2,21.9,61.3,21.2,56.4z M19,89.1c-1.4-1.9-2.3-4.2-2.5-6.6c-0.2-2.4,0.3-4.8,1.5-6.9C20.9,79.5,21.3,84.8,19,89.1z   M14.4,109c-2,0-4-0.5-5.7-1.5c2.1-1.7,4.7-2.7,7.5-2.7c2,0,4,0.5,5.7,1.5C19.8,108.1,17.1,109,14.4,109z M30.8,138.9  c-2.1-1.1-3.8-2.8-5-5c-1.2-2.2-1.7-4.5-1.5-6.9c2.1,1.1,3.8,2.8,5,5C30.4,134.1,30.9,136.5,30.8,138.9z M29.7,160  c-0.2,0-0.5,0-0.7,0c2.1-4.3,6.7-7.1,11.5-6.8C38.5,157.4,34.3,160,29.7,160z M170.8,132c1.2-2.2,2.9-3.8,5-5  c0.2,2.4-0.3,4.8-1.5,6.9c-1.2,2.2-2.9,3.8-5,4.9C169.1,136.5,169.7,134.1,170.8,132z M171.1,160c-0.2,0-0.5,0-0.7,0  c-4.6,0-8.8-2.7-10.8-6.8C164.4,153,168.9,155.7,171.1,160z M164.2,86.4c-0.6-3.6-1.5-7-2.7-10.3c1.3-0.6,2.5-1.3,3.6-2.2  C165.4,78.1,165.1,82.3,164.2,86.4z M158.3,68.3C158.3,68.3,158.3,68.3,158.3,68.3c1.7,0,3.2,0.3,4.7,1c-0.9,0.9-2,1.7-3.2,2.3  C159.3,70.5,158.8,69.4,158.3,68.3z M169.1,34.4c-0.1,4.9-3.1,9.3-7.5,11.2C161.7,40.6,164.6,36.2,169.1,34.4z M146.4,22.9  c0.4-2.4,1.5-4.6,3.1-6.3c1.9,4.5,0.9,9.8-2.4,13.4C146.3,27.8,146,25.4,146.4,22.9z M149.2,39.9c5.4,5.5,9.6,11.8,12.4,18.8  c0.7,1.9,1.4,3.7,1.9,5.6c-1.7-0.5-3.4-0.8-5.1-0.8c-0.9,0-1.7,0.1-2.6,0.2c-3.6-6-8-11.3-13.2-15.9C145.5,46,147.8,43.3,149.2,39.9  z M145,37.8c-1.2,3.1-3.5,5.5-6.5,6.8c-0.9-0.7-1.8-1.3-2.8-2C137.9,39.7,141.3,37.9,145,37.8z M160.5,98.3  c0,34-27.1,61.8-60.5,61.8s-60.5-27.7-60.5-61.8S66.7,36.6,100,36.6S160.5,64.3,160.5,98.3z M40.3,71.6c-1.2-0.6-2.3-1.3-3.2-2.3  c1.5-0.6,3-1,4.6-1c0,0,0,0,0.1,0C41.3,69.4,40.8,70.5,40.3,71.6z M64.3,42.6c-0.9,0.6-1.9,1.3-2.8,2c-2.9-1.3-5.3-3.7-6.5-6.8  C58.8,37.9,62.2,39.7,64.3,42.6z M49.7,23.7c-0.4-2.4-0.2-4.8,0.7-7c1.6,1.7,2.7,3.9,3.2,6.3c0.4,2.4,0.2,4.8-0.7,7  C51.3,28.3,50.2,26.1,49.7,23.7z M33.1,41.1c-1.4-2-2.1-4.4-2.1-6.8c2.2,0.9,4.1,2.4,5.4,4.5c1.4,2,2.1,4.4,2.1,6.8  C36.3,44.7,34.4,43.1,33.1,41.1z M50.9,39.9c1.4,3.3,3.7,6.1,6.6,7.9c-5.2,4.5-9.6,9.9-13.2,15.9c-0.9-0.1-1.7-0.2-2.6-0.2  c-1.8,0-3.5,0.3-5.1,0.8C39,55.5,43.9,47,50.9,39.9z M35,73.8c1.1,0.9,2.3,1.6,3.6,2.2c-1.2,3.3-2.1,6.8-2.7,10.3  C35,82.3,34.7,78,35,73.8z M47,148.5c-1-3.4-0.6-7,1.1-10c0.9,1.2,1.8,2.3,2.7,3.4C50.2,144.5,48.9,146.8,47,148.5z M57.4,168.6  c-1.4,2-3.3,3.5-5.5,4.3c0.2-4.9,3.3-9.3,7.8-11C59.6,164.3,58.8,166.6,57.4,168.6z M75.5,175c-0.2-2.4,0.3-4.8,1.4-6.9  c1.1-2.2,2.8-3.9,4.9-5C82.2,167.9,79.7,172.6,75.5,175z M50.4,151.9c1.8-1.7,3.2-3.7,4.1-5.9c4.5,4.5,9.7,8.4,15.4,11.4  C63.4,156.8,56.7,155,50.4,151.9z M124.6,175c-2.1-1.1-3.8-2.9-4.9-5c-1.1-2.2-1.6-4.5-1.4-6.9C122.5,165.3,125,170.1,124.6,175z   M148.2,172.9c-2.2-0.8-4.1-2.3-5.5-4.3c-1.4-2-2.2-4.3-2.3-6.7C144.9,163.6,148,168,148.2,172.9z M130.2,157.4  c5.7-3,10.9-6.9,15.4-11.4c0.9,2.2,2.3,4.3,4.1,5.9C143.4,155,136.7,156.8,130.2,157.4z M153.2,141.4c0.6,2.4,0.6,4.8-0.1,7.1  c-2-1.7-3.3-4.1-3.8-6.6c1-1.1,1.9-2.3,2.7-3.4C152.5,139.4,152.9,140.4,153.2,141.4z M179.6,82.2c0.2-2.4,1-4.7,2.5-6.6  c1.1,2.1,1.7,4.5,1.5,6.9c-0.2,2.4-1,4.7-2.5,6.6C179.9,87,179.4,84.7,179.6,82.2z M185.7,109c-2.8,0-5.4-1-7.5-2.7  c1.8-1,3.7-1.5,5.7-1.5c2.8,0,5.4,1,7.5,2.7C189.7,108.5,187.7,109,185.7,109z"/>
<g transform="translate(30 30) scale(0.7)">
  
  <defs id="defs134315"/>
  <linearGradient id="3d_gradient2-logo-52aa3ec2-e1d7-476f-82be-95c7e152bd00" x1="30%" y1="120%" x2="-10%" y2="30%" spreadMethod="pad">
    <stop offset="0%" stop-color="#ffffff" stop-opacity="1" id="stop134292"/>
    <stop offset="100%" stop-color="#000000" stop-opacity="1" id="stop134294"/>
  </linearGradient>
  <linearGradient id="3d_gradient3-logo-52aa3ec2-e1d7-476f-82be-95c7e152bd00" x1="30%" y1="120%" x2="-10%" y2="30%" spreadMethod="pad" gradientTransform="rotate(-30)">
    <stop offset="0%" stop-color="#ffffff" stop-opacity="1" id="stop134297"/>
    <stop offset="50%" stop-color="#cccccc" stop-opacity="1" id="stop134299"/>
    <stop offset="100%" stop-color="#000000" stop-opacity="1" id="stop134301"/>
  </linearGradient>
  <path id="path134348" style="font-style:normal;font-weight:normal;font-size:72px;line-height:1;font-family:'Nothing You Could Do';font-variant-ligatures:none;text-align:center;text-anchor:middle;fill:#f9a01e;stroke:#f9a01e;stroke-width:0;stroke-linejoin:miter;stroke-miterlimit:2" d="m 46.08166,157.50618 q -0.367713,-0.24514 -1.103139,-1.22569 -0.857974,-0.85799 -1.348253,-1.83855 -0.490278,-0.98055 -0.367713,-1.71597 0,-0.73542 1.34827,-0.73542 2.573957,3.55452 7.231592,2.69653 4.657652,-0.85799 10.050713,-4.28993 5.393062,-3.30938 10.908688,-8.4573 5.638209,-5.02536 10.050714,-10.05071 4.535069,-5.02535 7.354174,-9.07015 2.94167,-4.04479 2.94167,-5.39306 0,-0.36771 -0.980557,-1.10313 -0.980556,-0.85798 -2.328826,-1.71597 -1.225705,-0.85799 -2.328826,-1.5934 -1.103122,-0.73542 -1.34827,-1.10313 0.367713,-1.2257 2.328826,-1.83854 1.961113,-0.73542 4.412505,-1.2257 2.451391,-0.61285 4.780218,-1.10313 2.451394,-0.61284 3.677074,-1.47083 6.4962,-9.437858 11.2764,-16.914601 4.90279,-7.599313 9.19273,-14.830919 4.4125,-7.354174 8.94757,-15.076056 4.53509,-7.721884 10.41843,-17.40488 1.5934,-2.69653 2.57395,-1.838544 0.98056,0.857988 1.47084,4.167365 0.49028,3.30938 0.61284,8.457302 0.12255,5.025351 0,10.908691 -0.12254,5.883339 -0.49028,12.011818 -0.24513,6.128479 -0.61284,11.276401 -0.24515,5.147922 -0.49028,8.947579 -0.12254,3.677088 0,4.780214 0.49028,6.25105 0.61285,10.90869 0.24514,4.53507 1.2257,8.4573 0.98056,3.79966 3.30937,7.47675 2.45139,3.55451 7.35417,7.84445 -4.04479,1.34826 -6.74131,-0.24514 -2.57398,-1.47084 -4.28994,-4.53508 -1.5934,-3.1868 -2.69654,-7.2316 -0.98056,-4.16737 -1.96111,-7.96702 -0.85798,-3.92223 -2.08368,-6.74133 -1.10312,-2.94167 -3.06424,-3.79966 -0.12255,0 -0.73542,0 -0.49028,-0.12256 -1.22569,-0.12256 -0.61284,0 -1.22571,0.12256 -0.61284,0 -0.85797,0 -1.10314,0.24514 -4.16737,0.98056 -2.94167,0.73542 -6.49619,1.5934 -3.55451,0.85799 -6.86389,1.71598 -3.18682,0.85799 -4.65766,1.22569 -3.06423,0.85799 -6.49618,3.92223 -3.309381,3.06424 -7.109025,7.47675 -3.677095,4.28993 -7.721887,9.43785 -3.922226,5.14792 -8.089601,10.05071 -4.167356,4.90278 -8.457296,9.07015 -4.289939,4.16736 -8.579861,6.74132 -4.289939,2.57396 -8.579879,2.8191 -4.412504,0.36771 -8.579861,-2.45139 z m 66.4327,-53.93061 q 0.24515,0.12257 1.2257,0.12257 1.10313,0 1.47084,-0.12257 2.20624,-0.36771 5.51563,-0.85799 3.30938,-0.49028 6.61874,-1.10312 3.30939,-0.73542 6.12849,-1.59341 2.81911,-0.980555 3.92223,-2.08368 0,0 0.36771,-2.573962 0.3677,-2.573961 0.85797,-6.496187 0.49028,-4.044797 0.98056,-8.825009 0.61286,-4.902783 1.10314,-9.560427 0.49028,-4.657644 0.73541,-8.57987 0.36771,-4.044797 0.49028,-6.251049 -1.34827,-0.612847 -3.55452,3.186809 -2.20626,3.677087 -5.76077,10.173275 -3.43195,6.496187 -8.4573,15.198627 -4.90278,8.57987 -11.64411,17.895153 z" stroke-miterlimit="2"/>
</g></svg>
