<?xml version="1.0" encoding="utf-8"?>
<!-- Generator: Adobe Illustrator 21.1.0, SVG Export Plug-In . SVG Version: 6.00 Build 0)  -->
<svg xmlns="http://www.w3.org/2000/svg" xmlns:xlink="http://www.w3.org/1999/xlink" version="1.1" id="Layer_1" x="0px" y="0px" viewBox="0 0 200 200" enable-background="new 0 0 200 200" xml:space="preserve">
<path fill="#f9a01e" d="M27.2,125.3l1.9,2.4l-1-3.1C27.9,123.1,26.2,124.8,27.2,125.3 M29.4,123.8c0.7,1.2,1.5,2.4,1.5,3.6  c0,1.7,1.5,2.4,2.7,2.9C31.8,128.4,30.8,123.1,29.4,123.8 M122.3,21.2c4.1,0,8-0.5,12.3,0.5c10.6,2.7,19.6,8,25.7,15.5l16.9,27.1  c0.7,6.8,2.2,14.3,1.9,22.5c1.7,0,1.5-2.4,3.4-2.9c-1.9,4.8-2.9,10.9-3.4,17.9c-1.2-3.9,0-9.7,0.2-12.8c-1.7,2.7-2.7,0.7-2.7-0.5  c0.2-1.9-0.7-1.7-1.5-2.4c-2.7-2.4-4.4-5.1-6.3-9.2c1.2-3.1,1.5-7.7-2.4-10.2c-1.2-0.7-2.7-1.9-3.4-3.9c-1-2.7-2.7-5.8-2.2-9.9  c0.2-1.2-3.6,2.7-5.8,1c-9.4-6.5-18.9-14-30.3-20.3c-6.1,0-10.4-2.2-12.6-4.8c-1.9-2.4-0.5-5.6,2.4-5.8c1.7,0,3.6-0.5,5.1,0.5  C120.1,22.4,121.1,21.2,122.3,21.2 M98.4,15.7l0.5,0.2c2.4,0.5,3.6,3.9,6.3,2.7c0,1.7,0.2,3.4-0.2,4.6c-0.7,1.9-2.9,1.9-4.6,1.9  c-16.2-1-25.7,5.8-35.6,11.6c-2.7,1.7-5.6,2.9-7.7,5.1c-10.4,9.7-21.8,18.6-24.4,36.5l-2.2,19.8c-0.2,2.2-2.7,4.4-2.2,7l1.7,11.9  c-1.7-1.7-2.7,0.5-2.2,1.5c0.2,0.7,1.2,3.1,2.7,1c1.9,3.6,3.9,10.6,6.5,13.8c8.2,9.7,18.9,18.4,27.6,27.1c2.2-0.5,3.9-0.5,4.4-1.9  c0.7,1.5-0.7,2.9-1.9,3.1c3.9,2.4,8.2,4.6,14,5.1c7.5,0.5,14.5,1.7,21.1,3.4c3.4-1,6.8-1.5,10.4-1.7c1.2,0,1.9-1.9,3.4-2.4l0.2-2.4  c1.5,2.2,1.2-0.7,0.2-2.2c1.7,1.5,2.2,2.7,2.9,3.6c0-0.7,1.9-3.4,1.9-0.2l0.5-3.1c0.7-0.5,1,2.7,1.7,0.5s2.2-0.5,3.6-1.2  c-0.5,1-0.2,2.9,1.5,1.7l1.9-1.7c1.2,2.9,3.1,1.7,4.1,1.2c10.6-6.8,21.3-14.8,31.5-22.7l-0.2,3.1l1.2-3.9c1.2,1.2,2.2,0.2,2.7-0.5  c1.5-2.4,3.4-4.8,6.5-7c-3.9,10.4-8.5,18.6-14.3,25.4l-2.4,2.9c0,1.7-0.5,3.9-2.4,4.1c-1,0.2-2.9-0.5-4.4,1c-0.7,1,1.7,2.9-0.2,1.5  c-1.7-1.2-3.4,0-5.3,0.5c-1.5,0.5,1,1.9,1.5,2.9c0.5,1,1,1.9,0.7,3.1l-2.7-2.9c-3.1,1.7-5.1,4.8-7.7,7.3c-1.2,1-0.7,2.7-0.7,4.1  c-1.7,0-3.6-0.5-4.6,0.5c-0.7,1-0.5,2.4-0.5,3.9c-2.4-0.2-2.7-3.9-4.8-3.1c-2.2,0.5-4.6,0.7-6.5,1.9c1.5,2.9-2.4,1.2-1.9,1.7  c-3.6-2.2-6.8-3.9-10.6-2.4c-8.2-2.7-18.4-1.5-25.9-0.5c0-1.2,0.2-2.4-0.2-2.7c-0.5,1.2-1.9,0.7-1.7,0.7c-4.6-3.1-9.2-5.1-14-7.7  c-4.4,0.5-8.5-1.7-9.7-2.9c-3.4-3.1-7.3-1.5-10.4-2.2c-6.8-1.7-9.2-8.7-9.9-13.6c-0.5-2.4-2.4-3.4-3.1-3.1  c-3.1-10.2-8-19.4-11.9-28.8c-1-2.4-0.7-4.8-0.7-7.5c1.2,0.5,2.4,0.2,2.2-1.5c-1.2-8-4.1-14-7.3-19.8c1.7-8.2,1.9-17.9,5.8-25.2  c3.4-6.5,9.7-9.9,14-15.5c1.5-1.9,1.5-4.6,2.9-6.3c4.8-4.8,9.7-9.9,15-14.3c2.4-1.9,5.3,0,9-0.7c1.2-4.4,6.1-8.2,10.6-7  c1.9,0.5,5.8-4.6,7-5.1c1.9-0.7,1,1.9,1,3.6C86.3,19.8,92.6,17.8,98.4,15.7"/>
<g transform="translate(30 30) scale(0.7)"><path d="m143.24 40c-0.56687 0.01534-1.2482 0.69666-2.0449 2.0449-3.9222 6.4553-7.3946 12.258-10.418 17.406-3.0234 5.1479-6.0056 10.173-8.9473 15.076-2.86 4.8211-5.9248 9.7639-9.1934 14.83-3.1868 4.9845-6.9446 10.622-11.275 16.914-0.81713 0.572-2.0435 1.0621-3.6777 1.4707-1.5525 0.32685-3.147 0.69494-4.7812 1.1035-1.6343 0.32686-3.1047 0.73628-4.4121 1.2266-1.3074 0.40857-2.083 1.0208-2.3281 1.8379 0.16344 0.24514 0.61224 0.61322 1.3477 1.1035 0.73542 0.49028 1.5129 1.0218 2.3301 1.5938 0.89884 0.572 1.6744 1.1429 2.3281 1.7148 0.6537 0.49027 0.98047 0.85838 0.98047 1.1035 0 0.89885-0.9803 2.6961-2.9414 5.3926-1.8794 2.6965-4.3321 5.7201-7.3555 9.0703-2.9417 3.3502-6.29 6.7006-10.049 10.051-3.6771 3.4319-7.3148 6.2508-10.91 8.457-3.5954 2.288-6.9457 3.719-10.051 4.291-3.1051 0.57199-5.5145-0.32757-7.2305-2.6973-0.89885 0-1.3496 0.24604-1.3496 0.73632-0.08167 0.49028 0.04227 1.0612 0.36914 1.7148 0.32685 0.65371 0.77567 1.2679 1.3476 1.8398 0.49029 0.65369 0.85838 1.0612 1.1035 1.2246 2.7782 1.8794 5.6384 2.6963 8.5801 2.4512 2.86-0.16343 5.7201-1.1024 8.5801-2.8184 2.8599-1.716 5.7182-3.9639 8.5781-6.7422 2.86-2.7782 5.6807-5.8018 8.459-9.0703 2.7782-3.2685 5.4731-6.6188 8.0879-10.051 2.6965-3.432 5.2713-6.5776 7.7227-9.4375 2.5331-2.9417 4.9031-5.4337 7.1094-7.4766 2.288-2.0428 4.4533-3.3499 6.4961-3.9219 0.98057-0.24513 2.5337-0.65456 4.6582-1.2266 2.2062-0.572 4.4936-1.1428 6.8633-1.7148 2.3697-0.57199 4.535-1.1035 6.4961-1.5937 2.0428-0.49028 3.4325-0.81706 4.168-0.98047h0.85742c0.40858-0.0817 0.81801-0.12306 1.2266-0.12306 0.49028 0 0.89777 0.0413 1.2246 0.12306h0.73633c1.3074 0.57199 2.329 1.8377 3.0644 3.7988 0.81714 1.8794 1.51 4.1274 2.082 6.7422 0.65369 2.5331 1.3072 5.1886 1.9609 7.9668 0.73543 2.6965 1.635 5.1079 2.6973 7.2324 1.144 2.0428 2.575 3.5546 4.291 4.5352 1.7977 1.0623 4.0437 1.143 6.7402 0.24415-3.2685-2.86-5.7193-5.4741-7.3535-7.8438-1.5525-2.4514-2.6568-4.9435-3.3105-7.4766-0.65372-2.6148-1.0612-5.4337-1.2246-8.457-0.0817-3.1051-0.28643-6.7428-0.61328-10.91-0.0817-0.73542-0.0817-2.3279 0-4.7793 0.16341-2.5331 0.3268-5.5153 0.49024-8.9473 0.24513-3.4319 0.44985-7.1917 0.61327-11.277 0.24515-4.0857 0.40854-8.0895 0.49024-12.012 0.0817-3.9222 0.0817-7.558 0-10.908-0.0817-3.4319-0.28642-6.2508-0.61329-8.457-0.32685-2.2062-0.81699-3.596-1.4707-4.168-0.16342-0.143-0.34032-0.21214-0.5293-0.20703zm-1.6602 15.566c0.12129 0.0052 0.2392 0.03295 0.35156 0.08402-0.0817 1.4708-0.24509 3.5554-0.49023 6.252-0.16342 2.6148-0.40947 5.475-0.73633 8.5801-0.32685 3.1051-0.69493 6.292-1.1035 9.5605-0.32685 3.1868-0.65361 6.1277-0.98047 8.8242-0.32685 2.6148-0.61228 4.7801-0.85742 6.4961l-0.36719 2.5742c-0.73541 0.73542-2.0425 1.4303-3.9219 2.084-1.8794 0.572-3.9226 1.1035-6.1289 1.5938-2.2062 0.40859-4.4129 0.77471-6.6191 1.1016-2.2062 0.32686-4.0448 0.61423-5.5156 0.85937-0.24514 0.0817-0.73529 0.1211-1.4707 0.1211-0.65369 0-1.0631-0.0394-1.2266-0.1211v-1.4707c4.4942-6.2102 8.376-12.177 11.645-17.896 3.3502-5.8016 6.1691-10.866 8.457-15.197 2.3697-4.3308 4.2909-7.7224 5.7617-10.174 1.287-2.2165 2.3541-3.3072 3.2031-3.2715z" fill="#a8652c"/></g></svg>
