<?xml version="1.0" encoding="utf-8"?>
<!-- Generator: Adobe Illustrator 21.1.0, SVG Export Plug-In . SVG Version: 6.00 Build 0)  -->
<svg xmlns="http://www.w3.org/2000/svg" xmlns:xlink="http://www.w3.org/1999/xlink" version="1.1" id="Layer_1" x="0px" y="0px" viewBox="0 0 200 200" enable-background="new 0 0 200 200" xml:space="preserve">
<rect width="200" height="200" fill="#f9a01e"/><path fill="#3c1740" d="M124.1,38.9c7.2,0,13-5.8,13-13s-5.8-13-13-13c-7.2,0-13,5.8-13,13C111.1,33.1,116.9,38.9,124.1,38.9z   M124.1,20.4c3.1,0,5.6,2.5,5.6,5.6s-2.5,5.6-5.6,5.6s-5.6-2.5-5.6-5.6S121,20.4,124.1,20.4z M170.4,151.9c7.2,0,13-5.8,13-13  s-5.8-13-13-13c-7.2,0-13,5.8-13,13C157.4,146,163.2,151.9,170.4,151.9z M170.4,133.3c3.1,0,5.6,2.5,5.6,5.6c0,3.1-2.5,5.6-5.6,5.6  c-3.1,0-5.6-2.5-5.6-5.6C164.8,135.8,167.3,133.3,170.4,133.3z M27.8,72.2c7.2,0,13-5.8,13-13s-5.8-13-13-13c-7.2,0-13,5.8-13,13  C14.8,66.4,20.6,72.2,27.8,72.2z M27.8,53.7c3.1,0,5.6,2.5,5.6,5.6s-2.5,5.6-5.6,5.6s-5.6-2.5-5.6-5.6S24.7,53.7,27.8,53.7z   M74.1,159.3c-7.2,0-13,5.8-13,13c0,7.2,5.8,13,13,13c7.2,0,13-5.8,13-13C87,165.1,81.2,159.3,74.1,159.3z M74.1,177.8  c-3.1,0-5.6-2.5-5.6-5.6c0-3.1,2.5-5.6,5.6-5.6s5.6,2.5,5.6,5.6C79.6,175.3,77.1,177.8,74.1,177.8z M0,200h200V0H0V200z   M144.4,192.6L144.4,192.6c-1.1,0-12.1-0.2-18.9-7c-7.2-7.2-7-18.9-7-18.9h0.1c1,0,12.1,0.2,18.9,7  C144.6,180.8,144.4,192.6,144.4,192.6z M151.9,192.6L151.9,192.6c-0.1,0-0.3-11.8,6.9-18.9c6.8-6.8,17.8-7,18.9-7h0.1  c0,0,0.2,11.8-7,18.9C164,192.4,153,192.6,151.9,192.6z M192.6,48.1L192.6,48.1c-1.1,0-12.1-0.2-18.9-7c-7.2-7.2-7-18.9-7-18.9h0.1  c1,0,12.1,0.2,18.9,7C192.8,36.4,192.6,48.1,192.6,48.1z M185.6,74.5c-6.8,6.8-17.8,7-18.9,7h-0.1c0,0-0.2-11.8,7-18.9  c6.8-6.8,17.8-7,18.9-7h0.1C192.6,55.6,192.8,67.3,185.6,74.5z M61.1,7.4L61.1,7.4c1.1,0,12.1,0.2,18.9,7c7.2,7.2,7,18.9,7,18.9H87  c-1,0-12.1-0.2-18.9-7C60.9,19.2,61.1,7.4,61.1,7.4z M53.6,7.4L53.6,7.4c0.1,0,0.3,11.8-6.9,18.9c-6.8,6.8-17.8,7-18.9,7h-0.1  c0,0-0.2-11.8,7-18.9C41.6,7.6,52.6,7.4,53.6,7.4z M7.4,7.4h24.1c-0.7,0.5-1.3,1.1-1.9,1.7c-9.1,9.1-9.2,22.8-9.1,24.3l0.1,7.2  l7.2,0.1h0.2c2.5,0,15.4-0.4,24.1-9.1c2.2-2.3,4.1-4.9,5.4-7.8c1.4,2.9,3.2,5.5,5.4,7.8c8.7,8.7,21.6,9.1,24.1,9.1h0.2l7.2-0.1  l0.1-7.2c0-1.5,0-15.2-9.1-24.3C84.7,8.5,84,8,83.4,7.4h109.2v18.5c-0.5-0.7-1.1-1.3-1.7-1.9c-8.7-8.7-21.6-9.1-24.1-9.1h-0.2  l-7.2,0.1l-0.1,7.2c0,1.5,0,15.2,9.1,24.3c2.3,2.2,4.9,4.1,7.8,5.4c-2.9,1.4-5.5,3.2-7.8,5.4c-9.1,9.1-9.2,22.8-9.1,24.3l0.1,7.2  l7.2,0.1h0.2c2.5,0,15.4-0.4,24.1-9.1c0.6-0.6,1.2-1.3,1.7-1.9v114.8h-18.5c0.7-0.5,1.3-1.1,1.9-1.7c9.1-9.1,9.2-22.8,9.1-24.3  l-0.1-7.2l-7.2-0.1h-0.2c-3.3,0-6.5,0.5-9.7,1.3c-5.4,1.3-10.4,4-14.4,7.8c-2.2,2.3-4.1,4.9-5.4,7.8c-1.4-2.9-3.2-5.5-5.4-7.8  c-8.7-8.7-21.6-9.1-24.1-9.1h-0.2l-7.2,0.1l-0.1,7.2c0,1.5,0,15.2,9.1,24.3c0.6,0.6,1.3,1.2,1.9,1.7H7.4v-18.5  c0.5,0.7,1.1,1.3,1.7,1.9c8.7,8.7,21.6,9.1,24.1,9.1h0.2l7.2-0.1l0.1-7.2c0-1.5,0-15.2-9.1-24.3c-2.3-2.2-4.9-4.1-7.8-5.4  c2.9-1.4,5.5-3.2,7.8-5.4c9.1-9.1,9.2-22.8,9.1-24.3l-0.1-7.2l-7.2-0.1h-0.2c-2.5,0-15.4,0.4-24.1,9.1c-0.6,0.6-1.2,1.3-1.7,1.9V7.4  z M14.4,125.5c6.8-6.8,17.8-7,18.9-7h0.1c0,0,0.2,11.8-7,18.9c-6.8,6.8-17.8,7-18.9,7H7.4C7.4,144.4,7.2,132.7,14.4,125.5z   M7.4,151.9L7.4,151.9c1.1,0,12.1,0.2,18.9,7c7.2,7.2,7,18.9,7,18.9h-0.1c-1,0-12.1-0.2-18.9-7C7.2,163.6,7.4,151.9,7.4,151.9z"/>
<g transform="translate(30 30) scale(0.7)"><path d="m143.24 40c-0.56687 0.01534-1.2482 0.69666-2.0449 2.0449-3.9222 6.4553-7.3946 12.258-10.418 17.406-3.0234 5.1479-6.0056 10.173-8.9473 15.076-2.86 4.8211-5.9248 9.7639-9.1934 14.83-3.1868 4.9845-6.9446 10.622-11.275 16.914-0.81713 0.572-2.0435 1.0621-3.6777 1.4707-1.5525 0.32685-3.147 0.69494-4.7812 1.1035-1.6343 0.32686-3.1047 0.73628-4.4121 1.2266-1.3074 0.40857-2.083 1.0208-2.3281 1.8379 0.16344 0.24514 0.61224 0.61322 1.3477 1.1035 0.73542 0.49028 1.5129 1.0218 2.3301 1.5938 0.89884 0.572 1.6744 1.1429 2.3281 1.7148 0.6537 0.49027 0.98047 0.85838 0.98047 1.1035 0 0.89885-0.9803 2.6961-2.9414 5.3926-1.8794 2.6965-4.3321 5.7201-7.3555 9.0703-2.9417 3.3502-6.29 6.7006-10.049 10.051-3.6771 3.4319-7.3148 6.2508-10.91 8.457-3.5954 2.288-6.9457 3.719-10.051 4.291-3.1051 0.57199-5.5145-0.32757-7.2305-2.6973-0.89885 0-1.3496 0.24604-1.3496 0.73632-0.08167 0.49028 0.04227 1.0612 0.36914 1.7148 0.32685 0.65371 0.77567 1.2679 1.3476 1.8398 0.49029 0.65369 0.85838 1.0612 1.1035 1.2246 2.7782 1.8794 5.6384 2.6963 8.5801 2.4512 2.86-0.16343 5.7201-1.1024 8.5801-2.8184 2.8599-1.716 5.7182-3.9639 8.5781-6.7422 2.86-2.7782 5.6807-5.8018 8.459-9.0703 2.7782-3.2685 5.4731-6.6188 8.0879-10.051 2.6965-3.432 5.2713-6.5776 7.7227-9.4375 2.5331-2.9417 4.9031-5.4337 7.1094-7.4766 2.288-2.0428 4.4533-3.3499 6.4961-3.9219 0.98057-0.24513 2.5337-0.65456 4.6582-1.2266 2.2062-0.572 4.4936-1.1428 6.8633-1.7148 2.3697-0.57199 4.535-1.1035 6.4961-1.5937 2.0428-0.49028 3.4325-0.81706 4.168-0.98047h0.85742c0.40858-0.0817 0.81801-0.12306 1.2266-0.12306 0.49028 0 0.89777 0.0413 1.2246 0.12306h0.73633c1.3074 0.57199 2.329 1.8377 3.0644 3.7988 0.81714 1.8794 1.51 4.1274 2.082 6.7422 0.65369 2.5331 1.3072 5.1886 1.9609 7.9668 0.73543 2.6965 1.635 5.1079 2.6973 7.2324 1.144 2.0428 2.575 3.5546 4.291 4.5352 1.7977 1.0623 4.0437 1.143 6.7402 0.24415-3.2685-2.86-5.7193-5.4741-7.3535-7.8438-1.5525-2.4514-2.6568-4.9435-3.3105-7.4766-0.65372-2.6148-1.0612-5.4337-1.2246-8.457-0.0817-3.1051-0.28643-6.7428-0.61328-10.91-0.0817-0.73542-0.0817-2.3279 0-4.7793 0.16341-2.5331 0.3268-5.5153 0.49024-8.9473 0.24513-3.4319 0.44985-7.1917 0.61327-11.277 0.24515-4.0857 0.40854-8.0895 0.49024-12.012 0.0817-3.9222 0.0817-7.558 0-10.908-0.0817-3.4319-0.28642-6.2508-0.61329-8.457-0.32685-2.2062-0.81699-3.596-1.4707-4.168-0.16342-0.143-0.34032-0.21214-0.5293-0.20703zm-1.6602 15.566c0.12129 0.0052 0.2392 0.03295 0.35156 0.08402-0.0817 1.4708-0.24509 3.5554-0.49023 6.252-0.16342 2.6148-0.40947 5.475-0.73633 8.5801-0.32685 3.1051-0.69493 6.292-1.1035 9.5605-0.32685 3.1868-0.65361 6.1277-0.98047 8.8242-0.32685 2.6148-0.61228 4.7801-0.85742 6.4961l-0.36719 2.5742c-0.73541 0.73542-2.0425 1.4303-3.9219 2.084-1.8794 0.572-3.9226 1.1035-6.1289 1.5938-2.2062 0.40859-4.4129 0.77471-6.6191 1.1016-2.2062 0.32686-4.0448 0.61423-5.5156 0.85937-0.24514 0.0817-0.73529 0.1211-1.4707 0.1211-0.65369 0-1.0631-0.0394-1.2266-0.1211v-1.4707c4.4942-6.2102 8.376-12.177 11.645-17.896 3.3502-5.8016 6.1691-10.866 8.457-15.197 2.3697-4.3308 4.2909-7.7224 5.7617-10.174 1.287-2.2165 2.3541-3.3072 3.2031-3.2715z" fill="#3c1740"/></g></svg>
