<?xml version="1.0" encoding="utf-8"?>
<!-- Generator: Adobe Illustrator 21.1.0, SVG Export Plug-In . SVG Version: 6.00 Build 0)  -->
<svg xmlns="http://www.w3.org/2000/svg" xmlns:xlink="http://www.w3.org/1999/xlink" version="1.1" id="Layer_1" x="0px" y="0px" viewBox="0 0 200 200" enable-background="new 0 0 200 200" xml:space="preserve">
<rect width="200" height="200" fill="#f9a01e"/><path fill="#3c1740" d="M197.8,108.6l-0.1-0.1c-3.3-3.9-8-6.1-13.1-6.1c-1.3,0-2.6,0.2-3.9,0.5c1-2,2-4,2.8-6.2  c3.2-2.9,5.2-6.9,5.5-11.3c0.3-4.5-1.1-8.9-4.1-12.4l-0.1-0.1c-0.9-1-2.4-1.1-3.4-0.2l-0.1,0.1c-6.8,5.8-7.8,15.9-2.6,23  c-3.5,8.4-8.5,15.6-14.5,21.3V94.1c0.6-0.2,1-0.6,1.3-1.2c4.3-8.4,5.7-17.7,4.7-26.8c3.8-0.6,7.2-2.5,9.8-5.4  c3.1-3.4,4.6-7.7,4.4-12.3v-0.1c-0.1-1.3-1.2-2.3-2.5-2.3h-0.2c-4.5,0.2-8.7,2.2-11.8,5.5c-0.9,1-1.7,2.1-2.3,3.3  c-0.9-2.7-2.1-5.4-3.5-8v-2c2.9-1.3,5.4-3.3,7.3-6c2.6-3.8,3.5-8.3,2.7-12.8l0-0.1c-0.2-1.3-1.5-2.2-2.8-1.9l-0.1,0  c-4.5,0.8-8.3,3.4-10.9,7.1c-1.2,1.8-2.1,3.7-2.5,5.8c-2.2-2.8-4.7-5.4-7.4-7.8c2.6-2.5,4.4-5.7,5.1-9.3c0.8-4.5-0.1-9-2.7-12.7  L152.7,7c-0.3-0.5-0.9-0.9-1.5-1c-0.6-0.1-1.3,0-1.8,0.4l-0.1,0.1c-3.7,2.6-6.3,6.5-7.1,10.9c-0.3,1.8-0.4,3.6-0.1,5.4  c-1.9-1.2-3.8-2.3-5.9-3.4c-3.2-4.3-8.3-6.8-13.6-6.8c-3.5,0-6.9,1.1-9.8,3.1l-0.1,0.1c-0.5,0.4-0.9,0.9-1,1.6  c-0.1,0.6,0,1.3,0.4,1.8l0.1,0.1c3.2,4.5,8.4,7.2,13.9,7.2c3.1,0,6.1-0.8,8.7-2.4c2.6,1.3,5,2.9,7.2,4.5c-5.5,1.2-10,5.1-12.1,10.3  H70.1C68,33.6,63.5,29.7,58,28.5c2.3-1.6,4.7-3.1,7.2-4.5c2.6,1.6,5.6,2.4,8.7,2.4l0,0c5.5,0,10.7-2.7,13.9-7.2l0.1-0.1  c0.8-1.1,0.5-2.6-0.6-3.3l-0.1-0.1c-2.9-2-6.3-3.1-9.8-3.1c-5.4,0-10.4,2.5-13.6,6.8c-2,1-4,2.2-5.9,3.4c0.2-1.8,0.2-3.6-0.1-5.4  c-0.8-4.5-3.3-8.4-7.1-11l-0.1-0.1c-0.5-0.3-1.2-0.5-1.8-0.4c-0.6,0.1-1.2,0.5-1.5,1L47.2,7c-4.8,7-3.7,16.4,2.4,22.1  c-2.7,2.4-5.2,5.1-7.4,7.8c-1.5-6.4-6.6-11.6-13.5-12.9l-0.1,0c-1.3-0.2-2.6,0.6-2.8,1.9l0,0.1c-1.5,7.9,2.8,15.7,10,18.8v2  c-1.4,2.6-2.5,5.3-3.5,8c-0.6-1.2-1.4-2.3-2.3-3.3c-3.1-3.4-7.2-5.3-11.8-5.5H18c-1.3-0.1-2.4,1-2.5,2.3v0.1  c-0.2,4.5,1.3,8.9,4.4,12.3c2.6,2.9,6.1,4.7,9.8,5.4c-1,9.1,0.4,18.3,4.7,26.8c0.3,0.6,0.8,1,1.3,1.2v23  c-6.1-5.8-11.1-13.1-14.5-21.3c2.4-3.3,3.6-7.2,3.3-11.3c-0.3-4.5-2.4-8.7-5.9-11.6l-0.1-0.1c-1-0.9-2.5-0.8-3.4,0.2L15.1,73  c-3,3.4-4.4,7.9-4.1,12.4c0.3,4.4,2.3,8.4,5.5,11.3c0.8,2.1,1.8,4.2,2.8,6.2c-1.3-0.3-2.6-0.5-3.9-0.5c-5.1,0-9.8,2.2-13.1,6.1  l-0.1,0.1c-0.4,0.5-0.6,1.1-0.5,1.7c0.1,0.6,0.3,1.2,0.9,1.6l0.1,0.1c3.1,2.6,6.9,4,10.9,4l0,0c4.2,0,8.2-1.5,11.2-4.2  c3.2,4.4,6.9,8.2,11,11.6v17.9l-0.1,0.1c-6.5,2.7-10.5,9-10.5,15.6c-2.1-1.9-4.1-3.9-5.9-6.1c1.3-3.8,1.2-8-0.4-11.8  c-1.7-4.2-5-7.5-9.1-9.3l-0.1-0.1c-0.6-0.2-1.2-0.2-1.8,0c-0.6,0.2-1,0.7-1.3,1.3l-0.1,0.1c-1.8,4.2-1.8,8.8-0.1,13  c1.7,4.1,4.7,7.3,8.7,9.1c1.5,1.7,3,3.4,4.6,5c-6.4,0.5-12,4.5-14.4,10.6l-0.1,0.1c-0.2,0.6-0.2,1.2,0,1.8s0.7,1,1.3,1.3l0.1,0.1  c2,0.8,4.2,1.3,6.4,1.3l0,0c6.1,0,11.6-3.2,14.6-8.3c2.9,2.1,6,4,9.2,5.5c-1.9,0.9-3.6,2.2-5,3.7c-3.1,3.3-4.7,7.6-4.6,12.2v0.1  c0,0.6,0.3,1.2,0.8,1.7c0.5,0.4,1,0.6,1.6,0.6c0,0,0.1,0,0.1,0h0.1c8.4-0.3,15.2-6.6,16.3-14.7c2.3,0.7,4.7,1.3,7.1,1.7  c1.1,0.2,2.2,0.3,3.3,0.5c-4.3,3.8-6.6,9.6-5.5,15.7l0,0.1c0.2,1.2,1.2,2,2.3,2c0.1,0,0.3,0,0.4,0l0.1,0c8.6-1.5,14.6-9.2,14.1-17.7  c8.7-0.9,16.8-4,23.7-9.2h5l-2.3,3.2c-4.4,6.2-4.4,16.1,0,22.3c0.8,1.1,2.3,1.3,3.3,0.6c1.1-0.8,1.3-2.3,0.6-3.3  c-3.2-4.5-3.2-12.2,0-16.8l1.6-2.2l1.6,2.2c3.2,4.5,3.2,12.2,0,16.8c-0.8,1.1-0.5,2.6,0.6,3.3c0.4,0.3,0.9,0.4,1.4,0.4  c0.8,0,1.5-0.3,2-1c4.4-6.2,4.4-16.1,0-22.3l-2.3-3.2h5.3c6.9,5.2,15,8.3,23.7,9.2c-0.4,8.5,5.5,16.2,14.1,17.7l0.1,0  c0.1,0,0.3,0,0.4,0c1.1,0,2.2-0.8,2.3-2l0-0.1c1-6-1.3-11.9-5.5-15.7c1.1-0.1,2.2-0.3,3.3-0.5c2.4-0.4,4.8-1,7.1-1.7  c0.5,3.5,2,6.7,4.4,9.3c3.1,3.3,7.3,5.2,11.9,5.4h0.1c0,0,0.1,0,0.1,0c0.6,0,1.2-0.2,1.6-0.6c0.5-0.4,0.7-1,0.8-1.7v-0.1  c0.2-6.9-3.8-13.1-9.7-15.9c3.2-1.6,6.3-3.4,9.2-5.5c3,5.1,8.5,8.3,14.6,8.3c2.2,0,4.4-0.4,6.4-1.3l0.1-0.1c0.6-0.2,1-0.7,1.3-1.3  c0.2-0.6,0.2-1.2,0-1.8l-0.1-0.1c-2.4-6-8-10.1-14.4-10.6c1.6-1.6,3.1-3.2,4.6-5c4-1.8,7.1-5,8.7-9.1c1.7-4.2,1.7-8.9-0.1-13  l-0.1-0.1c-0.2-0.6-0.7-1-1.3-1.3c-0.6-0.2-1.2-0.2-1.8,0l-0.1,0.1c-4.2,1.8-7.5,5.1-9.2,9.3c-1.6,3.8-1.7,7.9-0.4,11.8  c-1.9,2.2-3.8,4.2-5.9,6.1c0-2.2-0.5-4.4-1.3-6.5c-1.7-4.2-5-7.5-9.2-9.2l-0.1-0.1v-17.9c4-3.3,7.7-7.2,11-11.5  c3.1,2.7,7.1,4.3,11.2,4.3c4,0,7.9-1.4,10.9-4l0.1-0.1c0.5-0.4,0.8-1,0.9-1.6C198.4,109.7,198.2,109.1,197.8,108.6z M173.6,54.9  c1.6-1.8,3.7-3,6-3.6c-0.4,2.3-1.4,4.5-3,6.3c-1.6,1.8-3.7,3-6,3.6C170.9,58.8,171.9,56.6,173.6,54.9z M126,21.6  c-3.1,0-6.1-1.2-8.4-3.3c1.5-0.7,3.2-1,4.9-1c3.1,0,6.1,1.2,8.4,3.3C129.4,21.2,127.7,21.6,126,21.6z M77.5,17.3  c1.7,0,3.3,0.3,4.9,1c-2.3,2.1-5.2,3.3-8.4,3.3c-1.7,0-3.3-0.3-4.9-1C71.4,18.5,74.4,17.3,77.5,17.3z M23.5,57.5  c-1.6-1.8-2.7-4-3-6.3c2.3,0.6,4.4,1.8,6,3.6c1.6,1.8,2.7,4,3,6.3C27.2,60.6,25.1,59.3,23.5,57.5z M18.2,91.6  c-1.5-1.9-2.3-4.1-2.5-6.5c-0.2-2.4,0.3-4.8,1.5-6.9c1.5,1.9,2.3,4.1,2.5,6.5C19.9,87.1,19.4,89.5,18.2,91.6z M13.6,111.2  c-2,0-4-0.5-5.8-1.5c2.2-1.7,4.8-2.6,7.6-2.6c2,0,4,0.5,5.8,1.5C19,110.3,16.3,111.2,13.6,111.2z M15,147.8c-2-1.3-3.5-3.2-4.4-5.5  c-0.9-2.2-1.1-4.7-0.7-7C14,138.1,15.9,143,15,147.8z M12.9,168.5c-0.8,0-1.5-0.1-2.2-0.2c2.2-3.4,6-5.4,10.2-5.4  c0.7,0,1.5,0.1,2.2,0.2C20.8,166.5,17,168.5,12.9,168.5z M185.7,140.8c0.9-2.2,2.4-4.1,4.4-5.5c0.5,2.3,0.2,4.7-0.7,7  c-0.9,2.2-2.4,4.1-4.4,5.5C184.5,145.5,184.7,143.1,185.7,140.8z M179.2,162.9c4.2,0,7.9,2.1,10.2,5.4c-0.7,0.1-1.5,0.2-2.2,0.2  c-4.2,0-7.9-2.1-10.2-5.4C177.7,163,178.4,162.9,179.2,162.9z M40.5,162.5V43.5h118.9v118.9H40.5z M165.7,68.4  c0.3,4.9-0.1,9.9-1.4,14.6V69.4C164.7,69.1,165.2,68.8,165.7,68.4z M164.3,33.8c1.4-2,3.3-3.5,5.4-4.4c-0.1,2.4-0.8,4.7-2.2,6.7  c-1,1.5-2.3,2.7-3.8,3.6c-0.3-0.5-0.9-0.8-1.5-0.9C162.5,37,163.2,35.3,164.3,33.8z M153.1,38.8h-5.8c0.9-1.2,1.7-2.4,2.3-3.8  C150.9,36.2,152,37.4,153.1,38.8z M146.8,18.2c0.4-2.4,1.6-4.5,3.2-6.2c0.9,2.2,1.2,4.6,0.8,7c-0.4,2.4-1.6,4.5-3.2,6.2  C146.7,22.9,146.4,20.5,146.8,18.2z M145.4,32.8c-1,2.5-2.8,4.6-5,6h-5.1C137.3,35.2,141.1,32.9,145.4,32.8z M64.8,38.8h-5.1  c-2.3-1.4-4-3.4-5-6C58.9,32.9,62.7,35.2,64.8,38.8z M50,11.9c1.6,1.7,2.7,3.8,3.2,6.2c0.4,2.4,0.2,4.8-0.8,7  C49.1,21.6,48.1,16.4,50,11.9z M50.4,34.9c0.6,1.4,1.3,2.7,2.3,3.8h-5.8C48,37.4,49.2,36.2,50.4,34.9z M30.3,29.4  c4,1.6,6.8,5.2,7.4,9.4c-0.6,0.1-1.1,0.4-1.5,0.9C32.7,37.6,30.4,33.7,30.3,29.4z M34.4,68.4c0.5,0.3,0.9,0.7,1.4,1v13.6  C34.4,78.3,34,73.4,34.4,68.4z M30.1,159.3c-0.9-4.8,1.2-9.7,5.2-12.4C36.2,151.7,34.1,156.6,30.1,159.3z M35.8,160.6v4  c-0.9-0.5-1.8-1-2.7-1.6C34.1,162.3,35,161.5,35.8,160.6z M32,183.8c0.4-2.3,1.5-4.5,3.1-6.3c1.7-1.8,3.7-3,6.1-3.5  C40.4,178.8,36.7,182.7,32,183.8z M53.9,171.2c-4.5-0.8-8.9-2.1-13.1-4h17c0.4,1.6,1,3.2,1.8,4.7C57.8,171.8,55.9,171.6,53.9,171.2z   M55.4,188.8c0.2-4.8,3.2-9.2,7.7-11C63,182.6,59.9,187,55.4,188.8z M62.9,167.3h2.9c-0.3,1.1-0.7,2.1-1.3,3.1  C63.7,169.4,63.2,168.3,62.9,167.3z M69.2,171.5c0.7-1.3,1.1-2.8,1.4-4.3h12C78.5,169.4,74,170.8,69.2,171.5z M117.4,167.3h12  c0.3,1.5,0.8,2.9,1.4,4.3C126,170.8,121.5,169.4,117.4,167.3z M134.2,167.3h2.9c-0.4,1.1-0.9,2.2-1.6,3.1  C135,169.4,134.6,168.3,134.2,167.3z M144.6,188.8c-4.5-1.8-7.6-6.1-7.7-11C141.3,179.6,144.4,183.9,144.6,188.8z M146.1,171.2  c-1.9,0.3-3.9,0.5-5.8,0.6c0.8-1.5,1.5-3,1.9-4.7h17C155,169.1,150.6,170.5,146.1,171.2z M168,183.8c-2.3-0.5-4.4-1.7-6.1-3.5  c-1.7-1.8-2.7-3.9-3.1-6.3C163.5,175.2,167.2,179,168,183.8z M164.8,146.9c2,1.3,3.5,3.2,4.4,5.4s1.2,4.6,0.8,7  C165.9,156.6,163.9,151.7,164.8,146.9z M167,163c-0.9,0.6-1.8,1.1-2.7,1.6v-4C165.1,161.5,166,162.3,167,163z M182.8,78.2  c1.2,2.1,1.7,4.4,1.5,6.8c-0.2,2.4-1,4.7-2.5,6.5C179.4,87.3,179.9,82,182.8,78.2z M186.4,111.2c-2.8,0-5.4-0.9-7.6-2.6  c1.8-0.9,3.8-1.5,5.8-1.5c2.8,0,5.4,0.9,7.6,2.6C190.5,110.7,188.5,111.2,186.4,111.2z"/>
<g transform="translate(30 30) scale(0.7)"><path d="m143.24 40c-0.56687 0.01534-1.2482 0.69666-2.0449 2.0449-3.9222 6.4553-7.3946 12.258-10.418 17.406-3.0234 5.1479-6.0056 10.173-8.9473 15.076-2.86 4.8211-5.9248 9.7639-9.1934 14.83-3.1868 4.9845-6.9446 10.622-11.275 16.914-0.81713 0.572-2.0435 1.0621-3.6777 1.4707-1.5525 0.32685-3.147 0.69494-4.7812 1.1035-1.6343 0.32686-3.1047 0.73628-4.4121 1.2266-1.3074 0.40857-2.083 1.0208-2.3281 1.8379 0.16344 0.24514 0.61224 0.61322 1.3477 1.1035 0.73542 0.49028 1.5129 1.0218 2.3301 1.5938 0.89884 0.572 1.6744 1.1429 2.3281 1.7148 0.6537 0.49027 0.98047 0.85838 0.98047 1.1035 0 0.89885-0.9803 2.6961-2.9414 5.3926-1.8794 2.6965-4.3321 5.7201-7.3555 9.0703-2.9417 3.3502-6.29 6.7006-10.049 10.051-3.6771 3.4319-7.3148 6.2508-10.91 8.457-3.5954 2.288-6.9457 3.719-10.051 4.291-3.1051 0.57199-5.5145-0.32757-7.2305-2.6973-0.89885 0-1.3496 0.24604-1.3496 0.73632-0.08167 0.49028 0.04227 1.0612 0.36914 1.7148 0.32685 0.65371 0.77567 1.2679 1.3476 1.8398 0.49029 0.65369 0.85838 1.0612 1.1035 1.2246 2.7782 1.8794 5.6384 2.6963 8.5801 2.4512 2.86-0.16343 5.7201-1.1024 8.5801-2.8184 2.8599-1.716 5.7182-3.9639 8.5781-6.7422 2.86-2.7782 5.6807-5.8018 8.459-9.0703 2.7782-3.2685 5.4731-6.6188 8.0879-10.051 2.6965-3.432 5.2713-6.5776 7.7227-9.4375 2.5331-2.9417 4.9031-5.4337 7.1094-7.4766 2.288-2.0428 4.4533-3.3499 6.4961-3.9219 0.98057-0.24513 2.5337-0.65456 4.6582-1.2266 2.2062-0.572 4.4936-1.1428 6.8633-1.7148 2.3697-0.57199 4.535-1.1035 6.4961-1.5937 2.0428-0.49028 3.4325-0.81706 4.168-0.98047h0.85742c0.40858-0.0817 0.81801-0.12306 1.2266-0.12306 0.49028 0 0.89777 0.0413 1.2246 0.12306h0.73633c1.3074 0.57199 2.329 1.8377 3.0644 3.7988 0.81714 1.8794 1.51 4.1274 2.082 6.7422 0.65369 2.5331 1.3072 5.1886 1.9609 7.9668 0.73543 2.6965 1.635 5.1079 2.6973 7.2324 1.144 2.0428 2.575 3.5546 4.291 4.5352 1.7977 1.0623 4.0437 1.143 6.7402 0.24415-3.2685-2.86-5.7193-5.4741-7.3535-7.8438-1.5525-2.4514-2.6568-4.9435-3.3105-7.4766-0.65372-2.6148-1.0612-5.4337-1.2246-8.457-0.0817-3.1051-0.28643-6.7428-0.61328-10.91-0.0817-0.73542-0.0817-2.3279 0-4.7793 0.16341-2.5331 0.3268-5.5153 0.49024-8.9473 0.24513-3.4319 0.44985-7.1917 0.61327-11.277 0.24515-4.0857 0.40854-8.0895 0.49024-12.012 0.0817-3.9222 0.0817-7.558 0-10.908-0.0817-3.4319-0.28642-6.2508-0.61329-8.457-0.32685-2.2062-0.81699-3.596-1.4707-4.168-0.16342-0.143-0.34032-0.21214-0.5293-0.20703zm-1.6602 15.566c0.12129 0.0052 0.2392 0.03295 0.35156 0.08402-0.0817 1.4708-0.24509 3.5554-0.49023 6.252-0.16342 2.6148-0.40947 5.475-0.73633 8.5801-0.32685 3.1051-0.69493 6.292-1.1035 9.5605-0.32685 3.1868-0.65361 6.1277-0.98047 8.8242-0.32685 2.6148-0.61228 4.7801-0.85742 6.4961l-0.36719 2.5742c-0.73541 0.73542-2.0425 1.4303-3.9219 2.084-1.8794 0.572-3.9226 1.1035-6.1289 1.5938-2.2062 0.40859-4.4129 0.77471-6.6191 1.1016-2.2062 0.32686-4.0448 0.61423-5.5156 0.85937-0.24514 0.0817-0.73529 0.1211-1.4707 0.1211-0.65369 0-1.0631-0.0394-1.2266-0.1211v-1.4707c4.4942-6.2102 8.376-12.177 11.645-17.896 3.3502-5.8016 6.1691-10.866 8.457-15.197 2.3697-4.3308 4.2909-7.7224 5.7617-10.174 1.287-2.2165 2.3541-3.3072 3.2031-3.2715z" fill="#3c1740"/></g></svg>
