<?xml version="1.0" encoding="utf-8"?>
<!-- Generator: Adobe Illustrator 21.1.0, SVG Export Plug-In . SVG Version: 6.00 Build 0)  -->
<svg xmlns="http://www.w3.org/2000/svg" xmlns:xlink="http://www.w3.org/1999/xlink" version="1.1" id="Layer_1" x="0px" y="0px" viewBox="0 0 200 200" enable-background="new 0 0 200 200" xml:space="preserve">
<rect width="200" height="200" fill="#f9a01e"/><path d="M100-51.3C16.4-51.3-51.3,16.4-51.3,100S16.4,251.3,100,251.3S251.3,183.6,251.3,100S183.6-51.3,100-51.3z M238.6,119.5  l-79.5-9.1l77.9,18.7l-78.7-14.6l76.4,24.1l-77.5-20l74.5,29.3l-75.9-25.4l72.3,34.5l-74-30.6l69.7,39.4L152,130l66.8,44.2l-69-40.6  l63.5,48.7l-66-45.4l60,53.1l-62.7-49.8l56.1,57.1l-59-54.1l52,60.9L138.6,146l47.6,64.4l-50.9-61.8l43,67.5l-46.5-65.2l38.2,70.4  L128.2,153l33.2,72.9l-37-71l28,75l-31.9-73.4l22.7,76.8l-26.7-75.5l17.3,78.2l-21.4-77.2l11.8,79.2l-16-78.5l6.3,79.8l-10.4-79.4  l0.7,80.1L100,160l-4.9,79.9l0.7-80.1l-10.4,79.4l6.3-79.8l-16,78.5l11.8-79.2l-21.4,77.2l17.3-78.2l-26.7,75.5l22.7-76.8  l-31.9,73.4l28-75l-37,71L71.8,153L30,221.2l38.2-70.4l-46.5,65.2l43-67.5l-50.9,61.8L61.4,146L6.3,204l52-60.9l-59,54.1l56.1-57.1  L-7.2,190l60-53.1l-66,45.4l63.5-48.7l-69,40.6L48,130l-71.7,35.7l69.7-39.4l-74,30.6l72.3-34.5l-75.9,25.4l74.5-29.3l-77.5,20  l76.4-24.1l-78.7,14.6l77.9-18.7l-79.5,9.1l79-13.2l-80,3.5l79.7-7.7l-80-2.1l80-2.1l-79.7-7.7l80,3.5l-79-13.2l79.5,9.1l-77.9-18.7  l78.7,14.6l-76.4-24.1l77.5,20l-74.5-29.3l75.9,25.4l-72.3-34.5l74,30.6l-69.7-39.4L48,70l-66.8-44.2l69,40.6l-63.5-48.7l66,45.4  L-7.2,10l62.7,49.8L-0.7,2.7l59,54.1L6.3-4L61.4,54L13.8-10.3l50.9,61.8l-43-67.5l46.5,65.2L30-21.2L71.8,47L38.6-25.8l37,71l-28-75  l31.9,73.4L56.7-33.1l26.7,75.5L66.1-35.8l21.4,77.2L75.7-37.9l16,78.5l-6.3-79.8l10.4,79.4l-0.7-80.1L100,40l4.9-79.9l-0.7,80.1  l10.4-79.4l-6.3,79.8l16-78.5l-11.8,79.2l21.4-77.2l-17.3,78.2l26.7-75.5l-22.7,76.8l31.9-73.4l-28,75l37-71L128.2,47L170-21.2  l-38.2,70.4l46.5-65.2l-43,67.5l50.9-61.8L138.6,54L193.7-4l-52,60.9l59-54.1l-56.1,57.1L207.2,10l-60,53.1l66-45.4l-63.5,48.7  l69-40.6L152,70l71.7-35.7l-69.7,39.4l74-30.6l-72.3,34.5l75.9-25.4l-74.5,29.3l77.5-20l-76.4,24.1l78.7-14.6l-77.9,18.7l79.5-9.1  l-79,13.2l80-3.5L160,97.9l80,2.1l-80,2.1l79.7,7.7l-80-3.5L238.6,119.5z" fill="#3c1740"/>
<g transform="translate(30 30) scale(0.7)"><path d="m143.24 40c-0.56687 0.01534-1.2482 0.69666-2.0449 2.0449-3.9222 6.4553-7.3946 12.258-10.418 17.406-3.0234 5.1479-6.0056 10.173-8.9473 15.076-2.86 4.8211-5.9248 9.7639-9.1934 14.83-3.1868 4.9845-6.9446 10.622-11.275 16.914-0.81713 0.572-2.0435 1.0621-3.6777 1.4707-1.5525 0.32685-3.147 0.69494-4.7812 1.1035-1.6343 0.32686-3.1047 0.73628-4.4121 1.2266-1.3074 0.40857-2.083 1.0208-2.3281 1.8379 0.16344 0.24514 0.61224 0.61322 1.3477 1.1035 0.73542 0.49028 1.5129 1.0218 2.3301 1.5938 0.89884 0.572 1.6744 1.1429 2.3281 1.7148 0.6537 0.49027 0.98047 0.85838 0.98047 1.1035 0 0.89885-0.9803 2.6961-2.9414 5.3926-1.8794 2.6965-4.3321 5.7201-7.3555 9.0703-2.9417 3.3502-6.29 6.7006-10.049 10.051-3.6771 3.4319-7.3148 6.2508-10.91 8.457-3.5954 2.288-6.9457 3.719-10.051 4.291-3.1051 0.57199-5.5145-0.32757-7.2305-2.6973-0.89885 0-1.3496 0.24604-1.3496 0.73632-0.08167 0.49028 0.04227 1.0612 0.36914 1.7148 0.32685 0.65371 0.77567 1.2679 1.3476 1.8398 0.49029 0.65369 0.85838 1.0612 1.1035 1.2246 2.7782 1.8794 5.6384 2.6963 8.5801 2.4512 2.86-0.16343 5.7201-1.1024 8.5801-2.8184 2.8599-1.716 5.7182-3.9639 8.5781-6.7422 2.86-2.7782 5.6807-5.8018 8.459-9.0703 2.7782-3.2685 5.4731-6.6188 8.0879-10.051 2.6965-3.432 5.2713-6.5776 7.7227-9.4375 2.5331-2.9417 4.9031-5.4337 7.1094-7.4766 2.288-2.0428 4.4533-3.3499 6.4961-3.9219 0.98057-0.24513 2.5337-0.65456 4.6582-1.2266 2.2062-0.572 4.4936-1.1428 6.8633-1.7148 2.3697-0.57199 4.535-1.1035 6.4961-1.5937 2.0428-0.49028 3.4325-0.81706 4.168-0.98047h0.85742c0.40858-0.0817 0.81801-0.12306 1.2266-0.12306 0.49028 0 0.89777 0.0413 1.2246 0.12306h0.73633c1.3074 0.57199 2.329 1.8377 3.0644 3.7988 0.81714 1.8794 1.51 4.1274 2.082 6.7422 0.65369 2.5331 1.3072 5.1886 1.9609 7.9668 0.73543 2.6965 1.635 5.1079 2.6973 7.2324 1.144 2.0428 2.575 3.5546 4.291 4.5352 1.7977 1.0623 4.0437 1.143 6.7402 0.24415-3.2685-2.86-5.7193-5.4741-7.3535-7.8438-1.5525-2.4514-2.6568-4.9435-3.3105-7.4766-0.65372-2.6148-1.0612-5.4337-1.2246-8.457-0.0817-3.1051-0.28643-6.7428-0.61328-10.91-0.0817-0.73542-0.0817-2.3279 0-4.7793 0.16341-2.5331 0.3268-5.5153 0.49024-8.9473 0.24513-3.4319 0.44985-7.1917 0.61327-11.277 0.24515-4.0857 0.40854-8.0895 0.49024-12.012 0.0817-3.9222 0.0817-7.558 0-10.908-0.0817-3.4319-0.28642-6.2508-0.61329-8.457-0.32685-2.2062-0.81699-3.596-1.4707-4.168-0.16342-0.143-0.34032-0.21214-0.5293-0.20703zm-1.6602 15.566c0.12129 0.0052 0.2392 0.03295 0.35156 0.08402-0.0817 1.4708-0.24509 3.5554-0.49023 6.252-0.16342 2.6148-0.40947 5.475-0.73633 8.5801-0.32685 3.1051-0.69493 6.292-1.1035 9.5605-0.32685 3.1868-0.65361 6.1277-0.98047 8.8242-0.32685 2.6148-0.61228 4.7801-0.85742 6.4961l-0.36719 2.5742c-0.73541 0.73542-2.0425 1.4303-3.9219 2.084-1.8794 0.572-3.9226 1.1035-6.1289 1.5938-2.2062 0.40859-4.4129 0.77471-6.6191 1.1016-2.2062 0.32686-4.0448 0.61423-5.5156 0.85937-0.24514 0.0817-0.73529 0.1211-1.4707 0.1211-0.65369 0-1.0631-0.0394-1.2266-0.1211v-1.4707c4.4942-6.2102 8.376-12.177 11.645-17.896 3.3502-5.8016 6.1691-10.866 8.457-15.197 2.3697-4.3308 4.2909-7.7224 5.7617-10.174 1.287-2.2165 2.3541-3.3072 3.2031-3.2715z" fill="#3c1740"/></g></svg>
