<?xml version="1.0" encoding="utf-8"?>
<!-- Generator: Adobe Illustrator 21.1.0, SVG Export Plug-In . SVG Version: 6.00 Build 0)  -->
<svg xmlns="http://www.w3.org/2000/svg" xmlns:xlink="http://www.w3.org/1999/xlink" version="1.1" id="Layer_1" x="0px" y="0px" viewBox="0 0 200 200" enable-background="new 0 0 200 200" xml:space="preserve">
<rect width="200" height="200" fill="#f9a01e"/><path fill="#3c1740" d="M182.9,98.5l-0.1,1.2C183.6,100.5,183.1,99.4,182.9,98.5z M182.9,98.5l0.1-0.8  C182.8,97.9,182.8,98.2,182.9,98.5z M182.9,90.7c0.8,1.7,0,4,1,5C184.4,93.9,184.1,91,182.9,90.7z M183.1,93.6l-0.9-1.5l0.3,1.3  L183.1,93.6z M182.1,94.6l0.2-0.2l-0.6-2.4L182.1,94.6z M182.4,84.6l0.4,1.8c-0.4,1.8-1.1-0.9-1.4,0.2c0.3,2.2,1.6,0.5,1.8,3.4  c0.6-0.3-0.7-4.5,0.4-4.2C183.5,83.4,183,85.8,182.4,84.6z M105.8,23.9c-0.1-0.1-0.2-0.1-0.2-0.1C105.7,23.9,105.7,24,105.8,23.9z   M77.5,28.5c0.1,0.1,0.3,0.1,0.5,0.1l0.6-0.3C78.2,28.3,77.8,28.4,77.5,28.5z M29.7,138l0.4,0.2l-0.1-0.3h-0.3  C29.7,137.9,29.7,137.9,29.7,138z M53.2,44.9c-0.3,0.3-0.6,0.6-0.8,0.9C52.9,45.3,53.2,45.1,53.2,44.9z M133.2,28.2v-0.1  c-0.1-0.1-0.3-0.1-0.4-0.2C132.9,28,133.1,28.1,133.2,28.2z M87.6,27.3c-0.4,0-0.7,0-1,0.1C86.9,27.5,87.3,27.4,87.6,27.3z   M163.4,44c0-0.1-0.1-0.2-0.1-0.1L163.4,44z M105.9,23.7C106,23.9,106.7,23.8,105.9,23.7L105.9,23.7z M113.8,23.3  c0.3,0.1,0.5,0.2,0.8,0.2C114.3,23.4,114,23.4,113.8,23.3z M144.8,35.6L144.8,35.6C144.6,35.6,144.7,35.7,144.8,35.6z M113,23.2  l0.8,0.1C113.6,23.2,113.3,23.1,113,23.2z M136.6,30l0.1,0.1C136.6,30,136.6,30,136.6,30z M32.9,146.4l-0.1-0.3  c-0.2,0.4-0.5,0.3,0.1,1.4c1.1,0.4,1-1.3,2.6-0.4c-0.3-0.2-0.5-0.6-0.7-1.1C34.7,147,33.8,146.8,32.9,146.4z M34.7,145.7  c-0.1-0.2-0.3-0.4-0.3-0.6c0,0.2,0.1,0.6,0.3,1V145.7z M47.7,33.9c-0.4,0.4-0.5,0.7-0.5,0.9C47.4,34.5,47.6,34.2,47.7,33.9z   M67.5,165.6l1.1-0.1c-0.7-0.6-1.6-0.8-2.2-1.1C65.5,165,66.8,164.6,67.5,165.6z M156.4,167.3L156.4,167.3  C156.4,167.2,156.4,167.3,156.4,167.3z M94.1,173c0.2,0.1,0.3,0.1,0.5,0.2C94.5,173.1,94.3,173,94.1,173z M31.7,140.4  c0,0-0.5-0.9-1.1-1.8c-0.4-0.9-0.9-1.9-0.9-1.9l0.3,1.2C30.7,138.2,30.8,140.2,31.7,140.4z M20.6,81.7  C20.6,81.7,20.6,81.7,20.6,81.7C20.6,81.7,20.6,81.7,20.6,81.7C20.6,81.7,20.6,81.7,20.6,81.7z M119.6,174l-0.8,0.4  c0.2-0.1,0.5-0.2,0.8-0.3C119.6,174.1,119.6,174,119.6,174z M151.2,30.9l-0.7-0.4C150.9,30.8,151.3,31.1,151.2,30.9z M19.7,120  c0.1,0,0.1,0,0.2,0C19.8,120,19.8,120,19.7,120z M150.5,30.5c0,0-0.1-0.1-0.1-0.1c0,0,0,0,0,0L150.5,30.5z M140.4,32.5l-0.5-0.5  C140,32.2,140.2,32.3,140.4,32.5z M107.2,174.4L107.2,174.4C107.3,174.4,107.3,174.3,107.2,174.4L107.2,174.4z M117.9,174.7  c0,0-0.1,0.1-0.1,0.2l1-0.5c-0.5,0.2-1,0.3-1.8,0.4C117.6,174.8,117.8,174.8,117.9,174.7z M144.2,34.5l0.2,0.3c0,0,0.1,0,0.1,0  l-0.1-0.2C144.3,34.5,144.3,34.5,144.2,34.5z M176.7,140.2c0,0.1,0,0.2,0.1,0.3C176.8,140.4,176.8,140.3,176.7,140.2z M184.5,100.8  l-0.5-0.7c-0.5,1.3-1.2,3.7-0.6,5.4c-0.6-1.6-1.6,2.4-2.6,1.5l0.4,0.3c-2.2,3.9-3.1,9-5.2,13.7c0.1,0.9,0,1.6-0.1,2.3  c-0.2,0.7-0.5,1.3-0.8,1.9c-0.6,1.3-1.3,2.5-1.5,4.3c1.1,1,0.1,0.7-1,3.5c0.5-1.5-0.9-0.6-1.5,0.2c0.1,0.7-0.1,1.4-0.3,2  c-0.4,0.1-1.1,1-1.9,1.9c-0.8,0.9-1.5,1.9-1.4,2.7c-1.3,1.3-0.2-0.6-0.2-1.1c-1,0.2-0.3,1.5-1,1.8c0,0-0.1-0.1-0.1-0.3  c-1.3,2.4-2.6,3.4-4.4,5.5c0.9,1-1.2,2.6-1.7,3.8c-0.1-0.6-1.4,0.8-2.2,1.3l-0.3,1.8c-0.4,1.7-1.8,1.2-2.9,2.8l0.5-0.1  c-0.8,1.2-4.1,3.2-5.6,3.5c-4.3,5-8.9,7.5-13.7,9.2c-2.4,0.8-4.9,1.7-7.6,2.3c-1.3,0.4-2.7,0.8-4.1,1.2c-1.5,0.3-3,0.7-4.6,1.2  c-0.8,0.6,0.8,0.5,0.3,1.3c-0.1,0-0.2,0.1-0.3,0.1c0,0.1-0.1,0.1,0.1,0.2c0.6-0.3,1.3-0.7,2.1-0.9c-1.1,0.6-1.2,1.7-2.9,1.7  c0.1-0.2,0.3-0.3,0.7-0.5c-1.3,0.3-1.3,0.8-2.4,0.7c-1.3,0-0.9,0.2-1.2-0.2l-3.9,0.1c-0.9,0.7-1.9,1-2.9,0.9c-0.9-0.1-1.7-0.4-2-0.4  c0.3-0.9,2.5-0.3,3.4-1.4c0,0-1.4-0.4-1.4-0.5v0.7l-2-0.1c-0.2,0.3-0.4,0.5-0.8,0.3c-0.1-0.1-0.3-0.3-0.1-0.3l-1.4,0.5  c0.8-0.8-1.2-0.2-1.1-1c-2.2,0-3.7,0.1-5,0.2c-1.4,0.1-2.7,0.2-4.6-0.5c0.6,0.5-1.4,1.1-2.6,0.8c-0.7-0.3-0.8-0.5-0.3-0.8l-1.7,0.2  c-0.9-0.8-1.8-1-2.9-1.3c-1.1-0.3-2.3-0.5-3.6-1.1l0.2-0.3c-1.1,0.1-2.4,0.3-3.9-0.4l0.5-0.6c-1.7-1.2-1.9,1-3.8-0.2  c-0.3,0.8,0.9,1.6,0.9,2.4c-0.2-1-2.5-1.9-2.1-1.2c-2.2-0.5-1.5-0.6-1.6-0.8h-1.4c-1.4-0.7,0-1.2,0.7-1.4c-1.7,0.2-2.9-1.1-4.3-1.9  h0.8l-1.9-1.1c-1.6,0-3.3-1.1-4.7-2.3l1.6-0.3c-0.8-1.1-0.7,0-1.1,0c-2-0.6-2-1.4-2.5-2.5c-1.6-0.5-2.6-1.8-3.6-3  c-0.8-1.6-1.6-2.9-3.2-3.2l0.2-0.7c-1.8-0.8-3.3-2.1-4.4-3.6c-1.2-1.5-2.4-2.8-4.1-3.3c-1-5-3.4-1.2-4.3-5.7l-0.2,0.3  c-3.6-5.9-6.6-12.4-8.5-19.1c-0.6-1.6-0.8-3.4-1.3-5c-0.4-1.7-0.9-3.3-1.1-5c-0.3-1.7-0.6-3.3-0.9-4.9c-0.2-1.6-0.4-3.3-0.6-4.9h0.4  c0-10.3,1.6-20.4,5.3-29.9c3.6-9.4,9.1-18.2,16.5-25.2c1.1-1.6-0.4-1.5,0.5-3c0.6-0.5,1.8-1.6,2.1-1.2c-0.8,1.2,0.1,1-0.1,1.5  c0.9-0.8,1.8-1.6,2.9-2.3c1.1-0.7,2.1-1.5,2.7-2.4L57,40.7c0.5-0.7,1.6-1.3,2.2-1.7c0,0.5,1.2,0.5,0.8,1c1.2-2.1,2.1-2.2,2.9-2.4  c0.8-0.1,1.6-0.1,3-1.3c-0.2-1.8,3.4-4.8,5.9-7.2l1.7-0.3c-2,0.8,0.4,0.9-2,2c1.1-0.3,2-0.8,3-1.2c1-0.4,1.9-0.9,2.9-1.1  c-0.5-0.2-0.6-0.7,0.2-1.2c1.3-0.2,1.6,0.3,3.1,0.1c0,0-1.3,0.8-1.3,0.9c1.1,0.2,1.7-0.6,2.6-1c0.5,0.5,2.6,0.1,2.4,0.9  c1.7-1.3,2.4-1.1,4.5-1.9c-2.3-0.3,0.4-0.9,0.1-1.4c0,0-2.5,0.6-2.4,0.7c1.8-0.2,1.5,0,0.8,0.2C86.7,26,85.7,26.5,86,27  c-1.7-0.1,1.8-2.3-0.8-1.4c1.6-0.7,2.6-0.9,3.6-1.1s2-0.5,3.7-1.2c-2.1,0.5,0.3-0.7-0.9-0.9c2.7-0.4,0.7,0.3,1.6,0.8  c1.4-0.3,2,0.4,3.3-0.5c2.4,0.2-0.3,0.8,0.9,1.2c-0.4,0.4-2,0.2-3.5,0.3c-1.4,0.2-2.6,0.6-2.1,1.7c-1.2,0.2-2.5,1.3-4.1,1.5  c1.5,0.1,3.7,0.5,5.4-0.3L93,25.8c1.4-0.3,1.6-1.2,2.6-1.1c-0.5,0.4,0.5,0.9,1.6,0.7c-0.3-0.2-0.8-0.1-0.7-0.3  c2.1-0.2,2.3-1.1,4.9-1.5c-2.1-0.2-2.5-0.6-4.6-1.1c0.5-0.9,1.4-0.2,2.6-0.4c-0.2,0.1-0.4,0.2-0.1,0.3l1.2-0.5  c2.7,0.3-0.3,1.3,1.9,1.7c1.5,0.8,2-0.3,3.2,0.2c-0.1-0.1-0.1-0.2-0.2-0.2c0.3,0,0.4,0.1,0.6,0.1c0,0,0,0,0-0.1  c1.4-0.1,2.9,0.1,3.3-0.6c0.1,0.3,1.2,0,1.7-0.1c0.8-0.2,2.8-0.7,3.8,0.6h-0.1c1.7,0.4,3,0.9,2.5,1.2c0-0.1,2.7,0.9,2.7,0.9  l-0.5,0.8c2.5,0.4,2.4-0.2,4.3-0.6c0.4,0.2,0.9,0.4,1.5,0.6c0.5,0.2,1.1,0.4,1.7,0.6c1.1,0.3,2.2,0.5,2.9,0.6c0.2,0.1,0.5,0.2,1,0.3  l-0.9-0.7c1.9,0.7,1.8,0.2,3.1,0.7c-0.2-0.2-0.2-0.3,0.4,0.2c0.2,0.1,0.4,0.2,0.7,0.4c-0.1,0.1-0.4-0.1-0.6-0.3l0.1,0.4  c1.1,1.6,2.5,0.6,3.9,1.6c-0.2,0-0.4-0.1-0.6-0.2c0.8,0.6,1.4,2.4,2.1,1.8c0.2,0.2,0.5,0.2,0.9,0.2c0.5,0,1-0.1,1,0.1l2,1.4  c0.3,0.4,0.9,0.6,1.4,0.8l0.1,0.3c0.6,0.2,0.9,0.2,0.1,0.2l0,0c0.8,0.4,0.7,0.6,0.5,0.6c1.8,2.8,4.3,2.3,6.3,5.2  c0.9-0.1,0-1.2,0.1-1.5c0.8-0.1,2.4,1,3.4,1.3c0.6,1.7,3.4,5.3,2,5.7c1.8,2.1,0-1.2,1.2-0.4l0.2,0.3c-0.5-0.8-0.7-1.7-0.8-2.4  c0.4-0.7,2.2,1,2.6,1.7l-1.1,0.3c2,1.7,2.7,0.3,4.5,0.9c1.1,1.8-0.3,1.5-0.7,2.3l1.5,1.6l-0.6,0.4c1,1,1.7,0.9,2.7,2.6  c-1.4-0.7,1.2,2.7-0.7,1.7c0.4,1,1.8,0.5,1.3,1.5c1,0.2-0.2-1-0.3-1.6c0.3-0.5,0.8-0.1,1.3,0.6c0.4,0.7,0.9,1.6,1.4,2.1  c-0.4,0.4-1-0.4-0.5,1.1c0.5,0,1.3,0.7,1.3,1.7c0.6-0.3,1.1,1.4,1.4,2.2c-0.3-1-0.6-2.4,0.3-2.1c0.7,0.5,1.1,1,1.8,2.7l-0.2-1.3  c1.6,0.9,0.4,2.6,1.6,4.4c-0.8-0.6-1-1.1-1.8-1.6c0.7,0.7,2,2.2,3,3.5l-0.4,2c0.6,0,0.6,1.9,1.3,1.6c0.3,2.2-1.4-1.4-2-1.4  c0.5,2.7,1.9,1.6,1.7,4.4l-0.9-0.6c0.3,0.8,1.2,2.3,0.9,2.5c0.2-0.1,0.1-0.5-0.1-1c1.5,0.1,2,3.6,3.3,2.9l-0.2-1.2  c0.7,1.7,2.1,2.8,1.9,4.4c-0.2,1.2-1.2-0.5-1.7-1.1c0.3,1.7,2,1,2.2,3.2c0.1-1.2,0.6-1.1,1.1-0.4c0-1.3-0.5-3.9-1-3.3v0.5  c-0.4,0-0.7-0.6-1-0.9c-0.4-1.6,0.4-0.9,0.6-1.3c-0.5-2.8-1.5,0.2-2.1-2.3l0.2-0.4c-0.7-1.1-1.5-2.8-2.4-2.8  c0.5-1.4-1.3-2.6-1.2-3.9c1.9-1,1.4,4.1,2.9,5.1c-0.1-1.4,1.2,0.4,1.9,0.8c0,0-0.1-0.2-0.3-0.6c-0.2-0.4-0.5-0.8-0.8-1.3  c-0.6-0.9-1.2-1.9-1.2-1.9c0.2-0.4,0.7-2-0.3-2.4l0.1,0.3c-0.8-1.5-1.4-0.8-1.8-2.2c0.1-0.3,0.6,0,0.8,0c-0.4-1.3-0.9-0.8-1.5-1.6  c-0.4-1.3,1.1,0.3,0.8-0.9c-1.4-1.1-0.9-2.3-1.6-3.6c-0.7,1-4.1-3.9-3.5-0.9l-2.3-2.3c0-1.2,2.6,1,3-0.3l1.3,2.2  c0.4-0.4,0-1.1-0.6-1.9c0.1,0.1,0.3,0.3,0.5,0.5c-0.2-0.5-0.5-0.8-0.8-1.1c0,0.2,0,0.3,0.2,0.5c-0.2-0.3-0.5-0.6-0.8-1  c0.2,0.1,0.4,0.3,0.6,0.4c-0.1-1,0.9-1.9-1-2.1v0.3c-0.1-0.7-0.8-1.2-1.3-1.7c0-0.2,0-0.3,0-0.5c-0.8-1.2-0.7-0.8-1.7-3.3l-0.8,1.1  c-0.6-1.3-0.3-2.1-0.1-2.3c-0.6-0.6-1-1.2-1.4-1.8c0.3,0,0.6,0.2,0.9,0.5c-0.1-1.3-0.4-1.4-1-1.4c-0.6-0.2-1.2-0.9-1.8-1.5l0.9,0.3  c-0.4-0.3-1-0.7-1.2-0.6c-0.2-0.3-0.5-0.5-0.8-0.7c0,0,0,0.1,0,0.2c-0.6-1.3-1.7-2.9-1-3.2c-1-0.4-2.4-0.5-2.3,0.4  c-0.4-0.6-0.8-1.3-1.2-2c0.3-0.2,1.5,0.2,1.3,0c-0.9-1.1-2.5-1.6-2.8-1.1c-0.3-0.2-0.4-0.3-0.6-0.5c0-0.4,0-0.9-0.4-1.4  c0-0.2-0.2-0.4-0.5-0.8c-1,0.4-2.8-1.5-3.5-1.5c0.4,0.5,1,0.9,1.7,1.3c-1.3-0.1-2.6-0.1-2.9-1c2,0.7-1.1-2.2,1.6-0.6  c-1-2.4-1.5,0.1-3-1.7l-0.9-1.3c0.3-0.2,0.7,0,1.1,0.2c1.2,0.2,4.1,2.8,6.6,3.7c0,0-0.2-0.2-0.5-0.5c-0.3-0.3-0.8-0.7-1.3-1.1  c-0.9-0.8-1.9-1.7-1.9-1.7c-5.4-3.1-11.8-7.6-17.3-8.3l0.2,0.1c-0.1,0-0.2,0.1-0.4,0.4l-0.1-0.3l-1.2,0.1c-0.8-1.1-2.8-1.9-4.4-3.1  c1,0.8,0.9,0.8,0.9,1.4c-0.5,0.6-0.7,0.9-2.3,0c0.2-0.5,1.2-0.1,0.1-1c0.5,0.5-0.1,0.6-0.9,0.4c-0.8-0.7-2.4-1.1-2.2-1.6  c0.2,0,0.4,0,0.5,0.1c-0.1,0.4,1.2,1.1,0.6,0.5c0.1,0,0-0.1,0-0.2c0,0,0,0,0,0c0.5,0-1.6-0.9-0.2-1l-1.8-0.3  c-0.9-0.7,0.9-0.5,0.5-0.9c-1.5-0.2-2.7-0.1-3.8,0c-1.1,0.1-2.2,0.2-3.6,0.3c0.2-0.3,0.4-1.4,0.3-1.1c-2-0.7-4.6,0.6-6.9,0.4  c0.4-0.3,1.2,0,1.9-0.1c-1.7-0.4-3.4-0.6-5.1-0.8s-3.3-0.3-4.8-0.5c-3.2-0.2-6.3-0.3-9.8-0.6l-1.6,1.5l-1.9-0.6  c-1.8,0.1-3.5,0.2-5.1,0.5C83,17.2,81.5,17.6,80,18c-3,0.8-5.7,2.3-8.8,3.6c-1.9,0.8-1.5-0.4-2.6-0.3c-2.1,0.9-3.3,1.9-4.4,2.8  C63.1,25,62,26,60.3,27.3c0.3-0.6,0.7-2.1-1-1.2c-0.1,0.5,0,1.1-1.2,1.5l0.3-0.6c-1.2,0.1-1.9,1.1-3.9,2.1c-3.2,2.5-5.9,5.3-7.3,8.6  c-2.7,2.3-0.6-1.2-1.3-1c2.1-1.3,1.1-1.3,1.3-2c-0.8,1.2-1.8,2.4-2.9,2.2c-1.3,1.3-2.1,1.8-2.8,3.6c0.4-0.9,1.3-1.1,1-0.2  c-1.2,0.9-3.6,4-4.3,3.1c-5.7,6.7-11.2,15-14.8,23.8c0,1.7,0.6-1,0.7-0.1c-0.1,2.4-1,1.6-1.1,3.5l-0.3-0.9c-0.5,1.3-0.8,2.7-0.9,4.1  c-0.2,1.4,0,2.9-0.1,4.2c-0.6-0.6-1.1,2-0.9-0.3c-0.2,1.3-3.6,2.1-3.2,3.2l3.2-0.8c0.1,0,0.1,0.1,0.1,0.2c-0.2,0.4-0.3,0.8-0.2,1.2  c0,0.1,0,0.1,0,0.2c0,0,0,0,0.1-0.1c0,0,0,0,0,0c0,0.1,0,0.1-0.1,0.1c0,0.1,0,0.1,0.1,0.1c-0.9,0.9-1.7,2.2-1.8,3  c-0.8,0.3-0.3-1.7-0.1-2.7c-1.2-0.4-1.3,3.5-2.2,1.7c-0.2,2.4,0.7-0.2,0.9,1.3l-0.6,2l0.6-1.5c0.1,1.8,0.9,2.4-0.1,4.6  c0,0,0.2,0.6,0.4,1.2c0.3,0.6,0.5,1.2,0.5,1.2c-1,0.2-0.3,1.7-0.5,2.9l-0.6-0.8c-0.1,1.6-0.2,2.2-0.6,3.2C15.7,97,16.8,96.4,16,96  l-0.4,1.8c0.5,0,0.9,1.1,1.3-0.1c0.5,0.8,0.9,1.5,1.2,2.4c0.4,0.9,0.6,2.1,0.7,4.1c-0.8,1.9-0.9-1.9-1.8-1.1c-0.2,4.3,2.6,5,2.9,7.4  c0.1,3.1,0.9,2.8,1.4,5.9c-0.8-0.8-0.1,2.3-0.6,3l-0.9-1.1c0.3,0.8,0.4,1.6,0.1,1.7c0.8,0.3,1.6,4,2.6,5.8l0.6-0.6  c0.7,1.4,1.8,3.1,2.3,4.8c0,0,0-0.1,0-0.1l0.4,1.3c0-0.2,0-0.3-0.1-0.5c1,2.1,1.5,1.3,3,2.8c-0.1,1.3-0.9,1.5-1.7,1.5  c0-0.8-0.7-1.8-1-2.9c-1.7-2.9-4.2-4.9-4.8-8.3c-1-0.5-0.8,0.1-0.4,1c0.5,0.9,1.3,2,1.3,2.9c-0.1,0-0.2-0.1-0.3-0.2  c0,0.1,0.1,0.3,0.1,0.4c-0.6-1.1-1.6-2.9-2.5-3c0.8,2,2.2,0.9,2.3,3.6c1.1,1.6,0.4,3.6,0.7,4.7c1.1,0.9,2.5,0.4,3.5,3.3l-1.5-0.8  c1.5,3.2,2,0.9,3.4,3.8c-0.4-1.1,1.3,0.5,0.4-1.4c0.9,0.7,2.1,2.7,2.8,4.3c0.4,0.3,0.3-0.1,0.7-0.2c-0.4-2-2.2-2.2-2-4.1l-1.5-0.7  c-0.4-1.8,0.3-2.3,1.1-1.5c-0.3-0.4-0.6-0.8-0.6-1.2c1.3-1,0.4,2.1,1.9,2.1l-0.6-1c0.8-1,1.9,2.2,2.8,3.5c0.5,1.8,1.2,3.2,0.6,3.7  l-1.5-1.9c0.1,1.4,1.9,2.5,2.6,3.7v0.5c0-0.1,0.1-0.2,0.1-0.2c0.1,0.3,0.2,0.5,0.2,0.8c0.7,1,2.2,2.2,2.7,3.3l0.4-0.5l-0.4,0.1  c-0.7-0.9-1.2-2.4-0.3-2c1.9,1.7,1.1,2.9,1.1,3.8c-1.2,0.2-1.5-2-2.5-2.8c-0.3,1.2,1.5,2.2,2.5,4.7c-1.5-0.2-1.8-2.5-3-2.3  c1.2,1.8,2,1.9,3.3,3.8c-0.6,0.2-2-1.6-2.5-1.1c0,0,0.2,0.3,0.3,0.7c0.2,0.4,0.3,0.7,0.3,0.7c-2.3-2.9-0.7,1.4-2.7-0.7  c0.5,1.4,1.8,1,2.6,2.9c0-0.7-0.3-2.4,1.2-1.4l1.1,1.8c0.2,1-2.4-0.8-1.8,0.5l1.8,1.4c0.2-0.3-0.4-1.2,0.4-1  c0.6,1.2,2.3,0.6,3.7,1.4c0.8,0.8,1.5,1.5,1.5,2c1.4,0.6,2.8,1.6,4.1,2.5c1.3,0.9,2.8,1.6,4.1,2c-1.9-0.6-0.6,0.9-0.1,2  c-1.8-1.2-2.4-0.3-2.7,0.3c1.1,0.7,2.4,0.3,2.1-0.3c1.5,1.6,1.6,0.3,2.7,2c0.8,1-1.1,0.5-1,1.1c1.9,1.4,1.2-0.7,3.3,0.9  c-0.2,0-0.4,0-0.3,0.2c1.1,0.9,2.6,1.3,3.1,1c0.3,1,1.2,1.5,1.9,1.9c0.8,0.3,1.3,0.5,0.9,1.1c3.2,1.1-0.1-0.9,0.7-1  c1.5,0.1,3.5,1.6,4.1,2.1c-0.7-0.3-1.6-0.3-2.2-0.9l0.2,1.1c3.5,2.4,3.2-0.7,6.6,1.4c-2.1-0.3-0.9,0.4-2.1,0.7c0.7,0,3.5,1.3,2,0  c1.4,0.6,2.3,1.1,3.2,1.6c1.4,0.2,2.8,0.3,3.8-0.1c2,0.6,3.3,1.6,4.2,2.3c2.2,0.3,4.3,0.6,6.4,1.1c1.1,0.2,2.1,0.4,3.2,0.6  c1.1,0.2,2.2,0.1,3.4,0l-0.3-0.1c3.6,0.4-1.5-1.3,2.2-1.1c-0.6,1.1,2.2,0.9,3.4,1.5c2.3,0.3,4.3-0.1,6.2-0.4c1-0.1,1.9-0.3,2.9-0.3  c1-0.2,2-0.3,3-0.2c0,0.2-0.2,0.6-1.1,0.7c1.6-0.1,3.1-0.3,4.5-0.5c0.7-0.1,1.4-0.2,2.1-0.4s1.4-0.4,2.1-0.5l-0.1,0.2  c2.4-0.2,4.6-0.7,6.8-1.6c2.1-1,4.1-2.1,6.4-3.1c-0.1,0.1-0.2,0.3-0.3,0.5c-0.2,0-0.4,0.1-0.5,0.1c0.2,0,0.3,0,0.5,0  c0,0.1-0.1,0.2-0.2,0.3c1.2-0.3,2.7-0.9,4.1-1.6s2.5-1.5,3.1-2.4c3.2-0.3,1.5-1.2,5.3-2.2c0.3,0.1-0.2,0.4-0.4,0.5  c1.8-0.7,2.9-1.4,4.6-2.3c1.5-1.5,2.2-2.8,3.1-3.9c0.8-1.2,1.9-2.1,3.8-3.6c1,0.9-1.1,1.9-1.3,2.8l-1.1-0.1c-0.8,1.1,1-0.3,0.6,0.5  c-0.5,0.5-1.1,0.5-1.7,0.8c-0.7,1.7,2.6-1.9,1.3,0.1c0.6-0.4,0.9-0.9,1.2-1.3l0,0c0.5-0.7,0.9-1.3,2-1.8c-0.2,1,0.1,0.4,0.1,1.2  c1-0.4,2-4,2.1-3.8c-0.2-0.3-0.5-0.1-1.2,0.5c0.2-1.4,3.5-3.2,4.7-5.3c-0.5,0.5-2.3,2.1-2.3,0.9c2.3-2.1,1.9-3.8,2.9-5.7  c2.4-1.6-0.4,2.4,0.8,2.7c0.6-0.1,2-0.4,1.5,0.8c2-1.7,2.3-3.9,3.5-5.9l0.2,0.2c0.9-1.4,1.7-2.8,2.3-4.4c0.6-1.5,1.2-2.9,2.2-3.9  l-1,1c0.1-0.5,1-1.9,0.9-2.9c0.3,0.3,1.5-0.9,1.7-0.6c-0.5-2.2,2.3-6.7,1.6-8.7c0.7-0.6,1,0.2,1.3,0.6c-0.9,1.8-1.5,2.2-1.4,3.5  c0.7-1.5,1.6-2.4,1.8-2.1c-0.3-1.9,0.7-5.8,0-6.9c0.9-1,1.5-2,2.2-1.3c0.8-5-3.1,1.6-1.6-3.8c1.4-2.3,0.4,2.7,1.6-0.7v0.7  c2.7-2-1-2.1-0.3-4.9c1.3-0.1,0.3,2.1,1.6,0.4c0.2-2.7-1.4-4.1-0.6-6.7l0.4,0.5c0.3-1.7,0.6-4.9,0.6-6.6c0.2-0.1,0.2,0.2,0.2,0.5  C184.7,101.6,183.6,103.4,184.5,100.8z M165.9,46.5c-0.1,0-0.2,0-0.4-0.1L165.9,46.5z M163.7,43.7c0,0.5,0,1.2,0.4,2.1  c-1-1.4-1.9-2.6-2.8-3.8C162.5,42.8,162.7,43,163.7,43.7z M162.2,42.3c-0.3-0.1-0.6-0.1-0.9-0.3c-0.2-0.3-0.5-0.7-0.7-1  C161.1,40.8,161.6,41.6,162.2,42.3z M123.5,24.8c0.4,0.2,0.7,0.4,1,0.5C124.3,25.1,124,24.9,123.5,24.8c0.7-0.2,2,0.3,2.9,0.9  c1.1,0.6,2,1.2,1.6,0.7c2.2,0.4,1.4,0.6,1.5,0.9c-2-1-3.2-1.2-5-2c0.2,0.3,0.2,0.6,0.3,0.8c-0.7-0.2-1.4-0.7-1.5-1.2  C123.4,24.9,123.4,24.8,123.5,24.8z M21.5,126.7c0.1,0.3,0.2,0.5,0.3,0.6C21.7,127.2,21.7,127,21.5,126.7z M178.2,81.7l-0.3-0.6  l-0.1,1.4c1,2,1.6,2,2.4,2.4c-0.9-1.8-1.1-3-1.8-5.4L178.2,81.7z M183,78.1l-0.5-0.2l0.1,1.5C182.7,79.1,183,78.4,183,78.1z   M173.5,53.4l0.8,2.1C175,55.9,174.2,53.4,173.5,53.4z M171.7,65.4l0.9,0.8c-0.1-1-0.7-2.2-1.2-2.2C172.1,65,171.2,64.4,171.7,65.4z   M170.1,48.5c-1.1,0-1-2-2-1.9C168.7,46.9,169.3,48.9,170.1,48.5z M164.5,54.5c-0.3,0.9,0.7,1.3,1.3,2.2  C165.3,55.7,165.1,54.5,164.5,54.5z M163.4,52.6h0.7C163.8,51.7,163.8,52.4,163.4,52.6z M162.5,52.1c0.5,1,0.4,1.9,1.2,2.8  c0.2-0.4,0.5-1.1-0.5-2.2C163.1,52.7,162.8,52.5,162.5,52.1z M163.2,52.6C163.2,52.6,163.2,52.6,163.2,52.6c0.1,0,0.2,0,0.2,0H163.2  z M161.6,38.6c-1.6-1.3-3.7-2.7-4.6-3l0.3,0.7C158.9,37,160.3,38.6,161.6,38.6z M159.9,47.6c0.2,0.4,0.5,1,0.9,1.1  c-1.2-1.1,0.6-0.6-0.7-1.5l-0.9,0.5C160.1,48.9,159.4,47.4,159.9,47.6z M155.9,44.4l-1.7-1l0.3,1.8  C156.5,46.4,155.1,44.9,155.9,44.4z M151.5,41.2c1.7,0.7,1.7,0.8,3.1,1.1V42L151.5,41.2z M130.3,28.8c-0.6-0.6-3.4-0.9-4.5-1  C127.1,28.1,130.3,29.4,130.3,28.8z M78.1,30.6c0.1-0.1,0.2-0.1,0.3-0.2C78.3,30.4,78.2,30.5,78.1,30.6z M81.7,28.4  c-1.1,0.5-2.1,1-3.2,1.9c0.4-0.2,1.1-0.1,0.9-0.6C80.1,29.5,81.5,28.9,81.7,28.4z M69.3,33.7c0.4-0.5,1.2-0.7,0.8-1  C69.7,32.7,68.8,33.6,69.3,33.7z M16.9,91.4c0.1-1.4-0.3-0.7-0.4-1.7C16.1,90.9,16.2,91.6,16.9,91.4z M16.6,93l-0.5,0.8l0.9-0.9  L16.6,93z M15.8,101.3c-0.1-0.1-0.2-0.3-0.3-0.5C15.6,101.2,15.7,101.6,15.8,101.3z M15.5,100.7c0,0-0.1-0.1-0.1-0.2  C15.4,100.6,15.4,100.7,15.5,100.7z M15.6,100l-0.3-0.1c0.1,0.1,0.1,0.4,0.2,0.7C15.4,100.3,15.4,100,15.6,100z M15.2,102.5l0.6,1.3  l0.9-1.6C16.2,100.5,16.3,104.1,15.2,102.5z M20.1,117.4c-0.3-4.6-2.5-1.9-2.6-6.1c-0.3,2-0.7-1.3-1.1-1.9c-0.1,1.6,1.7,3.5,0.8,4.6  C18.5,118.2,18.8,112.7,20.1,117.4z M18.2,108.4c-0.6-0.2-0.4,1.7,0.1,2.3C18.3,110.1,18.9,109.1,18.2,108.4z M18.3,117.6l-0.1,1.4  l0.4,0.3L18.3,117.6z M19.3,122.6l-0.9-1C18.8,122.1,19.1,123.6,19.3,122.6z M21.6,129.5c-0.2-0.1-0.3,1.4-0.9,0  c0.2,1.2,2,1.7,0.8-0.6L21.6,129.5z M29.7,143c-0.4-0.7-1.1-1.5-1.2-1.2l1.4,1.8L29.7,143z M31.1,137.8c0.7,1.5,0.5,1.4,1.6,3.1  C33.1,139.8,31.6,139.2,31.1,137.8z M28.8,144.1c-0.3,0.5,0.6,1.8,1.2,1.8C29.4,145.6,29.1,144.6,28.8,144.1z M35.7,151.5  c-1.7-1.8-3.9-1.9-3.6-3.6c0,0-0.7-0.2-1.3-0.4c-0.6-0.2-1.2-0.5-1.2-0.5c1,1.8,1.9,0.6,2.6,1.8c0.1,0.8-0.5,0.2-0.4,0.8  c0.6,1.5,1.7,2.9,2.6,3.3C34.5,152.3,35,151.2,35.7,151.5z M32,142.9l0.2,1.4c0.3-0.5,0.9,0.3,1.4,0.8  C34.4,144.1,32.5,143.5,32,142.9z M43.4,160.2c0,0-0.4-0.3-0.8-0.5c-0.5-0.3-0.9-0.6-0.9-0.6c-0.1,0.1,2.3,1.8,2.3,1.8L43.4,160.2z   M42.8,160.7l-0.2,0.3l2.1,1L42.8,160.7z M43.1,161.8l1.7,1.2l-0.3-0.3L43.1,161.8z M47.3,165.3c0.6,0.3,1.8,1.2,1.9,1.8l-0.1-0.7  C48.4,166.1,47.6,164.7,47.3,165.3z M71.5,166.2c-0.5,0.1-0.4,0.5-0.3,0.9l1-0.4C72,166.6,71.6,166.4,71.5,166.2z M75.8,168.4  c-1.9-0.8-2.5-0.2-4.3-1c0.6,0.6,1.8,0.5,2.7,1.1l-0.5,0.2L75.8,168.4z M115.5,173.5l-2.4,0.7l0.3-0.5c-1.7-0.1-1,1-2.8,0.9  c-0.1,0.6,0.3,0.5-1.1,1c1.9-0.6,3.6-0.8,5.7-1.2C114.8,174.1,116.3,173.2,115.5,173.5z M183.2,111.6c0.3,0.3,0.6,0,0.9-0.3  C184,109.9,183.4,111.5,183.2,111.6z"/>
<g transform="translate(30 30) scale(0.7)"><path d="m143.24 40c-0.56687 0.01534-1.2482 0.69666-2.0449 2.0449-3.9222 6.4553-7.3946 12.258-10.418 17.406-3.0234 5.1479-6.0056 10.173-8.9473 15.076-2.86 4.8211-5.9248 9.7639-9.1934 14.83-3.1868 4.9845-6.9446 10.622-11.275 16.914-0.81713 0.572-2.0435 1.0621-3.6777 1.4707-1.5525 0.32685-3.147 0.69494-4.7812 1.1035-1.6343 0.32686-3.1047 0.73628-4.4121 1.2266-1.3074 0.40857-2.083 1.0208-2.3281 1.8379 0.16344 0.24514 0.61224 0.61322 1.3477 1.1035 0.73542 0.49028 1.5129 1.0218 2.3301 1.5938 0.89884 0.572 1.6744 1.1429 2.3281 1.7148 0.6537 0.49027 0.98047 0.85838 0.98047 1.1035 0 0.89885-0.9803 2.6961-2.9414 5.3926-1.8794 2.6965-4.3321 5.7201-7.3555 9.0703-2.9417 3.3502-6.29 6.7006-10.049 10.051-3.6771 3.4319-7.3148 6.2508-10.91 8.457-3.5954 2.288-6.9457 3.719-10.051 4.291-3.1051 0.57199-5.5145-0.32757-7.2305-2.6973-0.89885 0-1.3496 0.24604-1.3496 0.73632-0.08167 0.49028 0.04227 1.0612 0.36914 1.7148 0.32685 0.65371 0.77567 1.2679 1.3476 1.8398 0.49029 0.65369 0.85838 1.0612 1.1035 1.2246 2.7782 1.8794 5.6384 2.6963 8.5801 2.4512 2.86-0.16343 5.7201-1.1024 8.5801-2.8184 2.8599-1.716 5.7182-3.9639 8.5781-6.7422 2.86-2.7782 5.6807-5.8018 8.459-9.0703 2.7782-3.2685 5.4731-6.6188 8.0879-10.051 2.6965-3.432 5.2713-6.5776 7.7227-9.4375 2.5331-2.9417 4.9031-5.4337 7.1094-7.4766 2.288-2.0428 4.4533-3.3499 6.4961-3.9219 0.98057-0.24513 2.5337-0.65456 4.6582-1.2266 2.2062-0.572 4.4936-1.1428 6.8633-1.7148 2.3697-0.57199 4.535-1.1035 6.4961-1.5937 2.0428-0.49028 3.4325-0.81706 4.168-0.98047h0.85742c0.40858-0.0817 0.81801-0.12306 1.2266-0.12306 0.49028 0 0.89777 0.0413 1.2246 0.12306h0.73633c1.3074 0.57199 2.329 1.8377 3.0644 3.7988 0.81714 1.8794 1.51 4.1274 2.082 6.7422 0.65369 2.5331 1.3072 5.1886 1.9609 7.9668 0.73543 2.6965 1.635 5.1079 2.6973 7.2324 1.144 2.0428 2.575 3.5546 4.291 4.5352 1.7977 1.0623 4.0437 1.143 6.7402 0.24415-3.2685-2.86-5.7193-5.4741-7.3535-7.8438-1.5525-2.4514-2.6568-4.9435-3.3105-7.4766-0.65372-2.6148-1.0612-5.4337-1.2246-8.457-0.0817-3.1051-0.28643-6.7428-0.61328-10.91-0.0817-0.73542-0.0817-2.3279 0-4.7793 0.16341-2.5331 0.3268-5.5153 0.49024-8.9473 0.24513-3.4319 0.44985-7.1917 0.61327-11.277 0.24515-4.0857 0.40854-8.0895 0.49024-12.012 0.0817-3.9222 0.0817-7.558 0-10.908-0.0817-3.4319-0.28642-6.2508-0.61329-8.457-0.32685-2.2062-0.81699-3.596-1.4707-4.168-0.16342-0.143-0.34032-0.21214-0.5293-0.20703zm-1.6602 15.566c0.12129 0.0052 0.2392 0.03295 0.35156 0.08402-0.0817 1.4708-0.24509 3.5554-0.49023 6.252-0.16342 2.6148-0.40947 5.475-0.73633 8.5801-0.32685 3.1051-0.69493 6.292-1.1035 9.5605-0.32685 3.1868-0.65361 6.1277-0.98047 8.8242-0.32685 2.6148-0.61228 4.7801-0.85742 6.4961l-0.36719 2.5742c-0.73541 0.73542-2.0425 1.4303-3.9219 2.084-1.8794 0.572-3.9226 1.1035-6.1289 1.5938-2.2062 0.40859-4.4129 0.77471-6.6191 1.1016-2.2062 0.32686-4.0448 0.61423-5.5156 0.85937-0.24514 0.0817-0.73529 0.1211-1.4707 0.1211-0.65369 0-1.0631-0.0394-1.2266-0.1211v-1.4707c4.4942-6.2102 8.376-12.177 11.645-17.896 3.3502-5.8016 6.1691-10.866 8.457-15.197 2.3697-4.3308 4.2909-7.7224 5.7617-10.174 1.287-2.2165 2.3541-3.3072 3.2031-3.2715z" fill="#3c1740"/></g></svg>
