<?xml version="1.0" encoding="utf-8"?>
<!-- Generator: Adobe Illustrator 21.1.0, SVG Export Plug-In . SVG Version: 6.00 Build 0)  -->
<svg xmlns="http://www.w3.org/2000/svg" xmlns:xlink="http://www.w3.org/1999/xlink" version="1.1" id="Layer_1" x="0px" y="0px" viewBox="0 0 200 200" enable-background="new 0 0 200 200" xml:space="preserve">
<path fill="#a8652c" d="M147.2,26.3L24.5,144.4c1.2,2,2.5,4,3.8,5.9L147.5,26.5C147.4,26.4,147.3,26.4,147.2,26.3z M169.2,46.3  L43.8,167.1c1.7,1.5,3.6,2.9,5.4,4.2L169.4,46.6C169.3,46.5,169.3,46.4,169.2,46.3z M177.4,59L56.2,175.8c2,1.2,4.1,2.3,6.2,3.3  L177.6,59.4C177.5,59.3,177.5,59.1,177.4,59z M173.5,52.5L49.7,171.7c1.9,1.3,3.9,2.6,5.9,3.8L173.7,52.8  C173.6,52.7,173.6,52.6,173.5,52.5z M140.6,22.4L20.9,137.6c1,2.1,2.1,4.2,3.3,6.2L141,22.6C140.9,22.5,140.7,22.5,140.6,22.4z   M107.8,12.9l-95.2,91.6c0.1,2.6,0.4,5.3,0.7,7.9L109.1,13C108.7,13,108.2,12.9,107.8,12.9z M85.5,13.6L14.3,82.2  c-0.7,3-1.1,6.1-1.4,9.2l75.3-78.2C87.3,13.3,86.4,13.5,85.5,13.6z M133.4,19.1L17.8,130.3c0.9,2.2,1.8,4.4,2.8,6.6L133.9,19.3  C133.7,19.2,133.5,19.1,133.4,19.1z M97.4,187.4c0.9,0.1,1.8,0.1,2.6,0.1c2,0,4-0.1,5.9-0.2l81.6-84.7v-1.9L97.4,187.4z M70.7,17.4  L18.6,67.7c-1.4,3.5-2.5,7-3.5,10.7l60-62.4C73.6,16.4,72.2,16.9,70.7,17.4z M117,14.1L13.5,113.8c0.4,2.5,0.9,5,1.6,7.5L118,14.3  C117.7,14.2,117.3,14.2,117,14.1z M125.6,16.3L15.3,122.4c0.7,2.4,1.4,4.7,2.2,7L126.3,16.5C126.1,16.4,125.8,16.3,125.6,16.3z   M117.8,185.7l68.5-71.2c0.2-0.9,0.3-1.8,0.4-2.7l-78.2,75.3C111.7,186.8,114.8,186.4,117.8,185.7z M159.1,35.4L33.2,156.6  c1.5,1.8,3.1,3.5,4.7,5.1L159.3,35.6C159.2,35.5,159.2,35.5,159.1,35.4z M153.4,30.6L28.7,150.8c1.3,1.8,2.7,3.7,4.2,5.4L153.7,30.8  C153.6,30.7,153.5,30.7,153.4,30.6z M132.3,181.4l50.3-52.2c0.5-1.4,1-2.9,1.4-4.4l-62.4,60C125.3,183.9,128.8,182.8,132.3,181.4z   M164.4,40.7L38.3,162.1c1.6,1.6,3.3,3.2,5.1,4.7L164.6,40.9C164.5,40.8,164.5,40.8,164.4,40.7z M97.3,12.4L12.7,94.1  c-0.2,1.9-0.2,3.9-0.2,5.9v2.5l86.7-90.1H97.3z M45.7,31.4L33.4,43.1c-4.6,5.4-8.6,11.4-11.8,17.8L58,23.2  C53.7,25.6,49.5,28.3,45.7,31.4z M180.8,66.1L63.1,179.4c2.2,1,4.4,1.9,6.6,2.8L181,66.6C180.9,66.4,180.9,66.2,180.8,66.1z   M156.9,166.6l11.8-12.2c3.1-3.9,5.8-8,8.2-12.3l-37.8,36.4C145.5,175.2,151.5,171.2,156.9,166.6z M187.1,90.9l-99.4,95.8  c2.5,0.3,5.2,0.6,7.9,0.7l91.6-95.2C187.2,91.7,187.1,91.3,187.1,90.9z M183.6,73.7l-113,108.8c2.3,0.8,4.6,1.5,7,2.2L183.8,74.4  C183.7,74.2,183.7,73.9,183.6,73.7z M185.7,81.9l-107,103c2.4,0.6,4.9,1.1,7.5,1.5l99.7-103.5C185.8,82.6,185.8,82.2,185.7,81.9z"/>
<g transform="translate(30 30) scale(0.7)"><path d="m143.24 40c-0.56687 0.01534-1.2482 0.69666-2.0449 2.0449-3.9222 6.4553-7.3946 12.258-10.418 17.406-3.0234 5.1479-6.0056 10.173-8.9473 15.076-2.86 4.8211-5.9248 9.7639-9.1934 14.83-3.1868 4.9845-6.9446 10.622-11.275 16.914-0.81713 0.572-2.0435 1.0621-3.6777 1.4707-1.5525 0.32685-3.147 0.69494-4.7812 1.1035-1.6343 0.32686-3.1047 0.73628-4.4121 1.2266-1.3074 0.40857-2.083 1.0208-2.3281 1.8379 0.16344 0.24514 0.61224 0.61322 1.3477 1.1035 0.73542 0.49028 1.5129 1.0218 2.3301 1.5938 0.89884 0.572 1.6744 1.1429 2.3281 1.7148 0.6537 0.49027 0.98047 0.85838 0.98047 1.1035 0 0.89885-0.9803 2.6961-2.9414 5.3926-1.8794 2.6965-4.3321 5.7201-7.3555 9.0703-2.9417 3.3502-6.29 6.7006-10.049 10.051-3.6771 3.4319-7.3148 6.2508-10.91 8.457-3.5954 2.288-6.9457 3.719-10.051 4.291-3.1051 0.57199-5.5145-0.32757-7.2305-2.6973-0.89885 0-1.3496 0.24604-1.3496 0.73632-0.08167 0.49028 0.04227 1.0612 0.36914 1.7148 0.32685 0.65371 0.77567 1.2679 1.3476 1.8398 0.49029 0.65369 0.85838 1.0612 1.1035 1.2246 2.7782 1.8794 5.6384 2.6963 8.5801 2.4512 2.86-0.16343 5.7201-1.1024 8.5801-2.8184 2.8599-1.716 5.7182-3.9639 8.5781-6.7422 2.86-2.7782 5.6807-5.8018 8.459-9.0703 2.7782-3.2685 5.4731-6.6188 8.0879-10.051 2.6965-3.432 5.2713-6.5776 7.7227-9.4375 2.5331-2.9417 4.9031-5.4337 7.1094-7.4766 2.288-2.0428 4.4533-3.3499 6.4961-3.9219 0.98057-0.24513 2.5337-0.65456 4.6582-1.2266 2.2062-0.572 4.4936-1.1428 6.8633-1.7148 2.3697-0.57199 4.535-1.1035 6.4961-1.5937 2.0428-0.49028 3.4325-0.81706 4.168-0.98047h0.85742c0.40858-0.0817 0.81801-0.12306 1.2266-0.12306 0.49028 0 0.89777 0.0413 1.2246 0.12306h0.73633c1.3074 0.57199 2.329 1.8377 3.0644 3.7988 0.81714 1.8794 1.51 4.1274 2.082 6.7422 0.65369 2.5331 1.3072 5.1886 1.9609 7.9668 0.73543 2.6965 1.635 5.1079 2.6973 7.2324 1.144 2.0428 2.575 3.5546 4.291 4.5352 1.7977 1.0623 4.0437 1.143 6.7402 0.24415-3.2685-2.86-5.7193-5.4741-7.3535-7.8438-1.5525-2.4514-2.6568-4.9435-3.3105-7.4766-0.65372-2.6148-1.0612-5.4337-1.2246-8.457-0.0817-3.1051-0.28643-6.7428-0.61328-10.91-0.0817-0.73542-0.0817-2.3279 0-4.7793 0.16341-2.5331 0.3268-5.5153 0.49024-8.9473 0.24513-3.4319 0.44985-7.1917 0.61327-11.277 0.24515-4.0857 0.40854-8.0895 0.49024-12.012 0.0817-3.9222 0.0817-7.558 0-10.908-0.0817-3.4319-0.28642-6.2508-0.61329-8.457-0.32685-2.2062-0.81699-3.596-1.4707-4.168-0.16342-0.143-0.34032-0.21214-0.5293-0.20703zm-1.6602 15.566c0.12129 0.0052 0.2392 0.03295 0.35156 0.08402-0.0817 1.4708-0.24509 3.5554-0.49023 6.252-0.16342 2.6148-0.40947 5.475-0.73633 8.5801-0.32685 3.1051-0.69493 6.292-1.1035 9.5605-0.32685 3.1868-0.65361 6.1277-0.98047 8.8242-0.32685 2.6148-0.61228 4.7801-0.85742 6.4961l-0.36719 2.5742c-0.73541 0.73542-2.0425 1.4303-3.9219 2.084-1.8794 0.572-3.9226 1.1035-6.1289 1.5938-2.2062 0.40859-4.4129 0.77471-6.6191 1.1016-2.2062 0.32686-4.0448 0.61423-5.5156 0.85937-0.24514 0.0817-0.73529 0.1211-1.4707 0.1211-0.65369 0-1.0631-0.0394-1.2266-0.1211v-1.4707c4.4942-6.2102 8.376-12.177 11.645-17.896 3.3502-5.8016 6.1691-10.866 8.457-15.197 2.3697-4.3308 4.2909-7.7224 5.7617-10.174 1.287-2.2165 2.3541-3.3072 3.2031-3.2715z" fill="#3c1740"/></g></svg>
