<?xml version="1.0" encoding="utf-8"?>
<!-- Generator: Adobe Illustrator 21.1.0, SVG Export Plug-In . SVG Version: 6.00 Build 0)  -->
<svg xmlns="http://www.w3.org/2000/svg" xmlns:xlink="http://www.w3.org/1999/xlink" version="1.1" id="Layer_1" x="0px" y="0px" viewBox="0 0 200 200" enable-background="new 0 0 200 200" xml:space="preserve">
<path fill="#f9a01e" d="M114,10.2c-1.4-0.7-1.5-0.7-7.4-0.8c-3.3,0-6.2-0.1-6.4-0.2c-0.2-0.1-1.3,0-2.5,0.1c-1.1,0.1-4,0.2-6.3,0.2  c-4.1-0.1-4.3,0-5.6,0.7c-2,1-5.2,3.7-6.8,5.6c-1.7,2-3.7,4.7-3.7,5.2c0,0.2,0.8,0.7,1.9,1.3c1,0.5,2.9,1.8,4.3,2.9  c8.9,6.6,14.5,15.1,17.3,25.9c0.5,2,1,3.6,1.1,3.6c0.1,0,0.6-1.6,1.1-3.6c2.8-10.8,8.4-19.3,17.3-25.9c1.4-1,3.3-2.3,4.3-2.9  c1-0.5,1.8-1.1,1.8-1.3c0-0.4-2-3.2-3.7-5.2C119.2,13.8,115.9,11.2,114,10.2z M33.6,50.6c0,0,0.7-0.1,1.6-0.2  c3.9-0.5,11.6-0.2,15.5,0.7c7.6,1.8,13.2,4.6,19.2,9.5c1.7,1.3,3.1,2.5,3.3,2.7c0.2,0.1-0.4-1.4-1.2-3.5c-2.4-6.2-3.4-11.1-3.4-17.2  c0-3.7,0.2-5.4,0.8-9.3c0.3-2,2.1-7.3,3-9.4c1.1-2.3,1.1-2.3-0.4-2.9c-4-1.6-10.3-2.5-13.8-1.8c-1.6,0.3-2,0.5-5.4,3.2  c-1.2,0.9-3.2,2.3-4.3,3c-1.2,0.7-2.6,1.7-3.2,2.3c-1.7,1.5-3.3,2.8-6.1,4.6c-2.5,1.6-2.6,1.8-3.5,3.7c-1.8,3.7-2.6,8.1-2.4,12.7  C33.5,49.7,33.5,50.6,33.6,50.6z M131.2,37.3c0.1,0.7,0.2,3,0.2,5.2c0,6.1-1,11.1-3.4,17.3c-0.8,2.1-1.3,3.7-1.2,3.5  c0.2-0.1,1.7-1.3,3.3-2.7c6.1-4.9,11.6-7.7,19.2-9.5c3.9-0.9,11.6-1.3,15.5-0.7c0.8,0.1,1.5,0.2,1.6,0.2c0.2-0.2,0.2-4.5,0-6.5  c-0.3-3-0.9-5.3-2.1-8.1c-1-2.2-1-2.2-3.8-4c-1.5-1-3.6-2.5-4.6-3.4c-1-0.9-2.4-1.9-3-2.4c-3.3-2-5.3-3.4-7.1-4.9  c-1.1-0.9-2.5-1.8-3.1-2c-1.9-0.5-6.5-0.5-9.3,0.1c-2.4,0.5-6.4,1.7-6.7,2.1c-0.1,0.1,0.2,1,0.7,2.1  C129.1,27.2,130.4,32.1,131.2,37.3z M16.2,98.1l1,1.2l1.6-1.6c2.3-2.2,6.9-5.4,10.3-7.1c7.5-3.8,14.9-5.2,23.5-4.7  c2.2,0.1,4.1,0.2,4.1,0.1s-1.4-1.1-3.2-2.2C45.8,78.9,40.5,73,36.6,65c-1.5-3.1-3.7-9.2-3.7-10.4c0-0.7-0.5-2.5-0.8-2.5  c-0.1,0-1.3,0.4-2.6,0.8c-4.6,1.6-7.5,3.2-10.3,5.6c-0.8,0.7-1.5,1.5-1.7,1.8c-0.1,0.3-0.8,2.1-1.3,4.1s-1.4,4.4-1.9,5.5  c-0.5,1.1-1.1,3.2-1.5,4.7c-0.4,1.6-1.2,4.1-1.8,5.7c-1.2,3.3-1.3,4.1-0.6,6.9C11.5,90.8,13.6,94.8,16.2,98.1z M146.4,83.8  c-1.8,1.2-3.3,2.2-3.2,2.2s1.9,0,4.1-0.1c8.6-0.6,16.1,0.9,23.5,4.7c3.4,1.7,8,4.9,10.3,7.1l1.6,1.6l1-1.2c2.6-3.2,4.8-7.3,5.7-10.8  c0.7-2.9,0.7-3.7-0.6-6.9c-0.6-1.6-1.4-4.2-1.8-5.7c-0.4-1.6-1-3.7-1.5-4.7c-0.5-1-1.3-3.5-1.9-5.5c-1.2-4.2-1.3-4.3-2.6-5.6  c-2.6-2.4-5.3-4-9.3-5.5c-3.4-1.2-4.1-1.4-4.2-1c-0.1,0.2-0.2,1.1-0.4,2.1c-0.5,2.8-2.3,8-4,11.2C159.2,73.3,153.8,79.1,146.4,83.8z   M53.6,116.3c1.8-1.2,3.3-2.2,3.2-2.2s-1.9,0-4.1,0.1c-8.6,0.6-16.1-0.9-23.5-4.7c-3.4-1.7-8-4.9-10.3-7.1l-1.6-1.6l-1,1.2  c-2.6,3.2-4.8,7.3-5.7,10.8c-0.7,2.9-0.7,3.7,0.6,6.9c0.6,1.6,1.4,4.2,1.8,5.7c0.4,1.6,1,3.7,1.5,4.7c0.5,1,1.3,3.5,1.9,5.5  s1.2,3.8,1.3,4.1c0.4,0.7,2.8,2.8,4.5,4c3,2,9.8,4.6,10.2,3.9c0.1-0.2,0.4-1.1,0.5-2.1c0.5-2.9,2.3-8,4-11.2  C40.8,126.8,46.1,121,53.6,116.3z M188,109c-0.9-2-3.3-5.8-4.6-7.2l-0.8-0.9l-1.5,1.5c-3.2,3.2-10.2,7.5-15,9.2  c-6.5,2.3-12,3.1-18.9,2.6c-2.2-0.1-4.1-0.2-4.1-0.1s1.4,1.1,3.2,2.2c7.5,4.8,12.8,10.5,16.7,18.2c1.7,3.3,3.5,8.4,4,11.3  c0.2,1,0.4,2,0.5,2.1c0.2,0.3,4.3-1.1,6.9-2.2c3-1.3,7.1-4.4,7.8-5.8c0.1-0.3,0.8-2.1,1.3-4.1c0.6-2,1.4-4.4,1.9-5.5  c0.5-1.1,1.1-3.2,1.5-4.7c0.4-1.6,1.2-4.1,1.8-5.7c0.6-1.6,1.1-3.4,1.1-3.9C189.9,114.4,189,111.1,188,109z M73.5,136.6  c0,0-1.5,1.2-3.3,2.7c-6,4.9-11,7.4-18.1,9.3c-4.4,1.2-12.6,1.7-16.9,1.1c-0.8-0.1-1.5-0.2-1.6-0.2c-0.2,0.2-0.2,4.5,0,6.5  c0.3,3,0.9,5.3,2.1,8.1c1,2.2,1,2.2,3.8,4c1.5,1,3.6,2.5,4.6,3.4c1,0.9,2.4,1.9,3,2.4c3.3,2,5.3,3.4,7.1,4.9c1.1,0.9,2.5,1.8,3.1,2  c1.9,0.5,6.5,0.5,9.3-0.1c2.4-0.5,6.4-1.7,6.7-2.1c0.1-0.1-0.2-1.1-0.7-2.1c-2.6-5.6-4-12-4-19c0-6.1,1-11,3.4-17.2  C72.8,138.3,73.5,136.6,73.5,136.6z M164.8,149.7c-2.5,0.4-8.9,0.3-12-0.1c-8.4-1.2-15.8-4.4-22.8-10.1c-1.6-1.3-3.1-2.5-3.3-2.7  c-0.2-0.1,0.4,1.4,1.2,3.5c2.4,6.1,3.4,11.1,3.4,17.3c0,2.2-0.1,4.6-0.2,5.2c-0.7,5.2-2.1,10.1-3.8,13.7c-0.5,1-0.8,2-0.7,2.1  c0.4,0.4,4.4,1.6,6.7,2.1c2.7,0.6,7.4,0.6,9.3,0.1c0.6-0.2,2-1.1,3.1-2c1.9-1.5,3.8-2.9,7.1-4.9c0.6-0.4,2-1.5,3-2.4  c1-0.9,3.1-2.5,4.6-3.4c2.7-1.8,2.7-1.8,3.8-4c1.2-2.7,1.9-5,2.1-8.1c0.2-1.9,0.2-6.3,0-6.5C166.4,149.5,165.7,149.5,164.8,149.7z   M122.7,177.9c-1-0.5-3-1.8-4.3-2.9c-8.9-6.6-14.5-15.1-17.3-25.9c-0.5-2-1-3.6-1.1-3.6s-0.6,1.6-1.1,3.6  c-1.8,7.1-4.5,12.5-9.1,18.2c-3.1,3.8-8.5,8.4-12.5,10.6c-1,0.5-1.9,1.1-1.9,1.3c0,0.4,2,3.2,3.7,5.2c1.7,1.9,4.9,4.6,6.8,5.5  c1.4,0.7,1.6,0.7,7.5,0.8c7.4,0.1,5.7,0.1,13.1,0l6.2-0.1l1.6-0.9c3.3-1.9,6.4-4.8,9-8.6c0.6-0.9,1.1-1.7,1.1-1.9  C124.5,179.1,123.7,178.5,122.7,177.9z"/>
<g transform="translate(30 30) scale(0.7)">
  
  <defs id="defs134315"/>
  <linearGradient id="3d_gradient2-logo-52aa3ec2-e1d7-476f-82be-95c7e152bd00" x1="30%" y1="120%" x2="-10%" y2="30%" spreadMethod="pad">
    <stop offset="0%" stop-color="#ffffff" stop-opacity="1" id="stop134292"/>
    <stop offset="100%" stop-color="#000000" stop-opacity="1" id="stop134294"/>
  </linearGradient>
  <linearGradient id="3d_gradient3-logo-52aa3ec2-e1d7-476f-82be-95c7e152bd00" x1="30%" y1="120%" x2="-10%" y2="30%" spreadMethod="pad" gradientTransform="rotate(-30)">
    <stop offset="0%" stop-color="#ffffff" stop-opacity="1" id="stop134297"/>
    <stop offset="50%" stop-color="#cccccc" stop-opacity="1" id="stop134299"/>
    <stop offset="100%" stop-color="#000000" stop-opacity="1" id="stop134301"/>
  </linearGradient>
  <path id="path134348" style="font-style:normal;font-weight:normal;font-size:72px;line-height:1;font-family:'Nothing You Could Do';font-variant-ligatures:none;text-align:center;text-anchor:middle;fill:#f9a01e;stroke:#f9a01e;stroke-width:0;stroke-linejoin:miter;stroke-miterlimit:2" d="m 46.08166,157.50618 q -0.367713,-0.24514 -1.103139,-1.22569 -0.857974,-0.85799 -1.348253,-1.83855 -0.490278,-0.98055 -0.367713,-1.71597 0,-0.73542 1.34827,-0.73542 2.573957,3.55452 7.231592,2.69653 4.657652,-0.85799 10.050713,-4.28993 5.393062,-3.30938 10.908688,-8.4573 5.638209,-5.02536 10.050714,-10.05071 4.535069,-5.02535 7.354174,-9.07015 2.94167,-4.04479 2.94167,-5.39306 0,-0.36771 -0.980557,-1.10313 -0.980556,-0.85798 -2.328826,-1.71597 -1.225705,-0.85799 -2.328826,-1.5934 -1.103122,-0.73542 -1.34827,-1.10313 0.367713,-1.2257 2.328826,-1.83854 1.961113,-0.73542 4.412505,-1.2257 2.451391,-0.61285 4.780218,-1.10313 2.451394,-0.61284 3.677074,-1.47083 6.4962,-9.437858 11.2764,-16.914601 4.90279,-7.599313 9.19273,-14.830919 4.4125,-7.354174 8.94757,-15.076056 4.53509,-7.721884 10.41843,-17.40488 1.5934,-2.69653 2.57395,-1.838544 0.98056,0.857988 1.47084,4.167365 0.49028,3.30938 0.61284,8.457302 0.12255,5.025351 0,10.908691 -0.12254,5.883339 -0.49028,12.011818 -0.24513,6.128479 -0.61284,11.276401 -0.24515,5.147922 -0.49028,8.947579 -0.12254,3.677088 0,4.780214 0.49028,6.25105 0.61285,10.90869 0.24514,4.53507 1.2257,8.4573 0.98056,3.79966 3.30937,7.47675 2.45139,3.55451 7.35417,7.84445 -4.04479,1.34826 -6.74131,-0.24514 -2.57398,-1.47084 -4.28994,-4.53508 -1.5934,-3.1868 -2.69654,-7.2316 -0.98056,-4.16737 -1.96111,-7.96702 -0.85798,-3.92223 -2.08368,-6.74133 -1.10312,-2.94167 -3.06424,-3.79966 -0.12255,0 -0.73542,0 -0.49028,-0.12256 -1.22569,-0.12256 -0.61284,0 -1.22571,0.12256 -0.61284,0 -0.85797,0 -1.10314,0.24514 -4.16737,0.98056 -2.94167,0.73542 -6.49619,1.5934 -3.55451,0.85799 -6.86389,1.71598 -3.18682,0.85799 -4.65766,1.22569 -3.06423,0.85799 -6.49618,3.92223 -3.309381,3.06424 -7.109025,7.47675 -3.677095,4.28993 -7.721887,9.43785 -3.922226,5.14792 -8.089601,10.05071 -4.167356,4.90278 -8.457296,9.07015 -4.289939,4.16736 -8.579861,6.74132 -4.289939,2.57396 -8.579879,2.8191 -4.412504,0.36771 -8.579861,-2.45139 z m 66.4327,-53.93061 q 0.24515,0.12257 1.2257,0.12257 1.10313,0 1.47084,-0.12257 2.20624,-0.36771 5.51563,-0.85799 3.30938,-0.49028 6.61874,-1.10312 3.30939,-0.73542 6.12849,-1.59341 2.81911,-0.980555 3.92223,-2.08368 0,0 0.36771,-2.573962 0.3677,-2.573961 0.85797,-6.496187 0.49028,-4.044797 0.98056,-8.825009 0.61286,-4.902783 1.10314,-9.560427 0.49028,-4.657644 0.73541,-8.57987 0.36771,-4.044797 0.49028,-6.251049 -1.34827,-0.612847 -3.55452,3.186809 -2.20626,3.677087 -5.76077,10.173275 -3.43195,6.496187 -8.4573,15.198627 -4.90278,8.57987 -11.64411,17.895153 z" stroke-miterlimit="2"/>
</g></svg>
