<?xml version="1.0" encoding="utf-8"?>
<!-- Generator: Adobe Illustrator 21.1.0, SVG Export Plug-In . SVG Version: 6.00 Build 0)  -->
<svg xmlns="http://www.w3.org/2000/svg" xmlns:xlink="http://www.w3.org/1999/xlink" version="1.1" id="Layer_1" x="0px" y="0px" viewBox="0 0 200 200" enable-background="new 0 0 200 200" xml:space="preserve">
<path fill="#f9a01e" d="M84,20.1c0.3,0,2.2,1.1,4,2.4l3.4,2.4l3.4-3.5l3.4-3.5l-4-2.8c-2.2-1.5-4.1-2.8-4.2-2.7  c-0.1,0-1.6,1.6-3.5,3.6C83.2,19.6,82.9,20.1,84,20.1z M108.6,24.8l3.4-2.4c1.9-1.3,3.7-2.4,4.1-2.4c0.3,0,0.6-0.1,0.6-0.3  c0-0.3-6.4-7.1-6.9-7.4c-0.1,0-2,1.2-4.2,2.7l-3.9,2.8l3.4,3.5L108.6,24.8z M77.5,24.7c1.2-2.1,2.2-3.9,2.4-4.1  c0.1-0.2-1.7-1-3.9-1.9c-2.2-0.9-4.3-1.7-4.6-1.8c-0.3-0.1-1.2,0.9-1.9,2.4s-1.9,3.4-2.5,4.3l-1.1,1.7l3.8,1.4  C75.5,28.8,75,29,77.5,24.7z M130.5,26.6l3.8-1.4l-1.1-1.7c-0.6-0.9-1.8-2.9-2.5-4.3c-0.7-1.4-1.5-2.5-1.7-2.5  c-0.2,0-2.1,0.8-4.2,1.7c-2.2,0.9-4.1,1.7-4.3,1.8c-0.2,0.1,0.6,2,2,4.2C125.1,29,124.5,28.8,130.5,26.6z M93.6,26.2  c0,0.3,1.4,1.9,3.2,3.5l3.2,3l3.2-3c1.8-1.6,3.2-3.2,3.2-3.5c0-0.5-5.8-6.6-6.4-6.6c-0.3,0-1.8,1.4-3.4,3  C95,24.3,93.6,25.9,93.6,26.2z M77,29.9l3,1.5c1.7,0.8,3.6,2,4.2,2.5c1,1,1,1,1.4-0.2c0.2-0.6,1.3-2.4,2.5-3.9  c1.2-1.5,2.2-2.9,2.2-3c0-0.4-7.4-5.2-8-5.2c-0.2,0-1.1,1.2-2,2.6c-0.9,1.4-2,3.3-2.5,4.2L77,29.9z M109.8,26.8c0,0.1,1,1.5,2.2,3  c1.2,1.6,2.3,3.3,2.5,3.9c0.3,1.2,0.3,1.2,1.4,0.2c0.6-0.5,2.5-1.7,4.2-2.5l3-1.5l-0.8-1.6c-1.4-2.7-4.1-6.7-4.5-6.7  c-0.3,0-2.1,1.1-4.2,2.5C111.5,25.3,109.8,26.5,109.8,26.8z M59,35.9c0.5,0.2,1.1-0.9,2.1-4c0.8-2.4,1.4-4.5,1.4-4.8  c0-0.3-1.7-0.7-3.7-1.1c-6.2-1-5.6-1.2-7.3,3.9l-1.4,4.6l4.1,0.6C56.5,35.5,58.7,35.8,59,35.9z M141,35.9c0.3-0.1,2.5-0.5,4.8-0.8  l4.1-0.6l-1.4-4.6c-1.6-5.1-1.1-4.8-7.5-3.8c-1.9,0.3-3.4,0.7-3.4,1c0.1,0.2,0.6,2.4,1.4,4.8C139.9,35,140.5,36.1,141,35.9z   M62.4,36.4c0.1,0.4,1.2,0.9,2.4,1.1c1.2,0.2,3,0.7,4.2,1.2c2,0.9,2.1,0.9,2.1,0.1c0-0.5,0.7-2.4,1.5-4.2c1.2-2.5,1.4-3.4,0.9-4  c-0.5-0.6-7.4-3.2-8.4-3.2c-0.2,0-0.9,1.9-1.7,4.1C62.7,33.8,62.2,36,62.4,36.4z M127.4,34.6c0.8,1.8,1.5,3.7,1.5,4.2  c0,0.8,0.1,0.8,2.1-0.1c1.1-0.5,3-1,4.2-1.2c1.2-0.2,2.2-0.7,2.4-1.1c0.4-1-2.2-9-2.9-8.9c-0.4,0-2.1,0.6-4,1.3  C125.6,30.5,125.5,30.6,127.4,34.6z M37.9,47.4c0.6-0.1,2.7-0.4,4.8-0.6l3.7-0.3l0.3-3.8c0.2-2.1,0.5-4.2,0.6-4.8  c0.2-0.9,0.1-1.1-0.9-1c-0.6,0.1-2.7,0.2-4.7,0.2c-2,0.1-3.7,0.4-4,0.8c-0.2,0.3-0.6,2.7-0.7,5.1C36.8,47.6,36.8,47.6,37.9,47.4z   M53.2,47c2,0,3.9,0.1,4.4,0.3c0.6,0.2,0.8,0,0.7-0.8c-0.1-0.6,0.2-2.7,0.6-4.6c0.7-4,0.7-4-3.9-4.5c-1.8-0.2-3.6-0.4-4.1-0.5  c-0.5-0.1-1,0.1-1.1,0.4c-0.6,1.6-1.1,8-0.6,8.8C49.5,46.9,50.2,47,53.2,47z M148.8,37c-0.2,0.1-1.9,0.3-3.7,0.5  c-4.7,0.4-4.7,0.5-3.9,4.5c0.4,1.9,0.6,3.8,0.6,4.4c-0.1,0.9,0.2,1,4.2,0.8c5-0.2,5.5-0.5,5.1-3.9C150.5,37.5,150.1,36.5,148.8,37z   M153.3,42.7l0.3,3.8l3.7,0.3c2.1,0.1,4.2,0.4,4.8,0.6c1.1,0.2,1.1,0.2,0.8-4.4c-0.1-2.5-0.5-4.8-0.8-5.1s-2.6-0.7-5.1-0.8  c-4.6-0.3-4.6-0.3-4.3,0.8C152.7,38.5,153,40.6,153.3,42.7z M37.5,54.9c0.4,4.7,0.5,4.7,4.5,3.9c1.9-0.4,3.8-0.6,4.4-0.6  c0.9,0.1,1-0.2,0.8-4.2c-0.1-3.2-0.4-4.4-1-4.9c-0.4-0.3-0.9-0.5-1-0.5c-0.1,0.1-1.8,0.3-3.7,0.5c-4.4,0.5-4.8,0.7-4.5,1.8  C37.1,51.3,37.3,53.1,37.5,54.9z M161.8,58.8c0.3-0.5,0.8-3.8,1.1-8c0.1-0.8-0.4-1-1.9-1.3c-4.3-0.7-6.6-0.8-7.3-0.3  c-0.4,0.3-0.7,1.9-0.9,4.8c-0.2,4.1-0.1,4.3,0.8,4.2c0.6-0.1,2.5,0.2,4.4,0.6C160.8,59.4,161.5,59.3,161.8,58.8z M29.1,62  c1-0.4,2.9-1.1,4.4-1.4c2.1-0.5,2.5-0.8,2.4-1.6c-0.1-0.5-0.4-2.7-0.7-4.9l-0.5-4l-4.3,1.3c-2.4,0.8-4.5,1.5-4.6,1.6  c-0.4,0.4,0.9,9.7,1.3,9.7C27.1,62.7,28.1,62.4,29.1,62z M164.4,60c0.3,0.1,2.2,0.7,4.3,1.3c2,0.6,3.9,1.2,4.2,1.3  c0.4,0.1,1.7-6.7,1.7-9.1c0-0.4-1.4-1-7.9-3l-1.3-0.4l-0.4,3.5c-0.2,1.9-0.5,4.1-0.8,4.8C163.9,59.4,164,59.9,164.4,60z M31.2,63.5  c-1.9,0.7-3.5,1.3-3.6,1.4c-0.3,0.4,2.4,8,3.1,8.6c0.6,0.5,1.4,0.3,4-0.9c1.8-0.8,3.7-1.5,4.2-1.5c0.8,0,0.9-0.1,0.3-1.1  c-0.3-0.6-0.9-2.5-1.4-4.3C36.8,61.8,36.3,61.7,31.2,63.5z M162.2,65.9c-0.3,1.3-0.8,3-1.3,3.8c-0.7,1.3-0.6,1.4,0.2,1.4  c0.5,0,2.4,0.7,4.2,1.5c2.5,1.2,3.4,1.4,4,0.9c0.7-0.6,3.4-8.2,3.1-8.6c-0.4-0.4-7.4-2.7-8.3-2.7c-0.4,0-1,0.3-1.1,0.6  C162.9,63.2,162.5,64.5,162.2,65.9z M20.6,79.8c2.1-0.9,7.8-4.7,7.9-5.2c0-0.3-0.2-1-0.5-1.5c-0.3-0.4-1-2.3-1.6-4.2l-1.1-3.3  l-1.8,1.1c-0.9,0.6-2.9,1.8-4.3,2.5c-1.4,0.8-2.5,1.6-2.4,1.9c0.1,0.3,0.9,2.4,1.8,4.6C19.5,78.1,20.4,79.9,20.6,79.8z M171.7,73.8  c-0.6,1-0.4,1.1,3.4,3.4c2.2,1.3,4.2,2.5,4.4,2.5c0.3,0.1,4-8.8,3.7-9c-0.1-0.1-1.4-0.9-3-1.8c-1.6-0.9-3.5-2.1-4.2-2.5l-1.2-0.8  l-1.1,3.6C172.9,71.2,172.1,73.2,171.7,73.8z M29.8,88.1c1.5-1.2,3.3-2.4,3.9-2.5c1.2-0.3,1.2-0.3,0.2-1.4c-0.5-0.6-1.7-2.5-2.5-4.2  c-0.8-1.7-1.6-3-1.7-3c0,0-1.3,0.7-2.8,1.4c-1.5,0.8-3.3,2-4.1,2.7l-1.5,1.1l2.4,3.7c1.3,2.1,2.5,3.9,2.8,4  C26.8,90.2,28.2,89.3,29.8,88.1z M170.2,88c1.6,1.2,3,2.1,3.3,1.9c0.3-0.1,1.5-2,2.8-4l2.4-3.7l-1.5-1.1c-0.8-0.6-2.7-1.9-4.2-2.7  l-2.8-1.5l-1.6,3.1c-0.8,1.7-2,3.6-2.5,4.2c-1,1-1,1,0.2,1.4C166.9,85.7,168.7,86.8,170.2,88z M17.9,98.3l3.5-3.4l3.5-3.4L22.5,88  c-1.3-1.9-2.4-3.7-2.4-4.1c0.1-1-0.6-0.6-4.2,2.9l-3.6,3.4l2.8,4.1L17.9,98.3z M179.9,83.9c-0.1,0.3-1.1,2.2-2.4,4.1l-2.4,3.4  l3.5,3.4l3.5,3.4l2.8-4.1l2.8-4l-3.5-3.3C180.5,83.3,179.9,82.9,179.9,83.9z M19.6,99.9c0,0.6,6,6.4,6.6,6.4c0.3,0,1.9-1.4,3.5-3.2  l3-3.2l-3-3.2c-1.6-1.8-3.2-3.2-3.4-3.2c-0.3,0-1.9,1.4-3.6,3C21,98.2,19.6,99.7,19.6,99.9z M180.4,100c0-0.6-6-6.3-6.6-6.3  c-0.3,0-1.9,1.4-3.5,3.2l-2.9,3.2l3,3.2c1.6,1.8,3.2,3.2,3.5,3.2C174.4,106.4,180.4,100.6,180.4,100z M20.1,116.2  c0-0.3,1.1-2.2,2.4-4.1l2.4-3.5l-3.5-3.4l-3.5-3.4l-2.8,4.1l-2.8,4l3.5,3.3C19.5,116.6,20.1,117.1,20.1,116.2z M185,105.8l-2.8-4.1  l-3.5,3.4l-3.5,3.4l2.4,3.4c1.3,1.9,2.4,3.7,2.4,4.1c0,1,0.6,0.6,4.4-2.9l3.5-3.3L185,105.8z M21.6,117.7c0,0.4,3.6,2.9,6.2,4.3  l2.1,1l1.5-3c0.8-1.7,2-3.6,2.5-4.2c1-1,1-1-0.2-1.4c-0.6-0.2-2.4-1.3-3.9-2.5c-1.5-1.2-2.9-2.2-3-2.2c-0.2,0-1.4,1.7-2.7,3.8  C22.7,115.7,21.6,117.5,21.6,117.7z M168.6,120l1.6,3.1l2.8-1.5c1.5-0.8,3.4-2,4.3-2.7l1.4-1.2l-2.4-3.8c-1.4-2.1-2.7-3.9-2.9-4  c-0.3-0.1-1.6,0.8-3,1.9c-1.3,1.1-3.1,2.2-3.8,2.5c-1.4,0.5-1.4,0.5-0.4,1.6C166.6,116.4,167.7,118.2,168.6,120z M28,126.7  c1.2-0.7,0.1-2.1-3.4-4.1c-2.1-1.2-3.9-2.2-4.1-2.4c-0.2-0.1-1.1,1.9-2.1,4.4c-1,2.5-1.7,4.6-1.6,4.7c0.1,0.1,1.4,0.9,3,1.8  c1.6,0.9,3.5,2.1,4.2,2.5l1.2,0.8l1.2-3.7C27.1,128.6,27.9,126.8,28,126.7z M179.5,120.1c-0.2,0-2.1,1.1-4.1,2.3  c-3.5,2.1-4.6,3.5-3.4,4.2c0.2,0.1,0.9,1.9,1.6,3.9l1.2,3.7l1.2-0.8c0.7-0.4,2.6-1.6,4.2-2.5c1.6-0.9,3-1.7,3-1.8  C183.4,129,179.8,120.1,179.5,120.1z M38.7,131c0.9-2,0.9-2.1-0.1-2.1c-0.5,0-2-0.5-3.3-1.2c-3.3-1.7-4.2-1.9-4.9-1.2  c-0.5,0.7-3,7.4-3,8.2c0,0.6,8.1,3.1,9,2.7c0.4-0.1,0.9-1.2,1.1-2.4C37.7,134,38.3,132.2,38.7,131z M172.6,134.8  c0-0.8-2.5-7.6-3-8.2c-0.7-0.9-0.7-0.9-4.3,0.8c-1.7,0.8-3.5,1.5-4,1.5c-0.9,0-0.9,0.1,0,2.1c0.5,1.2,1,3,1.2,4.2  c0.2,1.2,0.7,2.2,1.1,2.4C164.5,137.9,172.6,135.4,172.6,134.8z M33.5,139.4c-1.4-0.3-3.4-1-4.4-1.4c-1-0.4-2-0.7-2.1-0.7  c-0.2,0-0.7,2.1-1,4.7c-0.3,2.6-0.5,4.8-0.3,5c0.1,0.1,2.2,0.8,4.6,1.6l4.3,1.3l0.5-4c0.3-2.2,0.6-4.4,0.7-4.9  C36,140.2,35.6,140,33.5,139.4z M172.9,137.3c-0.3,0-1.3,0.3-2.2,0.7c-0.9,0.4-2.7,1-4.2,1.4c-2,0.5-2.5,0.8-2.3,1.6  c0.1,0.5,0.4,2.7,0.7,4.9l0.5,4l4.3-1.3c2.4-0.8,4.5-1.5,4.6-1.6C174.8,146.4,173.4,137.2,172.9,137.3z M46,141.7  c-0.9,0-2.6-0.2-3.8-0.5c-3.3-0.7-3.9-0.7-4.2,0.5c-0.5,2.3-1.1,8-0.8,8.3c0.5,0.6,8.1,1.3,9,0.8c0.7-0.3,0.8-1.1,0.8-4.1  c0-2,0.1-3.9,0.3-4.3C47.6,142,47.2,141.7,46,141.7z M152.9,147.1c0,2.7,0.1,3.4,0.9,3.7c0.9,0.5,8.4-0.2,9-0.8  c0.3-0.3-0.2-6-0.8-8.3c-0.3-1.2-1.2-1.3-4.2-0.5c-0.9,0.2-2.5,0.4-3.6,0.5c-1.7,0.1-1.9,0.2-1.6,1.1  C152.8,143.4,152.9,145.3,152.9,147.1z M46.8,157.3l-0.3-3.8l-3.7-0.3c-2.1-0.1-4.2-0.4-4.8-0.6c-1.1-0.3-1.1-0.2-0.8,4.3  c0.1,2.5,0.5,4.8,0.8,5.1s2.6,0.7,5.1,0.8c4.6,0.3,4.6,0.3,4.3-0.8C47.3,161.5,47,159.3,46.8,157.3z M50.8,163  c0.5-0.1,2.3-0.3,4.1-0.5c4.7-0.4,4.7-0.5,3.9-4.5c-0.4-1.9-0.6-3.9-0.6-4.5c0-0.6-0.1-1-0.5-1c-0.3,0-2.3,0.2-4.3,0.2  c-4.7,0.2-4.8,0.5-4.3,5.5C49.6,162.8,49.8,163.4,50.8,163z M145.9,152.8c-4.1-0.2-4.2-0.1-4.2,0.8c0.1,0.6-0.2,2.5-0.6,4.4  c-0.5,2.8-0.5,3.4,0.1,3.8s3.8,0.8,8,1.1c1,0.1,1.3-1,1.9-6.2C151.4,153.4,151,153.1,145.9,152.8z M162.6,152.5  c-0.4,0.1-2.5,0.3-4.8,0.6l-4.2,0.4l-0.3,3.8c-0.2,2.1-0.5,4.2-0.6,4.8c-0.3,1.1-0.2,1.1,4.3,0.8c2.5-0.1,4.8-0.5,5.1-0.8  C162.9,161.3,163.4,152.4,162.6,152.5z M72.8,165.8c-0.7-1.6-1.5-3.4-1.7-4.2c-0.3-1.3-0.3-1.3-1.5-0.7c-0.7,0.4-2.5,1-4.1,1.3  c-1.7,0.3-3,0.9-3.1,1.3c-0.3,0.8,2.2,8.9,2.7,8.9c1,0,7.9-2.6,8.4-3.2C74,168.8,73.8,168,72.8,165.8z M137.6,163.6  c-0.1-0.4-1.2-0.9-2.4-1.1c-1.2-0.2-3-0.7-4.2-1.2c-2.1-0.9-2.1-0.9-2.1-0.1c0,0.5-0.7,2.4-1.5,4.2c-1.2,2.5-1.4,3.4-0.9,4  s7.4,3.2,8.4,3.2C135.4,172.5,138,164.4,137.6,163.6z M58.3,164.2c-0.7,0.2-2.8,0.5-4.7,0.7l-3.4,0.3l1.4,4.4  c0.7,2.4,1.5,4.5,1.6,4.7c0.3,0.3,9.1-0.9,9.3-1.3c0.1-0.2-2.1-7.5-2.7-8.9C59.6,164,59,164,58.3,164.2z M141.7,164.2  c-1.3-0.4-1.4-0.3-2.8,4.1c-0.8,2.5-1.4,4.6-1.3,4.8c0.2,0.4,9,1.6,9.3,1.3c0.1-0.1,0.9-2.2,1.6-4.7l1.4-4.4l-3.4-0.3  C144.5,164.7,142.3,164.4,141.7,164.2z M90,173.5c0.1-0.2-0.5-1.5-1.5-2.7c-1-1.2-2.2-3-2.7-3.9c-0.8-1.6-0.9-1.7-1.5-0.9  c-0.4,0.4-2.2,1.6-4,2.5l-3.4,1.7l1.6,2.9c0.9,1.6,2.1,3.5,2.7,4.2l1,1.3l3.7-2.4C88,174.9,89.8,173.7,90,173.5z M123.1,170.1  l-3.1-1.6c-1.7-0.8-3.6-2-4.2-2.5c-1.1-1-1.1-1-1.4,0.2c-0.2,0.6-1.4,2.4-2.5,4c-1.2,1.5-2.1,3-1.9,3.2c0.1,0.3,2,1.5,4,2.8l3.7,2.4  l1-1.3c0.6-0.7,1.8-2.6,2.7-4.2L123.1,170.1z M106.3,173.8c0-0.4-6.6-7-6.6-6.6c0,0-1.3,1.4-3.1,3c-1.7,1.7-3,3.2-3,3.5  c0,0.6,5.8,6.6,6.4,6.6C100.5,180.4,106.3,174.3,106.3,173.8z M74.6,171.6c-0.4,0-1.3,0.3-2,0.6c-0.7,0.4-2.5,1.1-4,1.6l-2.8,0.9  l0.8,1.2c0.4,0.7,1.6,2.6,2.5,4.2c0.9,1.6,1.7,3,1.8,3c0.1,0.1,8.7-3.2,9-3.5C80.2,179.3,75.2,171.6,74.6,171.6z M122.5,175.3  c-1.2,2.1-2.2,3.9-2.4,4.1c-0.1,0.2,1.7,1,3.9,1.9c2.2,0.9,4.3,1.7,4.6,1.8c0.3,0.1,1.1-0.9,1.9-2.4c0.8-1.4,1.9-3.4,2.5-4.3  l1.1-1.7l-3.8-1.4C124.5,171.2,125,171,122.5,175.3z M91.4,175.2l-3.4,2.3c-1.9,1.3-3.7,2.4-4.1,2.4c-1,0-0.6,0.6,2.9,4.4l3.3,3.5  l4.1-2.8l4.1-2.8l-3.5-3.5L91.4,175.2z M116.1,179.9c-0.3,0-2.2-1.1-4.1-2.4l-3.5-2.4l-6.9,6.9l4.1,2.8l4.1,2.8l3.3-3.5  C116.7,180.5,117.1,179.9,116.1,179.9z"/>
<g transform="translate(30 30) scale(0.7)">
  
  <defs id="defs134315"/>
  <linearGradient id="3d_gradient2-logo-52aa3ec2-e1d7-476f-82be-95c7e152bd00" x1="30%" y1="120%" x2="-10%" y2="30%" spreadMethod="pad">
    <stop offset="0%" stop-color="#ffffff" stop-opacity="1" id="stop134292"/>
    <stop offset="100%" stop-color="#000000" stop-opacity="1" id="stop134294"/>
  </linearGradient>
  <linearGradient id="3d_gradient3-logo-52aa3ec2-e1d7-476f-82be-95c7e152bd00" x1="30%" y1="120%" x2="-10%" y2="30%" spreadMethod="pad" gradientTransform="rotate(-30)">
    <stop offset="0%" stop-color="#ffffff" stop-opacity="1" id="stop134297"/>
    <stop offset="50%" stop-color="#cccccc" stop-opacity="1" id="stop134299"/>
    <stop offset="100%" stop-color="#000000" stop-opacity="1" id="stop134301"/>
  </linearGradient>
  <path id="path134348" style="font-style:normal;font-weight:normal;font-size:72px;line-height:1;font-family:'Nothing You Could Do';font-variant-ligatures:none;text-align:center;text-anchor:middle;fill:#f9a01e;stroke:#f9a01e;stroke-width:0;stroke-linejoin:miter;stroke-miterlimit:2" d="m 46.08166,157.50618 q -0.367713,-0.24514 -1.103139,-1.22569 -0.857974,-0.85799 -1.348253,-1.83855 -0.490278,-0.98055 -0.367713,-1.71597 0,-0.73542 1.34827,-0.73542 2.573957,3.55452 7.231592,2.69653 4.657652,-0.85799 10.050713,-4.28993 5.393062,-3.30938 10.908688,-8.4573 5.638209,-5.02536 10.050714,-10.05071 4.535069,-5.02535 7.354174,-9.07015 2.94167,-4.04479 2.94167,-5.39306 0,-0.36771 -0.980557,-1.10313 -0.980556,-0.85798 -2.328826,-1.71597 -1.225705,-0.85799 -2.328826,-1.5934 -1.103122,-0.73542 -1.34827,-1.10313 0.367713,-1.2257 2.328826,-1.83854 1.961113,-0.73542 4.412505,-1.2257 2.451391,-0.61285 4.780218,-1.10313 2.451394,-0.61284 3.677074,-1.47083 6.4962,-9.437858 11.2764,-16.914601 4.90279,-7.599313 9.19273,-14.830919 4.4125,-7.354174 8.94757,-15.076056 4.53509,-7.721884 10.41843,-17.40488 1.5934,-2.69653 2.57395,-1.838544 0.98056,0.857988 1.47084,4.167365 0.49028,3.30938 0.61284,8.457302 0.12255,5.025351 0,10.908691 -0.12254,5.883339 -0.49028,12.011818 -0.24513,6.128479 -0.61284,11.276401 -0.24515,5.147922 -0.49028,8.947579 -0.12254,3.677088 0,4.780214 0.49028,6.25105 0.61285,10.90869 0.24514,4.53507 1.2257,8.4573 0.98056,3.79966 3.30937,7.47675 2.45139,3.55451 7.35417,7.84445 -4.04479,1.34826 -6.74131,-0.24514 -2.57398,-1.47084 -4.28994,-4.53508 -1.5934,-3.1868 -2.69654,-7.2316 -0.98056,-4.16737 -1.96111,-7.96702 -0.85798,-3.92223 -2.08368,-6.74133 -1.10312,-2.94167 -3.06424,-3.79966 -0.12255,0 -0.73542,0 -0.49028,-0.12256 -1.22569,-0.12256 -0.61284,0 -1.22571,0.12256 -0.61284,0 -0.85797,0 -1.10314,0.24514 -4.16737,0.98056 -2.94167,0.73542 -6.49619,1.5934 -3.55451,0.85799 -6.86389,1.71598 -3.18682,0.85799 -4.65766,1.22569 -3.06423,0.85799 -6.49618,3.92223 -3.309381,3.06424 -7.109025,7.47675 -3.677095,4.28993 -7.721887,9.43785 -3.922226,5.14792 -8.089601,10.05071 -4.167356,4.90278 -8.457296,9.07015 -4.289939,4.16736 -8.579861,6.74132 -4.289939,2.57396 -8.579879,2.8191 -4.412504,0.36771 -8.579861,-2.45139 z m 66.4327,-53.93061 q 0.24515,0.12257 1.2257,0.12257 1.10313,0 1.47084,-0.12257 2.20624,-0.36771 5.51563,-0.85799 3.30938,-0.49028 6.61874,-1.10312 3.30939,-0.73542 6.12849,-1.59341 2.81911,-0.980555 3.92223,-2.08368 0,0 0.36771,-2.573962 0.3677,-2.573961 0.85797,-6.496187 0.49028,-4.044797 0.98056,-8.825009 0.61286,-4.902783 1.10314,-9.560427 0.49028,-4.657644 0.73541,-8.57987 0.36771,-4.044797 0.49028,-6.251049 -1.34827,-0.612847 -3.55452,3.186809 -2.20626,3.677087 -5.76077,10.173275 -3.43195,6.496187 -8.4573,15.198627 -4.90278,8.57987 -11.64411,17.895153 z" stroke-miterlimit="2"/>
</g></svg>
