<?xml version="1.0" encoding="utf-8"?>
<!-- Generator: Adobe Illustrator 21.1.0, SVG Export Plug-In . SVG Version: 6.00 Build 0)  -->
<svg xmlns="http://www.w3.org/2000/svg" xmlns:xlink="http://www.w3.org/1999/xlink" version="1.1" id="Layer_1" x="0px" y="0px" viewBox="0 0 200 200" enable-background="new 0 0 200 200" xml:space="preserve">
<rect width="200" height="200" fill="#f9a01e"/><path fill="#3c1740" d="M169.8,171.6c-10.5,1.2-21.7,2.2-33.1,3.2c-11.4,0.9-23.2,1.7-35.1,2.4c-11.9,0.6-24.1,1.1-36.2,1.3  c-12.2,0.3-24.4,0.2-36.5-0.3l-0.7,0c-3.7-0.2-6.6-3.3-6.5-7.1l0,0c0.6-11.7,1.5-23.4,2.4-35.1c0.9-11.7,1.7-23.4,2-35.1  c0.3-11.7,0.2-23.4-0.1-35.1c-0.3-11.7-1.1-23.4-1.8-35.1c-0.2-2.4,1.7-4.5,4.1-4.7h0l0.6,0c11.7-0.7,23.4-1.7,35.1-2.2  c11.7-0.6,23.4-0.9,35.1-1.2c11.7-0.3,23.4-0.6,35.1-0.9c11.7-0.3,23.4-0.3,35.1-0.2l0.2,0c5,0,9,4.1,9,9.1v0  c-0.2,12.2-0.4,24.5-1,36.7l-0.8,18.2l-1.1,18c-0.3,6-0.8,11.8-1.2,17.7c-0.4,5.9-0.9,11.6-1.4,17.3  C171.9,149.8,170.9,160.9,169.8,171.6z M168.6,170.4l-3-37l-1.4-17.8c-0.4-5.9-0.9-11.7-1.2-17.4L161.9,81l-0.8-16.9  c-0.6-11.2-0.8-22.4-1-33.6l9.2,9.2c-11.7,0.1-23.4,0.1-35.1-0.2c-11.7-0.2-23.4-0.5-35.1-0.9c-11.7-0.3-23.4-0.6-35.1-1.2  c-11.7-0.5-23.4-1.5-35.1-2.2l4.7-4.7C32.7,42.3,32,54,31.7,65.7c-0.3,11.7-0.4,23.4-0.1,35.1c0.3,11.7,1.1,23.4,2,35.1  c0.9,11.7,1.8,23.4,2.4,35.1l-7.2-7.2c11.3-0.6,22.4-0.6,33.7-0.3c11.2,0.2,22.5,0.7,34,1.3c11.5,0.6,23.1,1.4,35.1,2.4  C143.5,168.2,155.8,169.2,168.6,170.4z"/>
<g transform="translate(30 30) scale(0.7)"><path d="m143.24 40c-0.56687 0.01534-1.2482 0.69666-2.0449 2.0449-3.9222 6.4553-7.3946 12.258-10.418 17.406-3.0234 5.1479-6.0056 10.173-8.9473 15.076-2.86 4.8211-5.9248 9.7639-9.1934 14.83-3.1868 4.9845-6.9446 10.622-11.275 16.914-0.81713 0.572-2.0435 1.0621-3.6777 1.4707-1.5525 0.32685-3.147 0.69494-4.7812 1.1035-1.6343 0.32686-3.1047 0.73628-4.4121 1.2266-1.3074 0.40857-2.083 1.0208-2.3281 1.8379 0.16344 0.24514 0.61224 0.61322 1.3477 1.1035 0.73542 0.49028 1.5129 1.0218 2.3301 1.5938 0.89884 0.572 1.6744 1.1429 2.3281 1.7148 0.6537 0.49027 0.98047 0.85838 0.98047 1.1035 0 0.89885-0.9803 2.6961-2.9414 5.3926-1.8794 2.6965-4.3321 5.7201-7.3555 9.0703-2.9417 3.3502-6.29 6.7006-10.049 10.051-3.6771 3.4319-7.3148 6.2508-10.91 8.457-3.5954 2.288-6.9457 3.719-10.051 4.291-3.1051 0.57199-5.5145-0.32757-7.2305-2.6973-0.89885 0-1.3496 0.24604-1.3496 0.73632-0.08167 0.49028 0.04227 1.0612 0.36914 1.7148 0.32685 0.65371 0.77567 1.2679 1.3476 1.8398 0.49029 0.65369 0.85838 1.0612 1.1035 1.2246 2.7782 1.8794 5.6384 2.6963 8.5801 2.4512 2.86-0.16343 5.7201-1.1024 8.5801-2.8184 2.8599-1.716 5.7182-3.9639 8.5781-6.7422 2.86-2.7782 5.6807-5.8018 8.459-9.0703 2.7782-3.2685 5.4731-6.6188 8.0879-10.051 2.6965-3.432 5.2713-6.5776 7.7227-9.4375 2.5331-2.9417 4.9031-5.4337 7.1094-7.4766 2.288-2.0428 4.4533-3.3499 6.4961-3.9219 0.98057-0.24513 2.5337-0.65456 4.6582-1.2266 2.2062-0.572 4.4936-1.1428 6.8633-1.7148 2.3697-0.57199 4.535-1.1035 6.4961-1.5937 2.0428-0.49028 3.4325-0.81706 4.168-0.98047h0.85742c0.40858-0.0817 0.81801-0.12306 1.2266-0.12306 0.49028 0 0.89777 0.0413 1.2246 0.12306h0.73633c1.3074 0.57199 2.329 1.8377 3.0644 3.7988 0.81714 1.8794 1.51 4.1274 2.082 6.7422 0.65369 2.5331 1.3072 5.1886 1.9609 7.9668 0.73543 2.6965 1.635 5.1079 2.6973 7.2324 1.144 2.0428 2.575 3.5546 4.291 4.5352 1.7977 1.0623 4.0437 1.143 6.7402 0.24415-3.2685-2.86-5.7193-5.4741-7.3535-7.8438-1.5525-2.4514-2.6568-4.9435-3.3105-7.4766-0.65372-2.6148-1.0612-5.4337-1.2246-8.457-0.0817-3.1051-0.28643-6.7428-0.61328-10.91-0.0817-0.73542-0.0817-2.3279 0-4.7793 0.16341-2.5331 0.3268-5.5153 0.49024-8.9473 0.24513-3.4319 0.44985-7.1917 0.61327-11.277 0.24515-4.0857 0.40854-8.0895 0.49024-12.012 0.0817-3.9222 0.0817-7.558 0-10.908-0.0817-3.4319-0.28642-6.2508-0.61329-8.457-0.32685-2.2062-0.81699-3.596-1.4707-4.168-0.16342-0.143-0.34032-0.21214-0.5293-0.20703zm-1.6602 15.566c0.12129 0.0052 0.2392 0.03295 0.35156 0.08402-0.0817 1.4708-0.24509 3.5554-0.49023 6.252-0.16342 2.6148-0.40947 5.475-0.73633 8.5801-0.32685 3.1051-0.69493 6.292-1.1035 9.5605-0.32685 3.1868-0.65361 6.1277-0.98047 8.8242-0.32685 2.6148-0.61228 4.7801-0.85742 6.4961l-0.36719 2.5742c-0.73541 0.73542-2.0425 1.4303-3.9219 2.084-1.8794 0.572-3.9226 1.1035-6.1289 1.5938-2.2062 0.40859-4.4129 0.77471-6.6191 1.1016-2.2062 0.32686-4.0448 0.61423-5.5156 0.85937-0.24514 0.0817-0.73529 0.1211-1.4707 0.1211-0.65369 0-1.0631-0.0394-1.2266-0.1211v-1.4707c4.4942-6.2102 8.376-12.177 11.645-17.896 3.3502-5.8016 6.1691-10.866 8.457-15.197 2.3697-4.3308 4.2909-7.7224 5.7617-10.174 1.287-2.2165 2.3541-3.3072 3.2031-3.2715z" fill="#3c1740"/></g></svg>
