<?xml version="1.0" encoding="utf-8"?>
<!-- Generator: Adobe Illustrator 21.1.0, SVG Export Plug-In . SVG Version: 6.00 Build 0)  -->
<svg xmlns="http://www.w3.org/2000/svg" xmlns:xlink="http://www.w3.org/1999/xlink" version="1.1" id="Layer_1" x="0px" y="0px" viewBox="0 0 200 200" enable-background="new 0 0 200 200" xml:space="preserve">
<path fill="#f9a01e" d="M196.9,106.3l-0.1-0.1c-3.2-3.9-7.9-6.2-12.9-6.2c-1.3,0-2.6,0.2-3.9,0.5c1-2,1.9-4.1,2.8-6.2  c3.2-3,5.1-7,5.5-11.4c0.3-4.6-1.1-9-4-12.5l-0.1-0.1c-0.9-1-2.3-1.1-3.3-0.2l-0.1,0.1c-3.4,3-5.5,7.2-5.8,11.8  c-0.3,4.1,0.8,8.2,3.2,11.5c-3.5,8.8-8.8,16.2-15,22c1.4-5.4,2.2-11.2,2.2-17.1c0-0.1,0-0.2,0-0.4c3.9-8.2,5.4-17.3,4.4-26.5  c8.3-1.4,14.5-9,14.1-17.8v-0.1c-0.1-1.3-1.1-2.3-2.5-2.3h-0.2c-6.1,0.3-11.2,3.8-14,8.9c-0.3-1.1-0.7-2.1-1.1-3.2  c-0.9-2.3-2-4.5-3.2-6.7c7.6-2.9,12.2-11,10.7-19.3l0-0.1c-0.2-1.3-1.5-2.2-2.8-1.9l-0.1,0c-4.4,0.8-8.3,3.4-10.8,7.2  c-1.2,1.8-2,3.7-2.5,5.8c-2.2-2.8-4.6-5.4-7.3-7.9c6-5.7,7.1-15.2,2.3-22.3l-0.1-0.1c-0.3-0.5-0.9-0.9-1.5-1c-0.6-0.1-1.3,0-1.8,0.4  l-0.1,0.1c-3.7,2.6-6.2,6.5-7,11.1c-0.3,1.8-0.4,3.7-0.1,5.5c-1.9-1.2-3.8-2.4-5.8-3.4c-3.2-4.3-8.2-6.9-13.5-6.9  c-3.5,0-6.9,1.1-9.7,3.2l-0.1,0.1c-1.1,0.8-1.3,2.3-0.6,3.4L112,24c3.1,4.6,8.3,7.3,13.8,7.3c3.1,0,6-0.8,8.6-2.4  c2.5,1.4,4.9,2.9,7.2,4.5c-4.1,0.9-7.6,3.3-9.9,6.7c-9.4-5.3-20.2-8.4-31.6-8.4s-22.3,3-31.6,8.4c-2.4-3.4-5.9-5.8-9.9-6.7  c2.3-1.7,4.7-3.2,7.2-4.5c2.6,1.6,5.6,2.4,8.6,2.4l0,0c5.5,0,10.6-2.7,13.8-7.3l0.1-0.1c0.7-1.1,0.5-2.6-0.6-3.4l-0.1-0.1  c-2.9-2.1-6.2-3.2-9.7-3.2c-5.3,0-10.3,2.6-13.5,6.9c-2,1.1-3.9,2.2-5.8,3.4c0.2-1.8,0.2-3.6-0.1-5.5c-0.8-4.5-3.3-8.5-7-11.1  l-0.1-0.1c-0.5-0.4-1.1-0.5-1.8-0.4c-0.6,0.1-1.2,0.5-1.5,1l-0.1,0.1c-2.6,3.8-3.5,8.4-2.7,12.9c0.7,3.7,2.4,6.9,5,9.4  c-2.7,2.4-5.1,5.1-7.3,7.9c-0.5-2.1-1.3-4-2.5-5.8c-2.5-3.8-6.4-6.3-10.8-7.2l-0.1,0c-1.3-0.2-2.5,0.6-2.8,1.9l0,0.1  c-0.8,4.5,0.1,9.1,2.7,12.9c2,3,4.8,5.2,8.1,6.4c-1.8,3.2-3.2,6.5-4.3,9.9c-0.6-1.2-1.4-2.3-2.3-3.3c-3-3.4-7.2-5.4-11.7-5.6h-0.1  c-1.3-0.1-2.4,1-2.5,2.3v0.1c-0.4,8.8,5.8,16.4,14.1,17.8c-1,9,0.3,18.1,4.3,26.5c0,0.1,0,0.2,0,0.4c0,5.9,0.8,11.7,2.2,17.1  c-6.4-6-11.5-13.5-15-22.1c5.1-7.2,4.1-17.3-2.6-23.2L19.2,70c-0.5-0.4-1.1-0.6-1.7-0.6c-0.6,0.1-1.2,0.4-1.6,0.8l-0.1,0.1  c-2.9,3.5-4.4,7.9-4,12.5c0.3,4.4,2.3,8.5,5.5,11.4c0.8,2.2,1.8,4.2,2.8,6.2c-1.3-0.3-2.6-0.5-3.9-0.5c-5,0-9.7,2.2-12.9,6.2  l-0.1,0.1c-0.4,0.5-0.6,1.1-0.6,1.8s0.3,1.2,0.9,1.6l0.1,0.1c3,2.6,6.9,4,10.8,4l0,0c4.1,0,8.1-1.6,11.1-4.3  c4,5.6,8.9,10.5,14.3,14.4c1.5,3.6,3.3,7.1,5.3,10.3c-2.7,3.5-3.9,8-3.4,12.5c-2.3-1.6-4.5-3.4-6.6-5.4c0.8-4,0.2-8.2-1.8-11.8  c-2.2-4-5.8-6.9-10.1-8.2l-0.1,0c-1.3-0.4-2.6,0.4-2.9,1.7l0,0.1c-1.2,4.4-0.7,9.1,1.5,13.1c2.1,3.9,5.5,6.7,9.7,8  c1.7,1.6,3.4,3.1,5.1,4.5c-6.1,1.3-11.2,6-12.9,12.4l0,0.1c-0.3,1.3,0.4,2.6,1.7,3l0.1,0c1.4,0.4,2.9,0.6,4.4,0.6l0,0  c6.7,0,12.8-4.1,15.4-10.3c3.2,1.8,6.5,3.2,9.8,4.4c-5.5,3.6-8.7,10.2-7.6,17.2l0,0.1c0.2,1.2,1.2,2,2.3,2c0.1,0,0.2,0,0.4,0l0.1,0  c4.5-0.7,8.4-3.2,11-6.9c2.1-2.9,3.2-6.4,3.3-9.9c3.3,0.6,6.6,0.9,9.9,0.9c0.2,0,0.5,0,0.7,0c-0.9,1-1.7,2.1-2.3,3.3  c-2.1,4.1-2.6,8.7-1.3,13.1l0.1,0.1c0.3,1,1.3,1.7,2.3,1.7c0.2,0,0.5,0,0.7-0.1l0.1-0.1c4.3-1.3,7.9-4.3,10-8.4  c1.4-2.7,2.1-5.7,2-8.7c3.3,0.7,6.7,1.2,10.2,1.4l-2.3,3.3c-4.4,6.3-4.4,16.2,0,22.6c0.7,1.1,2.2,1.4,3.3,0.6  c1.1-0.8,1.3-2.3,0.6-3.4c-3.2-4.6-3.2-12.4,0-17l1.5-2.3l1.5,2.3c3.2,4.6,3.2,12.4,0,17c-0.7,1.1-0.5,2.6,0.6,3.4  c0.4,0.3,0.9,0.4,1.4,0.4c0.7,0,1.5-0.4,1.9-1c4.4-6.3,4.4-16.2,0-22.6l-2.3-3.3c3.6-0.2,7.1-0.6,10.5-1.4c-0.1,3,0.6,6,2,8.7  c2.1,4.1,5.7,7,10,8.4l0.1,0.1c0.2,0.1,0.5,0.1,0.7,0.1c1,0,2-0.7,2.3-1.7l0.1-0.1c1.8-5.9,0.2-12.1-3.6-16.4c0.2,0,0.5,0,0.7,0  c3.3,0,6.6-0.3,9.9-0.9c0.1,3.5,1.1,7,3.3,9.9c2.7,3.7,6.6,6.2,11,6.9l0.1,0c0.1,0,0.2,0,0.4,0c0.5,0,1-0.2,1.4-0.5  c0.5-0.4,0.9-1,0.9-1.6l0-0.2c1.1-6.9-2.1-13.6-7.6-17.2c3.3-1.2,6.6-2.6,9.8-4.4c2.7,6.2,8.7,10.3,15.4,10.3c1.5,0,3-0.2,4.4-0.6  l0.1,0c1.3-0.4,2-1.7,1.7-3l0-0.1c-1.7-6.4-6.7-11.1-12.9-12.4c1.8-1.4,3.5-2.9,5.1-4.5c4.1-1.3,7.5-4.1,9.7-8  c2.2-4,2.7-8.7,1.5-13.1l0-0.1c-0.3-1.3-1.7-2-2.9-1.7l-0.1,0.1c-4.3,1.3-7.9,4.1-10.1,8.2c-2,3.6-2.6,7.8-1.8,11.8  c-2.1,2-4.3,3.8-6.6,5.4c0.2-2.2,0.1-4.4-0.5-6.6c-0.6-2.2-1.6-4.1-2.9-5.9c2.1-3.3,3.9-6.7,5.3-10.4c5.3-3.8,10.2-8.7,14.3-14.3  c3.1,2.7,7,4.3,11.1,4.3c3.9,0,7.8-1.4,10.8-4l0.1-0.1c0.5-0.4,0.8-1,0.8-1.6C197.5,107.5,197.3,106.8,196.9,106.3z M178.9,56.4  c-0.7,4.8-4.3,8.8-9,10C170.7,61.6,174.2,57.7,178.9,56.4z M125.8,26.4c-3.1,0-6.1-1.2-8.3-3.3c1.5-0.7,3.1-1,4.8-1  c3.1,0,6.1,1.2,8.3,3.3C129.1,26.1,127.5,26.4,125.8,26.4z M77.7,22.1c1.7,0,3.3,0.4,4.8,1c-2.2,2.1-5.2,3.3-8.3,3.3  c-1.7,0-3.3-0.4-4.8-1C71.7,23.3,74.6,22.1,77.7,22.1z M21.2,56.4c2.3,0.6,4.3,1.9,5.9,3.7c1.6,1.8,2.6,4,3,6.4  C25.5,65.2,21.9,61.3,21.2,56.4z M19,89.1c-1.4-1.9-2.3-4.2-2.5-6.6c-0.2-2.4,0.3-4.8,1.5-6.9C20.9,79.5,21.3,84.8,19,89.1z   M14.4,109c-2,0-4-0.5-5.7-1.5c2.1-1.7,4.7-2.7,7.5-2.7c2,0,4,0.5,5.7,1.5C19.8,108.1,17.1,109,14.4,109z M30.8,138.9  c-2.1-1.1-3.8-2.8-5-5c-1.2-2.2-1.7-4.5-1.5-6.9c2.1,1.1,3.8,2.8,5,5C30.4,134.1,30.9,136.5,30.8,138.9z M29.7,160  c-0.2,0-0.5,0-0.7,0c2.1-4.3,6.7-7.1,11.5-6.8C38.5,157.4,34.3,160,29.7,160z M170.8,132c1.2-2.2,2.9-3.8,5-5  c0.2,2.4-0.3,4.8-1.5,6.9c-1.2,2.2-2.9,3.8-5,4.9C169.1,136.5,169.7,134.1,170.8,132z M171.1,160c-0.2,0-0.5,0-0.7,0  c-4.6,0-8.8-2.7-10.8-6.8C164.4,153,168.9,155.7,171.1,160z M164.2,86.4c-0.6-3.6-1.5-7-2.7-10.3c1.3-0.6,2.5-1.3,3.6-2.2  C165.4,78.1,165.1,82.3,164.2,86.4z M158.3,68.3C158.3,68.3,158.3,68.3,158.3,68.3c1.7,0,3.2,0.3,4.7,1c-0.9,0.9-2,1.7-3.2,2.3  C159.3,70.5,158.8,69.4,158.3,68.3z M169.1,34.4c-0.1,4.9-3.1,9.3-7.5,11.2C161.7,40.6,164.6,36.2,169.1,34.4z M146.4,22.9  c0.4-2.4,1.5-4.6,3.1-6.3c1.9,4.5,0.9,9.8-2.4,13.4C146.3,27.8,146,25.4,146.4,22.9z M149.2,39.9c5.4,5.5,9.6,11.8,12.4,18.8  c0.7,1.9,1.4,3.7,1.9,5.6c-1.7-0.5-3.4-0.8-5.1-0.8c-0.9,0-1.7,0.1-2.6,0.2c-3.6-6-8-11.3-13.2-15.9C145.5,46,147.8,43.3,149.2,39.9  z M145,37.8c-1.2,3.1-3.5,5.5-6.5,6.8c-0.9-0.7-1.8-1.3-2.8-2C137.9,39.7,141.3,37.9,145,37.8z M160.5,98.3  c0,34-27.1,61.8-60.5,61.8s-60.5-27.7-60.5-61.8S66.7,36.6,100,36.6S160.5,64.3,160.5,98.3z M40.3,71.6c-1.2-0.6-2.3-1.3-3.2-2.3  c1.5-0.6,3-1,4.6-1c0,0,0,0,0.1,0C41.3,69.4,40.8,70.5,40.3,71.6z M64.3,42.6c-0.9,0.6-1.9,1.3-2.8,2c-2.9-1.3-5.3-3.7-6.5-6.8  C58.8,37.9,62.2,39.7,64.3,42.6z M49.7,23.7c-0.4-2.4-0.2-4.8,0.7-7c1.6,1.7,2.7,3.9,3.2,6.3c0.4,2.4,0.2,4.8-0.7,7  C51.3,28.3,50.2,26.1,49.7,23.7z M33.1,41.1c-1.4-2-2.1-4.4-2.1-6.8c2.2,0.9,4.1,2.4,5.4,4.5c1.4,2,2.1,4.4,2.1,6.8  C36.3,44.7,34.4,43.1,33.1,41.1z M50.9,39.9c1.4,3.3,3.7,6.1,6.6,7.9c-5.2,4.5-9.6,9.9-13.2,15.9c-0.9-0.1-1.7-0.2-2.6-0.2  c-1.8,0-3.5,0.3-5.1,0.8C39,55.5,43.9,47,50.9,39.9z M35,73.8c1.1,0.9,2.3,1.6,3.6,2.2c-1.2,3.3-2.1,6.8-2.7,10.3  C35,82.3,34.7,78,35,73.8z M47,148.5c-1-3.4-0.6-7,1.1-10c0.9,1.2,1.8,2.3,2.7,3.4C50.2,144.5,48.9,146.8,47,148.5z M57.4,168.6  c-1.4,2-3.3,3.5-5.5,4.3c0.2-4.9,3.3-9.3,7.8-11C59.6,164.3,58.8,166.6,57.4,168.6z M75.5,175c-0.2-2.4,0.3-4.8,1.4-6.9  c1.1-2.2,2.8-3.9,4.9-5C82.2,167.9,79.7,172.6,75.5,175z M50.4,151.9c1.8-1.7,3.2-3.7,4.1-5.9c4.5,4.5,9.7,8.4,15.4,11.4  C63.4,156.8,56.7,155,50.4,151.9z M124.6,175c-2.1-1.1-3.8-2.9-4.9-5c-1.1-2.2-1.6-4.5-1.4-6.9C122.5,165.3,125,170.1,124.6,175z   M148.2,172.9c-2.2-0.8-4.1-2.3-5.5-4.3c-1.4-2-2.2-4.3-2.3-6.7C144.9,163.6,148,168,148.2,172.9z M130.2,157.4  c5.7-3,10.9-6.9,15.4-11.4c0.9,2.2,2.3,4.3,4.1,5.9C143.4,155,136.7,156.8,130.2,157.4z M153.2,141.4c0.6,2.4,0.6,4.8-0.1,7.1  c-2-1.7-3.3-4.1-3.8-6.6c1-1.1,1.9-2.3,2.7-3.4C152.5,139.4,152.9,140.4,153.2,141.4z M179.6,82.2c0.2-2.4,1-4.7,2.5-6.6  c1.1,2.1,1.7,4.5,1.5,6.9c-0.2,2.4-1,4.7-2.5,6.6C179.9,87,179.4,84.7,179.6,82.2z M185.7,109c-2.8,0-5.4-1-7.5-2.7  c1.8-1,3.7-1.5,5.7-1.5c2.8,0,5.4,1,7.5,2.7C189.7,108.5,187.7,109,185.7,109z"/>
<g transform="translate(30 30) scale(0.7)"><path d="m143.24 40c-0.56687 0.01534-1.2482 0.69666-2.0449 2.0449-3.9222 6.4553-7.3946 12.258-10.418 17.406-3.0234 5.1479-6.0056 10.173-8.9473 15.076-2.86 4.8211-5.9248 9.7639-9.1934 14.83-3.1868 4.9845-6.9446 10.622-11.275 16.914-0.81713 0.572-2.0435 1.0621-3.6777 1.4707-1.5525 0.32685-3.147 0.69494-4.7812 1.1035-1.6343 0.32686-3.1047 0.73628-4.4121 1.2266-1.3074 0.40857-2.083 1.0208-2.3281 1.8379 0.16344 0.24514 0.61224 0.61322 1.3477 1.1035 0.73542 0.49028 1.5129 1.0218 2.3301 1.5938 0.89884 0.572 1.6744 1.1429 2.3281 1.7148 0.6537 0.49027 0.98047 0.85838 0.98047 1.1035 0 0.89885-0.9803 2.6961-2.9414 5.3926-1.8794 2.6965-4.3321 5.7201-7.3555 9.0703-2.9417 3.3502-6.29 6.7006-10.049 10.051-3.6771 3.4319-7.3148 6.2508-10.91 8.457-3.5954 2.288-6.9457 3.719-10.051 4.291-3.1051 0.57199-5.5145-0.32757-7.2305-2.6973-0.89885 0-1.3496 0.24604-1.3496 0.73632-0.08167 0.49028 0.04227 1.0612 0.36914 1.7148 0.32685 0.65371 0.77567 1.2679 1.3476 1.8398 0.49029 0.65369 0.85838 1.0612 1.1035 1.2246 2.7782 1.8794 5.6384 2.6963 8.5801 2.4512 2.86-0.16343 5.7201-1.1024 8.5801-2.8184 2.8599-1.716 5.7182-3.9639 8.5781-6.7422 2.86-2.7782 5.6807-5.8018 8.459-9.0703 2.7782-3.2685 5.4731-6.6188 8.0879-10.051 2.6965-3.432 5.2713-6.5776 7.7227-9.4375 2.5331-2.9417 4.9031-5.4337 7.1094-7.4766 2.288-2.0428 4.4533-3.3499 6.4961-3.9219 0.98057-0.24513 2.5337-0.65456 4.6582-1.2266 2.2062-0.572 4.4936-1.1428 6.8633-1.7148 2.3697-0.57199 4.535-1.1035 6.4961-1.5937 2.0428-0.49028 3.4325-0.81706 4.168-0.98047h0.85742c0.40858-0.0817 0.81801-0.12306 1.2266-0.12306 0.49028 0 0.89777 0.0413 1.2246 0.12306h0.73633c1.3074 0.57199 2.329 1.8377 3.0644 3.7988 0.81714 1.8794 1.51 4.1274 2.082 6.7422 0.65369 2.5331 1.3072 5.1886 1.9609 7.9668 0.73543 2.6965 1.635 5.1079 2.6973 7.2324 1.144 2.0428 2.575 3.5546 4.291 4.5352 1.7977 1.0623 4.0437 1.143 6.7402 0.24415-3.2685-2.86-5.7193-5.4741-7.3535-7.8438-1.5525-2.4514-2.6568-4.9435-3.3105-7.4766-0.65372-2.6148-1.0612-5.4337-1.2246-8.457-0.0817-3.1051-0.28643-6.7428-0.61328-10.91-0.0817-0.73542-0.0817-2.3279 0-4.7793 0.16341-2.5331 0.3268-5.5153 0.49024-8.9473 0.24513-3.4319 0.44985-7.1917 0.61327-11.277 0.24515-4.0857 0.40854-8.0895 0.49024-12.012 0.0817-3.9222 0.0817-7.558 0-10.908-0.0817-3.4319-0.28642-6.2508-0.61329-8.457-0.32685-2.2062-0.81699-3.596-1.4707-4.168-0.16342-0.143-0.34032-0.21214-0.5293-0.20703zm-1.6602 15.566c0.12129 0.0052 0.2392 0.03295 0.35156 0.08402-0.0817 1.4708-0.24509 3.5554-0.49023 6.252-0.16342 2.6148-0.40947 5.475-0.73633 8.5801-0.32685 3.1051-0.69493 6.292-1.1035 9.5605-0.32685 3.1868-0.65361 6.1277-0.98047 8.8242-0.32685 2.6148-0.61228 4.7801-0.85742 6.4961l-0.36719 2.5742c-0.73541 0.73542-2.0425 1.4303-3.9219 2.084-1.8794 0.572-3.9226 1.1035-6.1289 1.5938-2.2062 0.40859-4.4129 0.77471-6.6191 1.1016-2.2062 0.32686-4.0448 0.61423-5.5156 0.85937-0.24514 0.0817-0.73529 0.1211-1.4707 0.1211-0.65369 0-1.0631-0.0394-1.2266-0.1211v-1.4707c4.4942-6.2102 8.376-12.177 11.645-17.896 3.3502-5.8016 6.1691-10.866 8.457-15.197 2.3697-4.3308 4.2909-7.7224 5.7617-10.174 1.287-2.2165 2.3541-3.3072 3.2031-3.2715z" fill="#a8652c"/></g></svg>
