<?xml version="1.0" encoding="utf-8"?>
<!-- Generator: Adobe Illustrator 21.1.0, SVG Export Plug-In . SVG Version: 6.00 Build 0)  -->
<svg xmlns="http://www.w3.org/2000/svg" xmlns:xlink="http://www.w3.org/1999/xlink" version="1.1" id="Layer_1" x="0px" y="0px" viewBox="0 0 200 200" enable-background="new 0 0 200 200" xml:space="preserve">
<rect width="200" height="200" fill="#3c1740"/><path fill="#f9a01e" d="M27.2,125.3l1.9,2.4l-1-3.1C27.9,123.1,26.2,124.8,27.2,125.3 M29.4,123.8c0.7,1.2,1.5,2.4,1.5,3.6  c0,1.7,1.5,2.4,2.7,2.9C31.8,128.4,30.8,123.1,29.4,123.8 M122.3,21.2c4.1,0,8-0.5,12.3,0.5c10.6,2.7,19.6,8,25.7,15.5l16.9,27.1  c0.7,6.8,2.2,14.3,1.9,22.5c1.7,0,1.5-2.4,3.4-2.9c-1.9,4.8-2.9,10.9-3.4,17.9c-1.2-3.9,0-9.7,0.2-12.8c-1.7,2.7-2.7,0.7-2.7-0.5  c0.2-1.9-0.7-1.7-1.5-2.4c-2.7-2.4-4.4-5.1-6.3-9.2c1.2-3.1,1.5-7.7-2.4-10.2c-1.2-0.7-2.7-1.9-3.4-3.9c-1-2.7-2.7-5.8-2.2-9.9  c0.2-1.2-3.6,2.7-5.8,1c-9.4-6.5-18.9-14-30.3-20.3c-6.1,0-10.4-2.2-12.6-4.8c-1.9-2.4-0.5-5.6,2.4-5.8c1.7,0,3.6-0.5,5.1,0.5  C120.1,22.4,121.1,21.2,122.3,21.2 M98.4,15.7l0.5,0.2c2.4,0.5,3.6,3.9,6.3,2.7c0,1.7,0.2,3.4-0.2,4.6c-0.7,1.9-2.9,1.9-4.6,1.9  c-16.2-1-25.7,5.8-35.6,11.6c-2.7,1.7-5.6,2.9-7.7,5.1c-10.4,9.7-21.8,18.6-24.4,36.5l-2.2,19.8c-0.2,2.2-2.7,4.4-2.2,7l1.7,11.9  c-1.7-1.7-2.7,0.5-2.2,1.5c0.2,0.7,1.2,3.1,2.7,1c1.9,3.6,3.9,10.6,6.5,13.8c8.2,9.7,18.9,18.4,27.6,27.1c2.2-0.5,3.9-0.5,4.4-1.9  c0.7,1.5-0.7,2.9-1.9,3.1c3.9,2.4,8.2,4.6,14,5.1c7.5,0.5,14.5,1.7,21.1,3.4c3.4-1,6.8-1.5,10.4-1.7c1.2,0,1.9-1.9,3.4-2.4l0.2-2.4  c1.5,2.2,1.2-0.7,0.2-2.2c1.7,1.5,2.2,2.7,2.9,3.6c0-0.7,1.9-3.4,1.9-0.2l0.5-3.1c0.7-0.5,1,2.7,1.7,0.5s2.2-0.5,3.6-1.2  c-0.5,1-0.2,2.9,1.5,1.7l1.9-1.7c1.2,2.9,3.1,1.7,4.1,1.2c10.6-6.8,21.3-14.8,31.5-22.7l-0.2,3.1l1.2-3.9c1.2,1.2,2.2,0.2,2.7-0.5  c1.5-2.4,3.4-4.8,6.5-7c-3.9,10.4-8.5,18.6-14.3,25.4l-2.4,2.9c0,1.7-0.5,3.9-2.4,4.1c-1,0.2-2.9-0.5-4.4,1c-0.7,1,1.7,2.9-0.2,1.5  c-1.7-1.2-3.4,0-5.3,0.5c-1.5,0.5,1,1.9,1.5,2.9c0.5,1,1,1.9,0.7,3.1l-2.7-2.9c-3.1,1.7-5.1,4.8-7.7,7.3c-1.2,1-0.7,2.7-0.7,4.1  c-1.7,0-3.6-0.5-4.6,0.5c-0.7,1-0.5,2.4-0.5,3.9c-2.4-0.2-2.7-3.9-4.8-3.1c-2.2,0.5-4.6,0.7-6.5,1.9c1.5,2.9-2.4,1.2-1.9,1.7  c-3.6-2.2-6.8-3.9-10.6-2.4c-8.2-2.7-18.4-1.5-25.9-0.5c0-1.2,0.2-2.4-0.2-2.7c-0.5,1.2-1.9,0.7-1.7,0.7c-4.6-3.1-9.2-5.1-14-7.7  c-4.4,0.5-8.5-1.7-9.7-2.9c-3.4-3.1-7.3-1.5-10.4-2.2c-6.8-1.7-9.2-8.7-9.9-13.6c-0.5-2.4-2.4-3.4-3.1-3.1  c-3.1-10.2-8-19.4-11.9-28.8c-1-2.4-0.7-4.8-0.7-7.5c1.2,0.5,2.4,0.2,2.2-1.5c-1.2-8-4.1-14-7.3-19.8c1.7-8.2,1.9-17.9,5.8-25.2  c3.4-6.5,9.7-9.9,14-15.5c1.5-1.9,1.5-4.6,2.9-6.3c4.8-4.8,9.7-9.9,15-14.3c2.4-1.9,5.3,0,9-0.7c1.2-4.4,6.1-8.2,10.6-7  c1.9,0.5,5.8-4.6,7-5.1c1.9-0.7,1,1.9,1,3.6C86.3,19.8,92.6,17.8,98.4,15.7"/>
<g transform="translate(30 30) scale(0.7)">
  
  <defs id="defs134315"/>
  <linearGradient id="3d_gradient2-logo-52aa3ec2-e1d7-476f-82be-95c7e152bd00" x1="30%" y1="120%" x2="-10%" y2="30%" spreadMethod="pad">
    <stop offset="0%" stop-color="#ffffff" stop-opacity="1" id="stop134292"/>
    <stop offset="100%" stop-color="#000000" stop-opacity="1" id="stop134294"/>
  </linearGradient>
  <linearGradient id="3d_gradient3-logo-52aa3ec2-e1d7-476f-82be-95c7e152bd00" x1="30%" y1="120%" x2="-10%" y2="30%" spreadMethod="pad" gradientTransform="rotate(-30)">
    <stop offset="0%" stop-color="#ffffff" stop-opacity="1" id="stop134297"/>
    <stop offset="50%" stop-color="#cccccc" stop-opacity="1" id="stop134299"/>
    <stop offset="100%" stop-color="#000000" stop-opacity="1" id="stop134301"/>
  </linearGradient>
  <path id="path134348" style="font-style:normal;font-weight:normal;font-size:72px;line-height:1;font-family:'Nothing You Could Do';font-variant-ligatures:none;text-align:center;text-anchor:middle;fill:#f9a01e;stroke:#f9a01e;stroke-width:0;stroke-linejoin:miter;stroke-miterlimit:2" d="m 46.08166,157.50618 q -0.367713,-0.24514 -1.103139,-1.22569 -0.857974,-0.85799 -1.348253,-1.83855 -0.490278,-0.98055 -0.367713,-1.71597 0,-0.73542 1.34827,-0.73542 2.573957,3.55452 7.231592,2.69653 4.657652,-0.85799 10.050713,-4.28993 5.393062,-3.30938 10.908688,-8.4573 5.638209,-5.02536 10.050714,-10.05071 4.535069,-5.02535 7.354174,-9.07015 2.94167,-4.04479 2.94167,-5.39306 0,-0.36771 -0.980557,-1.10313 -0.980556,-0.85798 -2.328826,-1.71597 -1.225705,-0.85799 -2.328826,-1.5934 -1.103122,-0.73542 -1.34827,-1.10313 0.367713,-1.2257 2.328826,-1.83854 1.961113,-0.73542 4.412505,-1.2257 2.451391,-0.61285 4.780218,-1.10313 2.451394,-0.61284 3.677074,-1.47083 6.4962,-9.437858 11.2764,-16.914601 4.90279,-7.599313 9.19273,-14.830919 4.4125,-7.354174 8.94757,-15.076056 4.53509,-7.721884 10.41843,-17.40488 1.5934,-2.69653 2.57395,-1.838544 0.98056,0.857988 1.47084,4.167365 0.49028,3.30938 0.61284,8.457302 0.12255,5.025351 0,10.908691 -0.12254,5.883339 -0.49028,12.011818 -0.24513,6.128479 -0.61284,11.276401 -0.24515,5.147922 -0.49028,8.947579 -0.12254,3.677088 0,4.780214 0.49028,6.25105 0.61285,10.90869 0.24514,4.53507 1.2257,8.4573 0.98056,3.79966 3.30937,7.47675 2.45139,3.55451 7.35417,7.84445 -4.04479,1.34826 -6.74131,-0.24514 -2.57398,-1.47084 -4.28994,-4.53508 -1.5934,-3.1868 -2.69654,-7.2316 -0.98056,-4.16737 -1.96111,-7.96702 -0.85798,-3.92223 -2.08368,-6.74133 -1.10312,-2.94167 -3.06424,-3.79966 -0.12255,0 -0.73542,0 -0.49028,-0.12256 -1.22569,-0.12256 -0.61284,0 -1.22571,0.12256 -0.61284,0 -0.85797,0 -1.10314,0.24514 -4.16737,0.98056 -2.94167,0.73542 -6.49619,1.5934 -3.55451,0.85799 -6.86389,1.71598 -3.18682,0.85799 -4.65766,1.22569 -3.06423,0.85799 -6.49618,3.92223 -3.309381,3.06424 -7.109025,7.47675 -3.677095,4.28993 -7.721887,9.43785 -3.922226,5.14792 -8.089601,10.05071 -4.167356,4.90278 -8.457296,9.07015 -4.289939,4.16736 -8.579861,6.74132 -4.289939,2.57396 -8.579879,2.8191 -4.412504,0.36771 -8.579861,-2.45139 z m 66.4327,-53.93061 q 0.24515,0.12257 1.2257,0.12257 1.10313,0 1.47084,-0.12257 2.20624,-0.36771 5.51563,-0.85799 3.30938,-0.49028 6.61874,-1.10312 3.30939,-0.73542 6.12849,-1.59341 2.81911,-0.980555 3.92223,-2.08368 0,0 0.36771,-2.573962 0.3677,-2.573961 0.85797,-6.496187 0.49028,-4.044797 0.98056,-8.825009 0.61286,-4.902783 1.10314,-9.560427 0.49028,-4.657644 0.73541,-8.57987 0.36771,-4.044797 0.49028,-6.251049 -1.34827,-0.612847 -3.55452,3.186809 -2.20626,3.677087 -5.76077,10.173275 -3.43195,6.496187 -8.4573,15.198627 -4.90278,8.57987 -11.64411,17.895153 z" stroke-miterlimit="2"/>
</g></svg>
