<?xml version="1.0" encoding="utf-8"?>
<!-- Generator: Adobe Illustrator 21.1.0, SVG Export Plug-In . SVG Version: 6.00 Build 0)  -->
<svg xmlns="http://www.w3.org/2000/svg" xmlns:xlink="http://www.w3.org/1999/xlink" version="1.1" id="Layer_1" x="0px" y="0px" viewBox="0 0 200 200" enable-background="new 0 0 200 200" xml:space="preserve">
<rect width="200" height="200" fill="#f9a01e"/><path fill="#3c1740" d="M198.1,107.7l-0.1-0.1c-2.7-5.3-7.8-8.7-13.2-8.7c-0.3,0-0.6,0-0.9,0c1.2-1.8,2.4-3.7,3.4-5.7  c3.3-2.4,5.6-6,6.6-10.3c1-4.5,0.4-9.1-1.7-13.1l-0.1-0.1c-0.6-1.1-1.9-1.5-2.9-0.8l-0.1,0.1c-6.9,4.7-9.3,14.5-5.9,22.6  c-6.1,10.9-14.6,19.2-24.4,23.9L178,97.2c0.5-0.5,0.8-1.1,0.8-1.9c0-0.7-0.3-1.4-0.8-1.9L162.8,79c0.2-3.3,0.2-6.5-0.1-9.9  c7.5-1.4,13-9.1,12.7-17.9v-0.1c0-1.3-1.1-2.4-2.2-2.3h-0.1c-5.5,0.3-10.1,3.8-12.6,8.9c-0.3-1.1-0.6-2.1-1-3.2  c-0.8-2.3-1.8-4.5-2.9-6.7c6.8-2.9,11-11,9.7-19.4l0-0.1c-0.2-1.3-1.3-2.2-2.5-1.9l-0.1,0c-6.1,1.3-10.6,6.6-12,13.1  c-2-2.8-4.2-5.5-6.6-7.9c5.4-5.7,6.4-15.3,2.1-22.4L147,8.9c-0.3-0.5-0.8-0.9-1.4-1c-0.6-0.1-1.1,0-1.6,0.4L144,8.3  c-3.3,2.6-5.6,6.6-6.3,11.1c-0.3,1.8-0.3,3.7-0.1,5.5c-1.7-1.2-3.4-2.4-5.2-3.4c-2.9-4.4-7.4-6.9-12.2-6.9c-3.1,0-6.2,1.1-8.8,3.2  l-0.1,0.1c-1,0.8-1.2,2.3-0.5,3.4l0.1,0.1c2.8,4.6,7.5,7.3,12.4,7.3c2.8,0,5.4-0.8,7.8-2.4c2.3,1.4,4.4,2.9,6.5,4.5  c-5.7,1.5-10.2,6.5-11.5,13.2l-24.6-23.4c-0.8-0.7-1.9-0.7-2.7,0L74,44c-1.3-6.7-5.8-11.7-11.5-13.2c2-1.7,4.2-3.2,6.5-4.6  c2.4,1.6,5,2.4,7.8,2.4l0,0c4.9,0,9.6-2.7,12.4-7.3l0.1-0.1c0.7-1.1,0.5-2.6-0.5-3.4l-0.1-0.1c-2.6-2.1-5.6-3.2-8.8-3.2  c-4.8,0-9.3,2.6-12.2,6.9c-1.8,1.1-3.6,2.2-5.2,3.4c0.2-1.8,0.2-3.7-0.1-5.5c-0.7-4.5-3-8.5-6.3-11.1l-0.1-0.1  c-0.5-0.4-1-0.5-1.6-0.4c-0.6,0.1-1.1,0.5-1.4,1L52.9,9c-2.3,3.8-3.2,8.4-2.4,13c0.6,3.7,2.2,7,4.5,9.5c-2.4,2.5-4.6,5.1-6.6,7.9  c-0.4-2.1-1.2-4.1-2.3-5.9c-2.3-3.8-5.8-6.4-9.7-7.3l-0.1,0c-0.6-0.1-1.1,0-1.6,0.4c-0.5,0.4-0.8,0.9-0.9,1.6l0,0.1  c-1.4,8.4,2.9,16.6,9.7,19.4c-1.6,3.2-2.9,6.5-3.9,9.9c-0.6-1.2-1.3-2.3-2.1-3.3C34.7,51,31,49,26.9,48.8h-0.1  c-1.2-0.1-2.2,1-2.2,2.3v0.1c-0.4,8.9,5.2,16.5,12.7,17.9c-0.3,3.3-0.4,6.6-0.1,9.8L22,93.4c-0.5,0.5-0.8,1.1-0.8,1.9  c0,0.7,0.3,1.4,0.8,1.9l19.3,18.3c-9.6-4.5-18.3-12.6-24.6-23.9c1.6-3.7,2-7.9,1.1-11.9c-1-4.5-3.5-8.3-7-10.6l-0.1-0.1  c-0.5-0.3-1.1-0.4-1.6-0.3c-0.6,0.2-1,0.6-1.3,1.1l-0.1,0.1c-4.3,8.1-2,18.5,4.9,23.5c1.1,2,2.2,3.9,3.4,5.7c-0.3,0-0.6,0-0.9,0  c-5.4,0-10.5,3.3-13.2,8.7l-0.1,0.1c-0.6,1.1-0.2,2.7,0.8,3.3l0.1,0.1c2.3,1.5,4.9,2.3,7.6,2.3l0,0c4.7,0,9-2.4,11.9-6.5  c7.9,8.6,17.5,14.2,27.3,16.3l7.5,7.1c-0.4-0.1-0.9-0.1-1.3,0.1l-0.1,0.1c-5.7,3-9.1,9.5-8.9,16.3c-1.9-1.8-3.7-3.8-5.5-6  c2.2-8.6-1.7-17.8-9.2-21.1l-0.1-0.1c-0.5-0.2-1.1-0.2-1.6,0.1c-0.5,0.3-0.9,0.8-1.1,1.4l0,0.1c-1.4,4.3-1.3,9,0.4,13.2  c1.6,4.1,4.5,7.2,8,8.9c1.3,1.8,2.8,3.4,4.2,4.9c-5.6,0.8-10.5,5.1-12.5,11.3l0,0.1c-0.4,1.3,0.2,2.7,1.3,3.1l0.1,0.1  c1.7,0.7,3.4,1,5.2,1l0,0c5.6,0,10.7-3.5,13.3-9c2.7,2.1,5.5,3.8,8.4,5.3c-5.2,3.1-8.5,9.5-8.1,16.5v0.1c0,0.7,0.3,1.3,0.7,1.7  c0.4,0.4,0.9,0.6,1.4,0.6c0,0,0.1,0,0.1,0h0.1c7.5-0.6,13.4-7.3,14.1-15.5c3.1,0.9,6.3,1.6,9.4,1.8c-0.9,0.9-1.6,2-2.3,3.1  c-2.2,3.9-3,8.5-2.2,13l0,0.1c0.2,1.1,1.1,1.9,2.1,1.9c0.1,0,0.3,0,0.4-0.1l0.1,0c7.6-1.8,12.7-9.9,12-18.5c2.2-0.4,4.3-0.9,6.4-1.6  l5.2,4.9l-2.1,3.4c-3.9,6.4-3.9,16.3,0,22.7c0.7,1.1,2,1.4,3,0.6c1-0.8,1.2-2.3,0.5-3.4c-2.9-4.6-2.9-12.5,0-17.1l1.4-2.3l1.4,2.3  c2.9,4.6,2.9,12.5,0,17.1c-0.7,1.1-0.5,2.6,0.5,3.4c0.4,0.3,0.8,0.4,1.2,0.4c0.7,0,1.3-0.4,1.8-1c3.9-6.4,3.9-16.3,0-22.7l-2-3.3  l5.5-5.3c2.3,0.8,4.6,1.4,7,1.8c-0.7,8.7,4.4,16.7,12,18.5l0.1,0c0.1,0,0.3,0.1,0.4,0.1c1,0,1.9-0.8,2.1-1.9l0-0.1  c0.8-4.5,0-9.2-2.2-13c-0.7-1.1-1.4-2.2-2.3-3.1c3.1-0.3,6.3-0.9,9.4-1.8c0.7,8.2,6.6,15,14.1,15.5h0.1c0,0,0.1,0,0.1,0  c0.5,0,1-0.2,1.4-0.6c0.4-0.4,0.7-1,0.7-1.7v-0.2c0.4-7.1-3-13.4-8.1-16.5c2.9-1.5,5.7-3.2,8.4-5.3c2.6,5.5,7.7,9,13.3,9  c1.8,0,3.5-0.4,5.2-1.1l0.1-0.1c1.1-0.5,1.7-1.9,1.3-3.1l0-0.1c-2-6.2-6.9-10.5-12.5-11.3c1.5-1.5,2.9-3.2,4.2-4.9  c7.6-3.6,11.3-13.4,8.4-22.1l0-0.1c-0.4-1.3-1.7-1.9-2.7-1.4l-0.1,0.1c-7.5,3.2-11.4,12.5-9.2,21.1c-1.7,2.2-3.6,4.2-5.5,6  c0.2-6.8-3.2-13.3-8.9-16.3l-0.1-0.1c-1.1-0.5-2.3,0-2.8,1.2l0,0.1c-3,7.5-0.9,16.1,4.6,20.9c-7.6,5.1-15.9,7.8-24,8  c1.3-2.4,2.1-5.1,2.3-8.1c0.1-1.7,0-3.3-0.3-5l25.9-24.6c1.9-0.4,3.9-1,5.8-1.7c7.9-2.9,15.2-7.9,21.3-14.6  c2.9,4.1,7.2,6.5,11.9,6.5c2.6,0,5.3-0.8,7.6-2.3l0.1-0.1C198.3,110.3,198.7,108.9,198.1,107.7z M189.6,74.6  c0.7,2.3,0.8,4.7,0.2,7.1c-0.5,2.4-1.7,4.5-3.2,6.1C185.3,83.2,186.4,77.9,189.6,74.6z M171,54c-0.7,4.9-3.9,8.9-8.1,10.1  C163.6,59.3,166.8,55.3,171,54z M123.2,23.9c-2.8,0-5.5-1.2-7.5-3.3c1.4-0.7,2.8-1,4.3-1c2.8,0,5.5,1.2,7.5,3.3  C126.2,23.5,124.7,23.9,123.2,23.9z M79.9,19.5c1.5,0,3,0.4,4.3,1c-2,2.1-4.7,3.3-7.5,3.3l0,0c-1.5,0-3-0.4-4.3-1  C74.5,20.7,77.1,19.5,79.9,19.5z M29,54c2,0.6,3.9,1.9,5.4,3.7c1.5,1.8,2.4,4.1,2.7,6.4C32.9,62.9,29.7,58.9,29,54z M13.3,87.9  c-3.2-3.3-4.4-8.6-3-13.2c1.6,1.6,2.7,3.7,3.2,6.1C14.1,83.2,14,85.7,13.3,87.9z M10.4,108.7c-1.2,0-2.3-0.2-3.4-0.6  c2.1-2.6,5-4.2,8.2-4.2c1.2,0,2.3,0.2,3.4,0.6C16.5,107.1,13.5,108.7,10.4,108.7z M37.4,138c-1.8-1.3-3.2-3.1-4.1-5.4  c-0.9-2.2-1.2-4.7-0.8-7.1c1.8,1.3,3.2,3.1,4.1,5.4C37.4,133.2,37.7,135.6,37.4,138z M35.7,159.2L35.7,159.2c-0.5,0-1.1-0.1-1.6-0.1  c2-3.6,5.5-5.9,9.3-5.9c0.5,0,1.1,0.1,1.6,0.1C43,156.9,39.5,159.2,35.7,159.2z M164.2,130.9c0.9-2.2,2.3-4.1,4.1-5.4  c0.3,2.4,0,4.8-0.8,7.1c-0.9,2.2-2.3,4.1-4.1,5.4C163,135.6,163.3,133.2,164.2,130.9z M157.3,153.2c3.8,0,7.3,2.3,9.3,5.9  c-0.5,0.1-1,0.1-1.6,0.1c-3.8,0-7.3-2.3-9.3-5.9C156.2,153.2,156.7,153.2,157.3,153.2z M145.3,136.3c3.5,2.9,5.2,8,4.2,12.8  C146.1,146.2,144.4,141.2,145.3,136.3z M147,174c-4.2-1.3-7.3-5.4-7.9-10.3C143.3,165,146.5,169.1,147,174z M158.7,75.1l-2.1-2  c0.7-0.5,1.4-1,2-1.6C158.7,72.7,158.7,73.9,158.7,75.1z M149.6,66.5c0.9-0.3,1.9-0.4,2.9-0.4c1.4,0,2.9,0.3,4.2,1  c-1.1,1.2-2.3,2.1-3.7,2.7L149.6,66.5z M162.2,31.8c-0.1,4.9-2.8,9.4-6.8,11.3C155.5,38.2,158.2,33.7,162.2,31.8z M141.8,20.4  c0.4-2.4,1.4-4.6,2.8-6.4c1.7,4.5,0.8,9.9-2.2,13.4C141.6,25.2,141.4,22.8,141.8,20.4z M140.5,35.3c-1.6,4.6-5.4,7.7-9.8,7.9  C132.3,38.6,136.1,35.4,140.5,35.3z M130.3,48c6.2,0,11.6-4.3,14-10.6c4.8,5.5,8.6,11.9,11.2,18.9c0.7,1.9,1.2,3.8,1.7,5.6  c-1.5-0.5-3-0.8-4.6-0.8c-2.3,0-4.6,0.6-6.7,1.7L130.2,48C130.2,48,130.3,48,130.3,48z M69.3,43.1c-4.4-0.2-8.2-3.3-9.8-7.9  C64,35.4,67.8,38.6,69.3,43.1z M54.7,21.1c-0.4-2.4-0.1-4.9,0.7-7.1c1.5,1.7,2.4,3.9,2.9,6.4c0.4,2.4,0.1,4.9-0.7,7.1  C56.1,25.7,55.1,23.5,54.7,21.1z M37.8,31.8c1.9,0.9,3.6,2.5,4.9,4.5s1.9,4.4,1.9,6.8C40.6,41.2,37.9,36.8,37.8,31.8z M55.7,37.4  C58,43.7,63.5,48,69.7,48l0,0c0,0,0.1,0,0.1,0L54.2,62.9c-2-1.1-4.3-1.7-6.7-1.7c-1.6,0-3.1,0.3-4.6,0.8  C45.1,53.1,49.5,44.6,55.7,37.4z M47,69.7c-1.4-0.6-2.6-1.5-3.7-2.7c1.3-0.6,2.7-1,4.2-1c1,0,1.9,0.2,2.9,0.4L47,69.7z M41.4,71.5  c0.6,0.6,1.3,1.1,2,1.5l-2.1,2C41.3,73.9,41.3,72.7,41.4,71.5z M100,25.7l73.3,69.6L100,164.9L26.7,95.3L100,25.7z M51.2,149.1  c-0.9-4.8,0.7-9.9,4.2-12.8C56.3,141.2,54.7,146.2,51.2,149.1z M53.7,174c0.6-4.9,3.7-9,7.9-10.3C61,168.6,57.8,172.6,53.7,174z   M54,152.8c5.5-4.8,7.6-13.4,4.6-20.9l0-0.1l17.4,16.5c-0.2,1.4-0.3,2.9-0.2,4.4c0.2,2.9,1,5.7,2.3,8.1  C69.9,160.6,61.6,157.9,54,152.8z M74.7,178.1c0-2.4,0.6-4.8,1.8-6.8c1.2-2.1,2.8-3.6,4.8-4.6C81.3,171.7,78.7,176.2,74.7,178.1z   M80,152.4c0-0.1,0-0.2,0-0.2l3.4,3.2c-0.2,1.3-0.6,2.5-1.2,3.7C80.9,157.2,80.1,154.9,80,152.4z M86.5,160c0.2-0.4,0.3-0.8,0.4-1.2  l1,0.9C87.4,159.8,87,160,86.5,160z M112.3,159.6l1.4-1.3c0.2,0.6,0.4,1.2,0.6,1.8C113.6,159.9,112.9,159.7,112.3,159.6z   M124.2,171.3c1.2,2.1,1.8,4.4,1.8,6.8c-4-2-6.6-6.5-6.6-11.4C121.4,167.7,123,169.2,124.2,171.3z M120.8,152.4  c-0.1,2.5-0.9,4.8-2.2,6.7c-0.7-1.3-1.1-2.8-1.3-4.3l3.5-3.3C120.8,151.8,120.8,152.1,120.8,152.4z M189.6,108.6  c-3.1,0-6.1-1.6-8.2-4.2c1.1-0.4,2.3-0.6,3.4-0.6c3.1,0,6.1,1.6,8.2,4.2C191.9,108.3,190.8,108.6,189.6,108.6z"/>
<g transform="translate(30 30) scale(0.7)"><path d="m143.24 40c-0.56687 0.01534-1.2482 0.69666-2.0449 2.0449-3.9222 6.4553-7.3946 12.258-10.418 17.406-3.0234 5.1479-6.0056 10.173-8.9473 15.076-2.86 4.8211-5.9248 9.7639-9.1934 14.83-3.1868 4.9845-6.9446 10.622-11.275 16.914-0.81713 0.572-2.0435 1.0621-3.6777 1.4707-1.5525 0.32685-3.147 0.69494-4.7812 1.1035-1.6343 0.32686-3.1047 0.73628-4.4121 1.2266-1.3074 0.40857-2.083 1.0208-2.3281 1.8379 0.16344 0.24514 0.61224 0.61322 1.3477 1.1035 0.73542 0.49028 1.5129 1.0218 2.3301 1.5938 0.89884 0.572 1.6744 1.1429 2.3281 1.7148 0.6537 0.49027 0.98047 0.85838 0.98047 1.1035 0 0.89885-0.9803 2.6961-2.9414 5.3926-1.8794 2.6965-4.3321 5.7201-7.3555 9.0703-2.9417 3.3502-6.29 6.7006-10.049 10.051-3.6771 3.4319-7.3148 6.2508-10.91 8.457-3.5954 2.288-6.9457 3.719-10.051 4.291-3.1051 0.57199-5.5145-0.32757-7.2305-2.6973-0.89885 0-1.3496 0.24604-1.3496 0.73632-0.08167 0.49028 0.04227 1.0612 0.36914 1.7148 0.32685 0.65371 0.77567 1.2679 1.3476 1.8398 0.49029 0.65369 0.85838 1.0612 1.1035 1.2246 2.7782 1.8794 5.6384 2.6963 8.5801 2.4512 2.86-0.16343 5.7201-1.1024 8.5801-2.8184 2.8599-1.716 5.7182-3.9639 8.5781-6.7422 2.86-2.7782 5.6807-5.8018 8.459-9.0703 2.7782-3.2685 5.4731-6.6188 8.0879-10.051 2.6965-3.432 5.2713-6.5776 7.7227-9.4375 2.5331-2.9417 4.9031-5.4337 7.1094-7.4766 2.288-2.0428 4.4533-3.3499 6.4961-3.9219 0.98057-0.24513 2.5337-0.65456 4.6582-1.2266 2.2062-0.572 4.4936-1.1428 6.8633-1.7148 2.3697-0.57199 4.535-1.1035 6.4961-1.5937 2.0428-0.49028 3.4325-0.81706 4.168-0.98047h0.85742c0.40858-0.0817 0.81801-0.12306 1.2266-0.12306 0.49028 0 0.89777 0.0413 1.2246 0.12306h0.73633c1.3074 0.57199 2.329 1.8377 3.0644 3.7988 0.81714 1.8794 1.51 4.1274 2.082 6.7422 0.65369 2.5331 1.3072 5.1886 1.9609 7.9668 0.73543 2.6965 1.635 5.1079 2.6973 7.2324 1.144 2.0428 2.575 3.5546 4.291 4.5352 1.7977 1.0623 4.0437 1.143 6.7402 0.24415-3.2685-2.86-5.7193-5.4741-7.3535-7.8438-1.5525-2.4514-2.6568-4.9435-3.3105-7.4766-0.65372-2.6148-1.0612-5.4337-1.2246-8.457-0.0817-3.1051-0.28643-6.7428-0.61328-10.91-0.0817-0.73542-0.0817-2.3279 0-4.7793 0.16341-2.5331 0.3268-5.5153 0.49024-8.9473 0.24513-3.4319 0.44985-7.1917 0.61327-11.277 0.24515-4.0857 0.40854-8.0895 0.49024-12.012 0.0817-3.9222 0.0817-7.558 0-10.908-0.0817-3.4319-0.28642-6.2508-0.61329-8.457-0.32685-2.2062-0.81699-3.596-1.4707-4.168-0.16342-0.143-0.34032-0.21214-0.5293-0.20703zm-1.6602 15.566c0.12129 0.0052 0.2392 0.03295 0.35156 0.08402-0.0817 1.4708-0.24509 3.5554-0.49023 6.252-0.16342 2.6148-0.40947 5.475-0.73633 8.5801-0.32685 3.1051-0.69493 6.292-1.1035 9.5605-0.32685 3.1868-0.65361 6.1277-0.98047 8.8242-0.32685 2.6148-0.61228 4.7801-0.85742 6.4961l-0.36719 2.5742c-0.73541 0.73542-2.0425 1.4303-3.9219 2.084-1.8794 0.572-3.9226 1.1035-6.1289 1.5938-2.2062 0.40859-4.4129 0.77471-6.6191 1.1016-2.2062 0.32686-4.0448 0.61423-5.5156 0.85937-0.24514 0.0817-0.73529 0.1211-1.4707 0.1211-0.65369 0-1.0631-0.0394-1.2266-0.1211v-1.4707c4.4942-6.2102 8.376-12.177 11.645-17.896 3.3502-5.8016 6.1691-10.866 8.457-15.197 2.3697-4.3308 4.2909-7.7224 5.7617-10.174 1.287-2.2165 2.3541-3.3072 3.2031-3.2715z" fill="#3c1740"/></g></svg>
