<?xml version="1.0" encoding="utf-8"?>
<!-- Generator: Adobe Illustrator 21.1.0, SVG Export Plug-In . SVG Version: 6.00 Build 0)  -->
<svg xmlns="http://www.w3.org/2000/svg" xmlns:xlink="http://www.w3.org/1999/xlink" version="1.1" id="Layer_1" x="0px" y="0px" viewBox="0 0 200 200" enable-background="new 0 0 200 200" xml:space="preserve">
<path fill="#3c1740" d="M147.2,26.3L24.5,144.4c1.2,2,2.5,4,3.8,5.9L147.5,26.5C147.4,26.4,147.3,26.4,147.2,26.3z M169.2,46.3  L43.8,167.1c1.7,1.5,3.6,2.9,5.4,4.2L169.4,46.6C169.3,46.5,169.3,46.4,169.2,46.3z M177.4,59L56.2,175.8c2,1.2,4.1,2.3,6.2,3.3  L177.6,59.4C177.5,59.3,177.5,59.1,177.4,59z M173.5,52.5L49.7,171.7c1.9,1.3,3.9,2.6,5.9,3.8L173.7,52.8  C173.6,52.7,173.6,52.6,173.5,52.5z M140.6,22.4L20.9,137.6c1,2.1,2.1,4.2,3.3,6.2L141,22.6C140.9,22.5,140.7,22.5,140.6,22.4z   M107.8,12.9l-95.2,91.6c0.1,2.6,0.4,5.3,0.7,7.9L109.1,13C108.7,13,108.2,12.9,107.8,12.9z M85.5,13.6L14.3,82.2  c-0.7,3-1.1,6.1-1.4,9.2l75.3-78.2C87.3,13.3,86.4,13.5,85.5,13.6z M133.4,19.1L17.8,130.3c0.9,2.2,1.8,4.4,2.8,6.6L133.9,19.3  C133.7,19.2,133.5,19.1,133.4,19.1z M97.4,187.4c0.9,0.1,1.8,0.1,2.6,0.1c2,0,4-0.1,5.9-0.2l81.6-84.7v-1.9L97.4,187.4z M70.7,17.4  L18.6,67.7c-1.4,3.5-2.5,7-3.5,10.7l60-62.4C73.6,16.4,72.2,16.9,70.7,17.4z M117,14.1L13.5,113.8c0.4,2.5,0.9,5,1.6,7.5L118,14.3  C117.7,14.2,117.3,14.2,117,14.1z M125.6,16.3L15.3,122.4c0.7,2.4,1.4,4.7,2.2,7L126.3,16.5C126.1,16.4,125.8,16.3,125.6,16.3z   M117.8,185.7l68.5-71.2c0.2-0.9,0.3-1.8,0.4-2.7l-78.2,75.3C111.7,186.8,114.8,186.4,117.8,185.7z M159.1,35.4L33.2,156.6  c1.5,1.8,3.1,3.5,4.7,5.1L159.3,35.6C159.2,35.5,159.2,35.5,159.1,35.4z M153.4,30.6L28.7,150.8c1.3,1.8,2.7,3.7,4.2,5.4L153.7,30.8  C153.6,30.7,153.5,30.7,153.4,30.6z M132.3,181.4l50.3-52.2c0.5-1.4,1-2.9,1.4-4.4l-62.4,60C125.3,183.9,128.8,182.8,132.3,181.4z   M164.4,40.7L38.3,162.1c1.6,1.6,3.3,3.2,5.1,4.7L164.6,40.9C164.5,40.8,164.5,40.8,164.4,40.7z M97.3,12.4L12.7,94.1  c-0.2,1.9-0.2,3.9-0.2,5.9v2.5l86.7-90.1H97.3z M45.7,31.4L33.4,43.1c-4.6,5.4-8.6,11.4-11.8,17.8L58,23.2  C53.7,25.6,49.5,28.3,45.7,31.4z M180.8,66.1L63.1,179.4c2.2,1,4.4,1.9,6.6,2.8L181,66.6C180.9,66.4,180.9,66.2,180.8,66.1z   M156.9,166.6l11.8-12.2c3.1-3.9,5.8-8,8.2-12.3l-37.8,36.4C145.5,175.2,151.5,171.2,156.9,166.6z M187.1,90.9l-99.4,95.8  c2.5,0.3,5.2,0.6,7.9,0.7l91.6-95.2C187.2,91.7,187.1,91.3,187.1,90.9z M183.6,73.7l-113,108.8c2.3,0.8,4.6,1.5,7,2.2L183.8,74.4  C183.7,74.2,183.7,73.9,183.6,73.7z M185.7,81.9l-107,103c2.4,0.6,4.9,1.1,7.5,1.5l99.7-103.5C185.8,82.6,185.8,82.2,185.7,81.9z"/>
<g transform="translate(30 30) scale(0.7)">
  
  <defs id="defs134315"/>
  <linearGradient id="3d_gradient2-logo-52aa3ec2-e1d7-476f-82be-95c7e152bd00" x1="30%" y1="120%" x2="-10%" y2="30%" spreadMethod="pad">
    <stop offset="0%" stop-color="#ffffff" stop-opacity="1" id="stop134292"/>
    <stop offset="100%" stop-color="#000000" stop-opacity="1" id="stop134294"/>
  </linearGradient>
  <linearGradient id="3d_gradient3-logo-52aa3ec2-e1d7-476f-82be-95c7e152bd00" x1="30%" y1="120%" x2="-10%" y2="30%" spreadMethod="pad" gradientTransform="rotate(-30)">
    <stop offset="0%" stop-color="#ffffff" stop-opacity="1" id="stop134297"/>
    <stop offset="50%" stop-color="#cccccc" stop-opacity="1" id="stop134299"/>
    <stop offset="100%" stop-color="#000000" stop-opacity="1" id="stop134301"/>
  </linearGradient>
  <path id="path134348" style="font-style:normal;font-weight:normal;font-size:72px;line-height:1;font-family:'Nothing You Could Do';font-variant-ligatures:none;text-align:center;text-anchor:middle;fill:#f9a01e;stroke:#f9a01e;stroke-width:0;stroke-linejoin:miter;stroke-miterlimit:2" d="m 46.08166,157.50618 q -0.367713,-0.24514 -1.103139,-1.22569 -0.857974,-0.85799 -1.348253,-1.83855 -0.490278,-0.98055 -0.367713,-1.71597 0,-0.73542 1.34827,-0.73542 2.573957,3.55452 7.231592,2.69653 4.657652,-0.85799 10.050713,-4.28993 5.393062,-3.30938 10.908688,-8.4573 5.638209,-5.02536 10.050714,-10.05071 4.535069,-5.02535 7.354174,-9.07015 2.94167,-4.04479 2.94167,-5.39306 0,-0.36771 -0.980557,-1.10313 -0.980556,-0.85798 -2.328826,-1.71597 -1.225705,-0.85799 -2.328826,-1.5934 -1.103122,-0.73542 -1.34827,-1.10313 0.367713,-1.2257 2.328826,-1.83854 1.961113,-0.73542 4.412505,-1.2257 2.451391,-0.61285 4.780218,-1.10313 2.451394,-0.61284 3.677074,-1.47083 6.4962,-9.437858 11.2764,-16.914601 4.90279,-7.599313 9.19273,-14.830919 4.4125,-7.354174 8.94757,-15.076056 4.53509,-7.721884 10.41843,-17.40488 1.5934,-2.69653 2.57395,-1.838544 0.98056,0.857988 1.47084,4.167365 0.49028,3.30938 0.61284,8.457302 0.12255,5.025351 0,10.908691 -0.12254,5.883339 -0.49028,12.011818 -0.24513,6.128479 -0.61284,11.276401 -0.24515,5.147922 -0.49028,8.947579 -0.12254,3.677088 0,4.780214 0.49028,6.25105 0.61285,10.90869 0.24514,4.53507 1.2257,8.4573 0.98056,3.79966 3.30937,7.47675 2.45139,3.55451 7.35417,7.84445 -4.04479,1.34826 -6.74131,-0.24514 -2.57398,-1.47084 -4.28994,-4.53508 -1.5934,-3.1868 -2.69654,-7.2316 -0.98056,-4.16737 -1.96111,-7.96702 -0.85798,-3.92223 -2.08368,-6.74133 -1.10312,-2.94167 -3.06424,-3.79966 -0.12255,0 -0.73542,0 -0.49028,-0.12256 -1.22569,-0.12256 -0.61284,0 -1.22571,0.12256 -0.61284,0 -0.85797,0 -1.10314,0.24514 -4.16737,0.98056 -2.94167,0.73542 -6.49619,1.5934 -3.55451,0.85799 -6.86389,1.71598 -3.18682,0.85799 -4.65766,1.22569 -3.06423,0.85799 -6.49618,3.92223 -3.309381,3.06424 -7.109025,7.47675 -3.677095,4.28993 -7.721887,9.43785 -3.922226,5.14792 -8.089601,10.05071 -4.167356,4.90278 -8.457296,9.07015 -4.289939,4.16736 -8.579861,6.74132 -4.289939,2.57396 -8.579879,2.8191 -4.412504,0.36771 -8.579861,-2.45139 z m 66.4327,-53.93061 q 0.24515,0.12257 1.2257,0.12257 1.10313,0 1.47084,-0.12257 2.20624,-0.36771 5.51563,-0.85799 3.30938,-0.49028 6.61874,-1.10312 3.30939,-0.73542 6.12849,-1.59341 2.81911,-0.980555 3.92223,-2.08368 0,0 0.36771,-2.573962 0.3677,-2.573961 0.85797,-6.496187 0.49028,-4.044797 0.98056,-8.825009 0.61286,-4.902783 1.10314,-9.560427 0.49028,-4.657644 0.73541,-8.57987 0.36771,-4.044797 0.49028,-6.251049 -1.34827,-0.612847 -3.55452,3.186809 -2.20626,3.677087 -5.76077,10.173275 -3.43195,6.496187 -8.4573,15.198627 -4.90278,8.57987 -11.64411,17.895153 z" stroke-miterlimit="2"/>
</g></svg>
