<?xml version="1.0" encoding="utf-8"?>
<!-- Generator: Adobe Illustrator 21.1.0, SVG Export Plug-In . SVG Version: 6.00 Build 0)  -->
<svg xmlns="http://www.w3.org/2000/svg" xmlns:xlink="http://www.w3.org/1999/xlink" version="1.1" id="Layer_1" x="0px" y="0px" viewBox="0 0 200 200" enable-background="new 0 0 200 200" xml:space="preserve">
<rect width="200" height="200" fill="#3c1740"/><path fill="#f9a01e" d="M169.8,171.6c-10.5,1.2-21.7,2.2-33.1,3.2c-11.4,0.9-23.2,1.7-35.1,2.4c-11.9,0.6-24.1,1.1-36.2,1.3  c-12.2,0.3-24.4,0.2-36.5-0.3l-0.7,0c-3.7-0.2-6.6-3.3-6.5-7.1l0,0c0.6-11.7,1.5-23.4,2.4-35.1c0.9-11.7,1.7-23.4,2-35.1  c0.3-11.7,0.2-23.4-0.1-35.1c-0.3-11.7-1.1-23.4-1.8-35.1c-0.2-2.4,1.7-4.5,4.1-4.7h0l0.6,0c11.7-0.7,23.4-1.7,35.1-2.2  c11.7-0.6,23.4-0.9,35.1-1.2c11.7-0.3,23.4-0.6,35.1-0.9c11.7-0.3,23.4-0.3,35.1-0.2l0.2,0c5,0,9,4.1,9,9.1v0  c-0.2,12.2-0.4,24.5-1,36.7l-0.8,18.2l-1.1,18c-0.3,6-0.8,11.8-1.2,17.7c-0.4,5.9-0.9,11.6-1.4,17.3  C171.9,149.8,170.9,160.9,169.8,171.6z M168.6,170.4l-3-37l-1.4-17.8c-0.4-5.9-0.9-11.7-1.2-17.4L161.9,81l-0.8-16.9  c-0.6-11.2-0.8-22.4-1-33.6l9.2,9.2c-11.7,0.1-23.4,0.1-35.1-0.2c-11.7-0.2-23.4-0.5-35.1-0.9c-11.7-0.3-23.4-0.6-35.1-1.2  c-11.7-0.5-23.4-1.5-35.1-2.2l4.7-4.7C32.7,42.3,32,54,31.7,65.7c-0.3,11.7-0.4,23.4-0.1,35.1c0.3,11.7,1.1,23.4,2,35.1  c0.9,11.7,1.8,23.4,2.4,35.1l-7.2-7.2c11.3-0.6,22.4-0.6,33.7-0.3c11.2,0.2,22.5,0.7,34,1.3c11.5,0.6,23.1,1.4,35.1,2.4  C143.5,168.2,155.8,169.2,168.6,170.4z"/>
<g transform="translate(30 30) scale(0.7)">
  
  <defs id="defs134315"/>
  <linearGradient id="3d_gradient2-logo-52aa3ec2-e1d7-476f-82be-95c7e152bd00" x1="30%" y1="120%" x2="-10%" y2="30%" spreadMethod="pad">
    <stop offset="0%" stop-color="#ffffff" stop-opacity="1" id="stop134292"/>
    <stop offset="100%" stop-color="#000000" stop-opacity="1" id="stop134294"/>
  </linearGradient>
  <linearGradient id="3d_gradient3-logo-52aa3ec2-e1d7-476f-82be-95c7e152bd00" x1="30%" y1="120%" x2="-10%" y2="30%" spreadMethod="pad" gradientTransform="rotate(-30)">
    <stop offset="0%" stop-color="#ffffff" stop-opacity="1" id="stop134297"/>
    <stop offset="50%" stop-color="#cccccc" stop-opacity="1" id="stop134299"/>
    <stop offset="100%" stop-color="#000000" stop-opacity="1" id="stop134301"/>
  </linearGradient>
  <path id="path134348" style="font-style:normal;font-weight:normal;font-size:72px;line-height:1;font-family:'Nothing You Could Do';font-variant-ligatures:none;text-align:center;text-anchor:middle;fill:#f9a01e;stroke:#f9a01e;stroke-width:0;stroke-linejoin:miter;stroke-miterlimit:2" d="m 46.08166,157.50618 q -0.367713,-0.24514 -1.103139,-1.22569 -0.857974,-0.85799 -1.348253,-1.83855 -0.490278,-0.98055 -0.367713,-1.71597 0,-0.73542 1.34827,-0.73542 2.573957,3.55452 7.231592,2.69653 4.657652,-0.85799 10.050713,-4.28993 5.393062,-3.30938 10.908688,-8.4573 5.638209,-5.02536 10.050714,-10.05071 4.535069,-5.02535 7.354174,-9.07015 2.94167,-4.04479 2.94167,-5.39306 0,-0.36771 -0.980557,-1.10313 -0.980556,-0.85798 -2.328826,-1.71597 -1.225705,-0.85799 -2.328826,-1.5934 -1.103122,-0.73542 -1.34827,-1.10313 0.367713,-1.2257 2.328826,-1.83854 1.961113,-0.73542 4.412505,-1.2257 2.451391,-0.61285 4.780218,-1.10313 2.451394,-0.61284 3.677074,-1.47083 6.4962,-9.437858 11.2764,-16.914601 4.90279,-7.599313 9.19273,-14.830919 4.4125,-7.354174 8.94757,-15.076056 4.53509,-7.721884 10.41843,-17.40488 1.5934,-2.69653 2.57395,-1.838544 0.98056,0.857988 1.47084,4.167365 0.49028,3.30938 0.61284,8.457302 0.12255,5.025351 0,10.908691 -0.12254,5.883339 -0.49028,12.011818 -0.24513,6.128479 -0.61284,11.276401 -0.24515,5.147922 -0.49028,8.947579 -0.12254,3.677088 0,4.780214 0.49028,6.25105 0.61285,10.90869 0.24514,4.53507 1.2257,8.4573 0.98056,3.79966 3.30937,7.47675 2.45139,3.55451 7.35417,7.84445 -4.04479,1.34826 -6.74131,-0.24514 -2.57398,-1.47084 -4.28994,-4.53508 -1.5934,-3.1868 -2.69654,-7.2316 -0.98056,-4.16737 -1.96111,-7.96702 -0.85798,-3.92223 -2.08368,-6.74133 -1.10312,-2.94167 -3.06424,-3.79966 -0.12255,0 -0.73542,0 -0.49028,-0.12256 -1.22569,-0.12256 -0.61284,0 -1.22571,0.12256 -0.61284,0 -0.85797,0 -1.10314,0.24514 -4.16737,0.98056 -2.94167,0.73542 -6.49619,1.5934 -3.55451,0.85799 -6.86389,1.71598 -3.18682,0.85799 -4.65766,1.22569 -3.06423,0.85799 -6.49618,3.92223 -3.309381,3.06424 -7.109025,7.47675 -3.677095,4.28993 -7.721887,9.43785 -3.922226,5.14792 -8.089601,10.05071 -4.167356,4.90278 -8.457296,9.07015 -4.289939,4.16736 -8.579861,6.74132 -4.289939,2.57396 -8.579879,2.8191 -4.412504,0.36771 -8.579861,-2.45139 z m 66.4327,-53.93061 q 0.24515,0.12257 1.2257,0.12257 1.10313,0 1.47084,-0.12257 2.20624,-0.36771 5.51563,-0.85799 3.30938,-0.49028 6.61874,-1.10312 3.30939,-0.73542 6.12849,-1.59341 2.81911,-0.980555 3.92223,-2.08368 0,0 0.36771,-2.573962 0.3677,-2.573961 0.85797,-6.496187 0.49028,-4.044797 0.98056,-8.825009 0.61286,-4.902783 1.10314,-9.560427 0.49028,-4.657644 0.73541,-8.57987 0.36771,-4.044797 0.49028,-6.251049 -1.34827,-0.612847 -3.55452,3.186809 -2.20626,3.677087 -5.76077,10.173275 -3.43195,6.496187 -8.4573,15.198627 -4.90278,8.57987 -11.64411,17.895153 z" stroke-miterlimit="2"/>
</g></svg>
