<?xml version="1.0" encoding="utf-8"?>
<!-- Generator: Adobe Illustrator 21.1.0, SVG Export Plug-In . SVG Version: 6.00 Build 0)  -->
<svg xmlns="http://www.w3.org/2000/svg" xmlns:xlink="http://www.w3.org/1999/xlink" version="1.1" id="Layer_1" x="0px" y="0px" viewBox="0 0 200 200" enable-background="new 0 0 200 200" xml:space="preserve">
<rect width="200" height="200" fill="#f9a01e"/><path fill="#3c1740" d="M84,20.1c0.3,0,2.2,1.1,4,2.4l3.4,2.4l3.4-3.5l3.4-3.5l-4-2.8c-2.2-1.5-4.1-2.8-4.2-2.7  c-0.1,0-1.6,1.6-3.5,3.6C83.2,19.6,82.9,20.1,84,20.1z M108.6,24.8l3.4-2.4c1.9-1.3,3.7-2.4,4.1-2.4c0.3,0,0.6-0.1,0.6-0.3  c0-0.3-6.4-7.1-6.9-7.4c-0.1,0-2,1.2-4.2,2.7l-3.9,2.8l3.4,3.5L108.6,24.8z M77.5,24.7c1.2-2.1,2.2-3.9,2.4-4.1  c0.1-0.2-1.7-1-3.9-1.9c-2.2-0.9-4.3-1.7-4.6-1.8c-0.3-0.1-1.2,0.9-1.9,2.4s-1.9,3.4-2.5,4.3l-1.1,1.7l3.8,1.4  C75.5,28.8,75,29,77.5,24.7z M130.5,26.6l3.8-1.4l-1.1-1.7c-0.6-0.9-1.8-2.9-2.5-4.3c-0.7-1.4-1.5-2.5-1.7-2.5  c-0.2,0-2.1,0.8-4.2,1.7c-2.2,0.9-4.1,1.7-4.3,1.8c-0.2,0.1,0.6,2,2,4.2C125.1,29,124.5,28.8,130.5,26.6z M93.6,26.2  c0,0.3,1.4,1.9,3.2,3.5l3.2,3l3.2-3c1.8-1.6,3.2-3.2,3.2-3.5c0-0.5-5.8-6.6-6.4-6.6c-0.3,0-1.8,1.4-3.4,3  C95,24.3,93.6,25.9,93.6,26.2z M77,29.9l3,1.5c1.7,0.8,3.6,2,4.2,2.5c1,1,1,1,1.4-0.2c0.2-0.6,1.3-2.4,2.5-3.9  c1.2-1.5,2.2-2.9,2.2-3c0-0.4-7.4-5.2-8-5.2c-0.2,0-1.1,1.2-2,2.6c-0.9,1.4-2,3.3-2.5,4.2L77,29.9z M109.8,26.8c0,0.1,1,1.5,2.2,3  c1.2,1.6,2.3,3.3,2.5,3.9c0.3,1.2,0.3,1.2,1.4,0.2c0.6-0.5,2.5-1.7,4.2-2.5l3-1.5l-0.8-1.6c-1.4-2.7-4.1-6.7-4.5-6.7  c-0.3,0-2.1,1.1-4.2,2.5C111.5,25.3,109.8,26.5,109.8,26.8z M59,35.9c0.5,0.2,1.1-0.9,2.1-4c0.8-2.4,1.4-4.5,1.4-4.8  c0-0.3-1.7-0.7-3.7-1.1c-6.2-1-5.6-1.2-7.3,3.9l-1.4,4.6l4.1,0.6C56.5,35.5,58.7,35.8,59,35.9z M141,35.9c0.3-0.1,2.5-0.5,4.8-0.8  l4.1-0.6l-1.4-4.6c-1.6-5.1-1.1-4.8-7.5-3.8c-1.9,0.3-3.4,0.7-3.4,1c0.1,0.2,0.6,2.4,1.4,4.8C139.9,35,140.5,36.1,141,35.9z   M62.4,36.4c0.1,0.4,1.2,0.9,2.4,1.1c1.2,0.2,3,0.7,4.2,1.2c2,0.9,2.1,0.9,2.1,0.1c0-0.5,0.7-2.4,1.5-4.2c1.2-2.5,1.4-3.4,0.9-4  c-0.5-0.6-7.4-3.2-8.4-3.2c-0.2,0-0.9,1.9-1.7,4.1C62.7,33.8,62.2,36,62.4,36.4z M127.4,34.6c0.8,1.8,1.5,3.7,1.5,4.2  c0,0.8,0.1,0.8,2.1-0.1c1.1-0.5,3-1,4.2-1.2c1.2-0.2,2.2-0.7,2.4-1.1c0.4-1-2.2-9-2.9-8.9c-0.4,0-2.1,0.6-4,1.3  C125.6,30.5,125.5,30.6,127.4,34.6z M37.9,47.4c0.6-0.1,2.7-0.4,4.8-0.6l3.7-0.3l0.3-3.8c0.2-2.1,0.5-4.2,0.6-4.8  c0.2-0.9,0.1-1.1-0.9-1c-0.6,0.1-2.7,0.2-4.7,0.2c-2,0.1-3.7,0.4-4,0.8c-0.2,0.3-0.6,2.7-0.7,5.1C36.8,47.6,36.8,47.6,37.9,47.4z   M53.2,47c2,0,3.9,0.1,4.4,0.3c0.6,0.2,0.8,0,0.7-0.8c-0.1-0.6,0.2-2.7,0.6-4.6c0.7-4,0.7-4-3.9-4.5c-1.8-0.2-3.6-0.4-4.1-0.5  c-0.5-0.1-1,0.1-1.1,0.4c-0.6,1.6-1.1,8-0.6,8.8C49.5,46.9,50.2,47,53.2,47z M148.8,37c-0.2,0.1-1.9,0.3-3.7,0.5  c-4.7,0.4-4.7,0.5-3.9,4.5c0.4,1.9,0.6,3.8,0.6,4.4c-0.1,0.9,0.2,1,4.2,0.8c5-0.2,5.5-0.5,5.1-3.9C150.5,37.5,150.1,36.5,148.8,37z   M153.3,42.7l0.3,3.8l3.7,0.3c2.1,0.1,4.2,0.4,4.8,0.6c1.1,0.2,1.1,0.2,0.8-4.4c-0.1-2.5-0.5-4.8-0.8-5.1s-2.6-0.7-5.1-0.8  c-4.6-0.3-4.6-0.3-4.3,0.8C152.7,38.5,153,40.6,153.3,42.7z M37.5,54.9c0.4,4.7,0.5,4.7,4.5,3.9c1.9-0.4,3.8-0.6,4.4-0.6  c0.9,0.1,1-0.2,0.8-4.2c-0.1-3.2-0.4-4.4-1-4.9c-0.4-0.3-0.9-0.5-1-0.5c-0.1,0.1-1.8,0.3-3.7,0.5c-4.4,0.5-4.8,0.7-4.5,1.8  C37.1,51.3,37.3,53.1,37.5,54.9z M161.8,58.8c0.3-0.5,0.8-3.8,1.1-8c0.1-0.8-0.4-1-1.9-1.3c-4.3-0.7-6.6-0.8-7.3-0.3  c-0.4,0.3-0.7,1.9-0.9,4.8c-0.2,4.1-0.1,4.3,0.8,4.2c0.6-0.1,2.5,0.2,4.4,0.6C160.8,59.4,161.5,59.3,161.8,58.8z M29.1,62  c1-0.4,2.9-1.1,4.4-1.4c2.1-0.5,2.5-0.8,2.4-1.6c-0.1-0.5-0.4-2.7-0.7-4.9l-0.5-4l-4.3,1.3c-2.4,0.8-4.5,1.5-4.6,1.6  c-0.4,0.4,0.9,9.7,1.3,9.7C27.1,62.7,28.1,62.4,29.1,62z M164.4,60c0.3,0.1,2.2,0.7,4.3,1.3c2,0.6,3.9,1.2,4.2,1.3  c0.4,0.1,1.7-6.7,1.7-9.1c0-0.4-1.4-1-7.9-3l-1.3-0.4l-0.4,3.5c-0.2,1.9-0.5,4.1-0.8,4.8C163.9,59.4,164,59.9,164.4,60z M31.2,63.5  c-1.9,0.7-3.5,1.3-3.6,1.4c-0.3,0.4,2.4,8,3.1,8.6c0.6,0.5,1.4,0.3,4-0.9c1.8-0.8,3.7-1.5,4.2-1.5c0.8,0,0.9-0.1,0.3-1.1  c-0.3-0.6-0.9-2.5-1.4-4.3C36.8,61.8,36.3,61.7,31.2,63.5z M162.2,65.9c-0.3,1.3-0.8,3-1.3,3.8c-0.7,1.3-0.6,1.4,0.2,1.4  c0.5,0,2.4,0.7,4.2,1.5c2.5,1.2,3.4,1.4,4,0.9c0.7-0.6,3.4-8.2,3.1-8.6c-0.4-0.4-7.4-2.7-8.3-2.7c-0.4,0-1,0.3-1.1,0.6  C162.9,63.2,162.5,64.5,162.2,65.9z M20.6,79.8c2.1-0.9,7.8-4.7,7.9-5.2c0-0.3-0.2-1-0.5-1.5c-0.3-0.4-1-2.3-1.6-4.2l-1.1-3.3  l-1.8,1.1c-0.9,0.6-2.9,1.8-4.3,2.5c-1.4,0.8-2.5,1.6-2.4,1.9c0.1,0.3,0.9,2.4,1.8,4.6C19.5,78.1,20.4,79.9,20.6,79.8z M171.7,73.8  c-0.6,1-0.4,1.1,3.4,3.4c2.2,1.3,4.2,2.5,4.4,2.5c0.3,0.1,4-8.8,3.7-9c-0.1-0.1-1.4-0.9-3-1.8c-1.6-0.9-3.5-2.1-4.2-2.5l-1.2-0.8  l-1.1,3.6C172.9,71.2,172.1,73.2,171.7,73.8z M29.8,88.1c1.5-1.2,3.3-2.4,3.9-2.5c1.2-0.3,1.2-0.3,0.2-1.4c-0.5-0.6-1.7-2.5-2.5-4.2  c-0.8-1.7-1.6-3-1.7-3c0,0-1.3,0.7-2.8,1.4c-1.5,0.8-3.3,2-4.1,2.7l-1.5,1.1l2.4,3.7c1.3,2.1,2.5,3.9,2.8,4  C26.8,90.2,28.2,89.3,29.8,88.1z M170.2,88c1.6,1.2,3,2.1,3.3,1.9c0.3-0.1,1.5-2,2.8-4l2.4-3.7l-1.5-1.1c-0.8-0.6-2.7-1.9-4.2-2.7  l-2.8-1.5l-1.6,3.1c-0.8,1.7-2,3.6-2.5,4.2c-1,1-1,1,0.2,1.4C166.9,85.7,168.7,86.8,170.2,88z M17.9,98.3l3.5-3.4l3.5-3.4L22.5,88  c-1.3-1.9-2.4-3.7-2.4-4.1c0.1-1-0.6-0.6-4.2,2.9l-3.6,3.4l2.8,4.1L17.9,98.3z M179.9,83.9c-0.1,0.3-1.1,2.2-2.4,4.1l-2.4,3.4  l3.5,3.4l3.5,3.4l2.8-4.1l2.8-4l-3.5-3.3C180.5,83.3,179.9,82.9,179.9,83.9z M19.6,99.9c0,0.6,6,6.4,6.6,6.4c0.3,0,1.9-1.4,3.5-3.2  l3-3.2l-3-3.2c-1.6-1.8-3.2-3.2-3.4-3.2c-0.3,0-1.9,1.4-3.6,3C21,98.2,19.6,99.7,19.6,99.9z M180.4,100c0-0.6-6-6.3-6.6-6.3  c-0.3,0-1.9,1.4-3.5,3.2l-2.9,3.2l3,3.2c1.6,1.8,3.2,3.2,3.5,3.2C174.4,106.4,180.4,100.6,180.4,100z M20.1,116.2  c0-0.3,1.1-2.2,2.4-4.1l2.4-3.5l-3.5-3.4l-3.5-3.4l-2.8,4.1l-2.8,4l3.5,3.3C19.5,116.6,20.1,117.1,20.1,116.2z M185,105.8l-2.8-4.1  l-3.5,3.4l-3.5,3.4l2.4,3.4c1.3,1.9,2.4,3.7,2.4,4.1c0,1,0.6,0.6,4.4-2.9l3.5-3.3L185,105.8z M21.6,117.7c0,0.4,3.6,2.9,6.2,4.3  l2.1,1l1.5-3c0.8-1.7,2-3.6,2.5-4.2c1-1,1-1-0.2-1.4c-0.6-0.2-2.4-1.3-3.9-2.5c-1.5-1.2-2.9-2.2-3-2.2c-0.2,0-1.4,1.7-2.7,3.8  C22.7,115.7,21.6,117.5,21.6,117.7z M168.6,120l1.6,3.1l2.8-1.5c1.5-0.8,3.4-2,4.3-2.7l1.4-1.2l-2.4-3.8c-1.4-2.1-2.7-3.9-2.9-4  c-0.3-0.1-1.6,0.8-3,1.9c-1.3,1.1-3.1,2.2-3.8,2.5c-1.4,0.5-1.4,0.5-0.4,1.6C166.6,116.4,167.7,118.2,168.6,120z M28,126.7  c1.2-0.7,0.1-2.1-3.4-4.1c-2.1-1.2-3.9-2.2-4.1-2.4c-0.2-0.1-1.1,1.9-2.1,4.4c-1,2.5-1.7,4.6-1.6,4.7c0.1,0.1,1.4,0.9,3,1.8  c1.6,0.9,3.5,2.1,4.2,2.5l1.2,0.8l1.2-3.7C27.1,128.6,27.9,126.8,28,126.7z M179.5,120.1c-0.2,0-2.1,1.1-4.1,2.3  c-3.5,2.1-4.6,3.5-3.4,4.2c0.2,0.1,0.9,1.9,1.6,3.9l1.2,3.7l1.2-0.8c0.7-0.4,2.6-1.6,4.2-2.5c1.6-0.9,3-1.7,3-1.8  C183.4,129,179.8,120.1,179.5,120.1z M38.7,131c0.9-2,0.9-2.1-0.1-2.1c-0.5,0-2-0.5-3.3-1.2c-3.3-1.7-4.2-1.9-4.9-1.2  c-0.5,0.7-3,7.4-3,8.2c0,0.6,8.1,3.1,9,2.7c0.4-0.1,0.9-1.2,1.1-2.4C37.7,134,38.3,132.2,38.7,131z M172.6,134.8  c0-0.8-2.5-7.6-3-8.2c-0.7-0.9-0.7-0.9-4.3,0.8c-1.7,0.8-3.5,1.5-4,1.5c-0.9,0-0.9,0.1,0,2.1c0.5,1.2,1,3,1.2,4.2  c0.2,1.2,0.7,2.2,1.1,2.4C164.5,137.9,172.6,135.4,172.6,134.8z M33.5,139.4c-1.4-0.3-3.4-1-4.4-1.4c-1-0.4-2-0.7-2.1-0.7  c-0.2,0-0.7,2.1-1,4.7c-0.3,2.6-0.5,4.8-0.3,5c0.1,0.1,2.2,0.8,4.6,1.6l4.3,1.3l0.5-4c0.3-2.2,0.6-4.4,0.7-4.9  C36,140.2,35.6,140,33.5,139.4z M172.9,137.3c-0.3,0-1.3,0.3-2.2,0.7c-0.9,0.4-2.7,1-4.2,1.4c-2,0.5-2.5,0.8-2.3,1.6  c0.1,0.5,0.4,2.7,0.7,4.9l0.5,4l4.3-1.3c2.4-0.8,4.5-1.5,4.6-1.6C174.8,146.4,173.4,137.2,172.9,137.3z M46,141.7  c-0.9,0-2.6-0.2-3.8-0.5c-3.3-0.7-3.9-0.7-4.2,0.5c-0.5,2.3-1.1,8-0.8,8.3c0.5,0.6,8.1,1.3,9,0.8c0.7-0.3,0.8-1.1,0.8-4.1  c0-2,0.1-3.9,0.3-4.3C47.6,142,47.2,141.7,46,141.7z M152.9,147.1c0,2.7,0.1,3.4,0.9,3.7c0.9,0.5,8.4-0.2,9-0.8  c0.3-0.3-0.2-6-0.8-8.3c-0.3-1.2-1.2-1.3-4.2-0.5c-0.9,0.2-2.5,0.4-3.6,0.5c-1.7,0.1-1.9,0.2-1.6,1.1  C152.8,143.4,152.9,145.3,152.9,147.1z M46.8,157.3l-0.3-3.8l-3.7-0.3c-2.1-0.1-4.2-0.4-4.8-0.6c-1.1-0.3-1.1-0.2-0.8,4.3  c0.1,2.5,0.5,4.8,0.8,5.1s2.6,0.7,5.1,0.8c4.6,0.3,4.6,0.3,4.3-0.8C47.3,161.5,47,159.3,46.8,157.3z M50.8,163  c0.5-0.1,2.3-0.3,4.1-0.5c4.7-0.4,4.7-0.5,3.9-4.5c-0.4-1.9-0.6-3.9-0.6-4.5c0-0.6-0.1-1-0.5-1c-0.3,0-2.3,0.2-4.3,0.2  c-4.7,0.2-4.8,0.5-4.3,5.5C49.6,162.8,49.8,163.4,50.8,163z M145.9,152.8c-4.1-0.2-4.2-0.1-4.2,0.8c0.1,0.6-0.2,2.5-0.6,4.4  c-0.5,2.8-0.5,3.4,0.1,3.8s3.8,0.8,8,1.1c1,0.1,1.3-1,1.9-6.2C151.4,153.4,151,153.1,145.9,152.8z M162.6,152.5  c-0.4,0.1-2.5,0.3-4.8,0.6l-4.2,0.4l-0.3,3.8c-0.2,2.1-0.5,4.2-0.6,4.8c-0.3,1.1-0.2,1.1,4.3,0.8c2.5-0.1,4.8-0.5,5.1-0.8  C162.9,161.3,163.4,152.4,162.6,152.5z M72.8,165.8c-0.7-1.6-1.5-3.4-1.7-4.2c-0.3-1.3-0.3-1.3-1.5-0.7c-0.7,0.4-2.5,1-4.1,1.3  c-1.7,0.3-3,0.9-3.1,1.3c-0.3,0.8,2.2,8.9,2.7,8.9c1,0,7.9-2.6,8.4-3.2C74,168.8,73.8,168,72.8,165.8z M137.6,163.6  c-0.1-0.4-1.2-0.9-2.4-1.1c-1.2-0.2-3-0.7-4.2-1.2c-2.1-0.9-2.1-0.9-2.1-0.1c0,0.5-0.7,2.4-1.5,4.2c-1.2,2.5-1.4,3.4-0.9,4  s7.4,3.2,8.4,3.2C135.4,172.5,138,164.4,137.6,163.6z M58.3,164.2c-0.7,0.2-2.8,0.5-4.7,0.7l-3.4,0.3l1.4,4.4  c0.7,2.4,1.5,4.5,1.6,4.7c0.3,0.3,9.1-0.9,9.3-1.3c0.1-0.2-2.1-7.5-2.7-8.9C59.6,164,59,164,58.3,164.2z M141.7,164.2  c-1.3-0.4-1.4-0.3-2.8,4.1c-0.8,2.5-1.4,4.6-1.3,4.8c0.2,0.4,9,1.6,9.3,1.3c0.1-0.1,0.9-2.2,1.6-4.7l1.4-4.4l-3.4-0.3  C144.5,164.7,142.3,164.4,141.7,164.2z M90,173.5c0.1-0.2-0.5-1.5-1.5-2.7c-1-1.2-2.2-3-2.7-3.9c-0.8-1.6-0.9-1.7-1.5-0.9  c-0.4,0.4-2.2,1.6-4,2.5l-3.4,1.7l1.6,2.9c0.9,1.6,2.1,3.5,2.7,4.2l1,1.3l3.7-2.4C88,174.9,89.8,173.7,90,173.5z M123.1,170.1  l-3.1-1.6c-1.7-0.8-3.6-2-4.2-2.5c-1.1-1-1.1-1-1.4,0.2c-0.2,0.6-1.4,2.4-2.5,4c-1.2,1.5-2.1,3-1.9,3.2c0.1,0.3,2,1.5,4,2.8l3.7,2.4  l1-1.3c0.6-0.7,1.8-2.6,2.7-4.2L123.1,170.1z M106.3,173.8c0-0.4-6.6-7-6.6-6.6c0,0-1.3,1.4-3.1,3c-1.7,1.7-3,3.2-3,3.5  c0,0.6,5.8,6.6,6.4,6.6C100.5,180.4,106.3,174.3,106.3,173.8z M74.6,171.6c-0.4,0-1.3,0.3-2,0.6c-0.7,0.4-2.5,1.1-4,1.6l-2.8,0.9  l0.8,1.2c0.4,0.7,1.6,2.6,2.5,4.2c0.9,1.6,1.7,3,1.8,3c0.1,0.1,8.7-3.2,9-3.5C80.2,179.3,75.2,171.6,74.6,171.6z M122.5,175.3  c-1.2,2.1-2.2,3.9-2.4,4.1c-0.1,0.2,1.7,1,3.9,1.9c2.2,0.9,4.3,1.7,4.6,1.8c0.3,0.1,1.1-0.9,1.9-2.4c0.8-1.4,1.9-3.4,2.5-4.3  l1.1-1.7l-3.8-1.4C124.5,171.2,125,171,122.5,175.3z M91.4,175.2l-3.4,2.3c-1.9,1.3-3.7,2.4-4.1,2.4c-1,0-0.6,0.6,2.9,4.4l3.3,3.5  l4.1-2.8l4.1-2.8l-3.5-3.5L91.4,175.2z M116.1,179.9c-0.3,0-2.2-1.1-4.1-2.4l-3.5-2.4l-6.9,6.9l4.1,2.8l4.1,2.8l3.3-3.5  C116.7,180.5,117.1,179.9,116.1,179.9z"/>
<g transform="translate(30 30) scale(0.7)"><path d="m143.24 40c-0.56687 0.01534-1.2482 0.69666-2.0449 2.0449-3.9222 6.4553-7.3946 12.258-10.418 17.406-3.0234 5.1479-6.0056 10.173-8.9473 15.076-2.86 4.8211-5.9248 9.7639-9.1934 14.83-3.1868 4.9845-6.9446 10.622-11.275 16.914-0.81713 0.572-2.0435 1.0621-3.6777 1.4707-1.5525 0.32685-3.147 0.69494-4.7812 1.1035-1.6343 0.32686-3.1047 0.73628-4.4121 1.2266-1.3074 0.40857-2.083 1.0208-2.3281 1.8379 0.16344 0.24514 0.61224 0.61322 1.3477 1.1035 0.73542 0.49028 1.5129 1.0218 2.3301 1.5938 0.89884 0.572 1.6744 1.1429 2.3281 1.7148 0.6537 0.49027 0.98047 0.85838 0.98047 1.1035 0 0.89885-0.9803 2.6961-2.9414 5.3926-1.8794 2.6965-4.3321 5.7201-7.3555 9.0703-2.9417 3.3502-6.29 6.7006-10.049 10.051-3.6771 3.4319-7.3148 6.2508-10.91 8.457-3.5954 2.288-6.9457 3.719-10.051 4.291-3.1051 0.57199-5.5145-0.32757-7.2305-2.6973-0.89885 0-1.3496 0.24604-1.3496 0.73632-0.08167 0.49028 0.04227 1.0612 0.36914 1.7148 0.32685 0.65371 0.77567 1.2679 1.3476 1.8398 0.49029 0.65369 0.85838 1.0612 1.1035 1.2246 2.7782 1.8794 5.6384 2.6963 8.5801 2.4512 2.86-0.16343 5.7201-1.1024 8.5801-2.8184 2.8599-1.716 5.7182-3.9639 8.5781-6.7422 2.86-2.7782 5.6807-5.8018 8.459-9.0703 2.7782-3.2685 5.4731-6.6188 8.0879-10.051 2.6965-3.432 5.2713-6.5776 7.7227-9.4375 2.5331-2.9417 4.9031-5.4337 7.1094-7.4766 2.288-2.0428 4.4533-3.3499 6.4961-3.9219 0.98057-0.24513 2.5337-0.65456 4.6582-1.2266 2.2062-0.572 4.4936-1.1428 6.8633-1.7148 2.3697-0.57199 4.535-1.1035 6.4961-1.5937 2.0428-0.49028 3.4325-0.81706 4.168-0.98047h0.85742c0.40858-0.0817 0.81801-0.12306 1.2266-0.12306 0.49028 0 0.89777 0.0413 1.2246 0.12306h0.73633c1.3074 0.57199 2.329 1.8377 3.0644 3.7988 0.81714 1.8794 1.51 4.1274 2.082 6.7422 0.65369 2.5331 1.3072 5.1886 1.9609 7.9668 0.73543 2.6965 1.635 5.1079 2.6973 7.2324 1.144 2.0428 2.575 3.5546 4.291 4.5352 1.7977 1.0623 4.0437 1.143 6.7402 0.24415-3.2685-2.86-5.7193-5.4741-7.3535-7.8438-1.5525-2.4514-2.6568-4.9435-3.3105-7.4766-0.65372-2.6148-1.0612-5.4337-1.2246-8.457-0.0817-3.1051-0.28643-6.7428-0.61328-10.91-0.0817-0.73542-0.0817-2.3279 0-4.7793 0.16341-2.5331 0.3268-5.5153 0.49024-8.9473 0.24513-3.4319 0.44985-7.1917 0.61327-11.277 0.24515-4.0857 0.40854-8.0895 0.49024-12.012 0.0817-3.9222 0.0817-7.558 0-10.908-0.0817-3.4319-0.28642-6.2508-0.61329-8.457-0.32685-2.2062-0.81699-3.596-1.4707-4.168-0.16342-0.143-0.34032-0.21214-0.5293-0.20703zm-1.6602 15.566c0.12129 0.0052 0.2392 0.03295 0.35156 0.08402-0.0817 1.4708-0.24509 3.5554-0.49023 6.252-0.16342 2.6148-0.40947 5.475-0.73633 8.5801-0.32685 3.1051-0.69493 6.292-1.1035 9.5605-0.32685 3.1868-0.65361 6.1277-0.98047 8.8242-0.32685 2.6148-0.61228 4.7801-0.85742 6.4961l-0.36719 2.5742c-0.73541 0.73542-2.0425 1.4303-3.9219 2.084-1.8794 0.572-3.9226 1.1035-6.1289 1.5938-2.2062 0.40859-4.4129 0.77471-6.6191 1.1016-2.2062 0.32686-4.0448 0.61423-5.5156 0.85937-0.24514 0.0817-0.73529 0.1211-1.4707 0.1211-0.65369 0-1.0631-0.0394-1.2266-0.1211v-1.4707c4.4942-6.2102 8.376-12.177 11.645-17.896 3.3502-5.8016 6.1691-10.866 8.457-15.197 2.3697-4.3308 4.2909-7.7224 5.7617-10.174 1.287-2.2165 2.3541-3.3072 3.2031-3.2715z" fill="#3c1740"/></g></svg>
