<?xml version="1.0" encoding="utf-8"?>
<!-- Generator: Adobe Illustrator 21.1.0, SVG Export Plug-In . SVG Version: 6.00 Build 0)  -->
<svg xmlns="http://www.w3.org/2000/svg" xmlns:xlink="http://www.w3.org/1999/xlink" version="1.1" id="Layer_1" x="0px" y="0px" viewBox="0 0 200 200" enable-background="new 0 0 200 200" xml:space="preserve">
<path d="M100-51.3C16.4-51.3-51.3,16.4-51.3,100S16.4,251.3,100,251.3S251.3,183.6,251.3,100S183.6-51.3,100-51.3z M238.6,119.5  l-79.5-9.1l77.9,18.7l-78.7-14.6l76.4,24.1l-77.5-20l74.5,29.3l-75.9-25.4l72.3,34.5l-74-30.6l69.7,39.4L152,130l66.8,44.2l-69-40.6  l63.5,48.7l-66-45.4l60,53.1l-62.7-49.8l56.1,57.1l-59-54.1l52,60.9L138.6,146l47.6,64.4l-50.9-61.8l43,67.5l-46.5-65.2l38.2,70.4  L128.2,153l33.2,72.9l-37-71l28,75l-31.9-73.4l22.7,76.8l-26.7-75.5l17.3,78.2l-21.4-77.2l11.8,79.2l-16-78.5l6.3,79.8l-10.4-79.4  l0.7,80.1L100,160l-4.9,79.9l0.7-80.1l-10.4,79.4l6.3-79.8l-16,78.5l11.8-79.2l-21.4,77.2l17.3-78.2l-26.7,75.5l22.7-76.8  l-31.9,73.4l28-75l-37,71L71.8,153L30,221.2l38.2-70.4l-46.5,65.2l43-67.5l-50.9,61.8L61.4,146L6.3,204l52-60.9l-59,54.1l56.1-57.1  L-7.2,190l60-53.1l-66,45.4l63.5-48.7l-69,40.6L48,130l-71.7,35.7l69.7-39.4l-74,30.6l72.3-34.5l-75.9,25.4l74.5-29.3l-77.5,20  l76.4-24.1l-78.7,14.6l77.9-18.7l-79.5,9.1l79-13.2l-80,3.5l79.7-7.7l-80-2.1l80-2.1l-79.7-7.7l80,3.5l-79-13.2l79.5,9.1l-77.9-18.7  l78.7,14.6l-76.4-24.1l77.5,20l-74.5-29.3l75.9,25.4l-72.3-34.5l74,30.6l-69.7-39.4L48,70l-66.8-44.2l69,40.6l-63.5-48.7l66,45.4  L-7.2,10l62.7,49.8L-0.7,2.7l59,54.1L6.3-4L61.4,54L13.8-10.3l50.9,61.8l-43-67.5l46.5,65.2L30-21.2L71.8,47L38.6-25.8l37,71l-28-75  l31.9,73.4L56.7-33.1l26.7,75.5L66.1-35.8l21.4,77.2L75.7-37.9l16,78.5l-6.3-79.8l10.4,79.4l-0.7-80.1L100,40l4.9-79.9l-0.7,80.1  l10.4-79.4l-6.3,79.8l16-78.5l-11.8,79.2l21.4-77.2l-17.3,78.2l26.7-75.5l-22.7,76.8l31.9-73.4l-28,75l37-71L128.2,47L170-21.2  l-38.2,70.4l46.5-65.2l-43,67.5l50.9-61.8L138.6,54L193.7-4l-52,60.9l59-54.1l-56.1,57.1L207.2,10l-60,53.1l66-45.4l-63.5,48.7  l69-40.6L152,70l71.7-35.7l-69.7,39.4l74-30.6l-72.3,34.5l75.9-25.4l-74.5,29.3l77.5-20l-76.4,24.1l78.7-14.6l-77.9,18.7l79.5-9.1  l-79,13.2l80-3.5L160,97.9l80,2.1l-80,2.1l79.7,7.7l-80-3.5L238.6,119.5z" fill="#f9a01e"/>
<g transform="translate(30 30) scale(0.7)">
  
  <defs id="defs134315"/>
  <linearGradient id="3d_gradient2-logo-52aa3ec2-e1d7-476f-82be-95c7e152bd00" x1="30%" y1="120%" x2="-10%" y2="30%" spreadMethod="pad">
    <stop offset="0%" stop-color="#ffffff" stop-opacity="1" id="stop134292"/>
    <stop offset="100%" stop-color="#000000" stop-opacity="1" id="stop134294"/>
  </linearGradient>
  <linearGradient id="3d_gradient3-logo-52aa3ec2-e1d7-476f-82be-95c7e152bd00" x1="30%" y1="120%" x2="-10%" y2="30%" spreadMethod="pad" gradientTransform="rotate(-30)">
    <stop offset="0%" stop-color="#ffffff" stop-opacity="1" id="stop134297"/>
    <stop offset="50%" stop-color="#cccccc" stop-opacity="1" id="stop134299"/>
    <stop offset="100%" stop-color="#000000" stop-opacity="1" id="stop134301"/>
  </linearGradient>
  <path id="path134348" style="font-style:normal;font-weight:normal;font-size:72px;line-height:1;font-family:'Nothing You Could Do';font-variant-ligatures:none;text-align:center;text-anchor:middle;fill:#f9a01e;stroke:#f9a01e;stroke-width:0;stroke-linejoin:miter;stroke-miterlimit:2" d="m 46.08166,157.50618 q -0.367713,-0.24514 -1.103139,-1.22569 -0.857974,-0.85799 -1.348253,-1.83855 -0.490278,-0.98055 -0.367713,-1.71597 0,-0.73542 1.34827,-0.73542 2.573957,3.55452 7.231592,2.69653 4.657652,-0.85799 10.050713,-4.28993 5.393062,-3.30938 10.908688,-8.4573 5.638209,-5.02536 10.050714,-10.05071 4.535069,-5.02535 7.354174,-9.07015 2.94167,-4.04479 2.94167,-5.39306 0,-0.36771 -0.980557,-1.10313 -0.980556,-0.85798 -2.328826,-1.71597 -1.225705,-0.85799 -2.328826,-1.5934 -1.103122,-0.73542 -1.34827,-1.10313 0.367713,-1.2257 2.328826,-1.83854 1.961113,-0.73542 4.412505,-1.2257 2.451391,-0.61285 4.780218,-1.10313 2.451394,-0.61284 3.677074,-1.47083 6.4962,-9.437858 11.2764,-16.914601 4.90279,-7.599313 9.19273,-14.830919 4.4125,-7.354174 8.94757,-15.076056 4.53509,-7.721884 10.41843,-17.40488 1.5934,-2.69653 2.57395,-1.838544 0.98056,0.857988 1.47084,4.167365 0.49028,3.30938 0.61284,8.457302 0.12255,5.025351 0,10.908691 -0.12254,5.883339 -0.49028,12.011818 -0.24513,6.128479 -0.61284,11.276401 -0.24515,5.147922 -0.49028,8.947579 -0.12254,3.677088 0,4.780214 0.49028,6.25105 0.61285,10.90869 0.24514,4.53507 1.2257,8.4573 0.98056,3.79966 3.30937,7.47675 2.45139,3.55451 7.35417,7.84445 -4.04479,1.34826 -6.74131,-0.24514 -2.57398,-1.47084 -4.28994,-4.53508 -1.5934,-3.1868 -2.69654,-7.2316 -0.98056,-4.16737 -1.96111,-7.96702 -0.85798,-3.92223 -2.08368,-6.74133 -1.10312,-2.94167 -3.06424,-3.79966 -0.12255,0 -0.73542,0 -0.49028,-0.12256 -1.22569,-0.12256 -0.61284,0 -1.22571,0.12256 -0.61284,0 -0.85797,0 -1.10314,0.24514 -4.16737,0.98056 -2.94167,0.73542 -6.49619,1.5934 -3.55451,0.85799 -6.86389,1.71598 -3.18682,0.85799 -4.65766,1.22569 -3.06423,0.85799 -6.49618,3.92223 -3.309381,3.06424 -7.109025,7.47675 -3.677095,4.28993 -7.721887,9.43785 -3.922226,5.14792 -8.089601,10.05071 -4.167356,4.90278 -8.457296,9.07015 -4.289939,4.16736 -8.579861,6.74132 -4.289939,2.57396 -8.579879,2.8191 -4.412504,0.36771 -8.579861,-2.45139 z m 66.4327,-53.93061 q 0.24515,0.12257 1.2257,0.12257 1.10313,0 1.47084,-0.12257 2.20624,-0.36771 5.51563,-0.85799 3.30938,-0.49028 6.61874,-1.10312 3.30939,-0.73542 6.12849,-1.59341 2.81911,-0.980555 3.92223,-2.08368 0,0 0.36771,-2.573962 0.3677,-2.573961 0.85797,-6.496187 0.49028,-4.044797 0.98056,-8.825009 0.61286,-4.902783 1.10314,-9.560427 0.49028,-4.657644 0.73541,-8.57987 0.36771,-4.044797 0.49028,-6.251049 -1.34827,-0.612847 -3.55452,3.186809 -2.20626,3.677087 -5.76077,10.173275 -3.43195,6.496187 -8.4573,15.198627 -4.90278,8.57987 -11.64411,17.895153 z" stroke-miterlimit="2"/>
</g></svg>
