<?xml version="1.0" encoding="utf-8"?>
<!-- Generator: Adobe Illustrator 21.1.0, SVG Export Plug-In . SVG Version: 6.00 Build 0)  -->
<svg xmlns="http://www.w3.org/2000/svg" xmlns:xlink="http://www.w3.org/1999/xlink" version="1.1" id="Layer_1" x="0px" y="0px" viewBox="0 0 200 200" enable-background="new 0 0 200 200" xml:space="preserve">
<rect width="200" height="200" fill="#f9a01e"/><path fill="#3c1740" d="M114,10.2c-1.4-0.7-1.5-0.7-7.4-0.8c-3.3,0-6.2-0.1-6.4-0.2c-0.2-0.1-1.3,0-2.5,0.1c-1.1,0.1-4,0.2-6.3,0.2  c-4.1-0.1-4.3,0-5.6,0.7c-2,1-5.2,3.7-6.8,5.6c-1.7,2-3.7,4.7-3.7,5.2c0,0.2,0.8,0.7,1.9,1.3c1,0.5,2.9,1.8,4.3,2.9  c8.9,6.6,14.5,15.1,17.3,25.9c0.5,2,1,3.6,1.1,3.6c0.1,0,0.6-1.6,1.1-3.6c2.8-10.8,8.4-19.3,17.3-25.9c1.4-1,3.3-2.3,4.3-2.9  c1-0.5,1.8-1.1,1.8-1.3c0-0.4-2-3.2-3.7-5.2C119.2,13.8,115.9,11.2,114,10.2z M33.6,50.6c0,0,0.7-0.1,1.6-0.2  c3.9-0.5,11.6-0.2,15.5,0.7c7.6,1.8,13.2,4.6,19.2,9.5c1.7,1.3,3.1,2.5,3.3,2.7c0.2,0.1-0.4-1.4-1.2-3.5c-2.4-6.2-3.4-11.1-3.4-17.2  c0-3.7,0.2-5.4,0.8-9.3c0.3-2,2.1-7.3,3-9.4c1.1-2.3,1.1-2.3-0.4-2.9c-4-1.6-10.3-2.5-13.8-1.8c-1.6,0.3-2,0.5-5.4,3.2  c-1.2,0.9-3.2,2.3-4.3,3c-1.2,0.7-2.6,1.7-3.2,2.3c-1.7,1.5-3.3,2.8-6.1,4.6c-2.5,1.6-2.6,1.8-3.5,3.7c-1.8,3.7-2.6,8.1-2.4,12.7  C33.5,49.7,33.5,50.6,33.6,50.6z M131.2,37.3c0.1,0.7,0.2,3,0.2,5.2c0,6.1-1,11.1-3.4,17.3c-0.8,2.1-1.3,3.7-1.2,3.5  c0.2-0.1,1.7-1.3,3.3-2.7c6.1-4.9,11.6-7.7,19.2-9.5c3.9-0.9,11.6-1.3,15.5-0.7c0.8,0.1,1.5,0.2,1.6,0.2c0.2-0.2,0.2-4.5,0-6.5  c-0.3-3-0.9-5.3-2.1-8.1c-1-2.2-1-2.2-3.8-4c-1.5-1-3.6-2.5-4.6-3.4c-1-0.9-2.4-1.9-3-2.4c-3.3-2-5.3-3.4-7.1-4.9  c-1.1-0.9-2.5-1.8-3.1-2c-1.9-0.5-6.5-0.5-9.3,0.1c-2.4,0.5-6.4,1.7-6.7,2.1c-0.1,0.1,0.2,1,0.7,2.1  C129.1,27.2,130.4,32.1,131.2,37.3z M16.2,98.1l1,1.2l1.6-1.6c2.3-2.2,6.9-5.4,10.3-7.1c7.5-3.8,14.9-5.2,23.5-4.7  c2.2,0.1,4.1,0.2,4.1,0.1s-1.4-1.1-3.2-2.2C45.8,78.9,40.5,73,36.6,65c-1.5-3.1-3.7-9.2-3.7-10.4c0-0.7-0.5-2.5-0.8-2.5  c-0.1,0-1.3,0.4-2.6,0.8c-4.6,1.6-7.5,3.2-10.3,5.6c-0.8,0.7-1.5,1.5-1.7,1.8c-0.1,0.3-0.8,2.1-1.3,4.1s-1.4,4.4-1.9,5.5  c-0.5,1.1-1.1,3.2-1.5,4.7c-0.4,1.6-1.2,4.1-1.8,5.7c-1.2,3.3-1.3,4.1-0.6,6.9C11.5,90.8,13.6,94.8,16.2,98.1z M146.4,83.8  c-1.8,1.2-3.3,2.2-3.2,2.2s1.9,0,4.1-0.1c8.6-0.6,16.1,0.9,23.5,4.7c3.4,1.7,8,4.9,10.3,7.1l1.6,1.6l1-1.2c2.6-3.2,4.8-7.3,5.7-10.8  c0.7-2.9,0.7-3.7-0.6-6.9c-0.6-1.6-1.4-4.2-1.8-5.7c-0.4-1.6-1-3.7-1.5-4.7c-0.5-1-1.3-3.5-1.9-5.5c-1.2-4.2-1.3-4.3-2.6-5.6  c-2.6-2.4-5.3-4-9.3-5.5c-3.4-1.2-4.1-1.4-4.2-1c-0.1,0.2-0.2,1.1-0.4,2.1c-0.5,2.8-2.3,8-4,11.2C159.2,73.3,153.8,79.1,146.4,83.8z   M53.6,116.3c1.8-1.2,3.3-2.2,3.2-2.2s-1.9,0-4.1,0.1c-8.6,0.6-16.1-0.9-23.5-4.7c-3.4-1.7-8-4.9-10.3-7.1l-1.6-1.6l-1,1.2  c-2.6,3.2-4.8,7.3-5.7,10.8c-0.7,2.9-0.7,3.7,0.6,6.9c0.6,1.6,1.4,4.2,1.8,5.7c0.4,1.6,1,3.7,1.5,4.7c0.5,1,1.3,3.5,1.9,5.5  s1.2,3.8,1.3,4.1c0.4,0.7,2.8,2.8,4.5,4c3,2,9.8,4.6,10.2,3.9c0.1-0.2,0.4-1.1,0.5-2.1c0.5-2.9,2.3-8,4-11.2  C40.8,126.8,46.1,121,53.6,116.3z M188,109c-0.9-2-3.3-5.8-4.6-7.2l-0.8-0.9l-1.5,1.5c-3.2,3.2-10.2,7.5-15,9.2  c-6.5,2.3-12,3.1-18.9,2.6c-2.2-0.1-4.1-0.2-4.1-0.1s1.4,1.1,3.2,2.2c7.5,4.8,12.8,10.5,16.7,18.2c1.7,3.3,3.5,8.4,4,11.3  c0.2,1,0.4,2,0.5,2.1c0.2,0.3,4.3-1.1,6.9-2.2c3-1.3,7.1-4.4,7.8-5.8c0.1-0.3,0.8-2.1,1.3-4.1c0.6-2,1.4-4.4,1.9-5.5  c0.5-1.1,1.1-3.2,1.5-4.7c0.4-1.6,1.2-4.1,1.8-5.7c0.6-1.6,1.1-3.4,1.1-3.9C189.9,114.4,189,111.1,188,109z M73.5,136.6  c0,0-1.5,1.2-3.3,2.7c-6,4.9-11,7.4-18.1,9.3c-4.4,1.2-12.6,1.7-16.9,1.1c-0.8-0.1-1.5-0.2-1.6-0.2c-0.2,0.2-0.2,4.5,0,6.5  c0.3,3,0.9,5.3,2.1,8.1c1,2.2,1,2.2,3.8,4c1.5,1,3.6,2.5,4.6,3.4c1,0.9,2.4,1.9,3,2.4c3.3,2,5.3,3.4,7.1,4.9c1.1,0.9,2.5,1.8,3.1,2  c1.9,0.5,6.5,0.5,9.3-0.1c2.4-0.5,6.4-1.7,6.7-2.1c0.1-0.1-0.2-1.1-0.7-2.1c-2.6-5.6-4-12-4-19c0-6.1,1-11,3.4-17.2  C72.8,138.3,73.5,136.6,73.5,136.6z M164.8,149.7c-2.5,0.4-8.9,0.3-12-0.1c-8.4-1.2-15.8-4.4-22.8-10.1c-1.6-1.3-3.1-2.5-3.3-2.7  c-0.2-0.1,0.4,1.4,1.2,3.5c2.4,6.1,3.4,11.1,3.4,17.3c0,2.2-0.1,4.6-0.2,5.2c-0.7,5.2-2.1,10.1-3.8,13.7c-0.5,1-0.8,2-0.7,2.1  c0.4,0.4,4.4,1.6,6.7,2.1c2.7,0.6,7.4,0.6,9.3,0.1c0.6-0.2,2-1.1,3.1-2c1.9-1.5,3.8-2.9,7.1-4.9c0.6-0.4,2-1.5,3-2.4  c1-0.9,3.1-2.5,4.6-3.4c2.7-1.8,2.7-1.8,3.8-4c1.2-2.7,1.9-5,2.1-8.1c0.2-1.9,0.2-6.3,0-6.5C166.4,149.5,165.7,149.5,164.8,149.7z   M122.7,177.9c-1-0.5-3-1.8-4.3-2.9c-8.9-6.6-14.5-15.1-17.3-25.9c-0.5-2-1-3.6-1.1-3.6s-0.6,1.6-1.1,3.6  c-1.8,7.1-4.5,12.5-9.1,18.2c-3.1,3.8-8.5,8.4-12.5,10.6c-1,0.5-1.9,1.1-1.9,1.3c0,0.4,2,3.2,3.7,5.2c1.7,1.9,4.9,4.6,6.8,5.5  c1.4,0.7,1.6,0.7,7.5,0.8c7.4,0.1,5.7,0.1,13.1,0l6.2-0.1l1.6-0.9c3.3-1.9,6.4-4.8,9-8.6c0.6-0.9,1.1-1.7,1.1-1.9  C124.5,179.1,123.7,178.5,122.7,177.9z"/>
<g transform="translate(30 30) scale(0.7)"><path d="m143.24 40c-0.56687 0.01534-1.2482 0.69666-2.0449 2.0449-3.9222 6.4553-7.3946 12.258-10.418 17.406-3.0234 5.1479-6.0056 10.173-8.9473 15.076-2.86 4.8211-5.9248 9.7639-9.1934 14.83-3.1868 4.9845-6.9446 10.622-11.275 16.914-0.81713 0.572-2.0435 1.0621-3.6777 1.4707-1.5525 0.32685-3.147 0.69494-4.7812 1.1035-1.6343 0.32686-3.1047 0.73628-4.4121 1.2266-1.3074 0.40857-2.083 1.0208-2.3281 1.8379 0.16344 0.24514 0.61224 0.61322 1.3477 1.1035 0.73542 0.49028 1.5129 1.0218 2.3301 1.5938 0.89884 0.572 1.6744 1.1429 2.3281 1.7148 0.6537 0.49027 0.98047 0.85838 0.98047 1.1035 0 0.89885-0.9803 2.6961-2.9414 5.3926-1.8794 2.6965-4.3321 5.7201-7.3555 9.0703-2.9417 3.3502-6.29 6.7006-10.049 10.051-3.6771 3.4319-7.3148 6.2508-10.91 8.457-3.5954 2.288-6.9457 3.719-10.051 4.291-3.1051 0.57199-5.5145-0.32757-7.2305-2.6973-0.89885 0-1.3496 0.24604-1.3496 0.73632-0.08167 0.49028 0.04227 1.0612 0.36914 1.7148 0.32685 0.65371 0.77567 1.2679 1.3476 1.8398 0.49029 0.65369 0.85838 1.0612 1.1035 1.2246 2.7782 1.8794 5.6384 2.6963 8.5801 2.4512 2.86-0.16343 5.7201-1.1024 8.5801-2.8184 2.8599-1.716 5.7182-3.9639 8.5781-6.7422 2.86-2.7782 5.6807-5.8018 8.459-9.0703 2.7782-3.2685 5.4731-6.6188 8.0879-10.051 2.6965-3.432 5.2713-6.5776 7.7227-9.4375 2.5331-2.9417 4.9031-5.4337 7.1094-7.4766 2.288-2.0428 4.4533-3.3499 6.4961-3.9219 0.98057-0.24513 2.5337-0.65456 4.6582-1.2266 2.2062-0.572 4.4936-1.1428 6.8633-1.7148 2.3697-0.57199 4.535-1.1035 6.4961-1.5937 2.0428-0.49028 3.4325-0.81706 4.168-0.98047h0.85742c0.40858-0.0817 0.81801-0.12306 1.2266-0.12306 0.49028 0 0.89777 0.0413 1.2246 0.12306h0.73633c1.3074 0.57199 2.329 1.8377 3.0644 3.7988 0.81714 1.8794 1.51 4.1274 2.082 6.7422 0.65369 2.5331 1.3072 5.1886 1.9609 7.9668 0.73543 2.6965 1.635 5.1079 2.6973 7.2324 1.144 2.0428 2.575 3.5546 4.291 4.5352 1.7977 1.0623 4.0437 1.143 6.7402 0.24415-3.2685-2.86-5.7193-5.4741-7.3535-7.8438-1.5525-2.4514-2.6568-4.9435-3.3105-7.4766-0.65372-2.6148-1.0612-5.4337-1.2246-8.457-0.0817-3.1051-0.28643-6.7428-0.61328-10.91-0.0817-0.73542-0.0817-2.3279 0-4.7793 0.16341-2.5331 0.3268-5.5153 0.49024-8.9473 0.24513-3.4319 0.44985-7.1917 0.61327-11.277 0.24515-4.0857 0.40854-8.0895 0.49024-12.012 0.0817-3.9222 0.0817-7.558 0-10.908-0.0817-3.4319-0.28642-6.2508-0.61329-8.457-0.32685-2.2062-0.81699-3.596-1.4707-4.168-0.16342-0.143-0.34032-0.21214-0.5293-0.20703zm-1.6602 15.566c0.12129 0.0052 0.2392 0.03295 0.35156 0.08402-0.0817 1.4708-0.24509 3.5554-0.49023 6.252-0.16342 2.6148-0.40947 5.475-0.73633 8.5801-0.32685 3.1051-0.69493 6.292-1.1035 9.5605-0.32685 3.1868-0.65361 6.1277-0.98047 8.8242-0.32685 2.6148-0.61228 4.7801-0.85742 6.4961l-0.36719 2.5742c-0.73541 0.73542-2.0425 1.4303-3.9219 2.084-1.8794 0.572-3.9226 1.1035-6.1289 1.5938-2.2062 0.40859-4.4129 0.77471-6.6191 1.1016-2.2062 0.32686-4.0448 0.61423-5.5156 0.85937-0.24514 0.0817-0.73529 0.1211-1.4707 0.1211-0.65369 0-1.0631-0.0394-1.2266-0.1211v-1.4707c4.4942-6.2102 8.376-12.177 11.645-17.896 3.3502-5.8016 6.1691-10.866 8.457-15.197 2.3697-4.3308 4.2909-7.7224 5.7617-10.174 1.287-2.2165 2.3541-3.3072 3.2031-3.2715z" fill="#3c1740"/></g></svg>
